<svg id="Layer_1" data-name="Layer 1" xmlns="http://www.w3.org/2000/svg" viewBox="0 0 180.14 125.22"><defs><style>.cls-1{fill:#220959;}.cls-2,.cls-3{fill:none;stroke-miterlimit:10;}.cls-2{stroke:#220959;stroke-width:2px;}.cls-3{stroke:#fff;stroke-width:3px;}.cls-4{fill:#efefef;}</style></defs><path class="cls-1" d="M136.85,0a33,33,0,0,1-33,33,33,33,0,0,1-33-33"/><path class="cls-1" d="M0,73.59a52.38,52.38,0,0,1,104.75,0M52.37,25.7a47.89,47.89,0,0,0,0,95.78"/><path class="cls-2" d="M18.23,74.28a33,33,0,0,1,66.05,0"/><path class="cls-2" d="M12.62,72.68a33,33,0,0,1,29-36.57"/><path class="cls-2" d="M89.8,67.85a33,33,0,0,1-46.71,46.7"/><path class="cls-2" d="M94.89,65a33,33,0,0,1,5.34,46.4"/><path class="cls-2" d="M119.83,80.81A33,33,0,0,1,179.24,52"/><path class="cls-2" d="M114.09,81.82a33,33,0,0,1,10.14-45.59"/><path class="cls-3" d="M51.26,41.26a32.93,32.93,0,0,1,25.1,11.57"/><circle class="cls-1" cx="39.27" cy="62.03" r="9.71"/><circle class="cls-1" cx="149.92" cy="67.94" r="28.57"/><path class="cls-1" d="M56,54.75a32.66,32.66,0,1,1-.22,65.32"/><path class="cls-4" d="M57.91,61.91C72,62,83.3,74,83.25,88.84s-11.47,26.81-25.52,26.77"/><path class="cls-4" d="M151.39,41.26c14,.05,25.39,12.11,25.34,26.94S165.25,95,151.21,95"/><rect class="cls-1" x="118.56" y="87.84" width="10.09" height="10.09" rx="2.94"/><rect class="cls-1" x="105.75" y="103.89" width="10.09" height="10.09" rx="2.94" transform="translate(101.57 -46.16) rotate(42.08)"/></svg>