<svg id="Layer_1" data-name="Layer 1" xmlns="http://www.w3.org/2000/svg" viewBox="0 0 110.48 104.1"><defs><style>.cls-1{fill:none;stroke:#220959;stroke-miterlimit:10;stroke-width:2px;}.cls-2{fill:#220959;}.cls-3{fill:#fff;}</style></defs><path class="cls-1" d="M66.7,99A26.5,26.5,0,1,1,79.38,47.57"/><path class="cls-1" d="M64.37,103.11A26.52,26.52,0,0,1,41.44,73.45"/><circle class="cls-2" cx="74.2" cy="73.88" r="22.93"/><path class="cls-3" d="M58.49,59.27c7.24-8.64,20.5-9.45,29.63-1.81S98.77,78.3,91.53,87"/><path class="cls-1" d="M12.11,38.57A33,33,0,0,1,17.44,85"/><path class="cls-1" d="M37.05,54.37A33,33,0,1,1,96.46,25.51"/><path class="cls-1" d="M31.31,55.38A33,33,0,0,1,41.44,9.79"/><rect class="cls-2" x="29.55" y="57.1" width="10.09" height="10.09" rx="2.94"/><rect class="cls-2" x="57.13" y="0.86" width="10.09" height="10.09" rx="2.94" transform="translate(19.99 -40.14) rotate(42.08)"/><rect class="cls-2" x="0.86" y="28.36" width="10.09" height="10.09" rx="2.94" transform="translate(23.91 4.65) rotate(42.08)"/><path class="cls-1" d="M103,82.13A33,33,0,1,0,43.56,53.27"/><path class="cls-1" d="M76.2,19.45a33,33,0,0,0-36,29.71"/><rect class="cls-2" x="100.4" y="84.87" width="10.09" height="10.09" rx="2.94" transform="translate(210.88 179.82) rotate(-180)"/><rect class="cls-2" x="72.81" y="28.63" width="10.09" height="10.09" rx="2.94" transform="translate(158.21 6.48) rotate(137.92)"/></svg>