<svg id="Layer_1" data-name="Layer 1" xmlns="http://www.w3.org/2000/svg" viewBox="0 0 85.34 94.95"><defs><style>.cls-1{fill:none;stroke:#220959;stroke-miterlimit:10;stroke-width:2px;}.cls-2{fill:#220959;}</style></defs><path class="cls-1" d="M11.91,54.37A33,33,0,1,1,71.32,25.51"/><path class="cls-1" d="M6.16,55.38A33,33,0,0,1,16.3,9.79"/><rect class="cls-2" x="4.4" y="57.1" width="10.09" height="10.09" rx="2.94"/><rect class="cls-2" x="31.99" y="0.86" width="10.09" height="10.09" rx="2.94" transform="translate(13.5 -23.29) rotate(42.08)"/><path class="cls-1" d="M77.83,82.13A33,33,0,1,0,18.42,53.27"/><path class="cls-2" d="M72.65,79.39a27.48,27.48,0,1,0-49.43-24"/><path class="cls-1" d="M51.06,19.45A33,33,0,0,0,15,49.16"/><rect class="cls-2" x="75.25" y="84.87" width="10.09" height="10.09" rx="2.94" transform="translate(160.59 179.82) rotate(-180)"/><rect class="cls-2" x="47.67" y="28.63" width="10.09" height="10.09" rx="2.94" transform="translate(114.4 23.33) rotate(137.92)"/></svg>