<svg id="Layer_1" data-name="Layer 1" xmlns="http://www.w3.org/2000/svg" xmlns:xlink="http://www.w3.org/1999/xlink" viewBox="0 0 137.99 145.57"><defs><style>.cls-1{fill:none;}.cls-2{clip-path:url(#clip-path);}</style><clipPath id="clip-path"><rect class="cls-1" width="137.98" height="145.57"/></clipPath></defs><g id="Group_246" data-name="Group 246"><g class="cls-2"><g id="Group_33" data-name="Group 33"><path id="Path_224" data-name="Path 224" d="M131.09,73.24c-.57-10.39-2.92-20.61-8-29.83A62.8,62.8,0,0,0,89.68,14.88a62.07,62.07,0,0,0-75.75,30.9c-9.13,18.39-9.28,41.69-2,60.72a62.7,62.7,0,0,0,6.06,12,60.73,60.73,0,0,0,30.67,23.78,63,63,0,0,0,54.94-7.13,63,63,0,0,0,27-45.27,106.76,106.76,0,0,0,.46-16.58m-7,7.6h0c-.59,30.88-25,55.74-55.1,55.74s-54.51-24.86-55.1-55.75h0c0-.2,0-.39,0-.59s0-.36,0-.55h0c.55-32.81,25-59.23,55.1-59.23s54.55,26.42,55.1,59.23h0c0,.19,0,.37,0,.55s0,.39,0,.59"/><path id="Path_225" data-name="Path 225" d="M.66,67.17A69.86,69.86,0,0,1,30.62,17a69.76,69.76,0,0,1,60.9-7.91,67.41,67.41,0,0,1,34,26.37,69.24,69.24,0,0,1,6.72,13.24,88.86,88.86,0,0,1,5.7,29,89.42,89.42,0,0,0-5.7-34.34,69.24,69.24,0,0,0-6.72-13.24,67.33,67.33,0,0,0-34-26.36,69.76,69.76,0,0,0-60.9,7.91,69.84,69.84,0,0,0-30,50.18A121.64,121.64,0,0,0,0,77.06c.08-3.31.3-6.61.63-9.89"/></g></g></g></svg>