<?xml version="1.0" encoding="utf-8"?>
<!-- Generator: Adobe Illustrator 26.0.1, SVG Export Plug-In . SVG Version: 6.00 Build 0)  -->
<svg version="1.1" id="Layer_1" xmlns="http://www.w3.org/2000/svg" xmlns:xlink="http://www.w3.org/1999/xlink" x="0px" y="0px"
	 viewBox="0 0 112.1 66.3" style="enable-background:new 0 0 112.1 66.3;" xml:space="preserve">
<style type="text/css">
	.st0{enable-background:new    ;}
	.st1{fill:#AE049A;}
	.st2{fill:#29BA97;}
	.st3{fill:#FF9758;}
	.st4{fill:none;}
</style>
<g class="st0">
	<path class="st1" d="M28.4,60.9c-2.2,0.2-3.4,0.3-3.6-1.4c-0.5-5.2-1.6-10.4-2.3-15.6c-0.2,0-0.2,0-0.3-0.1
		c-1.2-0.5-2.9,0.1-4.1,0.2c-1.7,0-3.5-0.5-5.2-0.4c-0.1,0.1-0.1,0.1-0.1,0.1c-0.9,4.9-1.3,9.9-1.4,14.9c0,1.7-1.9,2.2-3.2,2.6
		c-1.3,0.3-2.4-0.9-2.4-2.4c0-8.8,1.4-17.4,3.5-25.8c1.3-4.7,2.4-9.3,3.6-13.9c1-3.8,1.8-8.1,3.5-11.5c0.8-1.6,3.4-2.9,4.9-1.3
		c2.5,2.8,3.5,7.9,4.2,11.5c1,4.6,1.6,9.2,1.7,13.8c0.2,9,2,17.6,3.1,26.5C30.6,59.4,29.7,60.8,28.4,60.9z M21.9,38.3
		c-0.1-1.2-0.2-2.3-0.2-3.5c-0.1-4.6-0.3-9.1-1.2-13.6c-0.4-1.6-0.7-4.6-1.2-6.1c-0.3,1.2-0.6,2.5-0.9,3.7c-1.1,4.3-2.3,10-3.4,14.2
		c-0.4,1.7-0.8,3.4-1.2,5.1c1.9,0.1,3.7,0.4,5.6,0.3C20.4,38.2,21.1,38.2,21.9,38.3z"/>
	<path class="st1" d="M55.1,60.9c-1.5,0.9-2.8,0.5-3.3-1.5c-1.3-5-2.9-9.7-4-14.8c-0.5-2.1-0.9-4.3-2-6.1c-2.5-4.2-2.7-3.7-4.5-3.5
		c-0.2,3.6-0.6,7.2-0.4,10.8c0.2,4.3,1,8.6,0.7,12.8c-0.1,1.2,0,1.7-0.9,2c-1.7,0.7-4.9,0.3-4.8-1.9c0.6-6-1.3-11.9-0.6-18
		c0.8-6.1,0.1-12.3,0.2-18.5c0-3.9,0.6-8.2,0.1-12.1c-0.3-3.4,1.9-5.3,6.3-5.3c3.2,0,7.8,0.3,10.1,2.9c3.2,3.5,4.9,8.5,4.2,13.3
		c-0.3,2-1.1,4.9-1.9,6.8c-0.7,1.7-1.4,3.3-3,4.5c-0.7,0.5-2.1,0.9-2.9,1.2c1.3,1.7,3.2,3.8,3.9,5.7c0.9,2.8,1.3,5.6,2,8.4
		c0.8,3.5,2.3,7,3.1,10.4C57.7,59.2,56,60.4,55.1,60.9z M41.3,9.8c0.3,3.2,0,6.5-0.1,9.7c-0.1,3.4,0.1,6.8,0.2,10.1
		c0.6,0,1.7-0.4,2.4-0.2c2,0,3.9-0.3,4.7-1.7c1.5-2.4,2.4-6.8,2.1-9.6c-0.2-3.1-1.3-6.8-4.6-7.7c-1.4-0.4-2.4-0.3-3.8-0.5
		C41.8,9.9,41.6,9.8,41.3,9.8z"/>
	<path class="st1" d="M80.4,57.6c0.5,1.3-0.9,2.8-2.8,2.8c-3.4,0-12.8,2.9-13.8-2.4c-0.4-2.4,0.2-4.8-0.2-7.2
		c-0.3-2.8-0.2-5.5,0-8.3c0.3-6,0.4-11.9-0.4-17.8c-0.7-4.9-0.5-10.1-0.5-15.2c-0.6-0.8-0.5-1.8,0-2.7c0.6-2.1,3.8-1.7,5.2-1
		c2.4,0.2,4.9,0.3,7.5,0.4c2,0,2.3,1.2,2.6,2.8c0.3,1.2-1.1,2.3-2.8,2.3c-2.2,0-4.4-0.2-6.6-0.2c0,1.2,0.1,2.5,0.1,3.8
		c0,2.7-0.4,7.5,0.2,10c0.1,0.2,0.2,0.6,0.2,0.9c1.2-0.2,2.2-0.2,3.5,0.1c1.3,0.2,2.6,0.2,3.9,0.2c1.5,0,2.7,0.8,2.6,1.8
		c-0.2,1.6-0.6,3.5-2.8,3.5c-1.7,0-3.5,0.1-5.2-0.2c-0.5-0.1-0.9-0.2-1.3-0.1c0.2,2.7-0.2,5.3-0.2,8c0,2.8-0.2,4.1-0.3,6.8
		c-0.2,2.4,0.2,4.6,0.3,7c0,1-0.1,1.9-0.1,2.8c-0.2,1.1,1.1,0.6,2,0.6c2.1-0.3,4.2-0.7,6.4-0.7C79.6,55.2,79.9,56.3,80.4,57.6z"/>
	<path class="st1" d="M104.5,60.9c-2.2,0.2-3.4,0.3-3.6-1.4c-0.5-5.2-1.6-10.4-2.3-15.6c-0.2,0-0.2,0-0.3-0.1
		c-1.2-0.5-2.9,0.1-4.1,0.2c-1.7,0-3.5-0.5-5.2-0.4c-0.1,0.1-0.1,0.1-0.1,0.1c-0.9,4.9-1.3,9.9-1.4,14.9c0,1.7-1.9,2.2-3.2,2.6
		c-1.3,0.3-2.4-0.9-2.4-2.4c0-8.8,1.4-17.4,3.5-25.8c1.3-4.7,2.4-9.3,3.6-13.9c1-3.8,1.8-8.1,3.5-11.5c0.8-1.6,3.4-2.9,4.9-1.3
		c2.5,2.8,3.5,7.9,4.2,11.5c1,4.6,1.6,9.2,1.7,13.8c0.2,9,2,17.6,3.1,26.5C106.7,59.4,105.7,60.8,104.5,60.9z M98,38.3
		c-0.1-1.2-0.2-2.3-0.2-3.5c-0.1-4.6-0.3-9.1-1.2-13.6c-0.4-1.6-0.7-4.6-1.2-6.1c-0.3,1.2-0.6,2.5-0.9,3.7c-1.1,4.3-2.3,10-3.4,14.2
		c-0.4,1.7-0.8,3.4-1.2,5.1c1.9,0.1,3.7,0.4,5.6,0.3C96.4,38.2,97.2,38.2,98,38.3z"/>
</g>
<g class="st0">
	<path class="st2" d="M26.6,60.9c-2.2,0.2-3.4,0.3-3.6-1.4c-0.5-5.2-1.6-10.4-2.3-15.6c-0.2,0-0.2,0-0.3-0.1
		c-1.2-0.5-2.9,0.1-4.1,0.2c-1.7,0-3.5-0.5-5.2-0.4C11,43.6,11,43.6,11,43.6c-0.9,4.9-1.3,9.9-1.4,14.9c0,1.7-1.9,2.2-3.2,2.6
		C5.1,61.5,4,60.3,4,58.8C4,50,5.4,41.4,7.5,32.9c1.3-4.7,2.4-9.3,3.6-13.9c1-3.8,1.8-8.1,3.5-11.5c0.8-1.6,3.4-2.9,4.9-1.3
		C22,9,23,14,23.7,17.7c1,4.6,1.6,9.2,1.7,13.8c0.2,9,2,17.6,3.1,26.5C28.8,59.4,27.8,60.8,26.6,60.9z M20.1,38.3
		c-0.1-1.2-0.2-2.3-0.2-3.5c-0.1-4.6-0.3-9.1-1.2-13.6c-0.4-1.6-0.7-4.6-1.2-6.1c-0.3,1.2-0.6,2.5-0.9,3.7c-1.1,4.3-2.3,10-3.4,14.2
		c-0.4,1.7-0.8,3.4-1.2,5.1c1.9,0.1,3.7,0.4,5.6,0.3C18.5,38.2,19.3,38.2,20.1,38.3z"/>
	<path class="st2" d="M53.2,60.9c-1.5,0.9-2.8,0.5-3.3-1.5c-1.3-5-2.9-9.7-4-14.8c-0.5-2.1-0.9-4.3-2-6.1c-2.5-4.2-2.7-3.7-4.5-3.5
		c-0.2,3.6-0.6,7.2-0.4,10.8c0.2,4.3,1,8.6,0.7,12.8c-0.1,1.2,0,1.7-0.9,2C37,61.4,33.8,61,34,58.8c0.6-6-1.3-11.9-0.6-18
		c0.8-6.1,0.1-12.3,0.2-18.5c0-3.9,0.6-8.2,0.1-12.1c-0.3-3.4,1.9-5.3,6.3-5.3c3.2,0,7.8,0.3,10.1,2.9c3.2,3.5,4.9,8.5,4.2,13.3
		c-0.3,2-1.1,4.9-1.9,6.8c-0.7,1.7-1.4,3.3-3,4.5c-0.7,0.5-2.1,0.9-2.9,1.2c1.3,1.7,3.2,3.8,3.9,5.7c0.9,2.8,1.3,5.6,2,8.4
		c0.8,3.5,2.3,7,3.1,10.4C55.8,59.2,54.2,60.4,53.2,60.9z M39.4,9.8c0.3,3.2,0,6.5-0.1,9.7c-0.1,3.4,0.1,6.8,0.2,10.1
		c0.6,0,1.7-0.4,2.4-0.2c2,0,3.9-0.3,4.7-1.7c1.5-2.4,2.4-6.8,2.1-9.6c-0.2-3.1-1.3-6.8-4.6-7.7c-1.4-0.4-2.4-0.3-3.8-0.5
		C39.9,9.9,39.7,9.8,39.4,9.8z"/>
	<path class="st2" d="M78.5,57.6c0.5,1.3-0.9,2.8-2.8,2.8c-3.4,0-12.8,2.9-13.8-2.4c-0.4-2.4,0.2-4.8-0.2-7.2
		c-0.3-2.8-0.2-5.5,0-8.3c0.3-6,0.4-11.9-0.4-17.8c-0.7-4.9-0.5-10.1-0.5-15.2c-0.6-0.8-0.5-1.8,0-2.7c0.6-2.1,3.8-1.7,5.2-1
		c2.4,0.2,4.9,0.3,7.5,0.4c2,0,2.3,1.2,2.6,2.8c0.3,1.2-1.1,2.3-2.8,2.3c-2.2,0-4.4-0.2-6.6-0.2c0,1.2,0.1,2.5,0.1,3.8
		c0,2.7-0.4,7.5,0.2,10c0.1,0.2,0.2,0.6,0.2,0.9c1.2-0.2,2.2-0.2,3.5,0.1c1.3,0.2,2.6,0.2,3.9,0.2c1.5,0,2.7,0.8,2.6,1.8
		c-0.2,1.6-0.6,3.5-2.8,3.5c-1.7,0-3.5,0.1-5.2-0.2c-0.5-0.1-0.9-0.2-1.3-0.1c0.2,2.7-0.2,5.3-0.2,8c0,2.8-0.2,4.1-0.3,6.8
		c-0.2,2.4,0.2,4.6,0.3,7c0,1-0.1,1.9-0.1,2.8c-0.2,1.1,1.1,0.6,2,0.6c2.1-0.3,4.2-0.7,6.4-0.7C77.7,55.2,78,56.3,78.5,57.6z"/>
	<path class="st2" d="M102.6,60.9c-2.2,0.2-3.4,0.3-3.6-1.4c-0.5-5.2-1.6-10.4-2.3-15.6c-0.2,0-0.2,0-0.3-0.1
		c-1.2-0.5-2.9,0.1-4.1,0.2c-1.7,0-3.5-0.5-5.2-0.4c-0.1,0.1-0.1,0.1-0.1,0.1c-0.9,4.9-1.3,9.9-1.4,14.9c0,1.7-1.9,2.2-3.2,2.6
		c-1.3,0.3-2.4-0.9-2.4-2.4c0-8.8,1.4-17.4,3.5-25.8c1.3-4.7,2.4-9.3,3.6-13.9c1-3.8,1.8-8.1,3.5-11.5c0.8-1.6,3.4-2.9,4.9-1.3
		C98.1,9,99,14,99.8,17.7c1,4.6,1.6,9.2,1.7,13.8c0.2,9,2,17.6,3.1,26.5C104.8,59.4,103.9,60.8,102.6,60.9z M96.1,38.3
		c-0.1-1.2-0.2-2.3-0.2-3.5c-0.1-4.6-0.3-9.1-1.2-13.6c-0.4-1.6-0.7-4.6-1.2-6.1c-0.3,1.2-0.6,2.5-0.9,3.7c-1.1,4.3-2.3,10-3.4,14.2
		c-0.4,1.7-0.8,3.4-1.2,5.1c1.9,0.1,3.7,0.4,5.6,0.3C94.5,38.2,95.3,38.2,96.1,38.3z"/>
</g>
<g class="st0">
	<path class="st3" d="M24.7,60.9c-2.2,0.2-3.4,0.3-3.6-1.4c-0.5-5.2-1.6-10.4-2.3-15.6c-0.2,0-0.2,0-0.3-0.1
		c-1.2-0.5-2.9,0.1-4.1,0.2c-1.7,0-3.5-0.5-5.2-0.4c-0.1,0.1-0.1,0.1-0.1,0.1c-0.9,4.9-1.3,9.9-1.4,14.9c0,1.7-1.9,2.2-3.2,2.6
		c-1.3,0.3-2.4-0.9-2.4-2.4c0-8.8,1.4-17.4,3.5-25.8c1.3-4.7,2.4-9.3,3.6-13.9c1-3.8,1.8-8.1,3.5-11.5c0.8-1.6,3.4-2.9,4.9-1.3
		c2.5,2.8,3.5,7.9,4.2,11.5c1,4.6,1.6,9.2,1.7,13.8c0.2,9,2,17.6,3.1,26.5C26.9,59.4,26,60.8,24.7,60.9z M18.2,38.3
		C18.1,37.1,18,36,18,34.7c-0.1-4.6-0.3-9.1-1.2-13.6c-0.4-1.6-0.7-4.6-1.2-6.1c-0.3,1.2-0.6,2.5-0.9,3.7c-1.1,4.3-2.3,10-3.4,14.2
		c-0.4,1.7-0.8,3.4-1.2,5.1c1.9,0.1,3.7,0.4,5.6,0.3C16.6,38.2,17.4,38.2,18.2,38.3z"/>
	<path class="st3" d="M51.3,60.9c-1.5,0.9-2.8,0.5-3.3-1.5c-1.3-5-2.9-9.7-4-14.8c-0.5-2.1-0.9-4.3-2-6.1c-2.5-4.2-2.7-3.7-4.5-3.5
		c-0.2,3.6-0.6,7.2-0.4,10.8c0.2,4.3,1,8.6,0.7,12.8c-0.1,1.2,0,1.7-0.9,2c-1.7,0.7-4.9,0.3-4.8-1.9c0.6-6-1.3-11.9-0.6-18
		c0.8-6.1,0.1-12.3,0.2-18.5c0-3.9,0.6-8.2,0.1-12.1c-0.3-3.4,1.9-5.3,6.3-5.3c3.2,0,7.8,0.3,10.1,2.9c3.2,3.5,4.9,8.5,4.2,13.3
		c-0.3,2-1.1,4.9-1.9,6.8c-0.7,1.7-1.4,3.3-3,4.5c-0.7,0.5-2.1,0.9-2.9,1.2c1.3,1.7,3.2,3.8,3.9,5.7c0.9,2.8,1.3,5.6,2,8.4
		c0.8,3.5,2.3,7,3.1,10.4C53.9,59.2,52.3,60.4,51.3,60.9z M37.5,9.8c0.3,3.2,0,6.5-0.1,9.7c-0.1,3.4,0.1,6.8,0.2,10.1
		c0.6,0,1.7-0.4,2.4-0.2c2,0,3.9-0.3,4.7-1.7c1.5-2.4,2.4-6.8,2.1-9.6c-0.2-3.1-1.3-6.8-4.6-7.7c-1.4-0.4-2.4-0.3-3.8-0.5
		C38.1,9.9,37.8,9.8,37.5,9.8z"/>
	<path class="st3" d="M76.6,57.6c0.5,1.3-0.9,2.8-2.8,2.8C70.4,60.4,61,63.3,60,58c-0.4-2.4,0.2-4.8-0.2-7.2c-0.3-2.8-0.2-5.5,0-8.3
		c0.3-6,0.4-11.9-0.4-17.8c-0.7-4.9-0.6-10.1-0.6-15.2c-0.6-0.8-0.5-1.8,0-2.7c0.6-2.1,3.8-1.7,5.2-1c2.4,0.2,5,0.3,7.5,0.4
		c2,0,2.3,1.2,2.6,2.8c0.3,1.2-1.1,2.3-2.8,2.3c-2.2,0-4.4-0.2-6.6-0.2c0,1.2,0.1,2.5,0.1,3.8c0,2.7-0.4,7.5,0.2,10
		c0.1,0.2,0.2,0.6,0.2,0.9c1.2-0.2,2.2-0.2,3.5,0.1c1.3,0.2,2.6,0.2,3.9,0.2c1.5,0,2.7,0.8,2.6,1.8c-0.2,1.6-0.6,3.5-2.8,3.5
		c-1.7,0-3.5,0.1-5.2-0.2c-0.5-0.1-0.9-0.2-1.3-0.1c0.2,2.7-0.2,5.3-0.2,8c0,2.8-0.2,4.1-0.3,6.8c-0.2,2.4,0.2,4.6,0.3,7
		c0,1-0.1,1.9-0.1,2.8c-0.2,1.1,1.1,0.6,2,0.6c2.1-0.3,4.2-0.7,6.4-0.7C75.9,55.2,76.2,56.3,76.6,57.6z"/>
	<path class="st3" d="M100.8,60.9c-2.2,0.2-3.4,0.3-3.6-1.4c-0.5-5.2-1.6-10.4-2.3-15.6c-0.2,0-0.2,0-0.3-0.1
		c-1.2-0.5-2.9,0.1-4.1,0.2c-1.7,0-3.5-0.5-5.2-0.4c-0.1,0.1-0.1,0.1-0.1,0.1c-0.9,4.9-1.3,9.9-1.4,14.9c0,1.7-1.9,2.2-3.2,2.6
		c-1.3,0.3-2.4-0.9-2.4-2.4c0-8.8,1.4-17.4,3.5-25.8c1.3-4.7,2.4-9.3,3.6-13.9c1-3.8,1.8-8.1,3.5-11.5c0.8-1.6,3.4-2.9,4.9-1.3
		c2.5,2.8,3.5,7.9,4.2,11.5c1,4.6,1.6,9.2,1.7,13.8c0.2,9,2,17.6,3.1,26.5C103,59.4,102,60.8,100.8,60.9z M94.2,38.3
		C94.2,37.1,94,36,94,34.7c-0.1-4.6-0.3-9.1-1.2-13.6c-0.4-1.6-0.7-4.6-1.2-6.1c-0.3,1.2-0.6,2.5-0.9,3.7c-1.1,4.3-2.3,10-3.4,14.2
		c-0.4,1.7-0.8,3.4-1.2,5.1c1.9,0.1,3.7,0.4,5.6,0.3C92.7,38.2,93.5,38.2,94.2,38.3z"/>
</g>
<rect x="0.7" y="-0.4" class="st4" width="153.5" height="69.3"/>
</svg>
