<?xml version="1.0" encoding="utf-8"?>
<!-- Generator: Adobe Illustrator 26.0.1, SVG Export Plug-In . SVG Version: 6.00 Build 0)  -->
<svg version="1.1" id="Layer_1" xmlns="http://www.w3.org/2000/svg" xmlns:xlink="http://www.w3.org/1999/xlink" x="0px" y="0px"
	 viewBox="0 0 50.4 86.5" style="enable-background:new 0 0 50.4 86.5;" xml:space="preserve">
<style type="text/css">
	.st0{enable-background:new    ;}
	.st1{fill:#AE049A;}
	.st2{fill:#29BA97;}
	.st3{fill:#FF9758;}
	.st4{fill:none;}
</style>
<g class="st0">
	<path class="st1" d="M28.5,58.8c-0.2,2.8,0,7.9-1.6,10.3c-1.6,2.6-4.8,4-7.8,3.9c-3.8-0.2-6.1-2.1-7.5-4.9c-1.3-2.6-1.7-6-1.5-9.1
		c0.1-1.5,1.3-2.5,2.5-2.6c2.5-0.3,3.4,1,3.2,3c-0.2,3.4,0,9.6,4.9,8c2.7-0.9,2-8.6,2-10.8c0.2-4.1,1.3-9.8-0.7-13.5
		c-1.9-3.6-4.6-1.9-7,0.5c-0.8,0.9-1.7,1.5-2.8,1.2c-0.9-0.4-2-1.8-2.1-3c0-2.8-0.2-6.6-0.2-10.3c-0.1-3.4,0-6.7,0.1-9.2
		c0.1-2.4,1.4-3.7,3.2-4.4c3.5-1.4,8.8-0.5,11.8-0.2c1.8,0.2,3,0.7,2.7,2.8c-0.2,1.4-0.9,2.7-2.8,2.5c-3-0.3-6.1-0.7-9.1-0.3v0.1
		c0,1-0.1,2.1-0.1,3.1c0,2.8,0.1,7,0.1,10.8c3.4-1.3,7.8-1.8,10.2,1.4C30.3,43.6,28.9,52.3,28.5,58.8z"/>
	<path class="st1" d="M44.5,26.3c-0.1,6.2-0.6,12.9-0.9,18c-0.3,5.1-0.5,10.8-0.5,16.4c-0.1,3.5-0.1,6.2-0.1,9.5
		c0,1.1-0.2,2-1.2,2.4c-2,1.3-4.6,0.4-4.6-1.6c0-2,0.1-3.8,0.1-5.8c0-6.5,0.1-13.5,0.4-19.6c0.3-4.5,0.8-10.2,1-15.7
		c-0.6,1.4-1.6,2.4-2.4,3.4c-1.8,1.8-2.9,1.7-3.9,0.5c-1.3-1.6-1.7-4-0.2-5.4c3.3-3,5.1-7.9,7.4-11.5c0.9-1.5,4.3-2.1,4.6,0.2
		C44.5,20,44.5,23.1,44.5,26.3z"/>
</g>
<g class="st0">
	<path class="st2" d="M26.7,58.8c-0.2,2.8,0,7.9-1.6,10.3c-1.6,2.6-4.8,4-7.8,3.9c-3.8-0.2-6.1-2.1-7.5-4.9c-1.3-2.6-1.7-6-1.5-9.1
		c0.1-1.5,1.3-2.5,2.5-2.6c2.5-0.3,3.4,1,3.2,3c-0.2,3.4,0,9.6,4.9,8c2.7-0.9,2-8.6,2-10.8c0.2-4.1,1.3-9.8-0.7-13.5
		c-1.9-3.6-4.6-1.9-7,0.5c-0.8,0.9-1.7,1.5-2.8,1.2c-0.9-0.4-2-1.8-2.1-3c0-2.8-0.2-6.6-0.2-10.3c-0.1-3.4,0-6.7,0.1-9.2
		c0.1-2.4,1.4-3.7,3.2-4.4c3.5-1.4,8.8-0.5,11.8-0.2c1.8,0.2,3,0.7,2.7,2.8c-0.2,1.4-0.9,2.7-2.8,2.5c-3-0.3-6.1-0.7-9.1-0.3v0.1
		c0,1-0.1,2.1-0.1,3.1c0,2.8,0.1,7,0.1,10.8c3.4-1.3,7.8-1.8,10.2,1.4C28.4,43.6,27.1,52.3,26.7,58.8z"/>
	<path class="st2" d="M42.7,26.3c-0.1,6.2-0.6,12.9-0.9,18c-0.3,5.1-0.5,10.8-0.5,16.4c-0.1,3.5-0.1,6.2-0.1,9.5
		c0,1.1-0.2,2-1.2,2.4c-2,1.3-4.6,0.4-4.6-1.6c0-2,0.1-3.8,0.1-5.8c0-6.5,0.1-13.5,0.4-19.6c0.3-4.5,0.8-10.2,1-15.7
		c-0.6,1.4-1.7,2.4-2.4,3.4c-1.8,1.8-2.9,1.7-3.9,0.5c-1.3-1.6-1.7-4-0.2-5.4c3.3-3,5.1-7.9,7.4-11.5c0.9-1.5,4.3-2.1,4.6,0.2
		C42.7,20,42.7,23.1,42.7,26.3z"/>
</g>
<g class="st0">
	<path class="st3" d="M24.8,58.8c-0.2,2.8,0,7.9-1.6,10.3c-1.6,2.6-4.8,4-7.8,3.9c-3.8-0.2-6.1-2.1-7.5-4.9c-1.3-2.6-1.7-6-1.5-9.1
		c0.1-1.5,1.3-2.5,2.5-2.6c2.5-0.3,3.4,1,3.2,3c-0.2,3.4,0,9.6,4.9,8c2.7-0.9,2-8.6,2-10.8c0.2-4.1,1.3-9.8-0.7-13.5
		c-1.9-3.6-4.6-1.9-7,0.5c-0.8,0.9-1.7,1.5-2.8,1.2c-0.9-0.4-2-1.8-2.1-3c0-2.8-0.2-6.6-0.2-10.3c-0.1-3.4,0-6.7,0.1-9.2
		C6.6,20,7.9,18.7,9.7,18c3.5-1.4,8.8-0.5,11.8-0.2c1.8,0.2,3,0.7,2.7,2.8c-0.2,1.4-0.9,2.7-2.8,2.5c-3-0.3-6.1-0.7-9.1-0.3v0.1
		c0,1-0.1,2.1-0.1,3.1c0,2.8,0.1,7,0.1,10.8c3.4-1.3,7.8-1.8,10.2,1.4C26.5,43.6,25.2,52.3,24.8,58.8z"/>
	<path class="st3" d="M40.8,26.3c-0.1,6.2-0.6,12.9-0.9,18c-0.3,5.1-0.5,10.8-0.5,16.4c-0.1,3.5-0.1,6.2-0.1,9.5
		c0,1.1-0.2,2-1.2,2.4c-2,1.3-4.6,0.4-4.6-1.6s0.1-3.8,0.1-5.8c0-6.5,0.1-13.5,0.4-19.6c0.3-4.5,0.8-10.2,1-15.7
		c-0.6,1.4-1.7,2.4-2.4,3.4c-1.8,1.8-2.9,1.7-3.9,0.5c-1.3-1.6-1.7-4-0.2-5.4c3.3-3,5.1-7.9,7.4-11.5c0.9-1.5,4.3-2.1,4.6,0.2
		C40.8,20,40.8,23.1,40.8,26.3z"/>
</g>
<rect x="4.1" y="12.4" class="st4" width="57.4" height="65.9"/>
</svg>
