<svg id="Layer_1" data-name="Layer 1" xmlns="http://www.w3.org/2000/svg" viewBox="0 0 190.4 106.67"><defs><style>.cls-1{fill:#f618f7;}.cls-2{fill:#fe8522;}.cls-3{fill:#feaeeb;}</style></defs><path class="cls-1" d="M190,22.46c5.07,14.18-38.78,47.29-87.26,64.63S9.87,114,4.81,99.82s36.13-52,84.61-69.34S184.94,8.29,190,22.46Z"/><path class="cls-2" d="M185.06,11.37a4.08,4.08,0,0,1,1,2.84c-.16,6.31-9.58,15-13.65,19.3A190.93,190.93,0,0,1,149,54.32c-20.16,15.32-43.39,27.75-68.35,32.85C26.6,98.23,5.8,102.8.5,89.92S32.29,49.57,83.34,28.56C102.91,20.5,123,11.94,144,8.2,149.5,7.22,179.14,4.41,185.06,11.37Z"/><path class="cls-1" d="M143.6,16c5,12.17-17.71,34-48.09,46.45S33.84,85.33,28.82,73.15,47,30.86,77.36,18.36,138.59,3.82,143.6,16Z"/><path class="cls-3" d="M135.88,10c4.28,12.45-17.62,32.12-46.36,42S31.26,69.55,27,57.09,45.28,16.76,74,6.88,131.6-2.48,135.88,10Z"/></svg>