<svg id="Layer_1" data-name="Layer 1" xmlns="http://www.w3.org/2000/svg" viewBox="0 0 187.5 121.51"><defs><style>.cls-1{fill:#ff9472;}.cls-2,.cls-4{fill:#7b02f3;}.cls-3{fill:#f618f7;}.cls-4{opacity:0.11;}.cls-5{fill:#083a49;opacity:0.19;}</style></defs><path class="cls-1" d="M38.6,52.11l20.52-4.66"/><ellipse class="cls-2" cx="100.1" cy="37.4" rx="29.15" ry="56.32" transform="translate(18.73 106.67) rotate(-60.9)"/><path class="cls-3" d="M124.22,117.43c15.47,4,25.32,4.09,29.91,4.08,4.24,0,37.05-.49,33-20.1-4.41-21.52-51.07-55.6-93.85-74.13C61.79,13.64,17.32,1.92,3.78,14.66-10.65,28.23,19.25,61,50.24,82.41,54.19,85.14,87.51,107.89,124.22,117.43Z"/><path class="cls-1" d="M117.33,107a90.24,90.24,0,0,0,24.26,3.3c3.44,0,30-.39,26.79-16.29C164.81,76.49,127,48.85,92.26,33.83,66.7,22.76,30.63,13.26,19.65,23.59c-11.71,11,12.54,37.55,37.68,55C60.53,80.76,87.56,99.21,117.33,107Z"/><path class="cls-4" d="M6.89,39.05c5.45,7.89,12.4,29.15,33.58,21.46,10.26-3.74,26.1-11.39,51.3,0,160,72.28,54.23,2.79,58.29-4.2,5.9-10.16-2.59-18.63-25.65-35.91C108.76,8.67,70.57-5,58.65,5,37.81,22.5,10,16.63,8.29,14.34,5,9.77,2,32,6.89,39.05Z"/><path class="cls-5" d="M51.65,11.58C48.52,23.93,82.38,28.93,97.9,29.3s26.27-1.81,30.73-.37c22.42,7.23-16.09-19.54-41.06-27.17C72.91-2.72,53.87,2.84,51.65,11.58Z"/><path class="cls-5" d="M13.53,49.68c3.1,3.6-4.94-26.22,13.77-30.54C43.88,15.31,51,14.82,51.16,13.78c.44-2.32-40-8-47.59,1.78C.16,20-5.67,27.45,13.53,49.68Z"/></svg>