<?xml version="1.0" encoding="utf-8"?>
<!-- Generator: Adobe Illustrator 26.0.1, SVG Export Plug-In . SVG Version: 6.00 Build 0)  -->
<svg version="1.1" id="Layer_1" xmlns="http://www.w3.org/2000/svg" xmlns:xlink="http://www.w3.org/1999/xlink" x="0px" y="0px"
	 viewBox="0 0 185.3 101.9" style="enable-background:new 0 0 185.3 101.9;" xml:space="preserve">
<style type="text/css">
	.st0{display:none;}
	.st1{fill:#F9A7E9;}
	.st2{fill:#FFFFFF;}
</style>
<g id="Layer_1_00000115480782121616517230000005738144226464795809_" class="st0">
</g>
<g id="layer_x5F_1">
</g>
<g id="layer_x5F_2">
</g>
<g id="layer_x5F_3">
</g>
<g id="layer_x5F_4">
</g>
<g id="Layer_6">
</g>
<g id="Layer_7">
</g>
<g id="Layer_8">
</g>
<g id="Layer_9">
</g>
<g id="backline">
</g>
<g id="oreange">
</g>
<g id="dots">
	<rect class="st1" width="185.3" height="101.9"/>
	<g>
		<g>
			<path class="st2" d="M67.4,71.6L53.7,39H36.1L24.6,71.6h6.7v1.7H17.7v-1.7h4.1l22.7-61h7.3l22.4,61h4.1v1.7h-29v-1.7H67.4z
				 M45.3,13.8L37,37.1h16.1L45.3,13.8z"/>
			<path class="st2" d="M164.7,71.6L151.1,39h-17.6l-11.6,32.6h6.7v1.7H115v-1.7h4.2l22.6-61h7.3l22.4,61h4.1v1.7h-29v-1.7H164.7z
				 M142.6,13.8l-8.3,23.3h16.1L142.6,13.8z"/>
			<path class="st2" d="M81.8,11.1h27.1v1.7H96.8v58.8h12.1v1.7H81.8v-1.7h10.4V12.8H81.8V11.1z"/>
		</g>
		<g>
			<path class="st2" d="M24.1,88h-0.6l-5-7.4l0,0c0,0.2,0,0.4,0,0.6s0,0.4,0,0.7s0,0.5,0,0.7V88H18v-8.4h0.6l4.9,7.4l0,0
				c0-0.2,0-0.4,0-0.6s0-0.4,0-0.7c0-0.2,0-0.5,0-0.7v-5.4h0.6V88z"/>
			<path class="st2" d="M28.4,81.6c0.7,0,1.2,0.2,1.5,0.5s0.5,0.9,0.5,1.6v4.2H30l-0.1-1.1l0,0c-0.1,0.2-0.3,0.4-0.5,0.6
				s-0.4,0.3-0.7,0.4c-0.3,0.1-0.6,0.2-1,0.2c-0.4,0-0.7-0.1-1-0.2c-0.3-0.1-0.5-0.3-0.7-0.6c-0.1-0.2-0.2-0.5-0.2-0.8
				c0-0.6,0.3-1.1,0.8-1.4s1.2-0.5,2.2-0.5l1.2-0.1v-0.5c0-0.6-0.1-1.1-0.4-1.4s-0.6-0.4-1.1-0.4c-0.3,0-0.6,0-0.9,0.1
				s-0.6,0.2-0.9,0.4l-0.2-0.5c0.3-0.1,0.6-0.3,1-0.3C27.7,81.7,28.1,81.6,28.4,81.6z M29.9,84.8h-1.1c-0.8,0-1.4,0.2-1.8,0.4
				c-0.4,0.2-0.6,0.6-0.6,1.1c0,0.4,0.1,0.7,0.4,0.9c0.2,0.2,0.6,0.3,1,0.3c0.7,0,1.2-0.2,1.6-0.6c0.4-0.4,0.5-0.9,0.5-1.6
				C29.9,85.3,29.9,84.8,29.9,84.8z"/>
			<path class="st2" d="M34.1,87.6c0.2,0,0.3,0,0.5,0s0.3-0.1,0.4-0.1V88c-0.1,0-0.3,0.1-0.4,0.1c-0.2,0-0.3,0-0.5,0
				c-0.4,0-0.6-0.1-0.9-0.2c-0.2-0.1-0.4-0.3-0.5-0.6c-0.1-0.3-0.2-0.6-0.2-1v-4h-0.9V82l0.9-0.2l0.2-1.5h0.4v1.5H35v0.5h-1.9v4
				c0,0.4,0.1,0.8,0.2,1C33.5,87.5,33.8,87.6,34.1,87.6z"/>
			<path class="st2" d="M41.2,81.7v6.2h-0.5l-0.1-1.1l0,0c-0.1,0.2-0.3,0.4-0.5,0.6s-0.4,0.3-0.7,0.4s-0.6,0.2-1,0.2
				c-0.5,0-0.9-0.1-1.2-0.2c-0.3-0.2-0.6-0.4-0.7-0.8c-0.2-0.3-0.2-0.8-0.2-1.3v-4.1h0.6v4c0,0.6,0.1,1.1,0.4,1.4s0.7,0.4,1.2,0.4
				s0.8-0.1,1.2-0.3c0.3-0.2,0.5-0.4,0.7-0.8s0.2-0.8,0.2-1.3v-3.4h0.6V81.7z"/>
			<path class="st2" d="M45.7,81.6c0.2,0,0.3,0,0.5,0c0.1,0,0.3,0,0.4,0.1l-0.1,0.5c-0.1,0-0.3-0.1-0.4-0.1s-0.3,0-0.4,0
				c-0.3,0-0.6,0.1-0.8,0.2c-0.2,0.1-0.4,0.3-0.6,0.5s-0.3,0.5-0.4,0.7c-0.1,0.3-0.1,0.6-0.1,1v3.4h-0.6v-6.2h0.6l0.1,1.2l0,0
				c0.1-0.2,0.2-0.5,0.4-0.6c0.2-0.2,0.4-0.3,0.6-0.5C45.2,81.7,45.4,81.6,45.7,81.6z"/>
			<path class="st2" d="M50,81.6c0.7,0,1.2,0.2,1.5,0.5S52,83,52,83.7v4.2h-0.4l-0.1-1.1l0,0c-0.1,0.2-0.3,0.4-0.5,0.6
				s-0.4,0.3-0.7,0.4s-0.6,0.2-1,0.2s-0.7-0.1-1-0.2s-0.5-0.3-0.7-0.6c-0.2-0.3-0.2-0.6-0.2-0.9c0-0.6,0.3-1.1,0.8-1.4
				s1.2-0.5,2.2-0.5l1.2-0.1v-0.5c0-0.6-0.1-1.1-0.4-1.4c-0.3-0.3-0.6-0.4-1.1-0.4c-0.3,0-0.6,0-0.9,0.1s-0.6,0.2-0.9,0.4L48.1,82
				c0.3-0.1,0.6-0.3,1-0.3C49.3,81.7,49.6,81.6,50,81.6z M51.5,84.8h-1.1c-0.8,0-1.4,0.2-1.8,0.4c-0.4,0.2-0.6,0.6-0.6,1.1
				c0,0.4,0.1,0.7,0.4,0.9c0.2,0.2,0.6,0.3,1,0.3c0.7,0,1.2-0.2,1.6-0.6c0.4-0.4,0.5-0.9,0.5-1.6V84.8z"/>
			<path class="st2" d="M54.6,88H54v-8.9h0.6V88z"/>
			<path class="st2" d="M61.9,81.6c0.7,0,1.2,0.2,1.5,0.5s0.5,0.9,0.5,1.6v4.2h-0.4l-0.1-1.1l0,0c-0.1,0.2-0.3,0.4-0.5,0.6
				s-0.4,0.3-0.7,0.4s-0.6,0.2-1,0.2s-0.7-0.1-1-0.2s-0.5-0.3-0.7-0.6c-0.2-0.3-0.2-0.6-0.2-0.9c0-0.6,0.3-1.1,0.8-1.4
				s1.2-0.5,2.2-0.5l1.2-0.1v-0.5c0-0.6-0.1-1.1-0.4-1.4C62.8,82.1,62.5,82,62,82c-0.3,0-0.6,0-0.9,0.1s-0.6,0.2-0.9,0.4l-0.4-0.4
				c0.3-0.1,0.6-0.3,1-0.3C61.1,81.7,61.5,81.6,61.9,81.6z M63.3,84.8h-1.1c-0.8,0-1.4,0.2-1.8,0.4c-0.4,0.2-0.6,0.6-0.6,1.1
				c0,0.4,0.1,0.7,0.4,0.9c0.2,0.2,0.6,0.3,1,0.3c0.7,0,1.2-0.2,1.6-0.6c0.4-0.4,0.5-0.9,0.5-1.6C63.3,85.3,63.3,84.8,63.3,84.8z"/>
			<path class="st2" d="M68.6,81.6c0.7,0,1.2,0.2,1.6,0.5s0.6,0.9,0.6,1.7v4.1h-0.6v-4c0-0.6-0.1-1.1-0.4-1.4
				c-0.3-0.3-0.7-0.4-1.2-0.4c-0.7,0-1.2,0.2-1.6,0.6c-0.4,0.4-0.5,1-0.5,1.8v3.4h-0.6v-6.2h0.5l0.1,1.1l0,0
				c0.1-0.2,0.3-0.4,0.5-0.6c0.2-0.2,0.4-0.3,0.7-0.5S68.3,81.6,68.6,81.6z"/>
			<path class="st2" d="M75.1,88.1c-0.8,0-1.5-0.3-1.9-0.8S72.5,86,72.5,85c0-1.1,0.2-1.9,0.7-2.5s1.1-0.8,2-0.8
				c0.4,0,0.7,0.1,0.9,0.2s0.5,0.3,0.7,0.4c0.2,0.1,0.3,0.4,0.4,0.6l0,0c0-0.2,0-0.4,0-0.7c0-0.2,0-0.4,0-0.6v-2.5h0.6V88h-0.5
				l-0.1-1.1l0,0c-0.1,0.2-0.2,0.4-0.4,0.6c-0.2,0.2-0.4,0.3-0.7,0.5C75.8,88,75.4,88.1,75.1,88.1z M75.1,87.6
				c0.7,0,1.3-0.2,1.6-0.7s0.5-1.1,0.5-2v-0.1c0-0.9-0.2-1.5-0.5-2s-0.8-0.7-1.5-0.7s-1.2,0.2-1.6,0.7s-0.5,1.2-0.5,2.1
				s0.2,1.5,0.5,2S74.4,87.6,75.1,87.6z"/>
			<path class="st2" d="M88,84.8c0,0.5-0.1,0.9-0.2,1.3c-0.1,0.4-0.3,0.7-0.5,1s-0.5,0.5-0.9,0.7C86.1,88,85.7,88,85.2,88
				c-0.4,0-0.8-0.1-1.2-0.2s-0.6-0.4-0.9-0.7c-0.2-0.3-0.4-0.6-0.5-1c-0.1-0.4-0.2-0.8-0.2-1.3c0-0.7,0.1-1.2,0.3-1.7
				c0.2-0.5,0.5-0.9,1-1.1s0.9-0.4,1.5-0.4c0.6,0,1.1,0.1,1.5,0.4c0.4,0.3,0.7,0.6,0.9,1.1C87.9,83.7,88,84.2,88,84.8z M83,84.8
				c0,0.5,0.1,1,0.2,1.4c0.1,0.4,0.4,0.7,0.7,1c0.3,0.2,0.7,0.3,1.2,0.3s0.9-0.1,1.2-0.3c0.3-0.2,0.6-0.5,0.7-1
				c0.1-0.5,0.2-0.9,0.2-1.4s-0.1-1-0.2-1.4c-0.1-0.4-0.4-0.7-0.7-1C86,82.2,85.6,82,85.1,82c-0.7,0-1.3,0.2-1.6,0.7
				C83.2,83.2,83,84,83,84.8z"/>
			<path class="st2" d="M92.1,81.6c0.2,0,0.3,0,0.5,0c0.1,0,0.3,0,0.4,0.1l-0.1,0.5c-0.1,0-0.3-0.1-0.4-0.1c-0.1,0-0.3,0-0.4,0
				c-0.3,0-0.6,0.1-0.8,0.2s-0.4,0.3-0.6,0.5s-0.3,0.5-0.4,0.7c-0.1,0.3-0.1,0.6-0.1,1v3.4h-0.6v-6.2h0.5l0.1,1.2l0,0
				c0.1-0.2,0.2-0.5,0.4-0.6c0.2-0.2,0.4-0.3,0.6-0.5C91.5,81.7,91.8,81.6,92.1,81.6z"/>
			<path class="st2" d="M95.9,90.8c-0.8,0-1.4-0.2-1.8-0.5c-0.4-0.3-0.6-0.7-0.6-1.3c0-0.4,0.1-0.8,0.4-1.1s0.6-0.5,1.1-0.5
				c-0.2-0.1-0.3-0.2-0.4-0.3c-0.1-0.1-0.2-0.3-0.2-0.5s0.1-0.4,0.2-0.6c0.1-0.2,0.3-0.4,0.6-0.5c-0.4-0.1-0.6-0.3-0.8-0.7
				c-0.2-0.3-0.3-0.7-0.3-1.1s0.1-0.8,0.3-1.1c0.2-0.3,0.4-0.5,0.8-0.7c0.3-0.2,0.7-0.3,1.2-0.3c0.1,0,0.3,0,0.4,0
				c0.1,0,0.2,0,0.3,0s0.2,0,0.3,0.1h2v0.4l-1.6,0.1c0.2,0.2,0.3,0.4,0.4,0.7c0.1,0.2,0.1,0.5,0.1,0.7c0,0.6-0.2,1.1-0.6,1.5
				c-0.4,0.4-0.9,0.5-1.6,0.5c-0.2,0-0.4,0-0.6-0.1c-0.2,0.1-0.4,0.3-0.5,0.4c-0.2,0.2-0.2,0.4-0.2,0.6c0,0.1,0,0.2,0.1,0.3
				c0.1,0.1,0.2,0.1,0.3,0.2s0.3,0.1,0.5,0.1h1.1c0.7,0,1.2,0.1,1.5,0.4s0.5,0.7,0.5,1.2c0,0.7-0.3,1.2-0.8,1.5
				C97.6,90.6,96.8,90.8,95.9,90.8z M95.9,90.3c0.5,0,1-0.1,1.4-0.2c0.4-0.1,0.6-0.3,0.8-0.5c0.2-0.2,0.3-0.5,0.3-0.9
				c0-0.3-0.1-0.5-0.2-0.6c-0.1-0.2-0.3-0.3-0.6-0.3c-0.2-0.1-0.5-0.1-0.9-0.1h-1c-0.3,0-0.6,0-0.9,0.1s-0.5,0.2-0.6,0.4
				C94.1,88.4,94,88.7,94,89c0,0.4,0.2,0.7,0.5,0.9C94.8,90.2,95.3,90.3,95.9,90.3z M96.1,85.2c0.5,0,0.9-0.1,1.2-0.4
				c0.3-0.3,0.4-0.6,0.4-1.1s-0.1-0.9-0.4-1.2c-0.3-0.3-0.7-0.4-1.2-0.4s-0.9,0.1-1.2,0.4c-0.3,0.3-0.4,0.7-0.4,1.2s0.1,0.8,0.4,1.1
				S95.6,85.2,96.1,85.2z"/>
			<path class="st2" d="M102.5,81.6c0.7,0,1.2,0.2,1.5,0.5s0.5,0.9,0.5,1.6v4.2h-0.4l-0.1-1.1l0,0c-0.1,0.2-0.3,0.4-0.5,0.6
				s-0.4,0.3-0.7,0.4c-0.3,0.1-0.6,0.2-1,0.2c-0.4,0-0.7-0.1-1-0.2s-0.5-0.3-0.7-0.6c-0.2-0.3-0.2-0.6-0.2-0.9
				c0-0.6,0.3-1.1,0.8-1.4s1.2-0.5,2.2-0.5l1.2-0.1v-0.5c0-0.6-0.1-1.1-0.4-1.4s-0.6-0.4-1.1-0.4c-0.3,0-0.6,0-0.9,0.1
				s-0.6,0.2-0.9,0.4l-0.2-0.5c0.3-0.1,0.6-0.3,1-0.3C101.7,81.7,102.1,81.6,102.5,81.6z M103.9,84.8h-1.1c-0.8,0-1.4,0.2-1.8,0.4
				c-0.4,0.2-0.6,0.6-0.6,1.1c0,0.4,0.1,0.7,0.4,0.9c0.2,0.2,0.6,0.3,1,0.3c0.7,0,1.2-0.2,1.6-0.6c0.4-0.4,0.5-0.9,0.5-1.6V84.8z"/>
			<path class="st2" d="M109.2,81.6c0.7,0,1.2,0.2,1.6,0.5c0.4,0.3,0.6,0.9,0.6,1.7v4.1h-0.6v-4c0-0.6-0.1-1.1-0.4-1.4
				s-0.7-0.4-1.2-0.4c-0.7,0-1.2,0.2-1.6,0.6c-0.4,0.4-0.5,1-0.5,1.8v3.4h-0.6v-6.2h0.5l0.1,1.1l0,0c0.1-0.2,0.3-0.4,0.5-0.6
				s0.4-0.3,0.7-0.5C108.5,81.7,108.9,81.6,109.2,81.6z"/>
			<path class="st2" d="M113.7,79.4c0.1,0,0.3,0,0.3,0.1c0.1,0.1,0.1,0.2,0.1,0.3s0,0.3-0.1,0.3c-0.1,0.1-0.2,0.1-0.3,0.1
				c-0.1,0-0.2,0-0.3-0.1c-0.1-0.1-0.1-0.2-0.1-0.3s0-0.3,0.1-0.3C113.5,79.5,113.6,79.4,113.7,79.4z M114,81.7v6.2h-0.6v-6.2H114z"
				/>
			<path class="st2" d="M118.5,88.1c-0.6,0-1.1-0.1-1.6-0.4c-0.4-0.3-0.7-0.6-1-1.1c-0.2-0.5-0.3-1-0.3-1.7s0.1-1.3,0.4-1.8
				c0.2-0.5,0.6-0.9,1-1.1c0.4-0.2,1-0.4,1.6-0.4c0.3,0,0.6,0,0.8,0.1c0.3,0.1,0.5,0.1,0.7,0.2l-0.2,0.5c-0.2-0.1-0.4-0.2-0.7-0.2
				c-0.2,0-0.5-0.1-0.7-0.1c-0.5,0-0.9,0.1-1.3,0.3c-0.4,0.2-0.6,0.5-0.8,0.9c-0.2,0.4-0.3,0.9-0.3,1.4s0.1,1,0.2,1.4
				c0.2,0.4,0.4,0.7,0.7,0.9c0.3,0.2,0.8,0.3,1.3,0.3c0.3,0,0.6,0,0.9-0.1s0.5-0.1,0.7-0.2v0.5c-0.2,0.1-0.4,0.2-0.7,0.2
				C119.2,88,118.9,88.1,118.5,88.1z"/>
			<path class="st2" d="M127.1,88.1c-0.6,0-1.1-0.1-1.6-0.4s-0.7-0.6-1-1.1c-0.2-0.5-0.3-1-0.3-1.7s0.1-1.3,0.4-1.8
				c0.2-0.5,0.6-0.9,1-1.1c0.4-0.2,1-0.4,1.6-0.4c0.3,0,0.6,0,0.8,0.1c0.3,0.1,0.5,0.1,0.7,0.2l-0.2,0.5c-0.2-0.1-0.4-0.2-0.7-0.2
				c-0.2,0-0.5-0.1-0.7-0.1c-0.5,0-0.9,0.1-1.3,0.3c-0.4,0.2-0.6,0.5-0.8,0.9c-0.2,0.4-0.3,0.9-0.3,1.4s0.1,1,0.2,1.4
				c0.1,0.4,0.4,0.7,0.7,0.9c0.3,0.2,0.8,0.3,1.3,0.3c0.3,0,0.6,0,0.9-0.1s0.5-0.1,0.7-0.2v0.5c-0.2,0.1-0.4,0.2-0.7,0.2
				C127.8,88,127.5,88.1,127.1,88.1z"/>
			<path class="st2" d="M135.3,84.8c0,0.5-0.1,0.9-0.2,1.3c-0.1,0.4-0.3,0.7-0.5,1s-0.5,0.5-0.9,0.7c-0.3,0.2-0.7,0.2-1.2,0.2
				c-0.4,0-0.8-0.1-1.2-0.2s-0.6-0.4-0.9-0.7c-0.2-0.3-0.4-0.6-0.5-1c-0.1-0.4-0.2-0.8-0.2-1.3c0-0.7,0.1-1.2,0.3-1.7
				c0.2-0.5,0.5-0.9,1-1.1s0.9-0.4,1.5-0.4c0.6,0,1.1,0.1,1.5,0.4c0.4,0.3,0.7,0.6,0.9,1.1C135.2,83.7,135.3,84.2,135.3,84.8z
				 M130.4,84.8c0,0.5,0.1,1,0.2,1.4c0.1,0.4,0.4,0.7,0.7,1c0.3,0.2,0.7,0.3,1.2,0.3s0.9-0.1,1.2-0.3c0.3-0.2,0.6-0.5,0.7-1
				c0.1-0.5,0.2-0.9,0.2-1.4s-0.1-1-0.2-1.4c-0.1-0.4-0.4-0.7-0.7-1c-0.3-0.2-0.7-0.4-1.2-0.4c-0.7,0-1.3,0.2-1.6,0.7
				C130.6,83.2,130.4,84,130.4,84.8z"/>
			<path class="st2" d="M140.9,86.3c0,0.4-0.1,0.7-0.3,0.9c-0.2,0.2-0.5,0.5-0.8,0.6c-0.4,0.1-0.8,0.2-1.3,0.2c-0.4,0-0.8,0-1.2-0.1
				s-0.6-0.2-0.9-0.3V87c0.3,0.1,0.6,0.3,0.9,0.3c0.3,0.1,0.7,0.1,1.1,0.1c0.6,0,1.1-0.1,1.4-0.3c0.3-0.2,0.4-0.5,0.4-0.9
				c0-0.2-0.1-0.5-0.2-0.6c-0.1-0.1-0.3-0.3-0.6-0.4c-0.3-0.1-0.6-0.2-0.9-0.4c-0.4-0.1-0.7-0.3-1-0.4s-0.5-0.3-0.7-0.5
				s-0.3-0.5-0.3-0.9c0-0.5,0.2-0.9,0.6-1.2c0.4-0.3,0.9-0.4,1.6-0.4c0.4,0,0.7,0,1,0.1s0.6,0.2,0.9,0.3l-0.2,0.5
				c-0.2-0.1-0.5-0.2-0.8-0.3c-0.3-0.1-0.6-0.1-0.9-0.1c-0.5,0-0.9,0.1-1.2,0.3c-0.3,0.2-0.4,0.4-0.4,0.8c0,0.3,0.1,0.5,0.2,0.6
				c0.1,0.2,0.3,0.3,0.6,0.4s0.6,0.2,0.9,0.3c0.4,0.1,0.7,0.3,1,0.4s0.6,0.3,0.7,0.5C140.6,85.4,140.9,86,140.9,86.3z"/>
			<path class="st2" d="M148.9,81.6c0.6,0,1.1,0.2,1.4,0.5c0.3,0.3,0.5,0.9,0.5,1.6v4.2h-0.6v-4.1c0-0.6-0.1-1-0.4-1.3
				s-0.6-0.4-1-0.4c-0.6,0-1.1,0.2-1.4,0.5s-0.5,0.9-0.5,1.6v3.7h-0.6v-4.1c0-0.4-0.1-0.7-0.2-0.9c-0.1-0.2-0.3-0.4-0.5-0.5
				s-0.5-0.2-0.8-0.2c-0.4,0-0.7,0.1-1,0.2c-0.3,0.2-0.5,0.4-0.7,0.7s-0.2,0.7-0.2,1.3V88h-0.6v-6.2h0.5l0.1,1l0,0
				c0.1-0.2,0.2-0.4,0.4-0.6s0.4-0.3,0.6-0.4s0.6-0.2,0.9-0.2c0.4,0,0.8,0.1,1.1,0.3c0.3,0.2,0.5,0.5,0.6,0.9l0,0
				c0.2-0.4,0.4-0.7,0.8-0.9C148,81.7,148.4,81.6,148.9,81.6z"/>
			<path class="st2" d="M155.2,81.6c0.5,0,1,0.1,1.3,0.4c0.4,0.2,0.6,0.6,0.8,1s0.3,0.9,0.3,1.5v0.4h-4.5c0,0.9,0.2,1.5,0.6,2
				c0.4,0.5,1,0.7,1.7,0.7c0.4,0,0.7,0,1-0.1s0.6-0.2,0.9-0.3v0.5c-0.3,0.1-0.6,0.2-0.9,0.3c-0.3,0.1-0.7,0.1-1.1,0.1
				c-0.6,0-1.2-0.1-1.6-0.4c-0.4-0.3-0.7-0.6-1-1.1c-0.2-0.5-0.3-1-0.3-1.7c0-0.6,0.1-1.2,0.3-1.7s0.5-0.9,0.9-1.2
				S154.6,81.6,155.2,81.6z M155.2,82.1c-0.6,0-1.1,0.2-1.4,0.6c-0.4,0.4-0.6,1-0.6,1.7h3.9c0-0.5-0.1-0.9-0.2-1.2
				c-0.1-0.3-0.3-0.6-0.6-0.8C155.9,82.2,155.6,82.1,155.2,82.1z"/>
			<path class="st2" d="M160.9,87.6c0.2,0,0.3,0,0.5,0s0.3-0.1,0.4-0.1V88c-0.1,0-0.3,0.1-0.4,0.1s-0.3,0-0.5,0
				c-0.3,0-0.6-0.1-0.9-0.2c-0.2-0.1-0.4-0.3-0.5-0.6c-0.1-0.3-0.2-0.6-0.2-1v-4h-0.9V82l0.9-0.2l0.2-1.5h0.4v1.5h1.9v0.5h-1.9v4
				c0,0.4,0.1,0.8,0.2,1C160.3,87.5,160.6,87.6,160.9,87.6z"/>
			<path class="st2" d="M163.5,79.4c0.1,0,0.3,0,0.3,0.1c0.1,0.1,0.1,0.2,0.1,0.3s0,0.3-0.1,0.3c-0.1,0.1-0.2,0.1-0.3,0.1
				s-0.2,0-0.3-0.1s-0.1-0.2-0.1-0.3s0-0.3,0.1-0.3S163.3,79.4,163.5,79.4z M163.7,81.7v6.2h-0.6v-6.2H163.7z"/>
			<path class="st2" d="M168.3,88.1c-0.6,0-1.1-0.1-1.6-0.4s-0.7-0.6-1-1.1c-0.2-0.5-0.3-1-0.3-1.7s0.1-1.3,0.4-1.8
				c0.2-0.5,0.6-0.9,1-1.1s1-0.4,1.6-0.4c0.3,0,0.6,0,0.8,0.1c0.3,0.1,0.5,0.1,0.7,0.2l-0.2,0.5c-0.2-0.1-0.4-0.2-0.7-0.2
				c-0.2,0-0.5-0.1-0.7-0.1c-0.5,0-0.9,0.1-1.3,0.3c-0.4,0.2-0.6,0.5-0.8,0.9s-0.3,0.9-0.3,1.4s0.1,1,0.2,1.4s0.4,0.7,0.7,0.9
				c0.3,0.2,0.8,0.3,1.3,0.3c0.3,0,0.6,0,0.9-0.1c0.3-0.1,0.5-0.1,0.7-0.2v0.5c-0.2,0.1-0.4,0.2-0.7,0.2
				C168.9,88,168.6,88.1,168.3,88.1z"/>
			<path class="st2" d="M175.3,86.3c0,0.4-0.1,0.7-0.3,0.9s-0.5,0.5-0.8,0.6c-0.4,0.1-0.8,0.2-1.3,0.2c-0.4,0-0.8,0-1.2-0.1
				s-0.6-0.2-0.9-0.3V87c0.3,0.1,0.6,0.3,0.9,0.3c0.3,0.1,0.7,0.1,1.1,0.1c0.6,0,1.1-0.1,1.4-0.3c0.3-0.2,0.4-0.5,0.4-0.9
				c0-0.2-0.1-0.5-0.2-0.6c-0.1-0.2-0.3-0.3-0.6-0.4s-0.6-0.2-0.9-0.4c-0.4-0.1-0.7-0.3-1-0.4s-0.5-0.3-0.7-0.5s-0.3-0.5-0.3-0.9
				c0-0.5,0.2-0.9,0.6-1.2c0.4-0.3,0.9-0.4,1.6-0.4c0.4,0,0.7,0,1,0.1s0.6,0.2,0.9,0.3l-0.2,0.5c-0.2-0.1-0.5-0.2-0.8-0.3
				c-0.3-0.1-0.6-0.1-0.9-0.1c-0.5,0-0.9,0.1-1.2,0.3s-0.4,0.4-0.4,0.8c0,0.3,0.1,0.5,0.2,0.6s0.3,0.3,0.6,0.4s0.6,0.2,0.9,0.3
				c0.4,0.1,0.7,0.3,1,0.4s0.6,0.3,0.7,0.5S175.3,86,175.3,86.3z"/>
		</g>
	</g>
</g>
</svg>
