<?xml version="1.0" encoding="utf-8"?>
<!-- Generator: Adobe Illustrator 26.0.1, SVG Export Plug-In . SVG Version: 6.00 Build 0)  -->
<svg version="1.1" xmlns="http://www.w3.org/2000/svg" xmlns:xlink="http://www.w3.org/1999/xlink" x="0px" y="0px"
	 viewBox="0 0 120.8 61.1" style="enable-background:new 0 0 120.8 61.1;" xml:space="preserve">
<style type="text/css">
	.st0{display:none;}
	.st1{display:inline;}
	.st2{fill:#FFD00B;}
	.st3{fill:#FF27FF;}
	.st4{fill:#FF08B9;}
	.st5{fill:#FFFFFF;}
	.st6{fill:#243FFF;}
	.st7{fill:none;stroke:#000000;stroke-width:20;stroke-miterlimit:10;}
	.st8{fill:#AD0088;}
	.st9{fill:#FF7B22;}
	.st10{clip-path:url(#SVGID_00000021120478312290506520000014127867560542561196_);}
	.st11{clip-path:url(#SVGID_00000031181048218235362140000017122700153481412029_);}
	.st12{clip-path:url(#SVGID_00000070818694138552536070000015349365950902830495_);}
	.st13{clip-path:url(#SVGID_00000065033765045018533010000001133080925490206615_);}
	.st14{clip-path:url(#SVGID_00000119813642032328023660000017694093362018888868_);}
	.st15{clip-path:url(#SVGID_00000009591889630186472090000016957830725896139424_);}
	.st16{clip-path:url(#SVGID_00000139260712365119343620000003016437244954045355_);}
	.st17{clip-path:url(#SVGID_00000008849669146958667080000006205650075768188566_);}
	.st18{clip-path:url(#SVGID_00000162352361136655719990000006674403013021464975_);}
	.st19{clip-path:url(#SVGID_00000029030028911261024080000005985419101929411736_);}
	.st20{clip-path:url(#SVGID_00000035489315460677021700000014911170608372258479_);}
	.st21{clip-path:url(#SVGID_00000052787992097418075620000009308377935294623393_);}
	.st22{clip-path:url(#SVGID_00000150089111753412149640000015056660123829195913_);}
	.st23{clip-path:url(#SVGID_00000101792707254287365170000009840022488296674722_);}
	.st24{clip-path:url(#SVGID_00000164481575563211434520000002280789741452180922_);}
	.st25{clip-path:url(#SVGID_00000138534317735161376530000014979314877749204136_);}
	.st26{clip-path:url(#SVGID_00000180363275388033282340000018125218576194731690_);}
	.st27{clip-path:url(#SVGID_00000001645029665391618550000003797621763471164327_);}
	.st28{clip-path:url(#SVGID_00000143608714231868657410000014733084786877548726_);}
	.st29{clip-path:url(#SVGID_00000167388424877798262600000014509184926118785409_);}
	.st30{clip-path:url(#SVGID_00000175305841181386297320000018121835154562004904_);}
	.st31{clip-path:url(#SVGID_00000089539270292437371780000002838183796367103881_);}
	.st32{clip-path:url(#SVGID_00000140004496003933044730000015694394576231909038_);}
	.st33{clip-path:url(#SVGID_00000016764577826676648560000014790014436752536737_);}
	.st34{clip-path:url(#SVGID_00000123405044182855076290000007202594022423885480_);}
	.st35{clip-path:url(#SVGID_00000163755604725308430180000015208175469902448276_);}
	.st36{clip-path:url(#SVGID_00000138567519160652801600000013483625387305497005_);}
	.st37{clip-path:url(#SVGID_00000076595198427299186260000011508835059602221486_);}
	.st38{clip-path:url(#SVGID_00000016769060808655435630000002949869975466847110_);}
	.st39{clip-path:url(#SVGID_00000142860627084517877980000016971607215284347049_);}
	.st40{clip-path:url(#SVGID_00000004518360585382294760000014157143338573802624_);}
	.st41{clip-path:url(#SVGID_00000172405417905751260490000014895288928180463524_);}
	.st42{clip-path:url(#SVGID_00000060742293423316685020000005619460857487296917_);}
	.st43{clip-path:url(#SVGID_00000164495798642822691340000002165730481325192587_);}
	.st44{clip-path:url(#SVGID_00000111895965540102696140000015130711069637632948_);}
	.st45{clip-path:url(#SVGID_00000091005501884682547660000007619431036906934423_);}
	.st46{clip-path:url(#SVGID_00000061452395895931864920000017546894076791493787_);}
	.st47{clip-path:url(#SVGID_00000052094279907077189230000004003353819843090831_);}
	.st48{clip-path:url(#SVGID_00000086675362066302717190000017708989978765673611_);}
	.st49{clip-path:url(#SVGID_00000062163298940310818880000015167453008785371041_);}
	.st50{clip-path:url(#SVGID_00000160884588369218060100000001852215781735287993_);}
	.st51{clip-path:url(#SVGID_00000150814365651077243540000003337541426465675964_);}
	.st52{clip-path:url(#SVGID_00000183970391574199061480000018005543598785436297_);}
	.st53{clip-path:url(#SVGID_00000106841427013529025210000013528757476863043721_);}
	.st54{clip-path:url(#SVGID_00000039855228267399902180000016307914569290431118_);}
	.st55{clip-path:url(#SVGID_00000164514620505524391210000017144512031536539779_);}
	.st56{clip-path:url(#SVGID_00000109725965408694742520000001974825053316458394_);}
	.st57{clip-path:url(#SVGID_00000072276063734783186110000015902015856660944575_);}
	.st58{fill:none;stroke:#000000;stroke-miterlimit:10;}
	.st59{fill:#FF7B22;stroke:#FFFFFF;stroke-width:3;stroke-miterlimit:10;}
	.st60{fill:url(#);}
	.st61{clip-path:url(#SVGID_00000007396185026327691200000010023487412303934891_);}
	.st62{clip-path:url(#SVGID_00000130616557636685421350000010164214428355693234_);}
	.st63{fill:#91F2A3;}
	.st64{fill:#F0F49F;}
	.st65{fill:none;stroke:#EF670A;stroke-width:61;stroke-miterlimit:10;}
	.st66{fill:none;stroke:#0EF208;stroke-width:61;stroke-miterlimit:10;}
	.st67{fill:#F4068F;}
	.st68{fill:none;stroke:#000000;stroke-width:2;stroke-miterlimit:10;}
	.st69{fill:none;stroke:#F4068F;stroke-width:11;stroke-miterlimit:10;}
	.st70{clip-path:url(#SVGID_00000138542370411656275020000018204723681508314557_);}
	.st71{fill:#F9A7E9;}
	.st72{clip-path:url(#SVGID_00000138542370411656275020000018204723681508314557_);fill:#FC8DE4;}
	.st73{clip-path:url(#SVGID_00000138542370411656275020000018204723681508314557_);fill:#AD0088;}
	.st74{clip-path:url(#SVGID_00000138542370411656275020000018204723681508314557_);fill:#243FFF;}
	.st75{fill:#FC8DE4;}
	.st76{fill:none;stroke:#E2DEDE;stroke-width:0.25;stroke-miterlimit:10;}
	.st77{fill:none;stroke:#000000;stroke-width:0.5;stroke-miterlimit:10;}
	.st78{fill:none;stroke:#858589;stroke-width:0.25;stroke-miterlimit:10;}
</style>
<g id="Layer_1" class="st0">
</g>
<g id="layer_x5F_1">
</g>
<g id="layer_x5F_2">
</g>
<g id="layer_x5F_3">
</g>
<g id="layer_x5F_4">
</g>
<g id="Layer_6">
</g>
<g id="Layer_7">
</g>
<g id="Layer_8">
</g>
<g id="Layer_9">
</g>
<g id="backline">
</g>
<g id="oreange">
</g>
<g id="dots">
	<g id="dots_00000146482599233119005150000015138484052792557728_">
		<g>
			<g>
				<g>
					<path d="M38.1,46.7l-10.4-25H14.2l-8.9,25h5.1V48H0v-1.3h3.2L20.6,0h5.6l17.1,46.7h3.1V48H24.2v-1.3H38.1z M21.2,2.4l-6.4,17.8
						h12.3L21.2,2.4z"/>
					<path d="M112.6,46.7l-10.4-25H88.7l-8.9,25h5.1V48H74.5v-1.3h3.2L95,0h5.6l17.1,46.7h3.1V48H98.6v-1.3H112.6z M95.7,2.4
						l-6.4,17.8h12.3L95.7,2.4z"/>
					<path d="M49.1,0.4h20.7v1.3h-9.2v45h9.2V48H49.1v-1.3h8v-45h-8V0.4z"/>
				</g>
				<g>
					<path d="M5.2,58.9H4.7L1,53.3l0,0c0,0.2,0,0.3,0,0.5s0,0.3,0,0.5s0,0.3,0,0.5v4.1H0.6v-6.4H1l3.7,5.6l0,0c0-0.1,0-0.3,0-0.4
						c0-0.2,0-0.3,0-0.5s0-0.3,0-0.5v-4.2h0.4L5.2,58.9C5.1,58.9,5.2,58.9,5.2,58.9z"/>
					<path d="M8.5,54.1c0.5,0,0.9,0.1,1.2,0.4c0.3,0.3,0.4,0.7,0.4,1.2v3.2H9.8l-0.1-0.8l0,0c-0.1,0.2-0.2,0.3-0.4,0.5
						c-0.1,0.1-0.3,0.2-0.5,0.3S8.3,59,8,59s-0.6-0.1-0.8-0.2s-0.4-0.2-0.5-0.4S6.5,58,6.5,57.7c0-0.5,0.2-0.8,0.6-1.1
						c0.4-0.2,0.9-0.4,1.7-0.4h0.9v-0.3c0-0.5-0.1-0.8-0.3-1s-0.5-0.4-0.9-0.4c-0.2,0-0.5,0-0.7,0.1s-0.5,0.2-0.7,0.3L7,54.5
						c0.2-0.1,0.5-0.2,0.7-0.3C8,54.1,8.3,54.1,8.5,54.1z M9.7,56.5H8.9c-0.6,0-1.1,0.1-1.4,0.3S7,57.3,7,57.7
						c0,0.3,0.1,0.5,0.3,0.7s0.4,0.2,0.8,0.2c0.5,0,0.9-0.1,1.2-0.4s0.4-0.7,0.4-1.2V56.5z"/>
					<path d="M12.9,58.6c0.1,0,0.3,0,0.4,0c0.1,0,0.2,0,0.3-0.1v0.4c-0.1,0-0.2,0.1-0.3,0.1s-0.3,0-0.4,0c-0.3,0-0.5,0-0.7-0.2
						c-0.2-0.1-0.3-0.3-0.4-0.5c-0.1-0.2-0.1-0.5-0.1-0.8v-3H11v-0.3l0.7-0.1l0.2-1.1h0.3v1.1h1.5v0.4h-1.5v3c0,0.3,0.1,0.6,0.2,0.8
						C12.4,58.5,12.6,58.6,12.9,58.6z"/>
					<path d="M18.3,54.2v4.7h-0.4L17.8,58l0,0c-0.1,0.2-0.2,0.3-0.3,0.5c-0.1,0.1-0.3,0.3-0.5,0.3s-0.5,0.1-0.7,0.1
						c-0.4,0-0.7-0.1-0.9-0.2c-0.2-0.1-0.4-0.3-0.6-0.6s-0.2-0.6-0.2-1V54H15v3.1c0,0.5,0.1,0.8,0.3,1s0.5,0.3,0.9,0.3
						c0.3,0,0.6-0.1,0.9-0.2c0.2-0.1,0.4-0.3,0.5-0.6s0.2-0.6,0.2-1V54h0.5C18.3,54,18.3,54.2,18.3,54.2z"/>
					<path d="M21.8,54.1c0.1,0,0.2,0,0.4,0s0.2,0,0.3,0.1l-0.1,0.4c-0.1,0-0.2,0-0.3-0.1s-0.2,0-0.3,0c-0.2,0-0.4,0-0.6,0.1
						s-0.3,0.2-0.4,0.4s-0.2,0.3-0.3,0.6c-0.1,0.2-0.1,0.5-0.1,0.7v2.6H20v-4.7h0.4v0.9l0,0c0.1-0.2,0.2-0.3,0.3-0.5
						s0.3-0.3,0.5-0.4S21.5,54.1,21.8,54.1z"/>
					<path d="M25,54.1c0.5,0,0.9,0.1,1.2,0.4c0.3,0.3,0.4,0.7,0.4,1.2v3.2h-0.3l-0.1-0.8l0,0c-0.1,0.2-0.2,0.3-0.4,0.5
						c-0.1,0.1-0.3,0.2-0.5,0.3S24.8,59,24.5,59s-0.6-0.1-0.8-0.2s-0.4-0.2-0.5-0.4C23,58.2,23,58,23,57.7c0-0.5,0.2-0.8,0.6-1.1
						c0.4-0.2,0.9-0.4,1.7-0.4h0.9v-0.3c0-0.5-0.1-0.8-0.3-1s-0.6-0.4-0.9-0.4c-0.2,0-0.5,0-0.7,0.1s-0.5,0.2-0.7,0.3l-0.2-0.4
						c0.2-0.1,0.5-0.2,0.7-0.3C24.4,54.1,24.7,54.1,25,54.1z M26.1,56.5h-0.8c-0.6,0-1.1,0.1-1.4,0.3s-0.5,0.5-0.5,0.8
						s0.1,0.5,0.3,0.7s0.4,0.2,0.8,0.2c0.5,0,0.9-0.1,1.2-0.4s0.4-0.7,0.4-1.2V56.5z"/>
					<path d="M28.5,58.9h-0.4v-6.8h0.4V58.9z"/>
					<path d="M34,54.1c0.5,0,0.9,0.1,1.2,0.4c0.3,0.3,0.4,0.7,0.4,1.2v3.2h-0.3l-0.1-0.8l0,0c-0.1,0.2-0.2,0.3-0.4,0.5
						c-0.1,0.1-0.3,0.2-0.5,0.3S33.8,59,33.5,59s-0.6-0.1-0.8-0.2s-0.4-0.2-0.5-0.4S32,58,32,57.7c0-0.5,0.2-0.8,0.6-1.1
						c0.4-0.2,0.9-0.4,1.7-0.4h0.9v-0.3c0-0.5-0.1-0.8-0.3-1s-0.5-0.4-0.9-0.4c-0.2,0-0.5,0-0.7,0.1s-0.5,0.2-0.7,0.3l-0.1-0.4
						c0.2-0.1,0.5-0.2,0.7-0.3C33.5,54.1,33.8,54.1,34,54.1z M35.2,56.5h-0.8c-0.6,0-1.1,0.1-1.4,0.3s-0.5,0.5-0.5,0.8
						s0.1,0.5,0.3,0.7s0.4,0.2,0.8,0.2c0.5,0,0.9-0.1,1.2-0.4s0.4-0.7,0.4-1.2V56.5z"/>
					<path d="M39.2,54.1c0.5,0,0.9,0.1,1.2,0.4s0.4,0.7,0.4,1.3v3.1h-0.4v-3.1c0-0.5-0.1-0.8-0.3-1s-0.5-0.3-0.9-0.3
						c-0.5,0-0.9,0.2-1.2,0.5s-0.4,0.8-0.4,1.4V59h-0.4v-4.7h0.4l0.1,0.9l0,0c0.1-0.2,0.2-0.3,0.3-0.5c0.1-0.1,0.3-0.3,0.5-0.3
						C38.7,54.1,38.9,54.1,39.2,54.1z"/>
					<path d="M44.1,59c-0.6,0-1.1-0.2-1.5-0.6c-0.3-0.4-0.5-1-0.5-1.8s0.2-1.4,0.5-1.9c0.4-0.4,0.9-0.6,1.5-0.6c0.3,0,0.5,0,0.7,0.1
						s0.4,0.2,0.5,0.3s0.2,0.3,0.3,0.5l0,0c0-0.2,0-0.3,0-0.5s0-0.3,0-0.5v-1.9H46v6.8h-0.4L45.5,58l0,0c-0.1,0.2-0.2,0.3-0.3,0.5
						c-0.1,0.1-0.3,0.3-0.5,0.3C44.6,59,44.4,59,44.1,59z M44.1,58.6c0.6,0,1-0.2,1.2-0.5s0.4-0.8,0.4-1.5v-0.1
						c0-0.7-0.1-1.2-0.4-1.5c-0.2-0.4-0.6-0.5-1.1-0.5S43.3,54.7,43,55c-0.3,0.4-0.4,0.9-0.4,1.6c0,0.7,0.1,1.2,0.4,1.5
						S43.6,58.6,44.1,58.6z"/>
					<path d="M53.9,56.5c0,0.4,0,0.7-0.1,1s-0.2,0.6-0.4,0.8s-0.4,0.4-0.7,0.5S52.1,59,51.8,59s-0.6-0.1-0.9-0.2
						c-0.3-0.1-0.5-0.3-0.7-0.5s-0.2-0.5-0.3-0.8s-0.1-0.6-0.1-1c0-0.5,0.1-0.9,0.3-1.3s0.4-0.6,0.7-0.8s0.7-0.3,1.1-0.3
						c0.5,0,0.8,0.1,1.1,0.3s0.5,0.5,0.7,0.9C53.9,55.6,53.9,56.1,53.9,56.5z M50.2,56.5c0,0.4,0.1,0.8,0.2,1.1s0.3,0.6,0.5,0.7
						c0.2,0.2,0.5,0.3,0.9,0.3s0.7-0.1,0.9-0.3s0.4-0.4,0.5-0.7s0.2-0.7,0.2-1.1c0-0.4-0.1-0.8-0.2-1.1s-0.3-0.6-0.5-0.7
						s-0.5-0.2-0.8-0.2c-0.5,0-1,0.2-1.2,0.5C50.3,55.4,50.2,55.9,50.2,56.5z"/>
					<path d="M57.1,54.1c0.1,0,0.2,0,0.4,0s0.2,0,0.3,0.1l-0.1,0.4c-0.1,0-0.2,0-0.3-0.1s-0.2,0-0.3,0c-0.2,0-0.4,0-0.6,0.1
						s-0.3,0.2-0.4,0.4s-0.2,0.3-0.3,0.6c-0.1,0.2-0.1,0.5-0.1,0.7v2.6h-0.4v-4.7h0.4v0.9l0,0c0.1-0.2,0.2-0.3,0.3-0.5
						s0.3-0.3,0.5-0.4S56.9,54.1,57.1,54.1z"/>
					<path d="M60,61.1c-0.6,0-1.1-0.1-1.4-0.3s-0.5-0.5-0.5-1c0-0.3,0.1-0.6,0.3-0.8s0.5-0.4,0.8-0.4c-0.1-0.1-0.2-0.2-0.3-0.3
						s-0.1-0.2-0.1-0.4s0-0.3,0.2-0.5c0.1-0.1,0.3-0.3,0.5-0.4c-0.3-0.1-0.5-0.3-0.6-0.5c-0.2-0.2-0.2-0.5-0.2-0.9
						c0-0.3,0.1-0.6,0.2-0.8s0.3-0.4,0.6-0.5s0.5-0.2,0.9-0.2c0.1,0,0.2,0,0.3,0s0.2,0,0.2,0c0.1,0,0.1,0,0.2,0h1.5v0.4l-1,0.1
						c0.1,0.2,0.2,0.3,0.3,0.5s0.1,0.4,0.1,0.6c0,0.5-0.1,0.8-0.4,1.1s-0.7,0.4-1.2,0.4c-0.1,0-0.3,0-0.4,0
						c-0.2,0.1-0.3,0.2-0.4,0.3s-0.1,0.2-0.1,0.4c0,0.1,0,0.2,0.1,0.2c0.1,0.1,0.1,0.1,0.3,0.1c0.1,0,0.2,0.1,0.4,0.1h0.8
						c0.5,0,0.9,0.1,1.2,0.3s0.4,0.5,0.4,0.9c0,0.5-0.2,0.9-0.6,1.2C61.3,60.9,60.7,61.1,60,61.1z M60,60.7c0.4,0,0.8,0,1-0.1
						s0.5-0.2,0.6-0.4s0.2-0.4,0.2-0.7c0-0.2-0.1-0.4-0.2-0.5s-0.2-0.2-0.4-0.2s-0.4-0.1-0.7-0.1h-0.8c-0.3,0-0.5,0-0.7,0.1
						s-0.4,0.2-0.5,0.3s-0.2,0.3-0.2,0.6s0.1,0.6,0.4,0.7S59.5,60.7,60,60.7z M60.1,56.8c0.4,0,0.7-0.1,0.9-0.3s0.3-0.5,0.3-0.9
						s-0.1-0.7-0.3-0.9s-0.5-0.3-0.9-0.3s-0.7,0.1-0.9,0.3s-0.3,0.5-0.3,0.9s0.1,0.6,0.3,0.8C59.4,56.7,59.7,56.8,60.1,56.8z"/>
					<path d="M65,54.1c0.5,0,0.9,0.1,1.2,0.4c0.3,0.3,0.4,0.7,0.4,1.2v3.2h-0.3l-0.1-0.8l0,0c-0.1,0.2-0.2,0.3-0.4,0.5
						c-0.1,0.1-0.3,0.2-0.5,0.3S64.8,59,64.5,59s-0.6-0.1-0.8-0.2s-0.4-0.2-0.5-0.4C63,58.2,63,58,63,57.7c0-0.5,0.2-0.8,0.6-1.1
						c0.4-0.2,0.9-0.4,1.7-0.4h0.9v-0.3c0-0.5-0.1-0.8-0.3-1s-0.6-0.4-0.9-0.4c-0.2,0-0.5,0-0.7,0.1s-0.5,0.2-0.7,0.3l-0.2-0.4
						c0.2-0.1,0.5-0.2,0.7-0.3C64.4,54.1,64.7,54.1,65,54.1z M66.1,56.5h-0.8c-0.6,0-1.1,0.1-1.4,0.3s-0.5,0.5-0.5,0.8
						s0.1,0.5,0.3,0.7s0.4,0.2,0.8,0.2c0.5,0,0.9-0.1,1.2-0.4s0.4-0.7,0.4-1.2C66.1,56.9,66.1,56.5,66.1,56.5z"/>
					<path d="M70.1,54.1c0.5,0,0.9,0.1,1.2,0.4s0.4,0.7,0.4,1.3v3.1h-0.4v-3.1c0-0.5-0.1-0.8-0.3-1s-0.5-0.3-0.9-0.3
						c-0.5,0-0.9,0.2-1.2,0.5c-0.3,0.3-0.4,0.8-0.4,1.4V59h-0.4v-4.7h0.4l0.1,0.9l0,0c0.1-0.2,0.2-0.3,0.3-0.5
						c0.1-0.1,0.3-0.3,0.5-0.3C69.6,54.1,69.9,54.1,70.1,54.1z"/>
					<path d="M73.5,52.4c0.1,0,0.2,0,0.2,0.1c0.1,0.1,0.1,0.2,0.1,0.3s0,0.2-0.1,0.3s-0.1,0.1-0.2,0.1s-0.2,0-0.2-0.1
						c-0.1-0.1-0.1-0.2-0.1-0.3s0-0.2,0.1-0.3C73.4,52.5,73.4,52.4,73.5,52.4z M73.8,54.2v4.7h-0.4v-4.7H73.8z"/>
					<path d="M77.2,59c-0.5,0-0.9-0.1-1.2-0.3c-0.3-0.2-0.6-0.5-0.7-0.8s-0.2-0.8-0.2-1.3s0.1-1,0.3-1.3s0.5-0.7,0.8-0.9
						s0.7-0.3,1.2-0.3c0.2,0,0.4,0,0.6,0.1c0.2,0,0.4,0.1,0.5,0.2l-0.1,0.4c-0.2-0.1-0.3-0.1-0.5-0.2c-0.2,0-0.4-0.1-0.5-0.1
						c-0.4,0-0.7,0.1-1,0.3s-0.5,0.4-0.6,0.7s-0.2,0.7-0.2,1.1c0,0.4,0.1,0.8,0.2,1.1s0.3,0.5,0.6,0.7c0.3,0.2,0.6,0.3,1,0.3
						c0.2,0,0.4,0,0.7-0.1c0.2,0,0.4-0.1,0.6-0.2v0.4c-0.2,0.1-0.3,0.1-0.5,0.2S77.5,59,77.2,59z"/>
					<path d="M83.8,59c-0.5,0-0.9-0.1-1.2-0.3c-0.3-0.2-0.6-0.5-0.7-0.8s-0.2-0.8-0.2-1.3s0.1-1,0.3-1.3s0.5-0.7,0.8-0.9
						s0.7-0.3,1.2-0.3c0.2,0,0.4,0,0.6,0.1c0.2,0,0.4,0.1,0.5,0.2L85,54.8c-0.2-0.1-0.3-0.1-0.5-0.2c-0.2,0-0.4-0.1-0.5-0.1
						c-0.4,0-0.7,0.1-1,0.3s-0.5,0.4-0.6,0.7s-0.2,0.7-0.2,1.1c0,0.4,0.1,0.8,0.2,1.1s0.3,0.5,0.6,0.7c0.3,0.2,0.6,0.3,1,0.3
						c0.2,0,0.4,0,0.7-0.1c0.2,0,0.4-0.1,0.6-0.2v0.4c-0.2,0.1-0.3,0.1-0.5,0.2S84,59,83.8,59z"/>
					<path d="M90.1,56.5c0,0.4,0,0.7-0.1,1s-0.2,0.6-0.4,0.8c-0.2,0.2-0.4,0.4-0.7,0.5C88.6,58.9,88.3,59,88,59s-0.6-0.1-0.9-0.2
						c-0.3-0.1-0.5-0.3-0.7-0.5s-0.3-0.5-0.4-0.8s-0.1-0.6-0.1-1c0-0.5,0.1-0.9,0.3-1.3s0.4-0.6,0.7-0.8c0.3-0.2,0.7-0.3,1.1-0.3
						c0.5,0,0.8,0.1,1.1,0.3c0.3,0.2,0.5,0.5,0.7,0.9C90,55.6,90.1,56.1,90.1,56.5z M86.3,56.5c0,0.4,0.1,0.8,0.2,1.1
						s0.3,0.6,0.5,0.7c0.2,0.2,0.5,0.3,0.9,0.3s0.7-0.1,0.9-0.3c0.2-0.2,0.4-0.4,0.5-0.7s0.2-0.7,0.2-1.1c0-0.4-0.1-0.8-0.2-1.1
						s-0.3-0.6-0.5-0.7s-0.4-0.2-0.8-0.2c-0.5,0-1,0.2-1.2,0.5C86.5,55.4,86.3,55.9,86.3,56.5z"/>
					<path d="M94.3,57.7c0,0.3-0.1,0.5-0.2,0.7s-0.3,0.3-0.6,0.5c-0.3,0.1-0.6,0.2-1,0.2c-0.3,0-0.6,0-0.9-0.1s-0.5-0.1-0.6-0.2
						v-0.4c0.2,0.1,0.5,0.2,0.7,0.3c0.3,0.1,0.5,0.1,0.8,0.1c0.5,0,0.8-0.1,1.1-0.2c0.2-0.2,0.3-0.4,0.3-0.7c0-0.2-0.1-0.3-0.2-0.5
						c-0.1-0.1-0.3-0.2-0.5-0.3s-0.4-0.2-0.7-0.3c-0.3-0.1-0.5-0.2-0.8-0.3c-0.2-0.1-0.4-0.2-0.5-0.4S91,55.7,91,55.4
						c0-0.4,0.2-0.7,0.5-0.9s0.7-0.3,1.2-0.3c0.3,0,0.5,0,0.8,0.1c0.2,0.1,0.5,0.1,0.7,0.2L94,54.9c-0.2-0.1-0.4-0.2-0.6-0.2
						c-0.2-0.1-0.5-0.1-0.7-0.1c-0.4,0-0.7,0.1-0.9,0.2c-0.2,0.1-0.3,0.3-0.3,0.6c0,0.2,0.1,0.4,0.2,0.5s0.3,0.2,0.4,0.3
						s0.4,0.2,0.7,0.3c0.3,0.1,0.5,0.2,0.8,0.3c0.2,0.1,0.4,0.2,0.6,0.4C94.2,57.2,94.3,57.4,94.3,57.7z"/>
					<path d="M100.4,54.1c0.5,0,0.8,0.1,1.1,0.4c0.3,0.3,0.4,0.7,0.4,1.2v3.2h-0.4v-3.2c0-0.4-0.1-0.8-0.3-1s-0.5-0.3-0.8-0.3
						c-0.5,0-0.8,0.1-1.1,0.4s-0.4,0.7-0.4,1.2v2.8h-0.4v-3.2c0-0.3,0-0.5-0.1-0.7s-0.2-0.3-0.4-0.4c-0.2-0.1-0.4-0.1-0.6-0.1
						c-0.3,0-0.5,0.1-0.8,0.2s-0.4,0.3-0.5,0.6s-0.2,0.6-0.2,1v2.7h-0.4v-4.7h0.4L96,55l0,0c0.1-0.2,0.2-0.3,0.3-0.4
						c0.1-0.1,0.3-0.2,0.5-0.3s0.4-0.1,0.7-0.1c0.3,0,0.6,0.1,0.9,0.2c0.2,0.2,0.4,0.4,0.5,0.7l0,0c0.1-0.3,0.3-0.5,0.6-0.7
						C99.7,54.2,100,54.1,100.4,54.1z"/>
					<path d="M105.2,54.1c0.4,0,0.7,0.1,1,0.3s0.5,0.4,0.6,0.8c0.1,0.3,0.2,0.7,0.2,1.1v0.3h-3.4c0,0.6,0.2,1.1,0.5,1.5
						c0.3,0.3,0.7,0.5,1.3,0.5c0.3,0,0.5,0,0.8-0.1c0.2,0,0.5-0.1,0.7-0.2v0.4c-0.2,0.1-0.5,0.2-0.7,0.2s-0.5,0.1-0.8,0.1
						c-0.5,0-0.9-0.1-1.2-0.3s-0.6-0.5-0.7-0.8c-0.2-0.4-0.2-0.8-0.2-1.3s0.1-0.9,0.2-1.3c0.2-0.4,0.4-0.7,0.7-0.9
						C104.4,54.2,104.7,54.1,105.2,54.1z M105.2,54.5c-0.5,0-0.8,0.2-1.1,0.5s-0.4,0.7-0.5,1.3h2.9c0-0.3,0-0.7-0.1-0.9
						c-0.1-0.3-0.2-0.5-0.4-0.6S105.5,54.5,105.2,54.5z"/>
					<path d="M109.6,58.6c0.1,0,0.3,0,0.4,0s0.2,0,0.3-0.1v0.4c-0.1,0-0.2,0.1-0.3,0.1s-0.3,0-0.4,0c-0.3,0-0.5,0-0.7-0.2
						c-0.2-0.1-0.3-0.3-0.4-0.5s-0.1-0.5-0.1-0.8v-3h-0.7v-0.3l0.7-0.1l0.2-1.1h0.3v1.1h1.5v0.4h-1.5v3c0,0.3,0.1,0.6,0.2,0.8
						C109.1,58.5,109.3,58.6,109.6,58.6z"/>
					<path d="M111.5,52.4c0.1,0,0.2,0,0.2,0.1c0.1,0.1,0.1,0.2,0.1,0.3s0,0.2-0.1,0.3s-0.1,0.1-0.2,0.1s-0.2,0-0.2-0.1
						c-0.1-0.1-0.1-0.2-0.1-0.3s0-0.2,0.1-0.3C111.3,52.5,111.4,52.4,111.5,52.4z M111.7,54.2v4.7h-0.4v-4.7H111.7z"/>
					<path d="M115.2,59c-0.5,0-0.9-0.1-1.2-0.3s-0.6-0.5-0.7-0.8s-0.2-0.8-0.2-1.3s0.1-1,0.3-1.3s0.5-0.7,0.8-0.9s0.7-0.3,1.2-0.3
						c0.2,0,0.4,0,0.6,0.1c0.2,0,0.4,0.1,0.5,0.2l-0.1,0.4c-0.2-0.1-0.3-0.1-0.5-0.2c-0.2,0-0.4-0.1-0.5-0.1c-0.4,0-0.7,0.1-1,0.3
						s-0.5,0.4-0.6,0.7s-0.2,0.7-0.2,1.1c0,0.4,0.1,0.8,0.2,1.1s0.3,0.5,0.6,0.7s0.6,0.3,1,0.3c0.2,0,0.4,0,0.7-0.1
						c0.2,0,0.4-0.1,0.6-0.2v0.4c-0.2,0.1-0.3,0.1-0.5,0.2S115.4,59,115.2,59z"/>
					<path d="M120.5,57.7c0,0.3-0.1,0.5-0.2,0.7s-0.3,0.3-0.6,0.5c-0.3,0.1-0.6,0.2-1,0.2c-0.3,0-0.6,0-0.9-0.1s-0.5-0.1-0.6-0.2
						v-0.4c0.2,0.1,0.5,0.2,0.7,0.3c0.3,0.1,0.5,0.1,0.8,0.1c0.5,0,0.8-0.1,1.1-0.2c0.2-0.2,0.3-0.4,0.3-0.7c0-0.2-0.1-0.3-0.2-0.5
						c-0.1-0.1-0.3-0.2-0.5-0.3s-0.4-0.2-0.7-0.3s-0.5-0.2-0.8-0.3c-0.2-0.1-0.4-0.2-0.5-0.4s-0.2-0.4-0.2-0.7
						c0-0.4,0.2-0.7,0.5-0.9s0.7-0.3,1.2-0.3c0.3,0,0.5,0,0.8,0.1c0.2,0.1,0.5,0.1,0.7,0.2l-0.2,0.4c-0.2-0.1-0.4-0.2-0.6-0.2
						c-0.2-0.1-0.5-0.1-0.7-0.1c-0.4,0-0.7,0.1-0.9,0.2c-0.2,0.1-0.3,0.3-0.3,0.6c0,0.2,0.1,0.4,0.2,0.5s0.3,0.2,0.4,0.3
						s0.4,0.2,0.7,0.3s0.5,0.2,0.8,0.3c0.2,0.1,0.4,0.2,0.6,0.4C120.4,57.2,120.5,57.4,120.5,57.7z"/>
				</g>
			</g>
		</g>
	</g>
</g>
</svg>
