<?xml version="1.0" encoding="utf-8"?>
<!-- Generator: Adobe Illustrator 26.0.1, SVG Export Plug-In . SVG Version: 6.00 Build 0)  -->
<svg version="1.1" id="Layer_1" xmlns="http://www.w3.org/2000/svg" xmlns:xlink="http://www.w3.org/1999/xlink" x="0px" y="0px"
	 viewBox="0 0 120.8 48" style="enable-background:new 0 0 120.8 48;" xml:space="preserve">
<style type="text/css">
	.st0{display:none;}
	.st1{fill:#FFFFFF;}
</style>
<g id="Layer_1_00000124161336364565537150000007485620665847410091_" class="st0">
</g>
<g id="layer_x5F_1">
</g>
<g id="layer_x5F_2">
</g>
<g id="layer_x5F_3">
</g>
<g id="layer_x5F_4">
</g>
<g id="Layer_6">
</g>
<g id="Layer_7">
</g>
<g id="Layer_8">
</g>
<g id="Layer_9">
</g>
<g id="backline">
</g>
<g id="oreange">
</g>
<g id="dots">
	<g id="dots_00000026147700210023292030000007095624211614629561_">
		<g>
			<g>
				<g>
					<path class="st1" d="M38.1,46.7l-10.4-25H14.2l-8.9,25h5.1V48H0v-1.3h3.2L20.6,0h5.6l17.1,46.7h3.1V48H24.2v-1.3H38.1z
						 M21.2,2.4l-6.4,17.8h12.3L21.2,2.4z"/>
					<path class="st1" d="M112.6,46.7l-10.4-25H88.7l-8.9,25h5.1V48H74.5v-1.3h3.2L95,0h5.6l17.1,46.7h3.1V48H98.6v-1.3H112.6z
						 M95.7,2.4l-6.4,17.8h12.3L95.7,2.4z"/>
					<path class="st1" d="M49.1,0.4h20.7v1.3h-9.2v45h9.2V48H49.1v-1.3h8v-45h-8V0.4z"/>
				</g>
			</g>
		</g>
	</g>
</g>
</svg>
