<?xml version="1.0" encoding="utf-8"?>
<!-- Generator: Adobe Illustrator 26.0.1, SVG Export Plug-In . SVG Version: 6.00 Build 0)  -->
<svg version="1.1" xmlns="http://www.w3.org/2000/svg" xmlns:xlink="http://www.w3.org/1999/xlink" x="0px" y="0px"
	 viewBox="0 0 120.8 61.1" style="enable-background:new 0 0 120.8 61.1;" xml:space="preserve">
<style type="text/css">
	.st0{display:none;}
	.st1{display:inline;}
	.st2{fill:#FFD00B;}
	.st3{fill:#FF27FF;}
	.st4{fill:#FF08B9;}
	.st5{fill:#FFFFFF;}
	.st6{fill:#243FFF;}
	.st7{fill:none;stroke:#000000;stroke-width:20;stroke-miterlimit:10;}
	.st8{fill:#AD0088;}
	.st9{fill:#FF7B22;}
	.st10{clip-path:url(#SVGID_00000067933579584272073380000004284925393668920998_);}
	.st11{clip-path:url(#SVGID_00000031167666362968540790000012683939282452283269_);}
	.st12{clip-path:url(#SVGID_00000094582034933354205660000005139154179206206134_);}
	.st13{clip-path:url(#SVGID_00000129179704779640953330000017611213698599480489_);}
	.st14{clip-path:url(#SVGID_00000182500712418019211490000009372661670266407043_);}
	.st15{clip-path:url(#SVGID_00000005972331587260588170000012931702474835288207_);}
	.st16{clip-path:url(#SVGID_00000121264506306723982890000015007950548931380404_);}
	.st17{clip-path:url(#SVGID_00000137095239164751814450000017896950266596190649_);}
	.st18{clip-path:url(#SVGID_00000047744128092913228080000004368139056744301459_);}
	.st19{clip-path:url(#SVGID_00000107547678714029342800000005328709732219617436_);}
	.st20{clip-path:url(#SVGID_00000109007669525065617220000002715012563934786482_);}
	.st21{clip-path:url(#SVGID_00000000932005242777353560000016896733287318362031_);}
	.st22{clip-path:url(#SVGID_00000114053734133415986190000014963690599115353231_);}
	.st23{clip-path:url(#SVGID_00000127738704408873494830000014130179411738048911_);}
	.st24{clip-path:url(#SVGID_00000068663827758686040420000016521262668304258979_);}
	.st25{clip-path:url(#SVGID_00000078019763024313644630000005631324379629691288_);}
	.st26{clip-path:url(#SVGID_00000087408811745196775810000009506041651280654739_);}
	.st27{clip-path:url(#SVGID_00000080927023546633469080000017039444354998511236_);}
	.st28{clip-path:url(#SVGID_00000002349895683443216390000007068401914277619865_);}
	.st29{clip-path:url(#SVGID_00000049211804852066096180000002049059711900235392_);}
	.st30{clip-path:url(#SVGID_00000129907885869269470970000015863215036049016755_);}
	.st31{clip-path:url(#SVGID_00000085246259219249442190000013500408106122484115_);}
	.st32{clip-path:url(#SVGID_00000142160631865878332210000007446557465107583379_);}
	.st33{clip-path:url(#SVGID_00000019665203341318489730000011213876466878126991_);}
	.st34{clip-path:url(#SVGID_00000135688658987798474080000011907210026531615891_);}
	.st35{clip-path:url(#SVGID_00000003805228114847695470000004766067297824698766_);}
	.st36{clip-path:url(#SVGID_00000127733736103127807330000018027832514036273326_);}
	.st37{clip-path:url(#SVGID_00000098207601565065276930000009995600698820906631_);}
	.st38{clip-path:url(#SVGID_00000085214877786902971680000003347817146010149021_);}
	.st39{clip-path:url(#SVGID_00000137126946793995247820000003495819332513295534_);}
	.st40{clip-path:url(#SVGID_00000090288753122880296410000002761804577124279723_);}
	.st41{clip-path:url(#SVGID_00000102512596114425320800000006269479149175165328_);}
	.st42{clip-path:url(#SVGID_00000093143143346505768620000011533298127396953017_);}
	.st43{clip-path:url(#SVGID_00000154386846282244970070000005715290287615753624_);}
	.st44{clip-path:url(#SVGID_00000059995512675682548120000002617125114067924904_);}
	.st45{clip-path:url(#SVGID_00000075852839261906260820000006205649126541971126_);}
	.st46{clip-path:url(#SVGID_00000099632544196707504920000002363655656772333244_);}
	.st47{clip-path:url(#SVGID_00000175280425070653277520000017676710777349114499_);}
	.st48{clip-path:url(#SVGID_00000049901979458306804440000015366196077535771544_);}
	.st49{clip-path:url(#SVGID_00000026138934900017658180000005230379034761454262_);}
	.st50{clip-path:url(#SVGID_00000121252890927507257420000005076819100163742088_);}
	.st51{clip-path:url(#SVGID_00000073695545229690645500000012841292467976234373_);}
	.st52{clip-path:url(#SVGID_00000018199717873806622300000013672267960374263463_);}
	.st53{clip-path:url(#SVGID_00000162349549401817482820000014155362980590095763_);}
	.st54{clip-path:url(#SVGID_00000065032224826830401650000014406677998616804783_);}
	.st55{clip-path:url(#SVGID_00000125578885292030780170000015317169139046266292_);}
	.st56{clip-path:url(#SVGID_00000166664120845994840590000006608265201170480785_);}
	.st57{clip-path:url(#SVGID_00000155144034896409006830000006901316198102599315_);}
	.st58{fill:none;stroke:#000000;stroke-miterlimit:10;}
	.st59{fill:#FF7B22;stroke:#FFFFFF;stroke-width:3;stroke-miterlimit:10;}
	.st60{fill:url(#);}
	.st61{clip-path:url(#SVGID_00000030451684840469604780000010099460315298513330_);}
	.st62{clip-path:url(#SVGID_00000115483524365774282760000010828804345885718190_);}
	.st63{fill:#91F2A3;}
	.st64{fill:#F0F49F;}
	.st65{fill:none;stroke:#EF670A;stroke-width:61;stroke-miterlimit:10;}
	.st66{fill:none;stroke:#0EF208;stroke-width:61;stroke-miterlimit:10;}
	.st67{fill:#F4068F;}
	.st68{fill:none;stroke:#000000;stroke-width:2;stroke-miterlimit:10;}
	.st69{fill:none;stroke:#F4068F;stroke-width:11;stroke-miterlimit:10;}
	.st70{clip-path:url(#SVGID_00000026883248224193755640000010716745781813865359_);}
	.st71{fill:#F9A7E9;}
	.st72{clip-path:url(#SVGID_00000026883248224193755640000010716745781813865359_);fill:#FC8DE4;}
	.st73{clip-path:url(#SVGID_00000026883248224193755640000010716745781813865359_);fill:#AD0088;}
	.st74{clip-path:url(#SVGID_00000026883248224193755640000010716745781813865359_);fill:#243FFF;}
	.st75{fill:#FC8DE4;}
	.st76{fill:none;stroke:#E2DEDE;stroke-width:0.25;stroke-miterlimit:10;}
	.st77{fill:none;stroke:#000000;stroke-width:0.5;stroke-miterlimit:10;}
	.st78{fill:none;stroke:#858589;stroke-width:0.25;stroke-miterlimit:10;}
</style>
<g id="Layer_1" class="st0">
</g>
<g id="layer_x5F_1">
</g>
<g id="layer_x5F_2">
</g>
<g id="layer_x5F_3">
</g>
<g id="layer_x5F_4">
</g>
<g id="Layer_6">
</g>
<g id="Layer_7">
</g>
<g id="Layer_8">
</g>
<g id="Layer_9">
</g>
<g id="backline">
</g>
<g id="oreange">
</g>
<g id="dots">
	<g id="dots_00000102532210627912357070000006605612520440388020_">
		<g>
			<g>
				<g>
					<path class="st71" d="M38.1,46.7l-10.4-25H14.2l-8.9,25h5.1V48H0v-1.3h3.2L20.6,0h5.6l17.1,46.7h3.1V48H24.2v-1.3
						C24.2,46.7,38.1,46.7,38.1,46.7z M21.2,2.4l-6.4,17.8h12.3L21.2,2.4z"/>
					<path class="st71" d="M112.6,46.7l-10.4-25H88.7l-8.9,25h5.1V48H74.5v-1.3h3.2L95,0h5.6l17.1,46.7h3.1V48H98.6v-1.3
						C98.6,46.7,112.6,46.7,112.6,46.7z M95.7,2.4l-6.4,17.8h12.3L95.7,2.4z"/>
					<path class="st71" d="M49.1,0.4h20.7v1.3h-9.2v45h9.2V48H49.1v-1.3h8v-45h-8V0.4z"/>
				</g>
				<g>
					<path class="st71" d="M5.2,58.9H4.7L1,53.3l0,0c0,0.2,0,0.3,0,0.5s0,0.3,0,0.5s0,0.3,0,0.5v4.1H0.6v-6.4H1l3.7,5.6l0,0
						c0-0.1,0-0.3,0-0.4c0-0.2,0-0.3,0-0.5s0-0.3,0-0.5v-4.2h0.4L5.2,58.9C5.1,58.9,5.2,58.9,5.2,58.9z"/>
					<path class="st71" d="M8.5,54.1c0.5,0,0.9,0.1,1.2,0.4c0.3,0.3,0.4,0.7,0.4,1.2v3.2H9.8l-0.1-0.8l0,0c-0.1,0.2-0.2,0.3-0.4,0.5
						c-0.1,0.1-0.3,0.2-0.5,0.3S8.3,59,8,59s-0.6-0.1-0.8-0.2s-0.4-0.2-0.5-0.4S6.5,58,6.5,57.7c0-0.5,0.2-0.8,0.6-1.1
						c0.4-0.2,0.9-0.4,1.7-0.4h0.9v-0.3c0-0.5-0.1-0.8-0.3-1s-0.5-0.4-0.9-0.4c-0.2,0-0.5,0-0.7,0.1s-0.5,0.2-0.7,0.3L7,54.5
						c0.2-0.1,0.5-0.2,0.7-0.3C8,54.1,8.3,54.1,8.5,54.1z M9.7,56.5H8.9c-0.6,0-1.1,0.1-1.4,0.3S7,57.3,7,57.7
						c0,0.3,0.1,0.5,0.3,0.7s0.4,0.2,0.8,0.2c0.5,0,0.9-0.1,1.2-0.4s0.4-0.7,0.4-1.2V56.5z"/>
					<path class="st71" d="M12.9,58.6c0.1,0,0.3,0,0.4,0c0.1,0,0.2,0,0.3-0.1v0.4c-0.1,0-0.2,0.1-0.3,0.1s-0.3,0-0.4,0
						c-0.3,0-0.5,0-0.7-0.2c-0.2-0.1-0.3-0.3-0.4-0.5c-0.1-0.2-0.1-0.5-0.1-0.8v-3H11v-0.3l0.7-0.1l0.2-1.1h0.3v1.1h1.5v0.4h-1.5v3
						c0,0.3,0.1,0.6,0.2,0.8C12.4,58.5,12.6,58.6,12.9,58.6z"/>
					<path class="st71" d="M18.3,54.2v4.7h-0.4L17.8,58l0,0c-0.1,0.2-0.2,0.3-0.3,0.5c-0.1,0.1-0.3,0.3-0.5,0.3s-0.5,0.1-0.7,0.1
						c-0.4,0-0.7-0.1-0.9-0.2c-0.2-0.1-0.4-0.3-0.6-0.6s-0.2-0.6-0.2-1V54H15v3.1c0,0.5,0.1,0.8,0.3,1s0.5,0.3,0.9,0.3
						c0.3,0,0.6-0.1,0.9-0.2c0.2-0.1,0.4-0.3,0.5-0.6s0.2-0.6,0.2-1V54h0.5C18.3,54,18.3,54.2,18.3,54.2z"/>
					<path class="st71" d="M21.8,54.1c0.1,0,0.2,0,0.4,0s0.2,0,0.3,0.1l-0.1,0.4c-0.1,0-0.2,0-0.3-0.1s-0.2,0-0.3,0
						c-0.2,0-0.4,0-0.6,0.1s-0.3,0.2-0.4,0.4s-0.2,0.3-0.3,0.6c-0.1,0.2-0.1,0.5-0.1,0.7v2.6H20v-4.7h0.4v0.9l0,0
						c0.1-0.2,0.2-0.3,0.3-0.5s0.3-0.3,0.5-0.4S21.5,54.1,21.8,54.1z"/>
					<path class="st71" d="M25,54.1c0.5,0,0.9,0.1,1.2,0.4c0.3,0.3,0.4,0.7,0.4,1.2v3.2h-0.3l-0.1-0.8l0,0c-0.1,0.2-0.2,0.3-0.4,0.5
						c-0.1,0.1-0.3,0.2-0.5,0.3S24.8,59,24.5,59s-0.6-0.1-0.8-0.2s-0.4-0.2-0.5-0.4C23,58.2,23,58,23,57.7c0-0.5,0.2-0.8,0.6-1.1
						c0.4-0.2,0.9-0.4,1.7-0.4h0.9v-0.3c0-0.5-0.1-0.8-0.3-1s-0.6-0.4-0.9-0.4c-0.2,0-0.5,0-0.7,0.1s-0.5,0.2-0.7,0.3l-0.2-0.4
						c0.2-0.1,0.5-0.2,0.7-0.3C24.4,54.1,24.7,54.1,25,54.1z M26.1,56.5h-0.8c-0.6,0-1.1,0.1-1.4,0.3s-0.5,0.5-0.5,0.8
						s0.1,0.5,0.3,0.7s0.4,0.2,0.8,0.2c0.5,0,0.9-0.1,1.2-0.4s0.4-0.7,0.4-1.2V56.5z"/>
					<path class="st71" d="M28.5,58.9h-0.4v-6.8h0.4V58.9z"/>
					<path class="st71" d="M34,54.1c0.5,0,0.9,0.1,1.2,0.4c0.3,0.3,0.4,0.7,0.4,1.2v3.2h-0.3l-0.1-0.8l0,0c-0.1,0.2-0.2,0.3-0.4,0.5
						c-0.1,0.1-0.3,0.2-0.5,0.3S33.8,59,33.5,59s-0.6-0.1-0.8-0.2s-0.4-0.2-0.5-0.4S32,58,32,57.7c0-0.5,0.2-0.8,0.6-1.1
						c0.4-0.2,0.9-0.4,1.7-0.4h0.9v-0.3c0-0.5-0.1-0.8-0.3-1s-0.5-0.4-0.9-0.4c-0.2,0-0.5,0-0.7,0.1s-0.5,0.2-0.7,0.3l-0.1-0.4
						c0.2-0.1,0.5-0.2,0.7-0.3C33.5,54.1,33.8,54.1,34,54.1z M35.2,56.5h-0.8c-0.6,0-1.1,0.1-1.4,0.3s-0.5,0.5-0.5,0.8
						s0.1,0.5,0.3,0.7s0.4,0.2,0.8,0.2c0.5,0,0.9-0.1,1.2-0.4s0.4-0.7,0.4-1.2V56.5z"/>
					<path class="st71" d="M39.2,54.1c0.5,0,0.9,0.1,1.2,0.4s0.4,0.7,0.4,1.3v3.1h-0.4v-3.1c0-0.5-0.1-0.8-0.3-1s-0.5-0.3-0.9-0.3
						c-0.5,0-0.9,0.2-1.2,0.5s-0.4,0.8-0.4,1.4V59h-0.4v-4.7h0.4l0.1,0.9l0,0c0.1-0.2,0.2-0.3,0.3-0.5c0.1-0.1,0.3-0.3,0.5-0.3
						C38.7,54.1,38.9,54.1,39.2,54.1z"/>
					<path class="st71" d="M44.1,59c-0.6,0-1.1-0.2-1.5-0.6c-0.3-0.4-0.5-1-0.5-1.8s0.2-1.4,0.5-1.9c0.4-0.4,0.9-0.6,1.5-0.6
						c0.3,0,0.5,0,0.7,0.1s0.4,0.2,0.5,0.3s0.2,0.3,0.3,0.5l0,0c0-0.2,0-0.3,0-0.5s0-0.3,0-0.5v-1.9H46v6.8h-0.4L45.5,58l0,0
						c-0.1,0.2-0.2,0.3-0.3,0.5c-0.1,0.1-0.3,0.3-0.5,0.3C44.6,59,44.4,59,44.1,59z M44.1,58.6c0.6,0,1-0.2,1.2-0.5s0.4-0.8,0.4-1.5
						v-0.1c0-0.7-0.1-1.2-0.4-1.5c-0.2-0.4-0.6-0.5-1.1-0.5S43.3,54.7,43,55c-0.3,0.4-0.4,0.9-0.4,1.6c0,0.7,0.1,1.2,0.4,1.5
						S43.6,58.6,44.1,58.6z"/>
					<path class="st71" d="M53.9,56.5c0,0.4,0,0.7-0.1,1s-0.2,0.6-0.4,0.8s-0.4,0.4-0.7,0.5S52.1,59,51.8,59s-0.6-0.1-0.9-0.2
						c-0.3-0.1-0.5-0.3-0.7-0.5s-0.2-0.5-0.3-0.8s-0.1-0.6-0.1-1c0-0.5,0.1-0.9,0.3-1.3s0.4-0.6,0.7-0.8s0.7-0.3,1.1-0.3
						c0.5,0,0.8,0.1,1.1,0.3s0.5,0.5,0.7,0.9C53.9,55.6,53.9,56.1,53.9,56.5z M50.2,56.5c0,0.4,0.1,0.8,0.2,1.1s0.3,0.6,0.5,0.7
						c0.2,0.2,0.5,0.3,0.9,0.3s0.7-0.1,0.9-0.3s0.4-0.4,0.5-0.7s0.2-0.7,0.2-1.1c0-0.4-0.1-0.8-0.2-1.1s-0.3-0.6-0.5-0.7
						s-0.5-0.2-0.8-0.2c-0.5,0-1,0.2-1.2,0.5C50.3,55.4,50.2,55.9,50.2,56.5z"/>
					<path class="st71" d="M57.1,54.1c0.1,0,0.2,0,0.4,0s0.2,0,0.3,0.1l-0.1,0.4c-0.1,0-0.2,0-0.3-0.1s-0.2,0-0.3,0
						c-0.2,0-0.4,0-0.6,0.1s-0.3,0.2-0.4,0.4s-0.2,0.3-0.3,0.6c-0.1,0.2-0.1,0.5-0.1,0.7v2.6h-0.4v-4.7h0.4v0.9l0,0
						c0.1-0.2,0.2-0.3,0.3-0.5s0.3-0.3,0.5-0.4S56.9,54.1,57.1,54.1z"/>
					<path class="st71" d="M60,61.1c-0.6,0-1.1-0.1-1.4-0.3s-0.5-0.5-0.5-1c0-0.3,0.1-0.6,0.3-0.8s0.5-0.4,0.8-0.4
						c-0.1-0.1-0.2-0.2-0.3-0.3s-0.1-0.2-0.1-0.4s0-0.3,0.2-0.5c0.1-0.1,0.3-0.3,0.5-0.4c-0.3-0.1-0.5-0.3-0.6-0.5
						c-0.2-0.2-0.2-0.5-0.2-0.9c0-0.3,0.1-0.6,0.2-0.8s0.3-0.4,0.6-0.5s0.5-0.2,0.9-0.2c0.1,0,0.2,0,0.3,0s0.2,0,0.2,0
						c0.1,0,0.1,0,0.2,0h1.5v0.4l-1,0.1c0.1,0.2,0.2,0.3,0.3,0.5s0.1,0.4,0.1,0.6c0,0.5-0.1,0.8-0.4,1.1s-0.7,0.4-1.2,0.4
						c-0.1,0-0.3,0-0.4,0c-0.2,0.1-0.3,0.2-0.4,0.3s-0.1,0.2-0.1,0.4c0,0.1,0,0.2,0.1,0.2c0.1,0.1,0.1,0.1,0.3,0.1
						c0.1,0,0.2,0.1,0.4,0.1h0.8c0.5,0,0.9,0.1,1.2,0.3s0.4,0.5,0.4,0.9c0,0.5-0.2,0.9-0.6,1.2C61.3,60.9,60.7,61.1,60,61.1z
						 M60,60.7c0.4,0,0.8,0,1-0.1s0.5-0.2,0.6-0.4s0.2-0.4,0.2-0.7c0-0.2-0.1-0.4-0.2-0.5s-0.2-0.2-0.4-0.2s-0.4-0.1-0.7-0.1h-0.8
						c-0.3,0-0.5,0-0.7,0.1s-0.4,0.2-0.5,0.3s-0.2,0.3-0.2,0.6s0.1,0.6,0.4,0.7S59.5,60.7,60,60.7z M60.1,56.8
						c0.4,0,0.7-0.1,0.9-0.3s0.3-0.5,0.3-0.9s-0.1-0.7-0.3-0.9s-0.5-0.3-0.9-0.3s-0.7,0.1-0.9,0.3s-0.3,0.5-0.3,0.9s0.1,0.6,0.3,0.8
						C59.4,56.7,59.7,56.8,60.1,56.8z"/>
					<path class="st71" d="M65,54.1c0.5,0,0.9,0.1,1.2,0.4c0.3,0.3,0.4,0.7,0.4,1.2v3.2h-0.3l-0.1-0.8l0,0c-0.1,0.2-0.2,0.3-0.4,0.5
						c-0.1,0.1-0.3,0.2-0.5,0.3S64.8,59,64.5,59s-0.6-0.1-0.8-0.2s-0.4-0.2-0.5-0.4C63,58.2,63,58,63,57.7c0-0.5,0.2-0.8,0.6-1.1
						c0.4-0.2,0.9-0.4,1.7-0.4h0.9v-0.3c0-0.5-0.1-0.8-0.3-1s-0.6-0.4-0.9-0.4c-0.2,0-0.5,0-0.7,0.1s-0.5,0.2-0.7,0.3l-0.2-0.4
						c0.2-0.1,0.5-0.2,0.7-0.3C64.4,54.1,64.7,54.1,65,54.1z M66.1,56.5h-0.8c-0.6,0-1.1,0.1-1.4,0.3s-0.5,0.5-0.5,0.8
						s0.1,0.5,0.3,0.7s0.4,0.2,0.8,0.2c0.5,0,0.9-0.1,1.2-0.4s0.4-0.7,0.4-1.2C66.1,56.9,66.1,56.5,66.1,56.5z"/>
					<path class="st71" d="M70.1,54.1c0.5,0,0.9,0.1,1.2,0.4s0.4,0.7,0.4,1.3v3.1h-0.4v-3.1c0-0.5-0.1-0.8-0.3-1s-0.5-0.3-0.9-0.3
						c-0.5,0-0.9,0.2-1.2,0.5c-0.3,0.3-0.4,0.8-0.4,1.4V59h-0.4v-4.7h0.4l0.1,0.9l0,0c0.1-0.2,0.2-0.3,0.3-0.5
						c0.1-0.1,0.3-0.3,0.5-0.3C69.6,54.1,69.9,54.1,70.1,54.1z"/>
					<path class="st71" d="M73.5,52.4c0.1,0,0.2,0,0.2,0.1c0.1,0.1,0.1,0.2,0.1,0.3s0,0.2-0.1,0.3s-0.1,0.1-0.2,0.1s-0.2,0-0.2-0.1
						c-0.1-0.1-0.1-0.2-0.1-0.3s0-0.2,0.1-0.3C73.4,52.5,73.4,52.4,73.5,52.4z M73.8,54.2v4.7h-0.4v-4.7H73.8z"/>
					<path class="st71" d="M77.2,59c-0.5,0-0.9-0.1-1.2-0.3c-0.3-0.2-0.6-0.5-0.7-0.8s-0.2-0.8-0.2-1.3s0.1-1,0.3-1.3
						s0.5-0.7,0.8-0.9s0.7-0.3,1.2-0.3c0.2,0,0.4,0,0.6,0.1c0.2,0,0.4,0.1,0.5,0.2l-0.1,0.4c-0.2-0.1-0.3-0.1-0.5-0.2
						c-0.2,0-0.4-0.1-0.5-0.1c-0.4,0-0.7,0.1-1,0.3s-0.5,0.4-0.6,0.7s-0.2,0.7-0.2,1.1c0,0.4,0.1,0.8,0.2,1.1s0.3,0.5,0.6,0.7
						c0.3,0.2,0.6,0.3,1,0.3c0.2,0,0.4,0,0.7-0.1c0.2,0,0.4-0.1,0.6-0.2v0.4c-0.2,0.1-0.3,0.1-0.5,0.2S77.5,59,77.2,59z"/>
					<path class="st71" d="M83.8,59c-0.5,0-0.9-0.1-1.2-0.3c-0.3-0.2-0.6-0.5-0.7-0.8s-0.2-0.8-0.2-1.3s0.1-1,0.3-1.3
						s0.5-0.7,0.8-0.9s0.7-0.3,1.2-0.3c0.2,0,0.4,0,0.6,0.1c0.2,0,0.4,0.1,0.5,0.2L85,54.8c-0.2-0.1-0.3-0.1-0.5-0.2
						c-0.2,0-0.4-0.1-0.5-0.1c-0.4,0-0.7,0.1-1,0.3s-0.5,0.4-0.6,0.7s-0.2,0.7-0.2,1.1c0,0.4,0.1,0.8,0.2,1.1s0.3,0.5,0.6,0.7
						c0.3,0.2,0.6,0.3,1,0.3c0.2,0,0.4,0,0.7-0.1c0.2,0,0.4-0.1,0.6-0.2v0.4c-0.2,0.1-0.3,0.1-0.5,0.2S84,59,83.8,59z"/>
					<path class="st71" d="M90.1,56.5c0,0.4,0,0.7-0.1,1s-0.2,0.6-0.4,0.8c-0.2,0.2-0.4,0.4-0.7,0.5C88.6,58.9,88.3,59,88,59
						s-0.6-0.1-0.9-0.2c-0.3-0.1-0.5-0.3-0.7-0.5s-0.3-0.5-0.4-0.8s-0.1-0.6-0.1-1c0-0.5,0.1-0.9,0.3-1.3s0.4-0.6,0.7-0.8
						c0.3-0.2,0.7-0.3,1.1-0.3c0.5,0,0.8,0.1,1.1,0.3c0.3,0.2,0.5,0.5,0.7,0.9C90,55.6,90.1,56.1,90.1,56.5z M86.3,56.5
						c0,0.4,0.1,0.8,0.2,1.1s0.3,0.6,0.5,0.7c0.2,0.2,0.5,0.3,0.9,0.3s0.7-0.1,0.9-0.3c0.2-0.2,0.4-0.4,0.5-0.7s0.2-0.7,0.2-1.1
						c0-0.4-0.1-0.8-0.2-1.1s-0.3-0.6-0.5-0.7s-0.4-0.2-0.8-0.2c-0.5,0-1,0.2-1.2,0.5C86.5,55.4,86.3,55.9,86.3,56.5z"/>
					<path class="st71" d="M94.3,57.7c0,0.3-0.1,0.5-0.2,0.7s-0.3,0.3-0.6,0.5c-0.3,0.1-0.6,0.2-1,0.2c-0.3,0-0.6,0-0.9-0.1
						s-0.5-0.1-0.6-0.2v-0.4c0.2,0.1,0.5,0.2,0.7,0.3c0.3,0.1,0.5,0.1,0.8,0.1c0.5,0,0.8-0.1,1.1-0.2c0.2-0.2,0.3-0.4,0.3-0.7
						c0-0.2-0.1-0.3-0.2-0.5c-0.1-0.1-0.3-0.2-0.5-0.3s-0.4-0.2-0.7-0.3c-0.3-0.1-0.5-0.2-0.8-0.3c-0.2-0.1-0.4-0.2-0.5-0.4
						S91,55.7,91,55.4c0-0.4,0.2-0.7,0.5-0.9s0.7-0.3,1.2-0.3c0.3,0,0.5,0,0.8,0.1c0.2,0.1,0.5,0.1,0.7,0.2L94,54.9
						c-0.2-0.1-0.4-0.2-0.6-0.2c-0.2-0.1-0.5-0.1-0.7-0.1c-0.4,0-0.7,0.1-0.9,0.2c-0.2,0.1-0.3,0.3-0.3,0.6c0,0.2,0.1,0.4,0.2,0.5
						s0.3,0.2,0.4,0.3s0.4,0.2,0.7,0.3c0.3,0.1,0.5,0.2,0.8,0.3c0.2,0.1,0.4,0.2,0.6,0.4C94.2,57.2,94.3,57.4,94.3,57.7z"/>
					<path class="st71" d="M100.4,54.1c0.5,0,0.8,0.1,1.1,0.4c0.3,0.3,0.4,0.7,0.4,1.2v3.2h-0.4v-3.2c0-0.4-0.1-0.8-0.3-1
						s-0.5-0.3-0.8-0.3c-0.5,0-0.8,0.1-1.1,0.4s-0.4,0.7-0.4,1.2v2.8h-0.4v-3.2c0-0.3,0-0.5-0.1-0.7s-0.2-0.3-0.4-0.4
						s-0.4-0.1-0.6-0.1c-0.3,0-0.5,0.1-0.8,0.2s-0.4,0.3-0.5,0.6s-0.2,0.6-0.2,1v2.7h-0.4v-4.7h0.4L96,55l0,0
						c0.1-0.2,0.2-0.3,0.3-0.4c0.1-0.1,0.3-0.2,0.5-0.3s0.4-0.1,0.7-0.1c0.3,0,0.6,0.1,0.9,0.2c0.2,0.2,0.4,0.4,0.5,0.7l0,0
						c0.1-0.3,0.3-0.5,0.6-0.7C99.7,54.2,100,54.1,100.4,54.1z"/>
					<path class="st71" d="M105.2,54.1c0.4,0,0.7,0.1,1,0.3s0.5,0.4,0.6,0.8c0.1,0.3,0.2,0.7,0.2,1.1v0.3h-3.4
						c0,0.6,0.2,1.1,0.5,1.5c0.3,0.3,0.7,0.5,1.3,0.5c0.3,0,0.5,0,0.8-0.1c0.2,0,0.5-0.1,0.7-0.2v0.4c-0.2,0.1-0.5,0.2-0.7,0.2
						s-0.5,0.1-0.8,0.1c-0.5,0-0.9-0.1-1.2-0.3s-0.6-0.5-0.7-0.8c-0.2-0.4-0.2-0.8-0.2-1.3s0.1-0.9,0.2-1.3c0.2-0.4,0.4-0.7,0.7-0.9
						C104.4,54.2,104.7,54.1,105.2,54.1z M105.2,54.5c-0.5,0-0.8,0.2-1.1,0.5s-0.4,0.7-0.5,1.3h2.9c0-0.3,0-0.7-0.1-0.9
						c-0.1-0.3-0.2-0.5-0.4-0.6S105.5,54.5,105.2,54.5z"/>
					<path class="st71" d="M109.6,58.6c0.1,0,0.3,0,0.4,0s0.2,0,0.3-0.1v0.4c-0.1,0-0.2,0.1-0.3,0.1s-0.3,0-0.4,0
						c-0.3,0-0.5,0-0.7-0.2c-0.2-0.1-0.3-0.3-0.4-0.5s-0.1-0.5-0.1-0.8v-3h-0.7v-0.3l0.7-0.1l0.2-1.1h0.3v1.1h1.5v0.4h-1.5v3
						c0,0.3,0.1,0.6,0.2,0.8C109.1,58.5,109.3,58.6,109.6,58.6z"/>
					<path class="st71" d="M111.5,52.4c0.1,0,0.2,0,0.2,0.1c0.1,0.1,0.1,0.2,0.1,0.3s0,0.2-0.1,0.3s-0.1,0.1-0.2,0.1s-0.2,0-0.2-0.1
						c-0.1-0.1-0.1-0.2-0.1-0.3s0-0.2,0.1-0.3C111.3,52.5,111.4,52.4,111.5,52.4z M111.7,54.2v4.7h-0.4v-4.7H111.7z"/>
					<path class="st71" d="M115.2,59c-0.5,0-0.9-0.1-1.2-0.3s-0.6-0.5-0.7-0.8s-0.2-0.8-0.2-1.3s0.1-1,0.3-1.3s0.5-0.7,0.8-0.9
						s0.7-0.3,1.2-0.3c0.2,0,0.4,0,0.6,0.1c0.2,0,0.4,0.1,0.5,0.2l-0.1,0.4c-0.2-0.1-0.3-0.1-0.5-0.2c-0.2,0-0.4-0.1-0.5-0.1
						c-0.4,0-0.7,0.1-1,0.3s-0.5,0.4-0.6,0.7s-0.2,0.7-0.2,1.1c0,0.4,0.1,0.8,0.2,1.1s0.3,0.5,0.6,0.7s0.6,0.3,1,0.3
						c0.2,0,0.4,0,0.7-0.1c0.2,0,0.4-0.1,0.6-0.2v0.4c-0.2,0.1-0.3,0.1-0.5,0.2S115.4,59,115.2,59z"/>
					<path class="st71" d="M120.5,57.7c0,0.3-0.1,0.5-0.2,0.7s-0.3,0.3-0.6,0.5c-0.3,0.1-0.6,0.2-1,0.2c-0.3,0-0.6,0-0.9-0.1
						s-0.5-0.1-0.6-0.2v-0.4c0.2,0.1,0.5,0.2,0.7,0.3c0.3,0.1,0.5,0.1,0.8,0.1c0.5,0,0.8-0.1,1.1-0.2c0.2-0.2,0.3-0.4,0.3-0.7
						c0-0.2-0.1-0.3-0.2-0.5c-0.1-0.1-0.3-0.2-0.5-0.3s-0.4-0.2-0.7-0.3s-0.5-0.2-0.8-0.3c-0.2-0.1-0.4-0.2-0.5-0.4
						s-0.2-0.4-0.2-0.7c0-0.4,0.2-0.7,0.5-0.9s0.7-0.3,1.2-0.3c0.3,0,0.5,0,0.8,0.1c0.2,0.1,0.5,0.1,0.7,0.2l-0.2,0.4
						c-0.2-0.1-0.4-0.2-0.6-0.2c-0.2-0.1-0.5-0.1-0.7-0.1c-0.4,0-0.7,0.1-0.9,0.2c-0.2,0.1-0.3,0.3-0.3,0.6c0,0.2,0.1,0.4,0.2,0.5
						s0.3,0.2,0.4,0.3s0.4,0.2,0.7,0.3s0.5,0.2,0.8,0.3c0.2,0.1,0.4,0.2,0.6,0.4C120.4,57.2,120.5,57.4,120.5,57.7z"/>
				</g>
			</g>
		</g>
	</g>
</g>
</svg>
