<?xml version="1.0" encoding="utf-8"?>
<!-- Generator: Adobe Illustrator 26.0.1, SVG Export Plug-In . SVG Version: 6.00 Build 0)  -->
<svg version="1.1" id="Layer_1" xmlns="http://www.w3.org/2000/svg" xmlns:xlink="http://www.w3.org/1999/xlink" x="0px" y="0px"
	 viewBox="0 0 165.2 81.6" style="enable-background:new 0 0 165.2 81.6;" xml:space="preserve">
<style type="text/css">
	.st0{display:none;}
	.st1{fill:#E2DEDE;}
</style>
<g id="Layer_1_00000028324137830889071180000011983383532886274741_" class="st0">
</g>
<g id="layer_x5F_1">
</g>
<g id="layer_x5F_2">
</g>
<g id="layer_x5F_3">
</g>
<g id="layer_x5F_4">
</g>
<g id="Layer_6">
</g>
<g id="Layer_7">
</g>
<g id="Layer_8">
</g>
<g id="Layer_9">
</g>
<g id="backline">
</g>
<g id="oreange">
</g>
<g id="dots">
	<g>
		<g>
			<g>
				<g>
					<g>
						<path class="st1" d="M146.8,60.8H26.1V53h120.7V60.8z M26.3,60.5h120.2v-7.2H26.3V60.5z"/>
					</g>
				</g>
				<g>
					<g>
						<path class="st1" d="M146.8,53.2H26v-7.8h120.8V53.2z M26.3,53h120.2v-7.2H26.3V53z"/>
					</g>
				</g>
				<g>
					<g>
						<path class="st1" d="M146.8,45.7H26.1v-7.8h120.8V45.7z M26.3,45.4h120.3v-7.3H26.3V45.4z"/>
					</g>
				</g>
				<g>
					<g>
						<path class="st1" d="M146.8,38.1H26v-7.8h120.8V38.1z M26.3,37.9h120.2v-7.2H26.3V37.9z"/>
					</g>
				</g>
				<g>
					<g>
						<path class="st1" d="M146.8,30.6H26.1v-7.8h120.8V30.6z M26.3,30.3h120.2v-7.2H26.3V30.3z"/>
					</g>
				</g>
				<g>
					<g>
						<path class="st1" d="M146.8,23H26v-7.8h120.7V23z M26.3,22.8h120.2v-7.2H26.3V22.8z"/>
					</g>
				</g>
				<g>
					<g>
						<path class="st1" d="M146.8,15.5H26.1V7.7h120.8V15.5z M26.3,15.2h120.2V8H26.3V15.2z"/>
					</g>
				</g>
				<g>
					<g>
						<path class="st1" d="M146.8,7.9H26V0.2h120.8V7.9z M26.3,7.7h120.3V0.4H26.3V7.7z"/>
					</g>
				</g>
				<g>
					<g>
						<path class="st1" d="M34,60.5h-7.8V0.1H34V60.5z M26.5,60.3h7.2V0.3h-7.2V60.3z"/>
					</g>
				</g>
				<g>
					<g>
						<path class="st1" d="M41.6,60.5h-7.8V0.1h7.8V60.5z M34.1,60.3h7.2V0.3h-7.2V60.3z"/>
					</g>
				</g>
				<g>
					<g>
						<path class="st1" d="M49.1,60.5h-7.8V0.1h7.8V60.5z M41.6,60.3h7.2V0.3h-7.2V60.3z"/>
					</g>
				</g>
				<g>
					<g>
						<path class="st1" d="M56.7,60.5h-7.8V0.1h7.8V60.5z M49.2,60.3h7.2V0.3h-7.2V60.3z"/>
					</g>
				</g>
				<g>
					<g>
						<path class="st1" d="M64.2,60.5h-7.8V0.1h7.8V60.5z M56.7,60.3h7.2V0.3h-7.2V60.3z"/>
					</g>
				</g>
				<g>
					<g>
						<path class="st1" d="M71.8,60.5H64V0.1h7.8V60.5z M64.3,60.3h7.2V0.3h-7.2V60.3z"/>
					</g>
				</g>
				<g>
					<g>
						<path class="st1" d="M79.3,60.5h-7.8V0.1h7.8V60.5z M71.8,60.3H79V0.3h-7.2V60.3z"/>
					</g>
				</g>
				<g>
					<g>
						<path class="st1" d="M86.8,60.5H79V0.1h7.7V60.5z M79.3,60.3h7.2V0.3h-7.2V60.3z"/>
					</g>
				</g>
				<g>
					<g>
						<path class="st1" d="M94.4,60.5h-7.8V0.1h7.8V60.5z M86.9,60.3h7.2V0.3h-7.2V60.3z"/>
					</g>
				</g>
				<g>
					<g>
						<path class="st1" d="M101.9,60.5h-7.8V0.1h7.8V60.5z M94.4,60.3h7.2V0.3h-7.2V60.3z"/>
					</g>
				</g>
				<g>
					<g>
						<path class="st1" d="M109.5,60.5h-7.8V0.1h7.8V60.5z M102,60.3h7.2V0.3H102V60.3z"/>
					</g>
				</g>
				<g>
					<g>
						<path class="st1" d="M117,60.5h-7.8V0.1h7.8V60.5z M109.5,60.3h7.2V0.3h-7.2V60.3z"/>
					</g>
				</g>
				<g>
					<g>
						<path class="st1" d="M124.6,60.5h-7.8V0.1h7.8V60.5z M117.1,60.3h7.2V0.3h-7.2V60.3z"/>
					</g>
				</g>
				<g>
					<g>
						<path class="st1" d="M132.1,60.5h-7.8V0.1h7.8V60.5z M124.6,60.3h7.2V0.3h-7.2V60.3z"/>
					</g>
				</g>
				<g>
					<g>
						<path class="st1" d="M139.7,60.5h-7.8V0.1h7.8V60.5z M132.2,60.3h7.2V0.3h-7.2V60.3z"/>
					</g>
				</g>
				<g>
					<g>
						<path class="st1" d="M147.2,60.5h-7.8V0.1h7.8V60.5z M139.7,60.3h7.2V0.3h-7.2V60.3z"/>
					</g>
				</g>
			</g>
			<g>
				<g>
					<g>
						<path d="M64.1,47.2l-10.4-25H40.2l-8.9,25h5.1v1.3H26v-1.3h3.2L46.6,0.5h5.6l17.1,46.7h3.1v1.3H50.2v-1.3H64.1z M47.2,2.9
							l-6.4,17.8h12.3L47.2,2.9z"/>
					</g>
				</g>
				<g>
					<g>
						<path d="M138.6,47.2l-10.4-25h-13.5l-8.9,25h5.1v1.3h-10.4v-1.3h3.2L121,0.5h5.6l17.1,46.7h3.1v1.3h-22.2v-1.3H138.6z
							 M121.7,2.9l-6.4,17.8h12.3L121.7,2.9z"/>
					</g>
				</g>
				<g>
					<g>
						<path d="M75.1,0.9h20.7v1.3h-9.2v45h9.2v1.3H75.1v-1.3h8v-45h-8V0.9z"/>
					</g>
				</g>
			</g>
			<g>
				<g>
					<g>
						<path d="M31.2,59.4h-0.5L27,53.8l0,0c0,0.2,0,0.3,0,0.5s0,0.3,0,0.5s0,0.3,0,0.5v4.1h-0.4V53H27l3.7,5.6l0,0
							c0-0.1,0-0.3,0-0.4c0-0.2,0-0.3,0-0.5s0-0.3,0-0.5V53h0.4v6.4H31.2z"/>
					</g>
				</g>
				<g>
					<g>
						<path d="M34.5,54.6c0.5,0,0.9,0.1,1.2,0.4c0.3,0.3,0.4,0.7,0.4,1.2v3.2h-0.3l-0.1-0.8l0,0c-0.1,0.2-0.2,0.3-0.4,0.5
							c-0.1,0.1-0.3,0.2-0.5,0.3s-0.5,0.1-0.8,0.1s-0.6-0.1-0.8-0.2s-0.4-0.2-0.5-0.4s-0.2-0.4-0.2-0.7c0-0.5,0.2-0.8,0.6-1.1
							c0.4-0.2,0.9-0.4,1.7-0.4h0.9v-0.3c0-0.5-0.1-0.8-0.3-1S34.9,55,34.5,55c-0.2,0-0.5,0-0.7,0.1s-0.5,0.2-0.7,0.3L33,55
							c0.2-0.1,0.5-0.2,0.7-0.3C34,54.6,34.3,54.6,34.5,54.6z M35.7,57h-0.8c-0.6,0-1.1,0.1-1.4,0.3S33,57.8,33,58.2
							c0,0.3,0.1,0.5,0.3,0.7s0.4,0.2,0.8,0.2c0.5,0,0.9-0.1,1.2-0.4s0.4-0.7,0.4-1.2V57z"/>
					</g>
				</g>
				<g>
					<g>
						<path d="M38.9,59.1c0.1,0,0.3,0,0.4,0c0.1,0,0.2,0,0.3-0.1v0.4c-0.1,0-0.2,0.1-0.3,0.1s-0.3,0-0.4,0c-0.3,0-0.5,0-0.7-0.2
							c-0.2-0.1-0.3-0.3-0.4-0.5c-0.1-0.2-0.1-0.5-0.1-0.8v-3H37v-0.3l0.7-0.1l0.2-1.1h0.3v1.1h1.5V55h-1.5v3c0,0.3,0.1,0.6,0.2,0.8
							C38.4,59,38.6,59.1,38.9,59.1z"/>
					</g>
				</g>
				<g>
					<g>
						<path d="M44.3,54.7v4.7h-0.4l-0.1-0.9l0,0c-0.1,0.2-0.2,0.3-0.3,0.5c-0.1,0.1-0.3,0.3-0.5,0.3s-0.5,0.1-0.7,0.1
							c-0.4,0-0.7-0.1-0.9-0.2c-0.2-0.1-0.4-0.3-0.6-0.6s-0.2-0.6-0.2-1v-3.1H41v3.1c0,0.5,0.1,0.8,0.3,1s0.5,0.3,0.9,0.3
							c0.3,0,0.6-0.1,0.9-0.2c0.2-0.1,0.4-0.3,0.5-0.6s0.2-0.6,0.2-1v-2.6h0.5V54.7z"/>
					</g>
				</g>
				<g>
					<g>
						<path d="M47.8,54.6c0.1,0,0.2,0,0.4,0s0.2,0,0.3,0.1l-0.1,0.4c-0.1,0-0.2,0-0.3-0.1s-0.2,0-0.3,0c-0.2,0-0.4,0-0.6,0.1
							c-0.2,0.1-0.3,0.2-0.4,0.4c-0.1,0.2-0.2,0.3-0.3,0.6c-0.1,0.2-0.1,0.5-0.1,0.7v2.6H46v-4.7h0.4v0.9l0,0
							c0.1-0.2,0.2-0.3,0.3-0.5s0.3-0.3,0.5-0.4S47.5,54.6,47.8,54.6z"/>
					</g>
				</g>
				<g>
					<g>
						<path d="M51,54.6c0.5,0,0.9,0.1,1.2,0.4c0.3,0.3,0.4,0.7,0.4,1.2v3.2h-0.3l-0.1-0.8l0,0c-0.1,0.2-0.2,0.3-0.4,0.5
							c-0.1,0.1-0.3,0.2-0.5,0.3s-0.5,0.1-0.8,0.1s-0.6-0.1-0.8-0.2s-0.4-0.2-0.5-0.4C49,58.7,49,58.5,49,58.2
							c0-0.5,0.2-0.8,0.6-1.1c0.4-0.2,0.9-0.4,1.7-0.4h0.9v-0.3c0-0.5-0.1-0.8-0.3-1S51.3,55,51,55c-0.2,0-0.5,0-0.7,0.1
							s-0.5,0.2-0.7,0.3L49.4,55c0.2-0.1,0.5-0.2,0.7-0.3C50.4,54.6,50.7,54.6,51,54.6z M52.1,57h-0.8c-0.6,0-1.1,0.1-1.4,0.3
							s-0.5,0.5-0.5,0.8s0.1,0.5,0.3,0.7s0.4,0.2,0.8,0.2c0.5,0,0.9-0.1,1.2-0.4s0.4-0.7,0.4-1.2V57z"/>
					</g>
				</g>
				<g>
					<g>
						<path d="M54.5,59.4h-0.4v-6.8h0.4V59.4z"/>
					</g>
				</g>
				<g>
					<g>
						<path d="M60,54.6c0.5,0,0.9,0.1,1.2,0.4c0.3,0.3,0.4,0.7,0.4,1.2v3.2h-0.3l-0.1-0.8l0,0c-0.1,0.2-0.2,0.3-0.4,0.5
							c-0.1,0.1-0.3,0.2-0.5,0.3s-0.5,0.1-0.8,0.1s-0.6-0.1-0.8-0.2s-0.4-0.2-0.5-0.4S58,58.5,58,58.2c0-0.5,0.2-0.8,0.6-1.1
							c0.4-0.2,0.9-0.4,1.7-0.4h0.9v-0.3c0-0.5-0.1-0.8-0.3-1S60.4,55,60,55c-0.2,0-0.5,0-0.7,0.1s-0.5,0.2-0.7,0.3L58.5,55
							c0.2-0.1,0.5-0.2,0.7-0.3C59.5,54.6,59.8,54.6,60,54.6z M61.2,57h-0.8c-0.6,0-1.1,0.1-1.4,0.3s-0.5,0.5-0.5,0.8
							s0.1,0.5,0.3,0.7s0.4,0.2,0.8,0.2c0.5,0,0.9-0.1,1.2-0.4s0.4-0.7,0.4-1.2V57z"/>
					</g>
				</g>
				<g>
					<g>
						<path d="M65.2,54.6c0.5,0,0.9,0.1,1.2,0.4s0.4,0.7,0.4,1.3v3.1h-0.4v-3.1c0-0.5-0.1-0.8-0.3-1S65.6,55,65.2,55
							c-0.5,0-0.9,0.2-1.2,0.5s-0.4,0.8-0.4,1.4v2.6h-0.4v-4.7h0.4l0.1,0.9l0,0c0.1-0.2,0.2-0.3,0.3-0.5c0.1-0.1,0.3-0.3,0.5-0.3
							C64.7,54.6,64.9,54.6,65.2,54.6z"/>
					</g>
				</g>
				<g>
					<g>
						<path d="M70.1,59.5c-0.6,0-1.1-0.2-1.5-0.6c-0.3-0.4-0.5-1-0.5-1.8s0.2-1.4,0.5-1.9c0.4-0.4,0.9-0.6,1.5-0.6
							c0.3,0,0.5,0,0.7,0.1s0.4,0.2,0.5,0.3s0.2,0.3,0.3,0.5l0,0c0-0.2,0-0.3,0-0.5s0-0.3,0-0.5v-1.9H72v6.8h-0.4l-0.1-0.9l0,0
							c-0.1,0.2-0.2,0.3-0.3,0.5c-0.1,0.1-0.3,0.3-0.5,0.3C70.6,59.5,70.4,59.5,70.1,59.5z M70.1,59.1c0.6,0,1-0.2,1.2-0.5
							s0.4-0.8,0.4-1.5V57c0-0.7-0.1-1.2-0.4-1.5c-0.2-0.4-0.6-0.5-1.1-0.5s-0.9,0.2-1.2,0.5c-0.3,0.4-0.4,0.9-0.4,1.6
							c0,0.7,0.1,1.2,0.4,1.5S69.6,59.1,70.1,59.1z"/>
					</g>
				</g>
				<g>
					<g>
						<path d="M79.9,57c0,0.4,0,0.7-0.1,1s-0.2,0.6-0.4,0.8s-0.4,0.4-0.7,0.5c-0.3,0.1-0.6,0.2-0.9,0.2s-0.6-0.1-0.9-0.2
							c-0.3-0.1-0.5-0.3-0.7-0.5S76,58.3,75.9,58s-0.1-0.6-0.1-1c0-0.5,0.1-0.9,0.3-1.3s0.4-0.6,0.7-0.8c0.3-0.2,0.7-0.3,1.1-0.3
							c0.5,0,0.8,0.1,1.1,0.3c0.3,0.2,0.5,0.5,0.7,0.9C79.9,56.1,79.9,56.6,79.9,57z M76.2,57c0,0.4,0.1,0.8,0.2,1.1
							s0.3,0.6,0.5,0.7c0.2,0.2,0.5,0.3,0.9,0.3s0.7-0.1,0.9-0.3c0.2-0.2,0.4-0.4,0.5-0.7s0.2-0.7,0.2-1.1c0-0.4-0.1-0.8-0.2-1.1
							s-0.3-0.6-0.5-0.7S78.2,55,77.9,55c-0.5,0-1,0.2-1.2,0.5C76.3,55.9,76.2,56.4,76.2,57z"/>
					</g>
				</g>
				<g>
					<g>
						<path d="M83.1,54.6c0.1,0,0.2,0,0.4,0s0.2,0,0.3,0.1l-0.1,0.4c-0.1,0-0.2,0-0.3-0.1s-0.2,0-0.3,0c-0.2,0-0.4,0-0.6,0.1
							s-0.3,0.2-0.4,0.4s-0.2,0.3-0.3,0.6c-0.1,0.2-0.1,0.5-0.1,0.7v2.6h-0.4v-4.7h0.4v0.9l0,0c0.1-0.2,0.2-0.3,0.3-0.5
							s0.3-0.3,0.5-0.4S82.9,54.6,83.1,54.6z"/>
					</g>
				</g>
				<g>
					<g>
						<path d="M86,61.6c-0.6,0-1.1-0.1-1.4-0.3s-0.5-0.5-0.5-1c0-0.3,0.1-0.6,0.3-0.8s0.5-0.4,0.8-0.4c-0.1-0.1-0.2-0.2-0.3-0.3
							s-0.1-0.2-0.1-0.4s0-0.3,0.2-0.5c0.1-0.1,0.3-0.3,0.5-0.4c-0.3-0.1-0.5-0.3-0.6-0.5c-0.2-0.2-0.2-0.5-0.2-0.9
							c0-0.3,0.1-0.6,0.2-0.8s0.3-0.4,0.6-0.5c0.3-0.1,0.5-0.2,0.9-0.2c0.1,0,0.2,0,0.3,0c0.1,0,0.2,0,0.2,0c0.1,0,0.1,0,0.2,0h1.5
							V55l-1,0.1c0.1,0.2,0.2,0.3,0.3,0.5C88,55.8,88,56,88,56.2c0,0.5-0.1,0.8-0.4,1.1s-0.7,0.4-1.2,0.4c-0.1,0-0.3,0-0.4,0
							c-0.2,0.1-0.3,0.2-0.4,0.3s-0.1,0.2-0.1,0.4c0,0.1,0,0.2,0.1,0.2c0.1,0.1,0.1,0.1,0.3,0.1c0.1,0,0.2,0.1,0.4,0.1h0.8
							c0.5,0,0.9,0.1,1.2,0.3c0.3,0.2,0.4,0.5,0.4,0.9c0,0.5-0.2,0.9-0.6,1.2C87.3,61.4,86.7,61.6,86,61.6z M86,61.2
							c0.4,0,0.8,0,1-0.1s0.5-0.2,0.6-0.4s0.2-0.4,0.2-0.7c0-0.2-0.1-0.4-0.2-0.5s-0.2-0.2-0.4-0.2c-0.2,0-0.4-0.1-0.7-0.1h-0.8
							c-0.3,0-0.5,0-0.7,0.1s-0.4,0.2-0.5,0.3s-0.2,0.3-0.2,0.6s0.1,0.6,0.4,0.7S85.5,61.2,86,61.2z M86.1,57.3
							c0.4,0,0.7-0.1,0.9-0.3s0.3-0.5,0.3-0.9s-0.1-0.7-0.3-0.9s-0.5-0.3-0.9-0.3s-0.7,0.1-0.9,0.3c-0.2,0.2-0.3,0.5-0.3,0.9
							s0.1,0.6,0.3,0.8C85.4,57.2,85.7,57.3,86.1,57.3z"/>
					</g>
				</g>
				<g>
					<g>
						<path d="M91,54.6c0.5,0,0.9,0.1,1.2,0.4c0.3,0.3,0.4,0.7,0.4,1.2v3.2h-0.3l-0.1-0.8l0,0c-0.1,0.2-0.2,0.3-0.4,0.5
							c-0.1,0.1-0.3,0.2-0.5,0.3s-0.5,0.1-0.8,0.1s-0.6-0.1-0.8-0.2s-0.4-0.2-0.5-0.4C89,58.7,89,58.5,89,58.2
							c0-0.5,0.2-0.8,0.6-1.1c0.4-0.2,0.9-0.4,1.7-0.4h0.9v-0.3c0-0.5-0.1-0.8-0.3-1S91.3,55,91,55c-0.2,0-0.5,0-0.7,0.1
							s-0.5,0.2-0.7,0.3L89.4,55c0.2-0.1,0.5-0.2,0.7-0.3C90.4,54.6,90.7,54.6,91,54.6z M92.1,57h-0.8c-0.6,0-1.1,0.1-1.4,0.3
							s-0.5,0.5-0.5,0.8s0.1,0.5,0.3,0.7c0.2,0.2,0.4,0.2,0.8,0.2c0.5,0,0.9-0.1,1.2-0.4s0.4-0.7,0.4-1.2V57z"/>
					</g>
				</g>
				<g>
					<g>
						<path d="M96.1,54.6c0.5,0,0.9,0.1,1.2,0.4s0.4,0.7,0.4,1.3v3.1h-0.4v-3.1c0-0.5-0.1-0.8-0.3-1S96.5,55,96.1,55
							c-0.5,0-0.9,0.2-1.2,0.5c-0.3,0.3-0.4,0.8-0.4,1.4v2.6h-0.4v-4.7h0.4l0.1,0.9l0,0c0.1-0.2,0.2-0.3,0.3-0.5
							c0.1-0.1,0.3-0.3,0.5-0.3C95.6,54.6,95.9,54.6,96.1,54.6z"/>
					</g>
				</g>
				<g>
					<g>
						<path d="M99.5,52.9c0.1,0,0.2,0,0.2,0.1c0.1,0.1,0.1,0.2,0.1,0.3s0,0.2-0.1,0.3s-0.1,0.1-0.2,0.1s-0.2,0-0.2-0.1
							c-0.1-0.1-0.1-0.2-0.1-0.3s0-0.2,0.1-0.3C99.4,53,99.4,52.9,99.5,52.9z M99.8,54.7v4.7h-0.4v-4.7H99.8z"/>
					</g>
				</g>
				<g>
					<g>
						<path d="M103.2,59.5c-0.5,0-0.9-0.1-1.2-0.3c-0.3-0.2-0.6-0.5-0.7-0.8s-0.2-0.8-0.2-1.3s0.1-1,0.3-1.3s0.5-0.7,0.8-0.9
							s0.7-0.3,1.2-0.3c0.2,0,0.4,0,0.6,0.1c0.2,0,0.4,0.1,0.5,0.2l-0.1,0.4c-0.2-0.1-0.3-0.1-0.5-0.2c-0.2,0-0.4-0.1-0.5-0.1
							c-0.4,0-0.7,0.1-1,0.3s-0.5,0.4-0.6,0.7s-0.2,0.7-0.2,1.1c0,0.4,0.1,0.8,0.2,1.1s0.3,0.5,0.6,0.7c0.3,0.2,0.6,0.3,1,0.3
							c0.2,0,0.4,0,0.7-0.1c0.2,0,0.4-0.1,0.6-0.2v0.4c-0.2,0.1-0.3,0.1-0.5,0.2S103.5,59.5,103.2,59.5z"/>
					</g>
				</g>
				<g>
					<g>
						<path d="M109.8,59.5c-0.5,0-0.9-0.1-1.2-0.3c-0.3-0.2-0.6-0.5-0.7-0.8s-0.2-0.8-0.2-1.3s0.1-1,0.3-1.3s0.5-0.7,0.8-0.9
							s0.7-0.3,1.2-0.3c0.2,0,0.4,0,0.6,0.1c0.2,0,0.4,0.1,0.5,0.2l-0.1,0.4c-0.2-0.1-0.3-0.1-0.5-0.2c-0.2,0-0.4-0.1-0.5-0.1
							c-0.4,0-0.7,0.1-1,0.3s-0.5,0.4-0.6,0.7s-0.2,0.7-0.2,1.1c0,0.4,0.1,0.8,0.2,1.1s0.3,0.5,0.6,0.7c0.3,0.2,0.6,0.3,1,0.3
							c0.2,0,0.4,0,0.7-0.1c0.2,0,0.4-0.1,0.6-0.2v0.4c-0.2,0.1-0.3,0.1-0.5,0.2S110,59.5,109.8,59.5z"/>
					</g>
				</g>
				<g>
					<g>
						<path d="M116.1,57c0,0.4,0,0.7-0.1,1s-0.2,0.6-0.4,0.8c-0.2,0.2-0.4,0.4-0.7,0.5c-0.3,0.1-0.6,0.2-0.9,0.2s-0.6-0.1-0.9-0.2
							c-0.3-0.1-0.5-0.3-0.7-0.5s-0.3-0.5-0.4-0.8s-0.1-0.6-0.1-1c0-0.5,0.1-0.9,0.3-1.3s0.4-0.6,0.7-0.8c0.3-0.2,0.7-0.3,1.1-0.3
							c0.5,0,0.8,0.1,1.1,0.3c0.3,0.2,0.5,0.5,0.7,0.9C116,56.1,116.1,56.6,116.1,57z M112.3,57c0,0.4,0.1,0.8,0.2,1.1
							s0.3,0.6,0.5,0.7c0.2,0.2,0.5,0.3,0.9,0.3s0.7-0.1,0.9-0.3c0.2-0.2,0.4-0.4,0.5-0.7s0.2-0.7,0.2-1.1c0-0.4-0.1-0.8-0.2-1.1
							s-0.3-0.6-0.5-0.7S114.4,55,114,55c-0.5,0-1,0.2-1.2,0.5C112.5,55.9,112.3,56.4,112.3,57z"/>
					</g>
				</g>
				<g>
					<g>
						<path d="M120.3,58.2c0,0.3-0.1,0.5-0.2,0.7s-0.3,0.3-0.6,0.5c-0.3,0.1-0.6,0.2-1,0.2c-0.3,0-0.6,0-0.9-0.1s-0.5-0.1-0.6-0.2
							v-0.4c0.2,0.1,0.5,0.2,0.7,0.3c0.3,0.1,0.5,0.1,0.8,0.1c0.5,0,0.8-0.1,1.1-0.2c0.2-0.2,0.3-0.4,0.3-0.7c0-0.2-0.1-0.3-0.2-0.5
							c-0.1-0.1-0.3-0.2-0.5-0.3s-0.4-0.2-0.7-0.3c-0.3-0.1-0.5-0.2-0.8-0.3c-0.2-0.1-0.4-0.2-0.5-0.4s-0.2-0.4-0.2-0.7
							c0-0.4,0.2-0.7,0.5-0.9s0.7-0.3,1.2-0.3c0.3,0,0.5,0,0.8,0.1c0.2,0.1,0.5,0.1,0.7,0.2l-0.2,0.4c-0.2-0.1-0.4-0.2-0.6-0.2
							c-0.2-0.1-0.5-0.1-0.7-0.1c-0.4,0-0.7,0.1-0.9,0.2c-0.2,0.1-0.3,0.3-0.3,0.6c0,0.2,0.1,0.4,0.2,0.5s0.3,0.2,0.4,0.3
							s0.4,0.2,0.7,0.3c0.3,0.1,0.5,0.2,0.8,0.3c0.2,0.1,0.4,0.2,0.6,0.4C120.2,57.7,120.3,57.9,120.3,58.2z"/>
					</g>
				</g>
				<g>
					<g>
						<path d="M126.4,54.6c0.5,0,0.8,0.1,1.1,0.4c0.3,0.3,0.4,0.7,0.4,1.2v3.2h-0.4v-3.2c0-0.4-0.1-0.8-0.3-1s-0.5-0.3-0.8-0.3
							c-0.5,0-0.8,0.1-1.1,0.4s-0.4,0.7-0.4,1.2v2.8h-0.4v-3.2c0-0.3,0-0.5-0.1-0.7s-0.2-0.3-0.4-0.4c-0.2-0.1-0.4-0.1-0.6-0.1
							c-0.3,0-0.5,0.1-0.8,0.2s-0.4,0.3-0.5,0.6s-0.2,0.6-0.2,1v2.7h-0.4v-4.7h0.4l0.1,0.8l0,0c0.1-0.2,0.2-0.3,0.3-0.4
							c0.1-0.1,0.3-0.2,0.5-0.3s0.4-0.1,0.7-0.1c0.3,0,0.6,0.1,0.9,0.2c0.2,0.2,0.4,0.4,0.5,0.7l0,0c0.1-0.3,0.3-0.5,0.6-0.7
							C125.7,54.7,126,54.6,126.4,54.6z"/>
					</g>
				</g>
				<g>
					<g>
						<path d="M131.2,54.6c0.4,0,0.7,0.1,1,0.3s0.5,0.4,0.6,0.8c0.1,0.3,0.2,0.7,0.2,1.1v0.3h-3.4c0,0.6,0.2,1.1,0.5,1.5
							c0.3,0.3,0.7,0.5,1.3,0.5c0.3,0,0.5,0,0.8-0.1c0.2,0,0.5-0.1,0.7-0.2v0.4c-0.2,0.1-0.5,0.2-0.7,0.2s-0.5,0.1-0.8,0.1
							c-0.5,0-0.9-0.1-1.2-0.3s-0.6-0.5-0.7-0.8c-0.2-0.4-0.2-0.8-0.2-1.3s0.1-0.9,0.2-1.3c0.2-0.4,0.4-0.7,0.7-0.9
							C130.4,54.7,130.7,54.6,131.2,54.6z M131.2,55c-0.5,0-0.8,0.2-1.1,0.5s-0.4,0.7-0.5,1.3h2.9c0-0.3,0-0.7-0.1-0.9
							c-0.1-0.3-0.2-0.5-0.4-0.6S131.5,55,131.2,55z"/>
					</g>
				</g>
				<g>
					<g>
						<path d="M135.6,59.1c0.1,0,0.3,0,0.4,0c0.1,0,0.2,0,0.3-0.1v0.4c-0.1,0-0.2,0.1-0.3,0.1s-0.3,0-0.4,0c-0.3,0-0.5,0-0.7-0.2
							c-0.2-0.1-0.3-0.3-0.4-0.5c-0.1-0.2-0.1-0.5-0.1-0.8v-3h-0.7v-0.3l0.7-0.1l0.2-1.1h0.3v1.1h1.5V55h-1.5v3
							c0,0.3,0.1,0.6,0.2,0.8C135.1,59,135.3,59.1,135.6,59.1z"/>
					</g>
				</g>
				<g>
					<g>
						<path d="M137.5,52.9c0.1,0,0.2,0,0.2,0.1c0.1,0.1,0.1,0.2,0.1,0.3s0,0.2-0.1,0.3s-0.1,0.1-0.2,0.1c-0.1,0-0.2,0-0.2-0.1
							c-0.1-0.1-0.1-0.2-0.1-0.3s0-0.2,0.1-0.3C137.3,53,137.4,52.9,137.5,52.9z M137.7,54.7v4.7h-0.4v-4.7H137.7z"/>
					</g>
				</g>
				<g>
					<g>
						<path d="M141.2,59.5c-0.5,0-0.9-0.1-1.2-0.3s-0.6-0.5-0.7-0.8s-0.2-0.8-0.2-1.3s0.1-1,0.3-1.3s0.5-0.7,0.8-0.9
							s0.7-0.3,1.2-0.3c0.2,0,0.4,0,0.6,0.1c0.2,0,0.4,0.1,0.5,0.2l-0.1,0.4c-0.2-0.1-0.3-0.1-0.5-0.2c-0.2,0-0.4-0.1-0.5-0.1
							c-0.4,0-0.7,0.1-1,0.3s-0.5,0.4-0.6,0.7s-0.2,0.7-0.2,1.1c0,0.4,0.1,0.8,0.2,1.1c0.1,0.3,0.3,0.5,0.6,0.7s0.6,0.3,1,0.3
							c0.2,0,0.4,0,0.7-0.1c0.2,0,0.4-0.1,0.6-0.2v0.4c-0.2,0.1-0.3,0.1-0.5,0.2S141.4,59.5,141.2,59.5z"/>
					</g>
				</g>
				<g>
					<g>
						<path d="M146.5,58.2c0,0.3-0.1,0.5-0.2,0.7c-0.1,0.2-0.3,0.3-0.6,0.5c-0.3,0.1-0.6,0.2-1,0.2c-0.3,0-0.6,0-0.9-0.1
							c-0.3-0.1-0.5-0.1-0.6-0.2v-0.4c0.2,0.1,0.5,0.2,0.7,0.3c0.3,0.1,0.5,0.1,0.8,0.1c0.5,0,0.8-0.1,1.1-0.2
							c0.2-0.2,0.3-0.4,0.3-0.7c0-0.2-0.1-0.3-0.2-0.5c-0.1-0.1-0.3-0.2-0.5-0.3s-0.4-0.2-0.7-0.3s-0.5-0.2-0.8-0.3
							c-0.2-0.1-0.4-0.2-0.5-0.4s-0.2-0.4-0.2-0.7c0-0.4,0.2-0.7,0.5-0.9s0.7-0.3,1.2-0.3c0.3,0,0.5,0,0.8,0.1
							c0.2,0.1,0.5,0.1,0.7,0.2l-0.2,0.4c-0.2-0.1-0.4-0.2-0.6-0.2c-0.2-0.1-0.5-0.1-0.7-0.1c-0.4,0-0.7,0.1-0.9,0.2
							c-0.2,0.1-0.3,0.3-0.3,0.6c0,0.2,0.1,0.4,0.2,0.5s0.3,0.2,0.4,0.3s0.4,0.2,0.7,0.3s0.5,0.2,0.8,0.3c0.2,0.1,0.4,0.2,0.6,0.4
							C146.4,57.7,146.5,57.9,146.5,58.2z"/>
					</g>
				</g>
			</g>
		</g>
	</g>
</g>
<g>
	<path d="M0.4,30.7v-0.8h1.9v7.2H1.3v-6.4H0.4z"/>
	<path d="M3.8,32.7c-0.1-0.1-0.2-0.3-0.2-0.4s0.1-0.3,0.2-0.4c0.1-0.1,0.3-0.2,0.4-0.2c0.2,0,0.3,0.1,0.4,0.2
		c0.1,0.1,0.2,0.3,0.2,0.4s-0.1,0.3-0.2,0.4s-0.3,0.2-0.4,0.2C4.1,32.9,3.9,32.8,3.8,32.7z M3.8,37c-0.1-0.1-0.2-0.3-0.2-0.4
		s0.1-0.3,0.2-0.4s0.3-0.2,0.4-0.2c0.2,0,0.3,0.1,0.4,0.2s0.2,0.3,0.2,0.4S4.8,36.9,4.7,37s-0.3,0.2-0.4,0.2
		C4.1,37.2,3.9,37.1,3.8,37z"/>
	<path d="M7.8,34.7c0.5-0.4,0.9-0.9,1.2-1.4s0.5-0.9,0.5-1.4c0-0.4-0.1-0.8-0.3-1s-0.5-0.4-1-0.4c-0.5,0-0.8,0.1-1.1,0.4
		c-0.2,0.3-0.4,0.7-0.4,1.1H5.9c0-0.7,0.3-1.3,0.7-1.7c0.4-0.4,1-0.6,1.6-0.6c0.7,0,1.2,0.2,1.6,0.6s0.6,0.9,0.6,1.6
		c0,0.6-0.2,1.1-0.5,1.6c-0.3,0.5-0.7,1-1.1,1.4c-0.4,0.4-1,0.9-1.6,1.4h3.4V37H5.8v-0.6C6.7,35.7,7.4,35.2,7.8,34.7z"/>
</g>
<g>
	<path d="M131.8,66.3v-0.8h1.9v7.2h-0.9v-6.4H131.8z"/>
	<path d="M137.9,66.1c-0.6,0-1,0.2-1.3,0.7c-0.3,0.5-0.4,1.2-0.4,2.3c0.2-0.3,0.4-0.6,0.8-0.8c0.4-0.2,0.8-0.3,1.2-0.3
		c0.7,0,1.2,0.2,1.6,0.6s0.6,1,0.6,1.8c0,0.5-0.1,0.9-0.3,1.2s-0.4,0.6-0.8,0.9c-0.4,0.2-0.8,0.3-1.3,0.3c-0.7,0-1.2-0.2-1.6-0.5
		s-0.7-0.7-0.8-1.3s-0.2-1.2-0.2-2c0-2.4,0.9-3.7,2.6-3.7c0.7,0,1.2,0.2,1.5,0.5c0.4,0.4,0.6,0.8,0.7,1.3h-0.8
		C139.1,66.5,138.7,66.1,137.9,66.1z M137.1,68.9c-0.3,0.1-0.5,0.3-0.6,0.5c-0.2,0.2-0.2,0.5-0.2,0.9c0,0.5,0.1,0.9,0.4,1.2
		c0.3,0.3,0.7,0.5,1.3,0.5c0.5,0,0.8-0.1,1.1-0.4c0.3-0.3,0.4-0.7,0.4-1.2c0-0.5-0.1-0.9-0.4-1.2s-0.7-0.4-1.2-0.4
		C137.6,68.7,137.4,68.7,137.1,68.9z"/>
	<path d="M144.6,69.2l2.1,3.5h-1l-1.7-2.7l-1.6,2.7h-1l2.1-3.5l-2.1-3.5h1l1.7,2.7l1.6-2.7h1L144.6,69.2z"/>
</g>
<g>
	<path d="M154.1,55.4c-0.2-0.3-0.3-0.6-0.3-1c0-0.4,0.1-0.7,0.3-1s0.4-0.5,0.8-0.7s0.8-0.3,1.3-0.3s0.9,0.1,1.3,0.3
		c0.4,0.2,0.6,0.4,0.8,0.7s0.3,0.6,0.3,1c0,0.4-0.1,0.7-0.3,1c-0.2,0.3-0.5,0.5-0.8,0.6c0.4,0.1,0.7,0.3,1,0.7s0.4,0.7,0.4,1.1
		c0,0.4-0.1,0.8-0.3,1.1c-0.2,0.3-0.5,0.6-0.9,0.8c-0.4,0.2-0.8,0.3-1.3,0.3s-1-0.1-1.3-0.3c-0.4-0.2-0.7-0.4-0.9-0.8
		c-0.2-0.3-0.3-0.7-0.3-1.1c0-0.4,0.1-0.8,0.4-1.1s0.6-0.5,1-0.7C154.5,55.8,154.3,55.6,154.1,55.4z M154.9,56.7
		c-0.3,0.2-0.5,0.6-0.5,1c0,0.4,0.2,0.8,0.5,1c0.3,0.3,0.7,0.4,1.2,0.4c0.5,0,0.9-0.1,1.2-0.4c0.3-0.3,0.4-0.6,0.4-1
		c0-0.4-0.2-0.8-0.5-1c-0.3-0.2-0.7-0.4-1.2-0.4C155.6,56.4,155.2,56.5,154.9,56.7z M157.2,53.5c-0.3-0.2-0.6-0.3-1.1-0.3
		c-0.5,0-0.8,0.1-1.1,0.3c-0.3,0.2-0.4,0.5-0.4,1c0,0.4,0.1,0.7,0.4,0.9c0.3,0.2,0.6,0.3,1.1,0.3c0.4,0,0.8-0.1,1.1-0.3
		c0.3-0.2,0.4-0.5,0.4-0.9C157.6,54,157.5,53.7,157.2,53.5z"/>
	<path d="M162.9,56.3l2.1,3.5h-1l-1.7-2.7l-1.6,2.7h-1l2.1-3.5l-2.1-3.5h1l1.7,2.7l1.6-2.7h1L162.9,56.3z"/>
</g>
</svg>
