<?xml version="1.0" encoding="utf-8"?>
<!-- Generator: Adobe Illustrator 26.0.1, SVG Export Plug-In . SVG Version: 6.00 Build 0)  -->
<svg version="1.1" id="Layer_1" xmlns="http://www.w3.org/2000/svg" xmlns:xlink="http://www.w3.org/1999/xlink" x="0px" y="0px"
	 viewBox="0 0 113.7 120.9" style="enable-background:new 0 0 113.7 120.9;" xml:space="preserve">
<style type="text/css">
	.st0{fill:none;}
	.st1{fill:#FC8DE4;}
	.st2{fill:#F9A7E9;}
	.st3{fill:none;stroke:#E2DEDE;stroke-width:0.25;stroke-miterlimit:10;}
	.st4{fill:url(#SVGID_1_);}
	.st5{fill:url(#);}
</style>
<pattern  x="644.3" y="-454.7" width="566.9" height="850.4" patternUnits="userSpaceOnUse" id="New_Pattern_6" viewBox="183.7 -1028.6 566.9 850.4" style="overflow:visible;">
	<g>
		<rect x="183.7" y="-1028.6" class="st0" width="566.9" height="850.4"/>
		<path class="st1" d="M677.5-3.6c-17.7-3.4-58.7-11.3-85.9-45.6c-41.2-52-24.9-132.2,5.3-180.5c26.9-43.2,65.2-61.6,115.7-85.9
			c62.3-29.9,107.1-51.5,147.2-35.1c64.6,26.5,94.8,142.3,59.6,227.9C878.8-24,760.2,12.3,677.5-3.6z"/>
		<path class="st1" d="M110.6-3.6C92.9-7,51.9-14.9,24.7-49.2c-41.2-52-24.9-132.2,5.3-180.5c26.9-43.2,65.2-61.6,115.7-85.9
			c62.3-29.9,107.1-51.5,147.2-35.1c64.6,26.5,94.8,142.3,59.6,227.9C311.9-24,193.3,12.3,110.6-3.6z"/>
		<path class="st1" d="M394.1-428.8c-17.7-3.4-58.7-11.3-85.9-45.6c-41.2-52-24.9-132.2,5.3-180.5c26.9-43.2,65.2-61.6,115.7-85.9
			c62.3-29.9,107.1-51.5,147.2-35.1C641-749.4,671.2-633.6,636-548C595.3-449.2,476.8-412.9,394.1-428.8z"/>
		<path class="st1" d="M677.5-854c-17.7-3.4-58.7-11.3-85.9-45.6c-41.2-52-24.9-132.2,5.3-180.5c26.9-43.2,65.2-61.6,115.7-85.9
			c62.3-29.9,107.1-51.5,147.2-35.1c64.6,26.5,94.8,142.3,59.6,227.9C878.8-874.4,760.2-838.1,677.5-854z"/>
		<path class="st1" d="M110.6-854c-17.7-3.4-58.7-11.3-85.9-45.6c-41.2-52-24.9-132.2,5.3-180.5c26.9-43.2,65.2-61.6,115.7-85.9
			c62.3-29.9,107.1-51.5,147.2-35.1c64.6,26.5,94.8,142.3,59.6,227.9C311.9-874.4,193.3-838.1,110.6-854z"/>
	</g>
</pattern>
<pattern  id="SVGID_1_" xlink:href="#New_Pattern_6" patternTransform="matrix(9.838345e-02 0 0 0.1046 -7939.7607 -8645.6309)">
</pattern>
<rect class="st4" width="113.7" height="120.9"/>
</svg>
