<?xml version="1.0" encoding="utf-8"?>
<!-- Generator: Adobe Illustrator 26.0.1, SVG Export Plug-In . SVG Version: 6.00 Build 0)  -->
<svg version="1.1" id="Layer_1" xmlns="http://www.w3.org/2000/svg" xmlns:xlink="http://www.w3.org/1999/xlink" x="0px" y="0px"
	 viewBox="0 0 113.7 120.9" style="enable-background:new 0 0 113.7 120.9;" xml:space="preserve">
<style type="text/css">
	.st0{fill:none;}
	.st1{fill:#FC8DE4;}
	.st2{fill:#F9A7E9;}
	.st3{fill:none;stroke:#E2DEDE;stroke-width:0.25;stroke-miterlimit:10;}
	.st4{fill:url(#);}
	.st5{fill:url(#SVGID_1_);}
</style>
<pattern  x="375.2" y="-454.7" width="497" height="342.9" patternUnits="userSpaceOnUse" id="New_Pattern_7" viewBox="58.2 -514.3 497 342.9" style="overflow:visible;">
	<g>
		<rect x="58.2" y="-514.3" class="st0" width="497" height="342.9"/>
		<g>
			<path class="st1" d="M442.3-258.8c-16-9-18.3-67.7,14.3-81.2c20.4-8.4,49.4,2.9,54.2,19.1C518.7-293.9,460.9-248.3,442.3-258.8z"
				/>
			<path class="st1" d="M497-192.6c6.2,23.4,17.7,55.3,40.5,87.8C585.5-36.4,651.9-9.4,679.5,0"/>
		</g>
		<g>
			<path class="st1" d="M0-192.6c6.2,23.4,17.7,55.3,40.5,87.8C88.4-36.4,154.8-9.4,182.5,0"/>
		</g>
		<g>
			<path class="st1" d="M497-535.4c6.2,23.4,17.7,55.3,40.5,87.8c47.9,68.3,114.3,95.3,141.9,104.7"/>
		</g>
		<g>
			<path class="st1" d="M193.8-430.2c-16-9-18.3-67.7,14.3-81.2c20.4-8.4,49.4,2.9,54.2,19.1C270.2-465.3,212.4-419.8,193.8-430.2z"
				/>
			<path class="st1" d="M248.5-364c6.2,23.4,17.7,55.3,40.5,87.8c47.9,68.3,114.3,95.3,141.9,104.7"/>
		</g>
		<g>
			<path class="st1" d="M0-535.4c6.2,23.4,17.7,55.3,40.5,87.8c47.9,68.3,114.3,95.3,141.9,104.7"/>
		</g>
	</g>
</pattern>
<pattern  id="SVGID_1_" xlink:href="#New_Pattern_7" patternTransform="matrix(0.1929 0 0 0.205 -6582.4404 -6055.5454)">
</pattern>
<rect class="st5" width="113.7" height="120.9"/>
</svg>
