<?xml version="1.0" encoding="utf-8"?>
<!-- Generator: Adobe Illustrator 26.0.1, SVG Export Plug-In . SVG Version: 6.00 Build 0)  -->
<svg version="1.1" id="Layer_1" xmlns="http://www.w3.org/2000/svg" xmlns:xlink="http://www.w3.org/1999/xlink" x="0px" y="0px"
	 viewBox="0 0 49.7 48.5" style="enable-background:new 0 0 49.7 48.5;" xml:space="preserve">
<style type="text/css">
	.st0{fill:none;stroke:#00FF36;stroke-linecap:round;stroke-linejoin:round;stroke-miterlimit:10;}
	.st1{fill:#FFFFFF;}
	.st2{fill:none;stroke:#00FF36;stroke-width:0.5;stroke-linecap:round;stroke-linejoin:round;stroke-miterlimit:10;}
</style>
<g>
	<path id="Path_14" class="st0" d="M49.2,8.3v31.9c0,0.1-0.1,0.2-0.1,0.3c-0.6,4.4-4.4,7.6-8.8,7.5C30,48,19.7,48,9.4,48
		c-0.5,0-1,0-1.6-0.1c-4.3-0.6-7.4-4.3-7.3-8.7V9.3C0.4,4.5,4.2,0.6,8.9,0.5c0,0,0,0,0,0h0.3c10.5,0,20.9,0,31.3,0
		c4,0,7.5,2.7,8.4,6.6C49,7.5,49.1,7.9,49.2,8.3 M26.6,34c-0.1-0.3-0.1-0.6-0.2-0.8c-1.3-3.6-2.5-7.1-3.8-10.6l-3.4-9.4
		c-0.1-0.2-0.1-0.4-0.5-0.4h-4.9c-0.3,0-0.4,0.1-0.4,0.4c-0.1,0.6-0.2,1.3-0.4,1.9c-0.6,1.8-1.3,3.7-1.9,5.5
		c-1.5,4.3-3,8.5-4.5,12.8C6.4,33.9,6.5,34,7.1,34c1.1,0,2.2,0,3.3,0c0.3,0,0.6-0.2,0.7-0.5c0.4-1.4,0.9-2.7,1.3-4.1
		c0.1-0.3,0.3-0.5,0.7-0.5c0,0,0,0,0,0c1.2,0,2.3,0,3.5,0h3.5c0.5,1.6,1,3.1,1.5,4.6c0.1,0.3,0.4,0.6,0.7,0.5c0.8,0,1.5,0,2.3,0
		L26.6,34 M40.9,30c-0.8,0.2-1.5,0.4-2.2,0.5c-1.5,0.4-3.1,0.3-4.5-0.3c-1.2-0.5-2-1.7-2.1-3c0.1,0,0.2,0,0.3,0h6.2c1,0,2,0,3,0
		c0.3,0,0.5-0.1,0.5-0.5c0.1-0.9,0.1-1.7,0.1-2.5c0-2-0.9-3.8-2.5-5.1c-3.4-2.5-8.2-1.6-10.7,1.8c0,0,0,0,0,0
		c-0.1,0.2-0.3,0.4-0.4,0.6c-1,1.9-1.4,4.1-1,6.3c0.2,1.9,1.1,3.6,2.6,4.9c1.4,1.1,3,1.7,4.8,1.7c1.8,0.2,3.7-0.1,5.4-0.7
		c0.2-0.1,0.4-0.3,0.4-0.4C40.8,32.2,40.8,31.1,40.9,30"/>
	<path id="Path_15" class="st1" d="M26.6,34h-1.9c-0.8,0-1.5,0-2.3,0c-0.3,0.1-0.7-0.2-0.7-0.5c0,0,0,0,0,0c-0.5-1.5-1-3-1.6-4.6
		h-3.6c-1.2,0-2.3,0-3.5,0c-0.3-0.1-0.6,0.1-0.7,0.4l0,0c-0.4,1.4-0.9,2.7-1.3,4.1c-0.1,0.3-0.4,0.5-0.7,0.5c-1.1,0-2.2,0-3.3,0
		c-0.7,0-0.7,0-0.4-0.7c1.5-4.2,3-8.5,4.5-12.8c0.6-1.8,1.3-3.7,1.9-5.5c0.2-0.6,0.3-1.3,0.4-1.9c0-0.3,0.1-0.4,0.4-0.4
		c1.6,0,3.3,0,4.9,0c0.3,0,0.4,0.2,0.5,0.4c1.1,3.1,2.2,6.3,3.4,9.4c1.3,3.5,2.5,7.1,3.8,10.6C26.4,33.4,26.5,33.6,26.6,34
		 M16.2,16.4c-0.9,2.9-1.7,5.7-2.5,8.4h5.2C18,22.1,17.1,19.3,16.2,16.4"/>
	<path id="Path_16" class="st1" d="M40.8,29.9c0,1.1,0,2.2,0,3.3c0,0.2-0.2,0.3-0.4,0.4c-1.7,0.6-3.6,0.9-5.4,0.7
		c-1.7,0-3.4-0.7-4.8-1.7c-1.4-1.2-2.4-3-2.6-4.9c-0.4-2.2,0-4.4,1-6.3c2.1-3.7,6.7-5,10.4-2.9c0,0,0,0,0,0c0.2,0.1,0.4,0.3,0.7,0.4
		c1.5,1.2,2.4,3.1,2.5,5.1c0,0.9,0,1.7-0.1,2.6c0,0.3-0.2,0.4-0.5,0.5c-1,0-2,0-3,0h-6.3h-0.3c0.1,1.3,0.9,2.5,2.1,3
		c1.4,0.6,3,0.7,4.5,0.3C39.4,30.2,40.1,30,40.8,29.9 M32.1,24.1h5.3c0.6,0,0.7-0.1,0.6-0.6c-0.1-1-0.9-1.9-1.9-2.2
		c-1.6-0.5-3.3,0.3-3.8,1.9c0,0,0,0.1,0,0.1C32.2,23.5,32.1,23.8,32.1,24.1"/>
	<path id="Path_17" class="st2" d="M16.2,16.4c0.9,2.9,1.8,5.6,2.6,8.4h-5.2L16.2,16.4"/>
	<path id="Path_18" class="st2" d="M32.1,24.1c0-1.7,1.3-3,3-3c0.3,0,0.7,0.1,1,0.2c1,0.3,1.8,1.1,1.9,2.2c0.1,0.5,0,0.6-0.6,0.6
		L32.1,24.1"/>
</g>
</svg>
