<svg id="Layer_1" data-name="Layer 1" xmlns="http://www.w3.org/2000/svg" viewBox="0 0 48.67 47.48"><defs><style>.cls-1{fill:#00ff36;}</style></defs><path id="Path_14" data-name="Path 14" class="cls-1" d="M48.67,7.77V39.71a2.76,2.76,0,0,0-.08.27,8.66,8.66,0,0,1-8.81,7.5c-10.29,0-20.59,0-30.88,0a10.35,10.35,0,0,1-1.57-.1A8.59,8.59,0,0,1,0,38.71V8.77A8.58,8.58,0,0,1,8.39,0h.27Q24.34,0,40,0a8.58,8.58,0,0,1,8.41,6.6c.09.38.16.77.24,1.16M26.05,33.48c-.1-.34-.15-.56-.23-.78Q23.93,27.37,22,22.07l-3.36-9.42c-.08-.23-.14-.44-.46-.44H13.27c-.3,0-.35.14-.39.4a11.19,11.19,0,0,1-.37,1.9c-.6,1.85-1.27,3.68-1.91,5.51q-2.22,6.4-4.46,12.81c-.21.61-.19.64.46.64,1.09,0,2.18,0,3.27,0a.61.61,0,0,0,.68-.5c.43-1.37.89-2.73,1.3-4.11a.57.57,0,0,1,.66-.47c1.17,0,2.34,0,3.52,0h3.52C20.07,30,20.6,31.46,21.1,33a.63.63,0,0,0,.71.52c.76,0,1.52,0,2.28,0h2m14.28-4.07c-.75.17-1.45.35-2.16.48a7.44,7.44,0,0,1-4.52-.32,3.54,3.54,0,0,1-2.07-3,2.31,2.31,0,0,1,.32,0h6.22c1,0,2,0,3,0,.3,0,.47-.12.48-.45.06-.85.09-1.7.07-2.55a6.66,6.66,0,0,0-2.45-5.06,7.66,7.66,0,0,0-10.69,1.82c-.15.21-.29.43-.42.65a9.79,9.79,0,0,0-1,6.3,7.59,7.59,0,0,0,2.58,4.89,8,8,0,0,0,4.77,1.74,12.82,12.82,0,0,0,5.42-.72c.17-.07.41-.28.42-.42,0-1.1,0-2.21,0-3.31"/><path id="Path_15" data-name="Path 15" d="M26.05,33.47H24.1c-.76,0-1.52,0-2.28,0a.62.62,0,0,1-.71-.52c-.5-1.51-1-3-1.56-4.56H16c-1.17,0-2.34,0-3.51,0a.56.56,0,0,0-.66.43v0c-.41,1.38-.88,2.74-1.3,4.11a.62.62,0,0,1-.68.5c-1.09,0-2.19,0-3.28,0-.65,0-.67,0-.45-.65Q8.37,26.42,10.61,20c.64-1.83,1.3-3.66,1.91-5.51a11,11,0,0,0,.37-1.9c0-.26.08-.4.38-.4,1.65,0,3.3,0,4.94,0,.33,0,.38.2.47.44q1.66,4.71,3.36,9.42,1.91,5.32,3.79,10.63c.08.22.13.45.23.78M15.73,15.92c-.87,2.91-1.7,5.66-2.54,8.45h5.15c-.86-2.8-1.72-5.55-2.61-8.45"/><path id="Path_16" data-name="Path 16" d="M40.33,29.4c0,1.1,0,2.2,0,3.31,0,.15-.24.35-.42.42a12.77,12.77,0,0,1-5.41.72,8,8,0,0,1-4.78-1.74,7.63,7.63,0,0,1-2.58-4.88,9.77,9.77,0,0,1,1-6.3A7.67,7.67,0,0,1,38.61,18a6.42,6.42,0,0,1,.65.41,6.66,6.66,0,0,1,2.45,5.06,24.32,24.32,0,0,1-.07,2.56c0,.32-.17.44-.48.45-1,0-2,0-3,0H31.9l-.31,0a3.51,3.51,0,0,0,2.07,3,7.43,7.43,0,0,0,4.52.33c.71-.13,1.41-.32,2.15-.49M31.6,23.57h5.26c.56,0,.65-.12.59-.65a2.63,2.63,0,0,0-1.9-2.2,3,3,0,0,0-3.81,2,3,3,0,0,0-.14.89"/><path id="Path_17" data-name="Path 17" class="cls-1" d="M15.73,15.93c.89,2.89,1.75,5.64,2.61,8.44H13.19l2.54-8.44"/><path id="Path_18" data-name="Path 18" class="cls-1" d="M31.6,23.57a3,3,0,0,1,3.95-2.86,2.61,2.61,0,0,1,1.9,2.2c.06.52,0,.63-.59.64H31.6"/></svg>