<?xml version="1.0" encoding="utf-8"?>
<!-- Generator: Adobe Illustrator 26.0.1, SVG Export Plug-In . SVG Version: 6.00 Build 0)  -->
<svg version="1.1" id="Layer_1" xmlns="http://www.w3.org/2000/svg" xmlns:xlink="http://www.w3.org/1999/xlink" x="0px" y="0px"
	 viewBox="0 0 49.7 48.5" style="enable-background:new 0 0 49.7 48.5;" xml:space="preserve">
<style type="text/css">
	.st0{fill:none;stroke:#00FF36;stroke-miterlimit:10;}
	.st1{fill:#FFFFFF;}
	.st2{fill:none;stroke:#00FF36;stroke-width:0.5;stroke-linecap:round;stroke-linejoin:round;stroke-miterlimit:10;}
</style>
<g>
	<path id="Path_5" class="st0" d="M49.2,8.3v31.9c0,0.1-0.1,0.2-0.1,0.3c-0.6,4.4-4.4,7.6-8.8,7.5C30,48,19.7,48,9.5,48
		c-0.5,0-1.1,0-1.6-0.1c-4.3-0.6-7.4-4.3-7.3-8.7V9.3C0.4,4.5,4.1,0.6,8.9,0.5c0,0,0,0,0,0h0.3c10.5,0,20.9,0,31.3,0
		c4,0,7.5,2.7,8.4,6.6C49,7.5,49.1,7.9,49.2,8.3 M28.2,34h1.9c0.5,0,0.5-0.1,0.4-0.5l-0.7-1.9c-2.2-6.2-4.3-12.3-6.5-18.5
		c-0.1-0.3-0.3-0.5-0.6-0.5c-1.5,0-3.1,0-4.7,0c-0.4,0-0.5,0.1-0.5,0.5c-0.1,0.6-0.2,1.3-0.4,1.9c-0.7,2.2-1.5,4.3-2.2,6.4
		l-4.1,11.8C10.5,34,10.5,34,11.3,34c1,0,2,0,3,0c0.4,0.1,0.8-0.2,0.8-0.6l0,0c0.4-1.4,0.9-2.7,1.3-4c0-0.3,0.3-0.5,0.5-0.4l0,0
		c2.3,0,4.5,0,6.8,0c0.3,0,0.5,0.1,0.5,0.4c0,0,0,0,0,0c0.5,1.4,1,2.8,1.4,4.2c0.1,0.3,0.4,0.5,0.7,0.5l0,0
		C26.9,34.1,27.5,34.1,28.2,34 M37.1,26.1c0-2.5,0-5.1,0-7.6c0-0.4-0.1-0.5-0.5-0.5c-1.2,0-2.4,0-3.6,0c-0.4,0-0.5,0.1-0.5,0.5
		c0,5.1,0,10.1,0,15.2c0,0.4,0.2,0.5,0.6,0.5c1.1,0,2.2,0,3.4,0c0.5,0,0.6-0.1,0.6-0.6C37.1,31,37.1,28.5,37.1,26.1 M37.5,13.6
		c0.1-1.3-0.9-2.4-2.2-2.5c0,0,0,0,0,0H35c-1.4-0.1-2.5,1-2.6,2.4c0,0,0,0,0,0v0.1c-0.2,1.4,0.7,2.7,2.1,2.9
		c1.4,0.2,2.7-0.7,2.9-2.1C37.5,14.1,37.5,13.9,37.5,13.6L37.5,13.6"/>
	<path id="Path_6" class="st1" d="M28.2,34c-0.6,0-1.2,0-1.9,0c-0.3,0-0.6-0.2-0.7-0.5l0,0c-0.5-1.4-1-2.8-1.4-4.2
		c0-0.3-0.3-0.4-0.5-0.4c-2.2,0-4.5,0-6.7,0c-0.3,0-0.5,0.2-0.6,0.4l0,0c-0.4,1.4-0.9,2.7-1.3,4c-0.1,0.4-0.4,0.7-0.8,0.6l0,0
		c-1,0-2,0-3,0c-0.8,0-0.8,0-0.5-0.7l4-11.8c0.8-2.1,1.5-4.3,2.2-6.5c0.2-0.6,0.3-1.3,0.4-1.9c0-0.4,0.2-0.5,0.5-0.5h4.6
		c0.3,0,0.6,0.2,0.6,0.5c2.2,6.2,4.4,12.3,6.6,18.5c0.2,0.6,0.5,1.2,0.7,1.9s0.1,0.5-0.4,0.5L28.2,34 M22.9,24.9l-2.6-8.4h-0.1
		c-0.8,2.8-1.6,5.5-2.5,8.4L22.9,24.9z"/>
	<path id="Path_7" class="st1" d="M37.2,26c0,2.5,0,5,0,7.5c0,0.5-0.1,0.6-0.6,0.6c-1.1,0-2.2,0-3.4,0c-0.4,0-0.6-0.1-0.6-0.5
		c0-5.1,0-10.1,0-15.2c0-0.4,0.2-0.5,0.5-0.5c1.2,0,2.4,0,3.6,0c0.4,0,0.5,0.1,0.5,0.5C37.2,20.9,37.2,23.4,37.2,26"/>
	<path id="Path_8" class="st1" d="M37.5,13.6c0.2,1.4-0.8,2.7-2.2,2.8c-1.4,0.2-2.7-0.8-2.8-2.2c0-0.2,0-0.4,0-0.6v-0.1
		c0-1.4,1.1-2.5,2.4-2.5c0,0,0,0,0,0h0.1c1.3,0,2.4,1,2.4,2.3C37.5,13.4,37.5,13.5,37.5,13.6"/>
	<path id="Path_9" class="st2" d="M22.9,24.9h-5.1c0.8-2.8,1.6-5.6,2.5-8.4h0.1L22.9,24.9"/>
</g>
</svg>
