<svg id="Layer_1" data-name="Layer 1" xmlns="http://www.w3.org/2000/svg" viewBox="0 0 48.67 47.49"><defs><style>.cls-1{fill:#00ff36;}</style></defs><path id="Path_5" data-name="Path 5" class="cls-1" d="M48.67,7.78V39.71a2.76,2.76,0,0,0-.08.27,8.66,8.66,0,0,1-8.85,7.51c-10.27,0-20.53,0-30.79,0a9.61,9.61,0,0,1-1.61-.1A8.58,8.58,0,0,1,0,38.71V8.77A8.57,8.57,0,0,1,8.38,0h.28Q24.35,0,40,0a8.54,8.54,0,0,1,8.41,6.6c.09.38.16.77.24,1.15m-21,25.77h1.9c.48,0,.52-.06.36-.53l-.66-1.88Q26,21.88,22.73,12.62a.58.58,0,0,0-.64-.47c-1.55,0-3.1,0-4.66,0-.35,0-.48.09-.52.48a8.85,8.85,0,0,1-.36,1.9c-.72,2.16-1.48,4.3-2.23,6.45L10.21,32.81c-.24.7-.22.73.54.73,1,0,2,0,3,0a.73.73,0,0,0,.83-.6v0c.41-1.35.86-2.68,1.28-4a.49.49,0,0,1,.54-.43h0q3.38,0,6.75,0a.46.46,0,0,1,.53.39c.47,1.39,1,2.77,1.42,4.17a.6.6,0,0,0,.68.5h0c.61,0,1.23,0,1.85,0m9-8q0-3.82,0-7.65c0-.37-.11-.51-.49-.5-1.19,0-2.37,0-3.56,0-.36,0-.51.11-.51.48q0,7.61,0,15.2c0,.42.17.55.57.54,1.13,0,2.25,0,3.38,0,.48,0,.62-.14.61-.62,0-2.48,0-5,0-7.45M37,13.08a2.37,2.37,0,0,0-2.19-2.54h-.27a2.47,2.47,0,0,0-2.58,2.37v.14a2.52,2.52,0,1,0,5,.12v-.09"/><path id="Path_6" data-name="Path 6" d="M27.68,33.54c-.61,0-1.23,0-1.85,0a.59.59,0,0,1-.67-.49h0c-.46-1.4-1-2.77-1.43-4.17a.47.47,0,0,0-.53-.39q-3.37,0-6.74,0a.5.5,0,0,0-.56.42h0c-.42,1.35-.87,2.68-1.28,4a.72.72,0,0,1-.8.62h0c-1,0-2,0-3,0-.76,0-.78,0-.54-.73L14.32,21c.75-2.15,1.51-4.3,2.23-6.46a9.39,9.39,0,0,0,.37-1.9c0-.38.16-.47.52-.47h4.65a.57.57,0,0,1,.64.47Q26,21.88,29.28,31.13c.23.62.45,1.25.67,1.87s.12.53-.37.53h-1.9m-5.31-9.17L19.8,16h-.09c-.82,2.77-1.64,5.54-2.48,8.35Z"/><path id="Path_7" data-name="Path 7" d="M36.7,25.48c0,2.49,0,5,0,7.46,0,.48-.13.63-.61.62-1.13,0-2.25,0-3.37,0-.4,0-.58-.12-.58-.54q0-7.59,0-15.2c0-.37.15-.49.51-.48,1.19,0,2.37,0,3.56,0,.38,0,.49.13.49.5q0,3.82,0,7.64"/><path id="Path_8" data-name="Path 8" d="M37,13.08a2.52,2.52,0,1,1-5,.06v-.09a2.47,2.47,0,0,1,2.45-2.51h.13A2.37,2.37,0,0,1,37,12.81a2.44,2.44,0,0,1,0,.27"/><path id="Path_9" data-name="Path 9" class="cls-1" d="M22.37,24.36H17.23c.83-2.81,1.65-5.58,2.48-8.35h.09l2.57,8.36"/></svg>