<?xml version="1.0" encoding="utf-8"?>
<!-- Generator: Adobe Illustrator 26.0.1, SVG Export Plug-In . SVG Version: 6.00 Build 0)  -->
<svg version="1.1" id="Layer_1" xmlns="http://www.w3.org/2000/svg" xmlns:xlink="http://www.w3.org/1999/xlink" x="0px" y="0px"
	 viewBox="0 0 144.6 179.1" style="enable-background:new 0 0 144.6 179.1;" xml:space="preserve">
<style type="text/css">
	.st0{fill:#FFFFFF;}
	.st1{fill:none;}
	.st2{fill:none;stroke:#FFFFFF;}
	.st3{fill:none;stroke:#FFFFFF;stroke-width:0.999;stroke-miterlimit:3.998;}
	.st4{fill:#FFFFFF;stroke:#FFFFFF;stroke-width:0.999;stroke-miterlimit:3.998;}
	.st5{fill:none;stroke:#FFFFFF;stroke-width:0.5;}
</style>
<g id="Group_214" transform="translate(0.055 0.496)">
	<path id="Path_233" class="st0" d="M46.9,156c8.4-8.1,11.5-6.9,14.6-12c2.9-4.8,2.5-9.9,1.8-20.1c0-2.3-0.6-4.6-1.8-6.7
		c-2.2-3.8-5.9-5.5-7.9-6.4C52,110,41.2,105,36.4,100.3c-5.3-5.2-5.9-14.7-7-33.8c-0.5-9.3-0.8-13.9,0.3-17.8
		c4.2-14.9,19.6-21.5,22.5-24.2c25.4-23.7,45.1-12,61.2,7c10.9,12.9,15.9,29.9,15.2,35.3c-0.3,2.4-0.3,4.9,0,7.3c0.4,2.4,1,4.8,2,7
		c3.5,9.1-17,21-26,41.1c-1.5,3.4-4.6,11.3-10.5,12.5c-1.7,0.4-3.4,0.1-5,1.5c-2.2,1.9-2.6,5.9-1.8,8.8c2,7.1,12.3,11.3,20.4,12
		c5.2,0.4,8.3-0.8,9,0.6c1.3,2.4-5.9,9.3-11.1,12.8c-23.4,15.9-65,3.5-65.6-5.8C40,162.6,42.3,160.4,46.9,156z"/>
	<path id="Path_234" class="st1" d="M85,86.7c-2.1,4.9-4.4,7.6-6.1,9.1c-1.5,1.2-2.8,2.5-3.9,4.1c-1.3,1.9-1.1,2.6-2.1,3.3
		c-2.5,1.8-6.4-0.7-6.9,0.1c-0.5,0.9,5.5,3.2,6.7,8.3c0.5,2.3-0.4,3.1,0.2,7c0.2,1.8,0.8,3.6,1.6,5.2c2.9,5.4,9.1,6.9,10.5,7.2
		c2.1,0.5,5.3,1.2,7.9-0.5c0.6-0.4,1.2-1,2.6-3.2c1.8-3,3.3-6.2,4.3-9.5c1.7-5.9,0.6-6.2,2.1-8.9c2.4-4.1,5.9-4.8,5.6-6.6
		s-4.1-1.3-7.7-4.3c-1.6-1.4-2.9-3.1-3.7-5"/>
	<path id="Path_235" class="st1" d="M68.7,13.8c-2.4,1.3-0.2,12.4,3.2,19.6c4.8,10.2,7.8,10.8,12,19.6c2.4,4.6,3.9,9.6,4.4,14.7
		c0.6,6.7-0.8,11.2-1.5,14.5c-2.3,11.4-0.2,56-13.4,76.6c-16.4,25.6,9.9,19.3,12.8,18.7c20.6-4.1,38.8-23.1,29.9-20.6
		c-8.5,2.4-32.4-1.6-27.9-18.3c0.9-3.3,5.8-3.4,8.8-5c5.3-2.9,8.2-13.3,12.3-18.9c10.1-14,24.4-27,22-31.7
		c-5.3-10.1-0.4-22.5-7.3-34.8c-12.6-22.4-23.5-37.3-45.5-36.9C75.1,11.2,71.7,12.1,68.7,13.8"/>
	<path id="Path_236" d="M101.2,74.4C97.3,76.8,89.5,83,91,87.7c0.4,1.3,1.4,2.2,7.5,5c9.4,4.4,14,6.5,17.2,5.8
		c8.4-2,13.5-16.2,13.5-16.2c0.2-2.8-0.7-5.5-2.4-7.8c-2.8-3.4-7-3.9-9.9-4.2C111.4,69.9,105.8,71.3,101.2,74.4"/>
	<rect id="Rectangle_17" x="90.8" y="70.3" class="st1" width="38.4" height="28.4"/>
	<path id="Path_237" class="st0" d="M101.2,74.4c-0.9,0.6-1.8,1.2-2.6,1.8c-0.9,0.6-1.7,1.3-2.5,2c-0.8,0.7-1.5,1.5-2.3,2.3
		c-0.2,0.2-0.3,0.4-0.5,0.6s-0.3,0.4-0.5,0.6c-0.3,0.4-0.6,0.9-0.9,1.3c-0.3,0.5-0.5,0.9-0.7,1.4c-0.2,0.5-0.3,1-0.3,1.5
		c0,0.5,0,1,0.2,1.5c0.1,0.2,0.2,0.5,0.3,0.7c0.1,0.1,0.2,0.2,0.2,0.3c0,0,0.1,0.1,0.1,0.1l0.1,0.1c0.4,0.3,0.8,0.6,1.3,0.9
		c0.2,0.1,0.5,0.3,0.7,0.4s0.5,0.2,0.7,0.4c0.9,0.5,1.9,0.9,2.9,1.4l2.9,1.3l2.9,1.3c2,0.8,3.9,1.7,5.9,2.4c1,0.4,2,0.7,3,0.9
		c1,0.2,2,0.3,2.9,0.2l0.2,0c0.1,0,0.1,0,0.2,0l0.4-0.1c0.1,0,0.2-0.1,0.4-0.1l0.3-0.1c0.1,0,0.2-0.1,0.3-0.1l0.3-0.2
		c0.1-0.1,0.2-0.1,0.3-0.2l0.3-0.2c0.9-0.5,1.7-1.1,2.5-1.8c1.5-1.4,2.9-3,4-4.8c1.2-1.8,2.2-3.6,3.1-5.5c0.2-0.5,0.4-1,0.7-1.4
		c0.1-0.2,0.2-0.5,0.3-0.7l0.1-0.3v-0.1c0-0.1,0-0.1,0-0.2c0-0.5,0-1,0-1.5c0-0.3-0.1-0.5-0.1-0.8c0-0.3-0.1-0.5-0.1-0.8
		c-0.2-1-0.6-2-1.1-2.9c-0.1-0.1-0.1-0.2-0.2-0.3s-0.1-0.2-0.2-0.3l-0.2-0.3c-0.1-0.1-0.2-0.2-0.2-0.3l-0.2-0.3
		c-0.1-0.1-0.2-0.2-0.3-0.3l-0.3-0.3c-0.1-0.1-0.2-0.2-0.3-0.3c-0.8-0.7-1.7-1.3-2.6-1.7c-1-0.4-2-0.7-3-0.9
		c-0.3-0.1-0.5-0.1-0.8-0.1s-0.5-0.1-0.8-0.1s-0.5-0.1-0.8-0.1s-0.5-0.1-0.8-0.1l-0.8-0.1c-0.1,0-0.3,0-0.4,0l-0.4,0l-0.8,0
		c-0.3,0-0.5,0-0.8,0l-0.4,0c-0.1,0-0.3,0-0.4,0l-0.8,0.1c-0.1,0-0.3,0-0.4,0l-0.4,0.1l-0.8,0.1l-0.8,0.2L109,71l-0.4,0.1
		c-0.3,0.1-0.5,0.1-0.8,0.2l-0.8,0.2l-0.2,0.1l0,0l-0.1,0l-0.2,0.1l-0.4,0.1h0l-0.1,0c-0.9,0.3-1.7,0.7-2.5,1.1
		C102.8,73.4,102,73.9,101.2,74.4c0.8-0.5,1.6-1,2.5-1.4c0.4-0.2,0.9-0.4,1.3-0.6c0.4-0.2,0.9-0.4,1.3-0.5l0.4-0.1l0.2-0.1l0,0
		l0.2-0.1l0.8-0.3c2-0.6,4.1-1,6.3-1.1l0.8,0h0.6l0.2,0l0.8,0l0.4,0c0.1,0,0.3,0,0.4,0c1.1,0.1,2.1,0.2,3.2,0.4l0.2,0l0.2,0l0.4,0.1
		c0.3,0.1,0.5,0.1,0.8,0.2l0.4,0.1c0.1,0,0.3,0.1,0.4,0.1l0.4,0.2l0.2,0.1l0.2,0.1c2,0.9,3.7,2.5,4.8,4.4l0.2,0.4l0.1,0.2l0.1,0.2
		l0.2,0.4l0.1,0.4l0.1,0.2l0.1,0.2l0.1,0.4c0.1,0.3,0.1,0.5,0.2,0.8c0.1,0.5,0.2,1.1,0.2,1.6c0,0.3,0,0.6,0,0.8v0.7c0,0,0,0,0,0l0,0
		l0,0.1c0,0,0,0,0,0.1c0,0,0,0,0,0c0,0,0,0,0,0v0c0,0,0,0.1,0,0.1l0,0.1l-0.1,0.2l-0.1,0.4c-0.1,0.3-0.2,0.5-0.3,0.8
		c-0.2,0.5-0.4,1-0.6,1.5c-0.9,2-1.9,3.9-3.1,5.7c-1.2,1.8-2.6,3.5-4.2,5c-0.8,0.7-1.8,1.4-2.7,1.9c-0.2,0.1-0.5,0.2-0.8,0.4
		c-0.1,0.1-0.3,0.1-0.4,0.2l-0.4,0.1c-0.1,0-0.3,0.1-0.4,0.1l-0.4,0.1c-0.1,0-0.3,0.1-0.4,0.1c-0.1,0-0.3,0-0.4,0.1
		c-0.6,0-1.2,0-1.7,0c-0.6-0.1-1.1-0.2-1.6-0.3c-1.1-0.3-2.1-0.6-3.1-1c-2-0.8-3.9-1.7-5.9-2.6s-3.8-1.9-5.7-2.8
		c-1-0.5-1.9-1-2.8-1.5c-0.5-0.3-0.9-0.5-1.4-0.8c-0.5-0.3-0.9-0.6-1.3-1c-0.4-0.4-0.7-0.9-0.8-1.5c-0.1-0.5-0.2-1.1-0.1-1.6
		c0.1-0.5,0.2-1.1,0.4-1.6c0.2-0.5,0.5-1,0.7-1.4c0.6-0.9,1.2-1.7,2-2.5c0.7-0.8,1.5-1.5,2.3-2.2c0.4-0.4,0.8-0.7,1.2-1
		s0.8-0.7,1.3-1C99.4,75.6,100.3,75,101.2,74.4"/>
	<path id="Path_238" d="M85.1,80.7c3.3,2.8,0.1,4.7-2.9,8c-1.9,2.2-5.1,2.2-11.3,2.9c-13.6,1.5-20.4,2.3-24.4,0.3
		c-0.5-0.3-8.6-4.5-10.5-13.2c-0.3-1.6-1.3-6.2,1.2-10.6c2.5-4.2,6.7-5.6,8.4-6.1c5.6-1.8,10.6,0,20.3,3.7
		C78.2,70.3,78.3,74.9,85.1,80.7"/>
	<rect id="Rectangle_19" x="35.5" y="61.3" class="st1" width="51" height="31.8"/>
	<path id="Path_239" class="st0" d="M85.1,80.7c0.3,0.2,0.5,0.5,0.7,0.7c0.2,0.3,0.4,0.6,0.5,0.9c0.1,0.3,0.2,0.7,0.1,1
		c-0.1,0.3-0.2,0.7-0.4,1c-0.4,0.6-0.8,1.2-1.3,1.7c-0.5,0.5-1,1-1.5,1.5c-0.2,0.3-0.5,0.5-0.7,0.8c-0.1,0.1-0.2,0.3-0.4,0.4
		s-0.2,0.3-0.4,0.4c-0.5,0.5-1.1,0.9-1.8,1.1c-0.7,0.3-1.3,0.5-2,0.6c-0.7,0.1-1.4,0.3-2.1,0.3c-1.4,0.2-2.8,0.3-4.2,0.5l-4.2,0.5
		c-2.8,0.3-5.5,0.7-8.3,1c-1.4,0.1-2.8,0.3-4.2,0.3c-1.4,0.1-2.8,0.1-4.2,0c-1.5-0.1-2.9-0.3-4.2-0.8c-0.2-0.1-0.3-0.1-0.5-0.2
		s-0.3-0.2-0.5-0.3c-0.3-0.2-0.6-0.4-0.9-0.5c-0.6-0.4-1.2-0.8-1.8-1.2c-1.1-0.9-2.2-1.8-3.2-2.9c-0.5-0.5-0.9-1.1-1.4-1.7
		c-0.4-0.6-0.8-1.2-1.2-1.8c-0.2-0.3-0.4-0.6-0.5-1c-0.1-0.2-0.2-0.3-0.2-0.5l-0.2-0.5c-0.3-0.7-0.5-1.3-0.7-2
		c0-0.2-0.1-0.3-0.2-0.5L35.3,79c0-0.2-0.1-0.3-0.1-0.5s-0.1-0.3-0.1-0.5c-0.1-0.7-0.2-1.4-0.3-2.2c0-0.7,0-1.5,0-2.2l0.1-0.5l0-0.3
		l0-0.3L35,72l0.1-0.5l0.1-0.3c0-0.1,0-0.2,0.1-0.3l0.2-0.5c0.1-0.2,0.1-0.3,0.2-0.5s0.1-0.3,0.2-0.5c0.3-0.7,0.6-1.3,1-2l0.3-0.5
		c0.1-0.1,0.2-0.3,0.3-0.4c0.2-0.3,0.5-0.6,0.7-0.8c0.1-0.1,0.3-0.3,0.4-0.4s0.3-0.3,0.4-0.4c0.3-0.2,0.5-0.5,0.8-0.7
		c0.6-0.4,1.2-0.8,1.8-1.2c0.6-0.4,1.3-0.7,2-0.9c0.7-0.3,1.3-0.5,2-0.7l0.5-0.1l0.3-0.1l0.1,0l0.1,0l0.5-0.1l0.3-0.1
		c0.1,0,0.2,0,0.3,0c1.4-0.2,2.9-0.2,4.3,0c1.4,0.2,2.8,0.5,4.1,0.9c0.7,0.2,1.3,0.4,2,0.6c0.7,0.2,1.3,0.5,2,0.7l1,0.4l1,0.4
		c0.7,0.2,1.3,0.5,2,0.8l1.9,0.8l1.9,0.8c0.2,0.1,0.3,0.1,0.5,0.2l0.5,0.2l0.9,0.4c0.2,0.1,0.3,0.2,0.5,0.2l0.5,0.2l0.9,0.5
		c1.2,0.7,2.4,1.5,3.5,2.4l0.4,0.3c0.1,0.1,0.3,0.2,0.4,0.3l0.4,0.3c0.1,0.1,0.3,0.2,0.4,0.4l0.7,0.7c0.2,0.2,0.5,0.5,0.7,0.8
		s0.5,0.5,0.7,0.8s0.5,0.5,0.7,0.8l1,1.2c0.2,0.2,0.3,0.4,0.5,0.6c0.6,0.7,1.2,1.4,1.9,2l0.5,0.5c0.2,0.2,0.3,0.3,0.5,0.5L85.1,80.7
		l-1.1-1l-0.1-0.1l-0.1-0.1l-0.3-0.2L83,78.7c-0.2-0.2-0.3-0.3-0.5-0.5L82,77.7c-0.3-0.3-0.6-0.7-1-1.1c-0.1-0.1-0.2-0.2-0.3-0.3
		l-1-1.1c-0.5-0.5-0.9-1-1.4-1.5l-0.7-0.7l-0.2-0.2l-0.2-0.2L77,72.2l-0.4-0.4l-0.4-0.3l-0.4-0.3c-0.1-0.1-0.3-0.2-0.4-0.3l-0.8-0.6
		l-0.2-0.2l-0.2-0.1l-0.4-0.3C71.4,68.2,69,67,66.4,66l-0.5-0.2l-0.5-0.2l-1-0.3l-1.9-0.7c-1.3-0.4-2.6-0.9-3.9-1.3
		c-0.7-0.2-1.3-0.4-2-0.6c-0.7-0.2-1.3-0.3-2-0.5c-1.3-0.3-2.7-0.5-4-0.5c-1.3,0-2.7,0.1-3.9,0.5l-1,0.3c-0.3,0.1-0.6,0.2-1,0.3
		c-0.6,0.2-1.2,0.5-1.8,0.8c-0.6,0.3-1.2,0.6-1.7,1l-0.4,0.3l-0.4,0.3l-0.2,0.2l-0.2,0.2l-0.4,0.3c-0.9,0.9-1.7,2-2.3,3.1
		c0,0.1-0.1,0.1-0.1,0.2l-0.1,0.2L37,69.9c-0.1,0.1-0.1,0.3-0.2,0.5s-0.1,0.3-0.2,0.5l-0.1,0.5l-0.1,0.2l0,0.2l-0.1,0.5
		c0,0.2,0,0.3-0.1,0.5c-0.1,0.3-0.1,0.6-0.1,1c0,0.2,0,0.3,0,0.5l0,0.2v0.2c0,0.7,0,1.3,0.1,2c0.1,0.7,0.2,1.3,0.4,2l0.1,0.5
		c0,0.1,0,0.2,0.1,0.2l0.1,0.2l0.1,0.5l0.2,0.5c0.4,1.2,1,2.4,1.7,3.6c1.5,2.2,3.3,4.2,5.5,5.8c0.5,0.4,1.1,0.8,1.7,1.1
		c0.1,0.1,0.3,0.2,0.4,0.2c0.1,0.1,0.3,0.1,0.4,0.2c0.3,0.1,0.6,0.3,0.9,0.4c1.3,0.4,2.6,0.6,3.9,0.7c0.7,0,1.4,0.1,2,0.1s1.4,0,2,0
		c1.4,0,2.7-0.1,4.1-0.2c2.7-0.2,5.5-0.4,8.2-0.7l4.1-0.4c1.4-0.1,2.7-0.2,4.1-0.4c0.7-0.1,1.4-0.2,2-0.3c0.7-0.1,1.3-0.3,2-0.6
		c0.6-0.3,1.2-0.6,1.7-1.1l0.2-0.2l0.2-0.2c0.1-0.1,0.2-0.3,0.4-0.4c0.2-0.2,0.5-0.5,0.7-0.7c0.5-0.5,1-1,1.4-1.5
		c0.5-0.5,0.9-1,1.3-1.6c0.2-0.3,0.3-0.6,0.3-1c0-0.3,0-0.7-0.1-1c-0.1-0.3-0.3-0.6-0.5-0.9C85.6,81.1,85.3,80.9,85.1,80.7"/>
	<path id="Path_240" d="M80.9,79.1c-10.8-8.6-16.2-12.8-22-14.2c-5.1-1.2-10.8-2.6-15.7,0.5c-4,2.5-6.7,7.6-5.8,11.9
		c1.8,8,16.2,13.3,26.2,11.4c5.7-1.1,11.5-4.9,17.6-4.9c0.6,0,2.4,0,2.8-0.8C84.4,81.9,82,80,80.9,79.1"/>
	<path id="Path_241" d="M95.1,83.8c8.1-6.8,12.1-10.2,16.4-11.3c3.8-1,8.1-2.1,11.7,0.4c2.9,2,5,6,4.3,9.4
		c-1.3,6.4-12.1,10.6-19.5,9c-4.3-0.9-8.6-3.9-13.1-3.9c-0.4,0-1.8,0-2.1-0.6C92.5,86,94.2,84.5,95.1,83.8"/>
	<path id="Path_242" d="M43.5,51.5c0.8-1.1,1.7-2.1,2.6-3.1c0.2-0.2,0.5-0.5,0.7-0.7s0.5-0.5,0.7-0.7l0.7-0.7l0.7-0.7
		c1-0.9,2-1.8,3.1-2.6c1.1-0.8,2.2-1.6,3.3-2.4l0.9-0.5c0.3-0.2,0.6-0.4,0.9-0.5l0.4-0.3c0.1,0,0.2-0.1,0.2-0.1l0.2-0.1
		c0.3-0.2,0.6-0.3,0.9-0.5c0.6-0.3,1.2-0.6,1.9-0.9c0.6-0.3,1.2-0.6,1.9-0.8c1.3-0.5,2.5-1,3.8-1.5c0.6-0.2,1.3-0.4,1.9-0.7
		s1.3-0.4,2-0.6c5.3-1.6,10.8-2.4,16.3-2.5c2.8-0.1,5.6,0.1,8.4,0.5c2.8,0.4,5.5,1,8.2,1.9l1.1,0.4c0.4,0.1,0.7,0.3,1.1,0.4
		s0.7,0.3,1.1,0.4c0.2,0.1,0.3,0.1,0.5,0.2l0.5,0.2c2.1,1.3,4.1,2.7,6,4.3c1.8,1.5,3.5,3.2,5.1,5c0.8,0.9,1.5,1.8,2.3,2.7
		c0.7,0.9,1.4,1.8,2.1,2.8c1.4,1.9,2.6,3.8,3.8,5.7c-0.6-1-1.3-2-2.1-2.9c-0.4-0.5-0.8-0.9-1.1-1.4c-0.2-0.2-0.4-0.4-0.6-0.7
		s-0.4-0.4-0.6-0.6l-0.6-0.6l-0.6-0.6c-0.2-0.2-0.4-0.4-0.7-0.6s-0.4-0.4-0.7-0.6c-0.9-0.8-1.8-1.5-2.8-2.1c-1-0.6-2-1.2-3-1.8
		c-1-0.5-2.1-1-3.1-1.5l-0.4-0.2l-0.4-0.2l-0.8-0.3c-0.5-0.2-1.1-0.4-1.6-0.5c-1.1-0.3-2.2-0.6-3.3-0.9l-0.7-0.2
		c-0.2-0.1-0.5-0.1-0.8-0.2s-0.5-0.1-0.8-0.2l-0.8-0.2c-2.4-0.6-4.8-1-7.2-1.3l-0.5,0l-0.5,0c-0.3,0-0.6-0.1-0.9-0.1s-0.6,0-0.9-0.1
		l-0.9,0c-0.6,0-1.2,0-1.9,0c-0.3,0-0.6,0-0.9,0h-0.5l-0.5,0c-1.2,0-2.5,0.1-3.7,0.2s-2.5,0.2-3.7,0.4c-2.5,0.3-5,0.7-7.5,1.2
		s-5,1.1-7.4,1.8c-0.6,0.2-1.2,0.3-1.8,0.5s-1.2,0.4-1.8,0.6c-0.3,0.1-0.6,0.2-0.9,0.3l-0.2,0.1c-0.1,0-0.1,0-0.2,0.1l-0.4,0.2
		c-0.3,0.1-0.6,0.2-0.9,0.3l-0.9,0.4c-0.3,0.1-0.6,0.2-0.9,0.4s-0.6,0.2-0.9,0.4l-0.9,0.4l-0.9,0.4c-1.2,0.5-2.3,1.1-3.5,1.7
		L49.5,48l-0.9,0.5c-0.6,0.3-1.1,0.6-1.7,1C45.8,50.2,44.6,50.8,43.5,51.5"/>
	<path id="Path_243" d="M45.8,36.2c1.4-2.2,3-4.2,4.9-6c1.9-1.8,4-3.4,6.2-4.8c0.3-0.2,0.6-0.3,0.8-0.5s0.6-0.3,0.9-0.5l0.9-0.5
		l0.4-0.2l0.4-0.2l0.9-0.4c0.3-0.1,0.6-0.3,0.9-0.4c0.6-0.3,1.2-0.5,1.8-0.8c2.5-0.9,5.1-1.7,7.7-2.1c0.3-0.1,0.5-0.1,0.8-0.1
		s0.5-0.1,0.8-0.1c0.5-0.1,1.1-0.1,1.6-0.2s1.1-0.1,1.6-0.2s1.1-0.1,1.6-0.1c3.5,0.3,6.9,0.9,10.2,1.8c0.8,0.2,1.6,0.5,2.4,0.7
		c0.4,0.1,0.8,0.3,1.2,0.4l1.2,0.4c1.6,0.6,3.2,1.2,4.7,1.8l0.6,0.2l0.3,0.1l0.3,0.1l1.1,0.5l0.3,0.1l0.3,0.1l0.6,0.3
		c0.4,0.2,0.8,0.3,1.1,0.5l1.1,0.6c0.4,0.2,0.7,0.4,1.1,0.6l0.5,0.3l0.5,0.3l1.1,0.6c2.9,1.6,5.6,3.2,8.5,4.7
		c-2.9-1.6-6-2.8-9.2-3.7c-1.6-0.4-3.2-0.8-4.8-1.1c-0.8-0.1-1.6-0.3-2.4-0.4c-0.4,0-0.8-0.1-1.2-0.1l-1.2-0.1
		c-0.4,0-0.8-0.1-1.2-0.1l-0.6,0c-0.2,0-0.4,0-0.6,0c-0.8,0-1.6-0.1-2.4-0.1l-1.2,0l-1.2,0c-0.8,0-1.6,0-2.4,0.1s-1.6,0.1-2.4,0.1
		s-1.6,0.1-2.3,0.2c-1.6,0.2-3.1,0.4-4.6,0.6c-0.4,0-0.7,0-1.1,0.1s-0.7,0-1.1,0.1s-0.7,0-1.1,0.1s-0.7,0.1-1.1,0.1
		c-2.2,0.2-4.5,0.5-6.7,0.9c-1.1,0.2-2.2,0.4-3.4,0.7l-0.4,0.1c-0.1,0-0.3,0.1-0.4,0.1l-0.8,0.2c-0.6,0.2-1.1,0.3-1.7,0.4
		c-2.2,0.6-4.5,1.3-6.8,2.1c-1.1,0.4-2.3,0.8-3.5,1.3S47,35.7,45.8,36.2"/>
	<rect id="Rectangle_21" x="45.8" y="19" class="st1" width="69.4" height="17.2"/>
	<path id="Path_244" d="M72.5,52.6c0.4-0.5,0.8-1,1.2-1.5c0.4-0.5,0.9-0.9,1.4-1.3c0.5-0.4,1-0.8,1.5-1.2c0.3-0.2,0.5-0.4,0.8-0.5
		l0.4-0.3l0.4-0.3c1.1-0.7,2.3-1.2,3.6-1.7c1.2-0.5,2.5-0.8,3.8-1c0.2,0,0.5-0.1,0.7-0.1l0.3,0l0.3,0l0.7-0.1l0.7,0
		c0.2,0,0.4,0,0.6,0l0.6,0.1c0.4,0,0.7,0.1,1.1,0.1c0.7,0.1,1.5,0.3,2.2,0.4s1.4,0.4,2.1,0.6s1.4,0.4,2,0.7c1.3,0.5,2.6,1,3.9,1.6
		s2.5,1.1,3.8,1.7c-1.3-0.6-2.7-1-4.1-1.2c-1.4-0.3-2.8-0.4-4.2-0.5c-1.4-0.1-2.8,0-4.2,0.1c-1.3,0.1-2.7,0.3-4,0.6
		c-0.2,0-0.3,0-0.5,0l-0.5,0l-0.9,0.1c-1.1,0.1-2.3,0.3-3.4,0.6c-1.1,0.2-2.3,0.5-3.4,0.8c-1.1,0.3-2.3,0.7-3.4,1.1
		C74.9,51.7,73.7,52.2,72.5,52.6"/>
	<path id="Path_245" d="M83,75.6l-0.9-1.2c-0.3-0.4-0.6-0.8-0.9-1.2c-0.6-0.7-1.2-1.5-1.8-2.2c-1.2-1.4-2.4-2.6-3.7-3.8
		c-1.3-1.1-2.6-2.2-4-3.1l-0.5-0.3c-0.1-0.1-0.2-0.1-0.3-0.2l-0.3-0.2l-0.5-0.3c-0.2-0.1-0.3-0.2-0.5-0.3c-0.7-0.4-1.4-0.8-2.2-1.2
		c-0.4-0.2-0.8-0.4-1.2-0.6l-0.6-0.3c-0.2-0.1-0.4-0.2-0.6-0.2c-0.4-0.2-0.8-0.3-1.2-0.5c-0.2-0.1-0.4-0.1-0.6-0.2s-0.4-0.1-0.6-0.2
		c-2.5-1.3-5.1-2.3-7.9-2.9l-0.3-0.1l-0.3,0l-0.5-0.1c-0.4-0.1-0.7-0.1-1.1-0.2l-0.5-0.1c-0.2,0-0.4,0-0.5-0.1l-0.6,0l-0.3,0l-0.3,0
		c-1.5-0.1-3,0-4.5,0.3l-0.3,0l-0.3,0l-0.6,0.1c-0.2,0-0.4,0.1-0.6,0.1S44,57,43.8,57l-0.6,0.2l-0.3,0.1l-0.3,0.1l-0.6,0.2l-0.6,0.2
		c-1.5,0.5-2.9,1.2-4.3,2.1c-1.4,0.8-2.6,1.8-3.8,2.9c-1.2,1.1-2.2,2.4-3,3.7c0.9-1.4,1.8-2.8,2.9-4.1c0.5-0.7,1.1-1.3,1.6-1.9
		s1.2-1.3,1.8-1.9c0.6-0.6,1.3-1.2,1.9-1.7l0.5-0.4c0.2-0.1,0.3-0.3,0.5-0.4c0.3-0.3,0.7-0.5,1.1-0.8c1.5-1,3-1.9,4.7-2.7
		c1.7-0.8,3.4-1.4,5.2-1.8c1.8-0.5,3.7-0.7,5.6-0.8c3.8-0.2,7.7,0.4,11.3,1.7c0.4,0.2,0.8,0.4,1.2,0.6s0.8,0.4,1.2,0.7
		c0.2,0.1,0.4,0.2,0.6,0.3s0.4,0.2,0.6,0.4s0.4,0.2,0.6,0.4s0.4,0.3,0.6,0.4c0.9,0.6,1.7,1.3,2.5,2c0.4,0.4,0.8,0.8,1.2,1.1l0.3,0.3
		c0.1,0.1,0.2,0.2,0.3,0.3l0.5,0.6c1.4,1.6,2.6,3.4,3.6,5.2c0.9,1.8,1.7,3.8,2.1,5.8c0.1,0.3,0.1,0.5,0.2,0.7l0.1,0.8
		c0,0.2,0.1,0.5,0.1,0.8s0.1,0.5,0.1,0.8s0,0.5,0.1,0.8s0,0.5,0,0.8C83.1,74.6,83.1,75.1,83,75.6"/>
	<path id="Path_246" d="M96.8,73.5c0-0.3-0.1-0.6-0.1-0.9c0-0.3,0-0.6,0-0.9c0-0.3,0.1-0.6,0.1-0.9c0-0.1,0.1-0.3,0.1-0.4
		S97,70,97,69.9c0.3-1.2,0.8-2.3,1.4-3.3c0.6-1.1,1.4-2,2.3-2.9c0.2-0.2,0.5-0.4,0.7-0.6c0.1-0.1,0.2-0.2,0.4-0.3l0.4-0.3
		c0.5-0.4,1-0.7,1.6-1c0.3-0.2,0.6-0.3,0.9-0.4l0.4-0.2c0.1-0.1,0.3-0.1,0.4-0.2c0.3-0.1,0.6-0.2,0.9-0.3l0.5-0.2
		c0.2,0,0.3-0.1,0.5-0.1c1.2-0.3,2.5-0.5,3.8-0.6c1.3,0,2.5,0.1,3.8,0.3c0.2,0,0.3,0.1,0.5,0.1s0.3,0.1,0.5,0.1
		c0.3,0.1,0.6,0.2,0.9,0.3l0.4,0.2c0.1,0.1,0.3,0.1,0.4,0.2c0.3,0.1,0.6,0.2,0.8,0.4c0.8,0.8,1.6,1.7,2.3,2.6
		c0.7,0.9,1.3,1.7,1.9,2.5s1.1,1.6,1.7,2.3c0.5,0.7,1.1,1.4,1.8,1.9c-1.4-1.2-3.2-1.8-5-2c-1.8-0.2-3.6,0.1-5.2,0.7
		c-0.8,0-1.5,0-2.3,0h-0.3c-0.1,0-0.2,0-0.3,0c-0.2,0-0.4,0-0.5,0s-0.4,0-0.5,0s-0.4,0-0.5,0c-1.4,0.1-2.8,0.3-4.2,0.6l-0.3,0.1
		l-0.3,0.1c-0.1,0-0.2,0-0.3,0.1s-0.2,0-0.3,0.1l-0.3,0.1c0,0-0.1,0-0.1,0l-0.1,0c-0.2,0.1-0.4,0.1-0.6,0.2
		c-0.8,0.2-1.6,0.5-2.4,0.8l-0.3,0.1l-0.3,0.1c-0.2,0.1-0.4,0.2-0.7,0.3c-0.1,0-0.2,0.1-0.3,0.1s-0.2,0.1-0.3,0.1
		c-0.2,0.1-0.5,0.2-0.7,0.3C98.8,72.5,97.9,73,96.8,73.5"/>
	<path id="Path_247" class="st0" d="M86.8,69.1c1.6-2.4,2.6-5.1,2.9-7.9c0.6-4.9-1.2-8.6-0.9-8.8c0.3-0.1,1.6,2.4,6.1,13.4"/>
	<path id="Path_248" class="st0" d="M66.1,76.7c-0.2,3.4-4.8,5.8-7.3,6.7c-6.7,2.3-16.1-0.6-17.2-6.1c-0.8-3.8,2.6-8.2,6.4-9.9
		C55.7,64,66.4,71.4,66.1,76.7"/>
	<path id="Path_249" class="st0" d="M101.4,82.5c0.3,2.3,5.2,3.4,5.8,3.5c4.1,0.9,10.3-0.1,11.4-3.8c0.5-2.5-0.5-5-2.6-6.4
		C111,72.5,101,79,101.4,82.5"/>
	<path id="Path_250" d="M85.3,100.6c-0.6-0.1-1.6,1.3-1.4,2.9c0.2,1.4,1.5,2.5,2,2.3C86.8,105.4,86.3,100.8,85.3,100.6"/>
	<path id="Path_251" d="M89.7,100.6c-0.6-0.1-1.6,1.3-1.4,2.9c0.2,1.4,1.5,2.5,2,2.3C91.2,105.4,90.7,100.8,89.7,100.6"/>
	<path id="Path_252" d="M95.7,118.1c-0.2,1.3-8.6,0.8-11,0.6c-2.7-0.2-4.9-0.3-5-0.9c-0.1-0.8,3-2.2,6-2.5
		C90.8,114.6,95.8,117,95.7,118.1"/>
	<path id="Path_253" d="M50.2,97.6c-4.5-2.6-2.4-1.3-7.6-5.9c-3.6-3.2-5.6-6.9-7-6.2c-1.5,0.8-1.6,4.9-0.3,8
		c3.5,8.4,18.3,11.8,21.3,8C58.1,99.6,53,99.2,50.2,97.6"/>
	<rect id="Rectangle_23" x="34.3" y="85.4" class="st1" width="22.6" height="17.7"/>
	<path id="Path_254" class="st2" d="M44.4,127.1c1.2,3.3-9,10.9-20.2,15S2.7,148.3,1.6,145s8.4-12,19.6-16.1S43.3,123.8,44.4,127.1z
		"/>
	<path id="Path_255" class="st2" d="M43.3,124.5c0.2,0.2,0.2,0.4,0.2,0.7c0,1.5-2.2,3.5-3.2,4.5c-1.7,1.8-3.5,3.4-5.4,4.8
		c-4.6,3.7-10.1,6.3-15.8,7.6c-12.5,2.6-17.3,3.6-18.6,0.6s7.4-9.3,19.2-14.2c4.5-1.9,9.2-3.8,14-4.7
		C35.1,123.6,41.9,122.9,43.3,124.5z"/>
	<path id="Path_256" class="st0" d="M33.7,125.6c1.2,2.8-4.1,7.9-11.1,10.8s-14.3,5.3-15.4,2.5s4.2-9.8,11.2-12.7
		S32.5,122.8,33.7,125.6"/>
	<path id="Path_257" class="st2" d="M31.9,124.2c1,2.9-4.1,7.4-10.7,9.7S7.7,138,6.7,135.1s4.2-9.3,10.9-11.6S30.9,121.3,31.9,124.2
		z"/>
	<line id="Line_5" class="st1" x1="115" y1="10.4" x2="119.6" y2="10.5"/>
	<path id="Path_258" class="st3" d="M119.9,2c2.4-2.6,8.5-0.8,13.4,3.9s7,10.6,4.6,13.2s-8.5,0.8-13.4-3.9
		C119.5,10.5,117.5,4.6,119.9,2z"/>
	<path id="Path_329" class="st4" d="M118.7,4.1c2.4-2.6,8.5-0.8,13.4,3.9s7,10.6,4.6,13.2s-8.5,0.8-13.4-3.9S116.2,6.6,118.7,4.1z"
		/>
	<path id="Path_259" class="st2" d="M129.7,29c1.9,1.1,4,2,6.2,2.5c0.9,0.2,7.9,1.9,8.2-2.5c0.2-4.8-7.9-14.7-16-21
		c-6-4.6-14.8-9.6-18.4-7.6c-3.8,2.1,0.8,10.7,6.2,17C119.8,22,124.5,25.9,129.7,29"/>
	<path id="Path_260" d="M129.9,26.2c1.7,1,3.5,1.7,5.3,2.2c0.8,0.2,6.9,1.7,7.1-2.2c0.2-4.2-6.8-12.7-13.8-18.2
		c-5.2-4-12.8-8.3-15.9-6.6c-3.3,1.8,0.7,9.3,5.4,14.8C121.4,20.2,125.4,23.6,129.9,26.2z"/>
	<rect id="Rectangle_25" x="119.8" y="1" class="st1" width="17.1" height="9.9"/>
	<path id="Path_330" class="st5" d="M128.2,26.1c1.7,1.1,3.6,2,5.5,2.7c0.8,0.3,7.3,2.6,8-0.6c0.8-3.4-5.7-11.7-12.7-17.4
		c-5.1-4.2-12.9-9.1-16.5-8.2c-3.8,0.9-0.5,7.8,3.9,13.1C119.8,19.7,123.8,23.2,128.2,26.1"/>
	<rect id="Rectangle_26" x="108.1" y="0.2" class="st1" width="11.6" height="8.4"/>
	<rect id="Rectangle_27" x="0" y="0" class="st1" width="144" height="178.6"/>
</g>
</svg>
