<svg xmlns="http://www.w3.org/2000/svg" viewBox="0 0 1292.48 1607.7"><defs><style>.cls-1{fill:#29ba97;}.cls-2{opacity:0.49;}.cls-10,.cls-3{fill:#107469;}.cls-4{fill:#087965;opacity:0.29;}.cls-5{fill:#24655c;}.cls-6{fill:#082f3e;}.cls-7{opacity:0.22;}.cls-8{fill:#2b847a;}.cls-17,.cls-9{fill:#083a49;}.cls-10{opacity:0.3;}.cls-11{fill:#f618f7;}.cls-12{fill:#fe8522;}.cls-13{fill:#feaeeb;}.cls-14{fill:#ff9472;}.cls-15,.cls-16{fill:#7b02f3;}.cls-16{opacity:0.11;}.cls-17{opacity:0.19;}</style></defs><g id="Layer_8" data-name="Layer 8"><path class="cls-1" d="M418.09,1404.54c75.28-72.73,103.67-62,131.28-107.65,26.07-43.1,22.64-89.13,15.76-181.17-1.58-21-4.24-40.28-15.76-60.39-19.77-34.54-52.82-49.24-70.89-57.77C463.88,990.67,367,944.94,323.56,903c-48.1-46.38-53.07-132.45-63-304.59-4.84-83.66-7.25-125.49,2.62-160.16,38.16-134,176.17-193.65,202.18-217.94,228.87-213.68,406-108,551.4,63,98.55,115.88,142.74,268.9,136.53,317.71a232.77,232.77,0,0,0,0,65.64c4.74,33.16,15.39,55.35,18.38,63C1203.59,811.57,1018.29,918.6,938,1100c-13.56,30.61-41.19,101.87-94.53,112.91-15.25,3.16-30.83,1-44.64,13.13-19.84,17.39-23.15,52.9-15.75,78.77,18.24,63.78,111,102,183.8,107.65,47.18,3.64,74.62-7.31,81.4,5.25,11.62,21.57-53.09,83.74-99.78,115.53-210.31,143.23-585,31.24-590.78-52.51C356.54,1464,377.06,1444.19,418.09,1404.54Z"/><g class="cls-2"><path class="cls-3" d="M761,780.56c-19.29,44.51-39.49,68.21-54.77,81.72-9.08,8-22.27,17.6-35,36.81-11.36,17.12-10.13,23.45-18.85,29.63-22.36,15.85-58.05-6.16-62,.9-4.59,8.28,49.87,29,60.16,74.53,4.71,20.84-4,28.35,1.8,62.85,2,11.81,4.91,29.09,14.36,46.69,26.25,48.88,82.21,61.85,94.28,64.65,18.67,4.33,47.47,11,70.94-4.49,5.52-3.64,11.25-8.84,23.35-28.73,25.58-42.06,36.92-79.6,38.61-85.3,15.68-53.17,5.14-55.81,18.85-79.92,21.2-37.26,53.55-43.56,50.29-59.26S926.44,909,893.89,882c-18-14.94-27.88-32.82-33.23-44.9"/></g><path class="cls-4" d="M614.27,124.3C593.06,135.69,612.36,236.22,643,301c43.34,91.61,70.57,96.83,108.21,176.66C766,509,785.52,551.42,790.93,610.11c5.55,60.15-7.47,101.06-13.25,130.29-20.28,102.69-1.79,504.08-120.31,689.27C510,1659.88,746.22,1603,772.47,1597.73c185.85-37.17,349.54-207.91,269.22-185.32-76.46,21.51-291.51-14.33-250.89-164.87,8-29.61,52.22-30.77,78.85-45.39,47.36-26,74.07-119.47,111-170.59,91-125.87,219.74-243.22,197.94-285.16-47.39-91.14-3.44-202.53-65.27-312.95-113.13-202-212-335.47-409.93-332.11C676.48,101.8,652.76,103.65,614.27,124.3Z"/><path class="cls-3" d="M906.87,669.56c-34.8,21.69-105,77.24-92.09,120.07,3.46,11.47,12.62,19.58,67.65,45.22,84.2,39.24,126.3,58.86,155,52.21,75.92-17.57,121.44-145.81,121.44-145.82.48-12.41-.07-43.6-21.19-69.81-25-31-62.71-35-89.1-37.84C978.27,626.14,924.31,658.71,906.87,669.56Z"/><path class="cls-5" d="M906.88,669.56q-12.27,7.71-23.8,16.49c-7.69,5.83-15.15,12-22.28,18.45a241.74,241.74,0,0,0-20.3,20.57c-1.6,1.8-3.1,3.68-4.64,5.53s-3,3.77-4.37,5.74a117.33,117.33,0,0,0-7.82,12.07,82.76,82.76,0,0,0-6,13,50.75,50.75,0,0,0-3,13.8,36.91,36.91,0,0,0,1.5,13.77,24.22,24.22,0,0,0,2.88,6.1,26.51,26.51,0,0,0,2.12,2.63c.39.42.75.85,1.16,1.25l1.28,1.17a75.79,75.79,0,0,0,11.5,8.1c2.06,1.2,4.11,2.4,6.23,3.52s4.22,2.25,6.36,3.33c8.55,4.34,17.29,8.36,26.06,12.33l26.47,11.67,26.52,11.57c17.69,7.61,35.41,15.18,53.33,21.61a226.68,226.68,0,0,0,27,8c9,2,18.12,2.88,26.47,1.46l1.55-.32a14.27,14.27,0,0,0,1.57-.38l3.22-.93c1.07-.33,2.17-.56,3.21-1l3.15-1.2c1-.42,2.11-.75,3.13-1.24l3.06-1.46c1-.5,2-.94,3-1.48l3-1.69a125.92,125.92,0,0,0,22.1-16.38c13.72-12.53,25.45-27.47,35.87-43.26a407,407,0,0,0,27.73-49.8c2-4.31,4-8.66,5.87-13,1-2.18,1.86-4.38,2.75-6.57l1.12-2.8h0s0,0,0,0h0s0,0,0,0v-.22l0-.43q0-.87.06-1.74a119.39,119.39,0,0,0-.4-13.9c-.18-2.31-.5-4.61-.81-6.91s-.74-4.57-1.27-6.82a94.46,94.46,0,0,0-9.64-25.93c-.51-1-1.18-2-1.77-3s-1.2-2-1.83-3l-2-2.83a33,33,0,0,0-2.1-2.77L1132,670a28.61,28.61,0,0,0-2.3-2.61l-2.45-2.48a31.88,31.88,0,0,0-2.53-2.4,89.74,89.74,0,0,0-23.53-15.1,129.52,129.52,0,0,0-27.12-8.5c-2.35-.48-4.69-.95-7.06-1.33s-4.73-.77-7.1-1.13-4.77-.65-7.16-1-4.78-.61-7.16-.8l-7.17-.64c-1.19-.09-2.39-.27-3.58-.28l-3.6-.08-7.2-.17c-2.4,0-4.8.15-7.2.22l-3.61.15c-1.2,0-2.4.07-3.59.22l-7.18.72c-1.2.13-2.4.22-3.59.39l-3.56.56-7.13,1.14-7.07,1.5-3.53.76-3.49.93c-2.33.63-4.66,1.23-7,1.88l-6.9,2.19-2,.62-.42.14-.84.31-1.67.61L952,647.09l-.11,0-.11,0-.49.17a223.05,223.05,0,0,0-22.75,10c-7.4,3.72-14.59,7.85-21.62,12.23,7.26-4.53,14.69-8.78,22.33-12.64,3.8-2,7.71-3.72,11.58-5.54,4-1.64,7.85-3.43,11.87-4.89l3.32-1.27,1.66-.63.41-.15,1.46-.49,6.82-2.28a223.35,223.35,0,0,1,56.58-10.07l7.22-.07,3.61,0h1.81l1.8.09,7.22.4,3.61.2c1.21.07,2.39.2,3.59.3a261.68,261.68,0,0,1,28.67,3.78l1.79.34,1.77.41,3.55.83c2.36.59,4.7,1.28,7,1.95l3.47,1.16c1.15.41,2.33.75,3.46,1.23l3.41,1.37,1.71.69,1.66.79a91.46,91.46,0,0,1,42.8,39.92l1.69,3.34.84,1.68.75,1.71,1.49,3.44,1.31,3.5.64,1.76.57,1.78,1.1,3.58c.61,2.41,1.3,4.81,1.77,7.26a114.87,114.87,0,0,1,2.2,14.77c.21,2.48.34,5,.41,7.45,0,1.24,0,2.49,0,3.73v.94c0,.33,0,.5,0,1.22a.84.84,0,0,1-.07.44l-.12.42-.25.85a.79.79,0,0,0,0,.46,1,1,0,0,1-.15.41c-.16.14-.18.21-.17.27l0,.19a3.37,3.37,0,0,1-.24.84l-.31.86-.63,1.72-1.29,3.42c-.88,2.27-1.76,4.53-2.68,6.77-1.84,4.49-3.74,9-5.74,13.38a367,367,0,0,1-27.86,51.21c-10.77,16.27-23.1,31.78-38.09,44.95a126.59,126.59,0,0,1-24.74,17.15c-2.25,1.18-4.61,2.18-6.91,3.27-1.13.58-2.37.94-3.56,1.41l-3.61,1.33a33.2,33.2,0,0,1-3.68,1.11l-3.72,1c-1.21.37-2.58.59-3.9.85s-2.66.4-4,.54a72,72,0,0,1-15.63-.35,115.12,115.12,0,0,1-14.81-2.93,242.08,242.08,0,0,1-27.84-9.4c-18-7.21-35.39-15.43-52.69-23.74s-34.46-16.78-51.64-25.4c-8.58-4.32-17.1-8.78-25.5-13.54q-6.3-3.55-12.41-7.56a73,73,0,0,1-11.52-9.23,26.3,26.3,0,0,1-7.2-13.21,39.13,39.13,0,0,1-.7-14.77,60.4,60.4,0,0,1,3.81-14.12,97,97,0,0,1,6.61-12.92A154.9,154.9,0,0,1,840.24,724a260.21,260.21,0,0,1,20.61-20.07c3.58-3.17,7.28-6.23,11-9.26s7.51-6,11.35-8.8C890.87,680.1,898.75,674.64,906.88,669.56Z"/><path class="cls-3" d="M761.87,726c29.85,25.58.74,42.25-25.77,72.11-17.29,19.47-45.89,19.85-101.8,26.09-122.24,13.63-183.36,20.44-219.85,3-4.84-2.32-77.79-40.51-94.71-118.84-3.15-14.57-12.15-56.21,11.2-95.49,22.29-37.49,60.56-50.16,75.67-54.92,50.64-15.95,95.62-.26,183.08,33C699.6,632.6,701.33,674.12,761.87,726Z"/><path class="cls-5" d="M761.87,726a58,58,0,0,1,6.63,6.67,28.59,28.59,0,0,1,4.78,8.06,19,19,0,0,1,1,9.27,26.21,26.21,0,0,1-3.17,8.82c-3.07,5.51-7.27,10.26-11.5,14.89s-8.71,9-13.07,13.56c-2.17,2.26-4.34,4.53-6.45,6.84-1.07,1.16-2.11,2.33-3.15,3.5s-2.18,2.28-3.26,3.43a50.82,50.82,0,0,1-15.83,10.26,104.28,104.28,0,0,1-18.1,5.48c-6.17,1.25-12.39,2.29-18.62,3.15-12.46,1.73-24.94,3.07-37.4,4.6l-37.37,4.69c-24.92,3.14-49.84,6.29-74.88,8.85-12.53,1.27-25.08,2.36-37.71,3a336.46,336.46,0,0,1-38.12.19c-12.77-.79-25.77-2.66-38.25-7.42-1.56-.56-3.08-1.28-4.62-1.93s-3.07-1.51-4.51-2.28c-2.87-1.56-5.65-3.19-8.4-4.88q-8.2-5.13-15.92-10.93A215.58,215.58,0,0,1,355.35,788q-6.53-7.17-12.37-15a193.18,193.18,0,0,1-10.77-16.22c-1.58-2.85-3.24-5.65-4.66-8.58-.72-1.46-1.51-2.89-2.17-4.38l-2-4.45a157,157,0,0,1-6.7-18.38c-.45-1.57-1-3.12-1.35-4.71l-1.16-4.76c-.4-1.6-.73-3.15-1.06-4.7s-.65-3.15-.94-4.74a173.32,173.32,0,0,1-2.56-19.37,159,159,0,0,1-.07-19.65l.46-4.92.24-2.46.38-2.44.75-4.89,1.05-4.85.53-2.42c.2-.8.45-1.59.67-2.39l1.38-4.77c.46-1.59,1.1-3.12,1.65-4.68s1.08-3.14,1.77-4.64A115.81,115.81,0,0,1,327.65,607l2.73-4.15c1-1.33,2-2.63,3-4,1.94-2.69,4.22-5.1,6.4-7.58,1.06-1.27,2.3-2.36,3.46-3.54s2.31-2.35,3.56-3.43c2.49-2.15,4.92-4.38,7.58-6.32a126.87,126.87,0,0,1,16.39-10.78,143.8,143.8,0,0,1,17.62-8.35,178.09,178.09,0,0,1,18.3-6.17l4.72-1.25,2.35-.62,1.18-.3,1.2-.23,4.79-.91,2.4-.45a21.38,21.38,0,0,1,2.4-.37,144.76,144.76,0,0,1,38.73-.09,246.08,246.08,0,0,1,37.34,8.18c6.11,1.7,12.08,3.75,18.1,5.69,6,2.09,11.93,4.1,17.82,6.33l8.85,3.28,8.81,3.37c5.89,2.22,11.72,4.57,17.57,6.84l17.52,6.95,17.41,7.34c1.47.59,2.89,1.27,4.31,2l4.26,2,8.54,4c1.43.65,2.82,1.4,4.2,2.16l4.16,2.24,8.32,4.49c10.78,6.51,21.5,13.2,31.21,21.24l3.71,2.92c1.2,1,2.36,2.08,3.54,3.12l3.53,3.14c1.16,1,2.38,2,3.48,3.18l6.71,6.62c2.21,2.24,4.31,4.58,6.47,6.86s4.2,4.67,6.29,7,4.16,4.71,6.19,7.11l9.26,10.78c1.56,1.82,3.12,3.64,4.72,5.42,5.45,6.24,11.08,12.33,16.92,18.21l4.43,4.35c1.49,1.44,2.92,2.94,4.49,4.29l9.25,8.31-9.55-8.57-1.2-1.08L750,715.24,747.69,713l-4.59-4.48c-1.56-1.47-3-3.06-4.48-4.6l-4.43-4.65c-2.94-3.11-5.75-6.34-8.64-9.49-.8-.87-1.57-1.77-2.35-2.66L714.37,677c-4.06-4.67-8.21-9.25-12.37-13.83l-6.42-6.69L694,654.84l-1.68-1.6-3.35-3.2-3.35-3.19-3.51-3-3.52-3c-1.18-1-2.31-2-3.57-2.94l-7.37-5.59-1.85-1.4-1.92-1.29L660,627c-20.55-13.69-43.13-24-66.24-32.58l-4.32-1.66-4.36-1.59-8.73-3.13-17.48-6.21c-11.68-4-23.37-8.07-35.15-11.68-5.87-1.89-11.8-3.51-17.7-5.21-5.94-1.51-11.87-3.11-17.85-4.31a193,193,0,0,0-36-4.56,129.25,129.25,0,0,0-35.51,4.09l-8.59,2.53c-2.9,1-5.77,1.92-8.58,3A160.56,160.56,0,0,0,383,572.93a129,129,0,0,0-15.27,9.15l-3.61,2.57-3.46,2.76L359,588.79l-1.64,1.48-3.28,3a106,106,0,0,0-20.86,28c-.33.65-.71,1.27-1,1.94l-.88,2-1.76,4c-.59,1.34-1,2.75-1.52,4.11s-1,2.74-1.42,4.15l-1.18,4.22-.59,2.12-.45,2.15-.9,4.3c-.25,1.44-.44,2.9-.66,4.35-.51,2.89-.64,5.84-.95,8.77-.09,1.47-.12,2.94-.18,4.42L321.6,670l0,2.21A135.13,135.13,0,0,0,322.79,690c.75,5.91,1.83,11.77,3.17,17.71L327,712c.17.72.33,1.45.52,2.17l.63,2.13,1.24,4.28,1.44,4.21a157.28,157.28,0,0,0,15.55,32.08c12.76,20.21,29.86,37.75,49.2,52.16,4.83,3.61,9.84,7,15,10.11,1.28.77,2.57,1.53,3.85,2.25a42.39,42.39,0,0,0,3.8,1.93,75.35,75.35,0,0,0,8.11,3.25c11.12,3.77,23.15,5.45,35.25,6.3,6.07.41,12.17.61,18.3.68s12.26,0,18.41-.21c12.3-.36,24.62-1.06,36.94-1.91,24.65-1.72,49.3-4,73.94-6.31l37-3.52c12.33-1.15,24.66-2.17,36.92-3.65,6.14-.72,12.25-1.63,18.28-2.86a85.43,85.43,0,0,0,17.64-5.3,48.35,48.35,0,0,0,15.2-10.17l1.63-1.64,1.57-1.71c1-1.15,2.11-2.26,3.17-3.39q3.19-3.37,6.47-6.67c4.35-4.4,8.77-8.73,13-13.25s8.31-9.21,11.29-14.64a24.88,24.88,0,0,0,3-8.72,18.71,18.71,0,0,0-1.11-9.1,28.84,28.84,0,0,0-4.76-7.91A56.36,56.36,0,0,0,761.87,726Z"/><path class="cls-6" d="M724.29,712.25C626.74,635.13,578,596.57,525.78,584.09c-46.2-11.05-97.48-23.31-141.44,4.66-35.6,22.65-60.69,68.06-52.11,107.19C348.11,768.28,478.38,815.87,568,798.46c51.43-10,103.71-44.18,158.81-44.27,5.07,0,21.51.26,24.82-7C756,737.57,734.54,720.35,724.29,712.25Z"/><path class="cls-6" d="M851.94,754.41C924.64,693.2,961,662.59,999.89,652.69c34.44-8.77,72.65-18.5,105.42,3.7,26.53,18,45.23,54,38.84,85.07-11.84,57.42-108.93,95.2-175.7,81.38-38.33-7.93-77.3-35.07-118.36-35.14-3.78,0-16,.2-18.5-5.55C828.32,774.5,844.3,760.84,851.94,754.41Z"/><g class="cls-7"><path class="cls-8" d="M387.48,463.89a342.14,342.14,0,0,1,23.25-27.82c2.07-2.2,4.1-4.47,6.23-6.62s4.24-4.34,6.4-6.47l6.52-6.38,6.7-6.2q13.55-12.25,28.12-23.49c9.69-7.49,19.78-14.5,30.09-21.23l7.81-4.94c2.6-1.65,5.28-3.18,7.92-4.77l4-2.36c.61-.37,1.47-.84,2.15-1.22l2.12-1.17c2.79-1.54,5.56-3,8.33-4.39q8.29-4.26,16.66-8.14t16.86-7.53q17-7.25,34.36-13.4,8.7-3.09,17.48-5.94t17.67-5.4c47.36-13.63,96.71-21.91,146.84-22.81a466,466,0,0,1,75.27,4.54,410.78,410.78,0,0,1,73.88,17.5l9.68,3.46c3.21,1.19,6.39,2.48,9.58,3.72s6.33,2.64,9.48,4c1.56.69,3.14,1.34,4.7,2.06l4.66,2.17a430.2,430.2,0,0,1,53.85,38.79,468.39,468.39,0,0,1,46.31,45.09q10.63,11.9,20.48,24.22t18.93,25.05c12.17,16.93,23.48,34.25,34.63,51.71a315.85,315.85,0,0,0-18.64-26.09c-3.27-4.22-6.79-8.24-10.26-12.29-1.74-2-3.59-3.95-5.38-5.91s-3.62-3.9-5.51-5.78l-5.63-5.65-5.8-5.46c-1.92-1.83-3.94-3.56-5.92-5.31s-4-3.5-6-5.16a299.48,299.48,0,0,0-25.26-19q-13.07-8.79-26.82-16.19c-9.23-4.8-18.47-9.42-28-13.3l-3.54-1.5L988,382.9l-7.17-2.75c-4.85-1.65-9.61-3.42-14.51-4.85-9.67-3.11-19.52-5.56-29.33-7.75l-6.71-2.12c-2.24-.7-4.5-1.32-6.75-2s-4.5-1.32-6.78-1.88L910,359.77a464.1,464.1,0,0,0-65.22-11.39l-4.13-.45-4.15-.35c-2.76-.22-5.51-.5-8.29-.65s-5.53-.4-8.31-.55l-8.32-.41c-5.57-.15-11.13-.36-16.71-.41-2.78-.07-5.57,0-8.37,0h-4.18l-4.19.08c-11.18.15-22.38.71-33.6,1.44s-22.43,1.83-33.65,3.19c-22.44,2.6-44.88,6.25-67.23,10.76s-44.65,9.84-66.73,16c-5.51,1.57-11,3.15-16.49,4.8s-10.94,3.37-16.33,5.14c-2.69.88-5.37,1.8-8,2.7l-1.92.67c-.67.23-1.15.39-1.87.67l-4,1.54c-2.66,1-5.36,2-8,3.1l-8,3.22c-2.67,1.06-5.29,2.23-8,3.33s-5.32,2.23-7.94,3.43l-7.93,3.51-7.89,3.65q-15.72,7.43-31.31,15.58l-7.77,4.13-7.76,4.22Q426,441,418.28,445.47C408,451.44,397.81,457.62,387.48,463.89Z"/></g><g class="cls-7"><path class="cls-8" d="M408.4,325.38c12.12-20,27.29-37.75,44.15-54a341.94,341.94,0,0,1,55.82-43.07c2.5-1.61,5.07-3.07,7.62-4.57s5.12-3,7.72-4.45l7.86-4.2,3.95-2.08,4-2,8.05-3.9c2.7-1.25,5.44-2.4,8.17-3.61,5.44-2.48,11-4.58,16.58-6.78a403,403,0,0,1,69-19.26c2.38-.46,4.77-.91,7.16-1.29s4.79-.81,7.19-1.17c4.8-.67,9.61-1.34,14.42-1.91s9.64-1,14.47-1.41,9.66-.75,14.5-1A488.86,488.86,0,0,1,791,187.31c7.4,2,14.72,4.24,21.89,6.43,3.53,1.09,7.24,2.35,10.86,3.52l10.89,3.58c14.4,5.15,28.59,10.48,42.44,16.47l5.19,2.21,2.59,1.1,2.57,1.17,10.24,4.63,2.55,1.15,2.53,1.21,5.05,2.43c3.36,1.63,6.75,3.13,10,4.85l10,5c3.31,1.65,6.56,3.42,9.85,5.09l4.91,2.53,4.86,2.62,9.72,5.19c25.78,14,50.74,28.63,76.13,42.67-26.27-14.46-54.4-25.36-83.06-33.42-14.34-4-28.88-7.17-43.41-9.81-7.31-1.18-14.55-2.45-21.87-3.3-3.66-.42-7.26-1-10.93-1.32l-10.94-1.06c-3.62-.41-7.3-.52-10.93-.8l-5.45-.36c-1.81-.12-3.62-.25-5.45-.28-7.29-.22-14.49-.62-21.74-.54l-10.82-.05-11.05.11c-7.3.16-14.51.32-21.67.67s-14.27.7-21.35,1.29-14.1,1.13-21.09,1.9c-14,1.42-27.78,3.33-41.42,5.52-3.23.15-6.47.26-9.7.5s-6.46.32-9.69.59-6.46.44-9.67.77-6.47.48-9.68.83c-20.18,1.9-40.28,4.75-60.43,8.36-10,1.95-20.14,3.84-30.19,6.2l-3.78.85c-1.25.32-2.51.6-3.77.91l-7.58,1.81c-5,1.35-10.11,2.53-15.13,4-20.24,5.43-40.54,11.86-61.08,19.11-10.28,3.62-20.61,7.47-31.08,11.47S419.37,321.29,408.4,325.38Z"/></g><g class="cls-7"><path class="cls-8" d="M648.9,473.73a124.54,124.54,0,0,1,10.92-13.58A159.45,159.45,0,0,1,672.29,448c4.36-3.87,9-7.44,13.71-10.9,2.41-1.65,4.79-3.39,7.27-4.94l3.72-2.36,3.79-2.26a192.8,192.8,0,0,1,32.08-15,202.42,202.42,0,0,1,34.39-9.22c2-.36,4.06-.65,6.09-1l3-.45,3.06-.36,6.13-.67,6.14-.43c1.68.08,3.35.22,5,.39l5,.5c3.32.36,6.62.86,9.91,1.31,6.56,1.08,13.06,2.31,19.45,3.86s12.71,3.29,18.93,5.13,12.33,4,18.35,6.23c12.06,4.41,23.74,9.36,35.22,14.42s22.73,10.3,34.15,15.22A189.13,189.13,0,0,0,901,436.22a239.87,239.87,0,0,0-37.86-4.55,289.17,289.17,0,0,0-37.43.91,354.59,354.59,0,0,0-36.11,5.25c-1.41.09-2.8.27-4.2.38l-4.2.39-8.37,1c-10.26,1.27-20.47,3-30.67,5.12s-20.41,4.62-30.63,7.55-20.49,6.21-30.86,9.86S659.88,469.78,648.9,473.73Z"/></g><path class="cls-8" d="M743.43,680.9l-8-10.75c-2.63-3.52-5.32-6.95-7.92-10.36-5.42-6.73-10.62-13.31-16.14-19.54a392.46,392.46,0,0,0-33.64-34.52,331.57,331.57,0,0,0-35.92-28.23l-4.61-3.14c-.74-.55-1.55-1-2.34-1.51l-2.37-1.45-4.71-2.92c-1.56-1-3.08-2-4.68-2.9-6.33-3.65-12.77-7.14-19.37-10.37-3.45-1.75-7-3.38-10.49-5l-5.29-2.36c-1.79-.74-3.54-1.53-5.33-2.24-3.58-1.42-7.11-2.9-10.71-4.21-1.8-.64-3.57-1.34-5.39-1.93s-3.58-1.29-5.38-1.88a275,275,0,0,0-70.7-25.91L488,511.2l-2.39-.42-4.79-.86c-3.21-.51-6.44-1-9.7-1.42l-4.9-.49c-1.64-.15-3.29-.4-4.94-.47l-5-.33-2.5-.16-2.5-.06a224.18,224.18,0,0,0-40.59,2.26l-2.56.37-2.54.45-5.11.94c-1.71.3-3.37.74-5.08,1.1s-3.4.74-5.09,1.18l-5.05,1.36-2.54.69-2.51.77-5,1.58-5,1.75a210,210,0,0,0-38.51,18.47,202.6,202.6,0,0,0-34.27,26.41A166.91,166.91,0,0,0,270.1,598a363.73,363.73,0,0,1,25.83-37.13q7.06-9,14.74-17.55t16.05-16.7c5.54-5.46,11.4-10.63,17.41-15.71l4.58-3.75c1.52-1.26,3.11-2.43,4.67-3.65,3.12-2.46,6.36-4.75,9.59-7.09a278.34,278.34,0,0,1,41.92-24.33,264.91,264.91,0,0,1,46.74-16.64,251.68,251.68,0,0,1,50.19-7.58,258.55,258.55,0,0,1,101.47,15.53c3.67,1.72,7.28,3.58,10.88,5.42s7.09,3.89,10.57,5.94c1.75,1,3.47,2.06,5.19,3.11s3.42,2.14,5.1,3.25,3.37,2.21,5,3.35,3.33,2.27,5,3.45a258.43,258.43,0,0,1,22.71,18.26c3.61,3.23,7,6.76,10.43,10.15l2.56,2.56c.85.86,1.72,1.69,2.51,2.62L688,527a235.32,235.32,0,0,1,32.16,47.23,220.55,220.55,0,0,1,19.06,52.39c.49,2.26,1,4.48,1.44,6.73l1.14,6.78c.4,2.24.66,4.52.93,6.79s.51,4.53.68,6.8.33,4.53.46,6.79.1,4.56.15,6.82C744,671.84,743.87,676.37,743.43,680.9Z"/><path class="cls-8" d="M867.08,661.47a63.06,63.06,0,0,1-.61-8.27c0-2.71,0-5.48.27-8.14s.54-5.38,1-8c.23-1.31.45-2.66.72-4s.59-2.61.92-3.91a115,115,0,0,1,12.24-29.89,125.73,125.73,0,0,1,20.45-26.1c2-1.91,4.14-3.8,6.25-5.7,1-1,2.17-1.83,3.3-2.7l3.39-2.59a131.22,131.22,0,0,1,14.38-9.41c2.46-1.52,5.09-2.68,7.67-4l3.92-1.86c1.31-.62,2.63-1.22,4-1.73,2.68-1.08,5.38-2.13,8.14-3l4.13-1.35c1.38-.41,2.78-.78,4.18-1.17a143,143,0,0,1,34.21-5,147.61,147.61,0,0,1,34,3.12c1.38.3,2.75.63,4.13,1s2.75.63,4.09,1.05c2.71.78,5.42,1.54,8,2.5l4,1.38c1.32.45,2.6,1,3.89,1.55,2.58,1,5.14,2.11,7.63,3.36a240.36,240.36,0,0,1,20.66,23c6.16,7.73,11.66,15.42,16.81,22.76s10,14.35,14.9,20.8a115.23,115.23,0,0,0,15.85,17.45c-12.28-10.52-28.58-16.24-44.92-17.79a112,112,0,0,0-47.17,6c-7.06-.27-13.87-.34-20.49-.23-.83,0-1.66,0-2.48,0s-1.64,0-2.46.08c-1.64,0-3.26.13-4.88.17s-3.22.21-4.83.24-3.19.2-4.78.33a278.52,278.52,0,0,0-37.92,5.47l-2.41.56-2.48.48c-.84.14-1.62.43-2.43.64s-1.65.41-2.48.61l-2.53.6c-.43.08-.83.23-1.25.35l-1.25.36c-1.7.46-3.38,1-5.15,1.41-6.84,2.12-14.06,4.45-21.64,7.27l-2.81,1.12-2.91,1.11c-2,.74-3.87,1.58-5.86,2.39-1,.41-2,.77-3,1.22s-2,.88-3,1.31c-2.05.86-4.12,1.76-6.19,2.71C885.85,652.74,877.15,656.94,867.08,661.47Z"/><path class="cls-3" d="M777.81,622.09c10.81-16.76,22.83-40.79,26.26-70.9,5-43.71-10.73-77.72-7.88-78.77,2.36-.87,14.37,21.9,55.14,120.78"/><path class="cls-9" d="M591.38,690.35C590,721.12,548.51,743,525.74,750.74c-60.58,20.59-145-5.8-154.91-55.14-6.89-34.25,23.18-74.26,57.76-89.27C497.66,576.36,593.51,642.34,591.38,690.35Z"/><path class="cls-9" d="M909.09,742.87c2.48,21.12,47,30.36,52.52,31.51,37,7.67,92.34-1,102.4-34.14,6.12-20.14-5.53-46-23.63-57.76C994.84,653,905.41,711.42,909.09,742.87Z"/><path class="cls-9" d="M764.17,905.88c-5.16-.83-14.85,12.06-12.87,25.73,1.85,12.69,13.24,22.53,18,20.58C777.57,948.81,772.84,907.27,764.17,905.88Z"/><path class="cls-9" d="M803.93,905.88c-5.16-.83-14.85,12.06-12.87,25.73,1.85,12.69,13.24,22.53,18,20.58C817.33,948.81,812.6,907.27,803.93,905.88Z"/><path class="cls-9" d="M857.46,1062.73c-1.75,11.38-77.05,7-99,5.66-24-1.42-44.41-2.73-45.26-8.49-1-7,26.7-19.49,53.74-22.63C813,1031.92,858.88,1053.57,857.46,1062.73Z"/><path class="cls-10" d="M447.55,878.24c-40.19-23-21.53-11.49-68.49-52.91-32.74-28.87-50.81-62.27-63.42-56.07-13.79,6.77-14.28,44.42-2.49,72.33C345,917,477.72,947.82,505.21,913.93,519.44,896.39,473.2,892.89,447.55,878.24Z"/><path class="cls-11" d="M396.08,1144.14c10.56,29.54-80.85,98.58-181.91,134.71S20.58,1334.94,10,1305.39,85.35,1197,186.41,1160.84,385.51,1114.59,396.08,1144.14Z"/><path class="cls-12" d="M385.77,1121a8.51,8.51,0,0,1,2.15,5.92c-.33,13.14-20,31.22-28.46,40.23a396.24,396.24,0,0,1-48.78,43.38c-42,31.93-90.45,57.83-142.48,68.47-112.75,23-156.1,32.59-167.15,5.74s66.27-84.12,172.69-127.92c40.79-16.79,82.74-34.65,126.41-42.43C311.64,1112.36,373.42,1106.5,385.77,1121Z"/><path class="cls-11" d="M299.34,1130.65c10.45,25.39-36.92,70.79-100.24,96.85s-128.57,47.68-139,22.29,37.85-88.16,101.17-114.22S288.9,1105.27,299.34,1130.65Z"/><path class="cls-13" d="M283.25,1118.1c8.92,26-36.73,67-96.64,87.57s-121.46,36.61-130.38,10.65,38.16-84.08,98.07-104.67S274.32,1092.14,283.25,1118.1Z"/><path class="cls-14" d="M1031,93.29l41.78,1.16"/><ellipse class="cls-15" cx="1156.55" cy="95.36" rx="57.9" ry="111.86" transform="translate(291.25 868.64) rotate(-46.5)"/><path class="cls-11" d="M1163.43,261.24c27.78,15.38,46.71,20.37,55.53,22.61,8.16,2.07,71.52,17.36,73.47-22.34,2.14-43.6-70.79-132.21-143.94-189-53.9-41.82-133.65-86.32-166-68.5-34.48,19,6.88,96.7,55.9,153.27C1044.66,164.53,1097.53,224.75,1163.43,261.24Z"/><path class="cls-14" d="M1155.36,237.67c22.54,12.48,37.89,16.52,45.05,18.34,6.61,1.68,58,14.08,59.58-18.12,1.74-35.37-57.41-107.23-116.74-153.27-43.72-33.92-108.41-70-134.64-55.57-28,15.41,5.58,78.44,45.34,124.33C1059,159.23,1101.91,208.07,1155.36,237.67Z"/><path class="cls-16" d="M976.42,52.5c6.6,17.88,9.46,62.21,54,57.86,21.58-2.11,55.85-9,98.69,25.33,272,218.07,103,32.17,114.23,20.72,16.36-16.64,4.21-37.11-31.62-81.75-24.31-30.31-91-75.43-118.9-62.09-48.75,23.35-99.42-1.69-101.5-6.93C987.17-4.78,970.55,36.62,976.42,52.5Z"/><path class="cls-17" d="M1076.1,21.75C1064,44,1126.66,70.32,1156.34,78.68s51.41,9.51,59.29,14.48c39.55,25-21.3-45.54-65.57-72.55C1124.06,4.75,1084.68,6,1076.1,21.75Z"/><path class="cls-17" d="M983.94,76.23c4.2,8.45,3.44-52.89,41.58-52,33.79.83,47.66,3.38,48.56,1.47,2-4.24-73.06-35.16-92.44-20.06C972.9,12.48,958,24,983.94,76.23Z"/></g></svg>