<svg id="Layer_1" data-name="Layer 1" xmlns="http://www.w3.org/2000/svg" xmlns:xlink="http://www.w3.org/1999/xlink" viewBox="0 0 125.34 132.54"><defs><style>.cls-1{fill:none;}.cls-2{clip-path:url(#clip-path);}</style><clipPath id="clip-path"><rect class="cls-1" width="125.34" height="132.54"/></clipPath></defs><g id="Group_50" data-name="Group 50"><rect id="Rectangle_13" data-name="Rectangle 13" x="59.37" y="31.69" width="6.46" height="16.94"/><g id="Group_49" data-name="Group 49"><g class="cls-2"><g id="Group_48" data-name="Group 48"><path id="Path_231" data-name="Path 231" d="M65.27,41.84V31.68a10.76,10.76,0,1,0-8.8-17L48.18,8.85a20.92,20.92,0,1,1,17.09,33"/><path id="Path_232" data-name="Path 232" d="M82.14,132.54V122.39a33.09,33.09,0,0,0,33-33c0-15-9-31.68-28.89-32.79L0,56.37,0,46.21l86.56.19c22.93,1.28,38.76,18.93,38.76,42.94a43.26,43.26,0,0,1-43.2,43.2"/></g></g></g></g></svg>