<?xml version="1.0" encoding="utf-8"?>
<!-- Generator: Adobe Illustrator 26.0.1, SVG Export Plug-In . SVG Version: 6.00 Build 0)  -->
<svg version="1.1" id="Layer_1" xmlns="http://www.w3.org/2000/svg" xmlns:xlink="http://www.w3.org/1999/xlink" x="0px" y="0px"
	 viewBox="0 0 113.9 120.5" style="enable-background:new 0 0 113.9 120.5;" xml:space="preserve">
<style type="text/css">
	.st0{fill:#FFFFFF;}
	.st1{fill:none;}
</style>
<g>
	<rect id="Rectangle_13" x="54" y="28.8" class="st0" width="5.9" height="15.4"/>
	<path id="Path_231" class="st0" d="M59.3,38v-9.2c5.4,0,9.8-4.4,9.8-9.8s-4.4-9.8-9.8-9.8c-3.2,0-6.2,1.5-8,4.1L43.8,8
		c6.1-8.6,17.9-10.6,26.5-4.6S80.9,21.4,74.9,30C71.3,35,65.5,38,59.3,38"/>
	<path id="Path_232" class="st0" d="M74.7,120.5v-9.2c16.6,0,30-13.5,30-30c0-13.6-8.2-28.8-26.3-29.8L0,51.2L0,42l78.7,0.2
		c20.8,1.2,35.2,17.2,35.2,39C113.9,102.9,96.3,120.5,74.7,120.5"/>
	<rect id="Rectangle_14_00000148629036045188755990000000250721756282484132_" y="0" class="st1" width="113.9" height="120.5"/>
</g>
</svg>
