<svg id="Layer_1" data-name="Layer 1" xmlns="http://www.w3.org/2000/svg" viewBox="0 0 52.66 62.97"><defs><style>.cls-1,.cls-2{stroke:#fff;}.cls-2{fill:none;stroke-linecap:round;stroke-linejoin:round;stroke-width:5px;}</style></defs><g id="Group_208" data-name="Group 208"><path id="Path_327" data-name="Path 327" class="cls-1" d="M36.1,48.07c.47.51.85.93,1.24,1.32l9.08,9.23c.4.42,1,.77.82,1.85a19.94,19.94,0,0,1-3.16-3c-1-1-1.92-2-2.88-3s-2-2.08-3-3.1-2-1.91-3.07-3c-4.35,1.54-8.88,2.17-13.54.75a2.74,2.74,0,0,1,.5,0c.17,0,.33.08.5.1,14.94,2,27.32-9.36,26.83-24A23.08,23.08,0,0,0,3.58,22.35a73.73,73.73,0,0,0-.45,10.5c0,8.46.05,16.92.08,25.37v1.87l-.36.06a3.63,3.63,0,0,1-.26-.95c0-2.08,0-4.15,0-6.22q0-13.38-.07-26.75A23.63,23.63,0,0,1,23.6,2.66C37.32,1,51.37,12,50.08,28.19,49.42,36.5,45.19,42.77,38,47c-.59.35-1.19.66-1.9,1.06"/><path id="Path_328" data-name="Path 328" class="cls-2" d="M36.1,48.07c.47.51.85.93,1.24,1.32l9.08,9.23c.4.42,1,.77.82,1.85a19.94,19.94,0,0,1-3.16-3c-1-1-1.92-2-2.88-3s-2-2.08-3-3.1-2-1.91-3.07-3c-4.35,1.54-8.88,2.17-13.54.75a2.74,2.74,0,0,1,.5,0c.17,0,.33.08.5.1,14.94,2,27.32-9.36,26.83-24A23.08,23.08,0,0,0,3.58,22.35a73.73,73.73,0,0,0-.45,10.5c0,8.46.05,16.92.08,25.37v1.87l-.36.06a3.63,3.63,0,0,1-.26-.95c0-2.08,0-4.15,0-6.22q0-13.38-.07-26.75A23.63,23.63,0,0,1,23.6,2.66C37.32,1,51.37,12,50.08,28.19,49.42,36.5,45.19,42.77,38,47,37.42,47.36,36.82,47.67,36.1,48.07Z"/></g></svg>