<?xml version="1.0" encoding="utf-8"?>
<!-- Generator: Adobe Illustrator 26.0.1, SVG Export Plug-In . SVG Version: 6.00 Build 0)  -->
<svg version="1.1" id="Layer_1" xmlns="http://www.w3.org/2000/svg" xmlns:xlink="http://www.w3.org/1999/xlink" x="0px" y="0px"
	 viewBox="0 0 49.7 48.5" style="enable-background:new 0 0 49.7 48.5;" xml:space="preserve">
<style type="text/css">
	.st0{fill:none;stroke:#794AE1;stroke-miterlimit:10;}
	.st1{fill:#FFFFFF;}
	.st2{fill:none;stroke:#794AE1;stroke-width:0.5;stroke-linecap:round;stroke-linejoin:round;stroke-miterlimit:10;}
</style>
<g>
	<path class="st0" d="M0.6,40.4c0-10.7,0-21.4,0-32.1c0-0.1,0.1-0.1,0.1-0.2c0.7-4.6,4.2-7.5,8.8-7.5c10.3,0,20.6,0,30.8,0
		c0.5,0,1,0,1.6,0.1c4.4,0.7,7.3,4.2,7.3,8.7c0,10,0,20,0,30c0,4.9-3.7,8.7-8.6,8.8c-10.4,0-20.9,0-31.3,0c-4.1,0-7.4-2.7-8.4-6.6
		C0.7,41.1,0.7,40.7,0.6,40.4z M31.9,17.6c-0.9,0-1.7-0.1-2.6,0c-4.8,0.4-8.1,4.2-7.9,9.1c0.1,3.9,2.3,6.6,6,7.4
		c3,0.7,6,0.2,8.9-0.9c0.3-0.1,0.3-0.3,0.3-0.6c0-1-0.1-1.9-0.1-2.9c0-3.9,0-7.7,0-11.6c0-2.2,0-4.4,0-6.7c0-0.4-0.1-0.5-0.5-0.5
		c-1.2,0-2.4,0-3.6,0c-0.3,0-0.4,0-0.4,0.4c0,0.6,0,1.3,0,1.9C31.9,14.7,31.9,16.1,31.9,17.6z M13.7,23.4c0,3.4,0,6.7,0,10.1
		c0,0.4,0.1,0.6,0.6,0.6c1.1,0,2.2,0,3.4,0c0.4,0,0.6-0.1,0.6-0.6c0-6.8,0-13.5,0-20.3c0-0.4-0.1-0.6-0.5-0.6c-1.1,0-2.2,0-3.3,0
		c-0.7,0-0.7,0-0.7,0.7C13.7,16.7,13.7,20.1,13.7,23.4z"/>
	<path class="st1" d="M31.9,17.6c0-1.5,0-3,0-4.4c0-0.6,0-1.3,0-1.9c0-0.3,0.2-0.4,0.4-0.4c1.2,0,2.4,0,3.6,0c0.4,0,0.5,0.1,0.5,0.5
		c0,2.2,0,4.4,0,6.7c0,3.9,0,7.7,0,11.6c0,1,0.1,1.9,0.1,2.9c0,0.3,0,0.5-0.3,0.6c-2.9,1.1-5.8,1.6-8.9,0.9c-3.7-0.9-5.8-3.5-6-7.4
		c-0.2-4.9,3.1-8.6,7.9-9.1C30.2,17.6,31,17.6,31.9,17.6z M31.9,21.4c-0.6,0-1.2-0.1-1.8,0c-1.8,0.1-3.5,1.5-3.9,3.1
		C26,25.2,26,26,26,26.7c0.1,2.1,1.3,3.4,3.3,3.8c0.7,0.1,1.4,0,2,0.1c0.4,0,0.5-0.1,0.5-0.5c0-2.7,0-5.4,0-8.1
		C31.9,21.8,31.9,21.6,31.9,21.4z"/>
	<path class="st1" d="M13.7,23.4c0-3.3,0-6.7,0-10c0-0.7,0-0.7,0.7-0.7c1.1,0,2.2,0,3.3,0c0.4,0,0.5,0.2,0.5,0.6
		c0,6.8,0,13.5,0,20.3c0,0.4-0.1,0.6-0.6,0.6c-1.1,0-2.2,0-3.4,0c-0.5,0-0.6-0.2-0.6-0.6C13.7,30.1,13.7,26.8,13.7,23.4z"/>
	<path class="st2" d="M31.9,21.4c0,0.2,0,0.4,0,0.5c0,2.7,0,5.4,0,8.1c0,0.4-0.1,0.5-0.5,0.5c-0.7,0-1.4,0.1-2-0.1
		c-2-0.3-3.2-1.7-3.3-3.8c-0.1-0.7,0-1.5,0.1-2.2c0.4-1.7,2.1-3,3.9-3.1C30.7,21.3,31.3,21.4,31.9,21.4z"/>
</g>
</svg>
