<?xml version="1.0" encoding="utf-8"?>
<!-- Generator: Adobe Illustrator 26.0.1, SVG Export Plug-In . SVG Version: 6.00 Build 0)  -->
<svg version="1.1" id="Layer_1" xmlns="http://www.w3.org/2000/svg" xmlns:xlink="http://www.w3.org/1999/xlink" x="0px" y="0px"
	 viewBox="0 0 29.8 29.8" style="enable-background:new 0 0 29.8 29.8;" xml:space="preserve">
<path id="Icon_awesome-instagram" d="M14.9,7.3c-4.2,0-7.7,3.4-7.7,7.6c0,4.2,3.4,7.7,7.6,7.7c4.2,0,7.7-3.4,7.7-7.6c0,0,0,0,0,0
	l0,0C22.6,10.7,19.2,7.3,14.9,7.3C14.9,7.3,14.9,7.3,14.9,7.3L14.9,7.3z M14.9,19.9c-2.8,0-5-2.2-5-5s2.2-5,5-5s5,2.2,5,5l0,0
	C19.9,17.6,17.7,19.9,14.9,19.9C14.9,19.9,14.9,19.9,14.9,19.9z M24.6,7c0,1-0.8,1.8-1.8,1.8S21.1,8,21.1,7s0.8-1.8,1.8-1.8
	c0,0,0,0,0,0C23.9,5.2,24.7,6,24.6,7z M29.7,8.8c0.1-2.3-0.8-4.6-2.4-6.3c-1.7-1.6-3.9-2.4-6.2-2.4C18.6,0,11.2,0,8.8,0.1
	C6.4,0.1,4.2,0.9,2.5,2.5C0.9,4.2,0.1,6.4,0.1,8.8C0,11.2,0,18.6,0.1,21c-0.1,2.3,0.8,4.6,2.4,6.2c1.7,1.6,3.9,2.4,6.2,2.4
	c2.5,0.1,9.8,0.1,12.3,0c2.3,0,4.6-0.8,6.2-2.4c1.6-1.7,2.5-3.9,2.4-6.2C29.8,18.6,29.8,11.2,29.7,8.8L29.7,8.8z M26.5,23.7
	C26,25,25,26,23.7,26.5c-2,0.8-6.6,0.6-8.8,0.6s-6.8,0.2-8.8-0.6C4.8,26,3.8,25,3.3,23.7c-0.8-2-0.6-6.6-0.6-8.8S2.5,8.1,3.3,6.1
	c0.5-1.3,1.5-2.3,2.8-2.8c2-0.8,6.6-0.6,8.8-0.6s6.8-0.2,8.8,0.6C25,3.8,26,4.8,26.5,6.1c0.8,2,0.6,6.6,0.6,8.8S27.3,21.7,26.5,23.7
	L26.5,23.7z"/>
</svg>
