<?xml version="1.0" encoding="utf-8"?>
<!-- Generator: Adobe Illustrator 26.0.1, SVG Export Plug-In . SVG Version: 6.00 Build 0)  -->
<svg version="1.1" id="Layer_1" xmlns="http://www.w3.org/2000/svg" xmlns:xlink="http://www.w3.org/1999/xlink" x="0px" y="0px"
	 viewBox="0 0 29.5 29.5" style="enable-background:new 0 0 29.5 29.5;" xml:space="preserve">
<path id="Icon_awesome-linkedin-in" d="M6.6,29.5H0.5V9.8h6.1V29.5z M3.6,7.1C1.7,7.2,0,5.6,0,3.6S1.5,0,3.5,0s3.6,1.5,3.6,3.5
	c0,0,0,0,0,0l0,0C7.1,5.5,5.5,7.1,3.6,7.1L3.6,7.1z M29.6,29.5h-6.1v-9.6c0-2.3,0-5.2-3.2-5.2s-3.7,2.5-3.7,5.1v9.8h-6.2V9.8h5.9
	v2.7h0.1c1.2-2,3.4-3.3,5.8-3.2c6.2,0,7.3,4.1,7.3,9.4v10.8H29.6z"/>
</svg>
