<svg id="Layer_1" data-name="Layer 1" xmlns="http://www.w3.org/2000/svg" xmlns:xlink="http://www.w3.org/1999/xlink" viewBox="0 0 150.5 158.77"><defs><style>.cls-1{fill:none;}.cls-2{clip-path:url(#clip-path);}.cls-3{fill:#251b58;}</style><clipPath id="clip-path"><rect class="cls-1" width="150.49" height="158.77"/></clipPath></defs><g id="Group_34" data-name="Group 34"><g class="cls-2"><g id="Group_33" data-name="Group 33"><path id="Path_224" data-name="Path 224" class="cls-3" d="M143,79.88c-.62-11.33-3.19-22.47-8.78-32.54A68.45,68.45,0,0,0,97.81,16.23a67.7,67.7,0,0,0-82.62,33.7C5.24,70,5.07,95.4,13,116.16a68.23,68.23,0,0,0,6.62,13,66.25,66.25,0,0,0,33.45,25.94A68.67,68.67,0,0,0,113,147.35,68.76,68.76,0,0,0,142.48,98a117.5,117.5,0,0,0,.5-18.09m-7.61,8.29h0c-.64,33.69-27.29,60.8-60.1,60.8s-59.46-27.11-60.1-60.8h0c0-.21,0-.42,0-.64s0-.4,0-.6h0c.6-35.79,27.27-64.61,60.1-64.61s59.49,28.82,60.1,64.61h0c0,.2,0,.4,0,.6s0,.43,0,.64"/><path id="Path_225" data-name="Path 225" class="cls-3" d="M.72,73.26A76.18,76.18,0,0,1,33.4,18.52,76.08,76.08,0,0,1,99.82,9.9,73.42,73.42,0,0,1,136.9,38.65a75.4,75.4,0,0,1,7.33,14.44,97,97,0,0,1,6.22,31.59,97.47,97.47,0,0,0-6.22-37.45,75.4,75.4,0,0,0-7.33-14.44A73.5,73.5,0,0,0,99.82,4,76.12,76.12,0,0,0,33.4,12.66,76.18,76.18,0,0,0,.72,67.4,130.39,130.39,0,0,0,0,84.05q.12-5.42.68-10.79"/></g></g></g></svg>