<?xml version="1.0" encoding="utf-8"?>
<!-- Generator: Adobe Illustrator 26.0.1, SVG Export Plug-In . SVG Version: 6.00 Build 0)  -->
<svg version="1.1" id="Layer_1" xmlns="http://www.w3.org/2000/svg" xmlns:xlink="http://www.w3.org/1999/xlink" x="0px" y="0px"
	 viewBox="0 0 136.8 144.3" style="enable-background:new 0 0 136.8 144.3;" xml:space="preserve">
<style type="text/css">
	.st0{fill:#FFFFFF;}
	.st1{fill:none;}
</style>
<g>
	<path id="Path_224" class="st0" d="M130,72.6c-0.6-10.3-2.9-20.4-8-29.6c-7.3-13.1-19-23.1-33.1-28.3c-29.2-10.1-61.3,3-75.1,30.6
		c-9,18.2-9.2,41.3-2,60.2c1.6,4.2,3.6,8.1,6,11.8c7.3,11,18,19.3,30.4,23.6c18.3,6.2,38.4,3.6,54.5-7.1
		c15.1-10.3,24.8-26.7,26.8-44.9C130.1,83.6,130.3,78.1,130,72.6 M123.1,80.2L123.1,80.2c-0.6,30.6-24.8,55.3-54.7,55.3
		s-54-24.6-54.6-55.3h0c0-0.2,0-0.4,0-0.6s0-0.4,0-0.5h0c0.5-32.5,24.8-58.7,54.6-58.7S122.5,46.5,123,79h0c0,0.2,0,0.4,0,0.5
		S123.1,80,123.1,80.2"/>
	<path id="Path_225" class="st0" d="M0.7,66.6c2.2-20.1,13-38.3,29.7-49.8C48.2,5,70.5,2.1,90.7,9c13.8,4.8,25.6,14,33.7,26.1
		c2.7,4.1,4.9,8.5,6.7,13.1c3.5,9.2,5.4,18.9,5.6,28.7c0.4-11.6-1.6-23.2-5.6-34c-1.7-4.6-4-9-6.7-13.1
		c-8.1-12.2-19.9-21.4-33.7-26.1c-20.3-6.9-42.6-4-60.4,7.8C13.7,23,2.8,41.1,0.7,61.3c-0.5,5-0.7,10.1-0.6,15.1
		C0.1,73.1,0.3,69.8,0.7,66.6"/>
	<rect id="Rectangle_7" class="st1" width="136.8" height="144.3"/>
</g>
</svg>
