<?xml version="1.0" encoding="utf-8"?>
<!-- Generator: Adobe Illustrator 26.0.1, SVG Export Plug-In . SVG Version: 6.00 Build 0)  -->
<svg version="1.1" id="Layer_1" xmlns="http://www.w3.org/2000/svg" xmlns:xlink="http://www.w3.org/1999/xlink" x="0px" y="0px"
	 viewBox="0 0 49.8 48.6" style="enable-background:new 0 0 49.8 48.6;" xml:space="preserve">
<style type="text/css">
	.st0{fill:none;stroke:#00FF36;stroke-miterlimit:10;}
	.st1{fill:#FFFFFF;}
	.st2{fill:none;stroke:#00FF36;stroke-width:0.5;stroke-linecap:round;stroke-linejoin:round;stroke-miterlimit:10;}
</style>
<g>
	<path id="Path_23" class="st0" d="M49.3,8.3v32c0,0.1-0.1,0.2-0.1,0.3c-0.6,4.3-4.2,7.5-8.6,7.5c-10.5,0-21,0-31.5,0
		c-4,0-7.5-2.7-8.4-6.6c-0.1-0.3-0.2-0.7-0.2-1V8.2c0-0.1,0.1-0.1,0.1-0.2c0.6-4.3,4.2-7.5,8.6-7.5c10.5,0,21,0,31.5,0
		c4,0,7.5,2.7,8.4,6.6C49.1,7.5,49.2,7.9,49.3,8.3 M16.5,27.4l0.2,0h0.5c1.6,0.1,3.2,0,4.8-0.4c3.9-0.9,6.3-4.8,5.3-8.7
		c-0.2-1-0.7-2-1.3-2.8c-1.4-1.8-3.6-2.8-5.9-2.8c-2.5-0.1-5.1,0-7.7,0c-0.4,0-0.4,0.2-0.4,0.5c0,6.8,0,13.6,0,20.4
		c0,0.4,0.1,0.5,0.5,0.5c1.1,0,2.2,0,3.3,0c0.5,0,0.6-0.2,0.6-0.6C16.5,31.5,16.5,29.4,16.5,27.4 M34.6,19.8c-0.1-0.5-0.1-1-0.2-1.5
		c0-0.3-0.3-0.6-0.6-0.6c0,0,0,0,0,0h-0.1c-1,0-2.1,0-3.1,0c-0.4,0-0.5,0.1-0.4,0.5c0.1,2,0.1,4,0.1,6.1c0,3.1,0,6.1,0,9.2
		c0,0.5,0.1,0.6,0.6,0.6c1.1,0,2.2,0,3.3,0c0.7,0,0.7,0,0.7-0.7c0-3.1,0-6.2,0-9.2c-0.1-0.6,0.3-1.2,0.9-1.4
		c0.2-0.1,0.4-0.2,0.6-0.3c1.1-0.4,2.2-0.6,3.3-0.6c0.4,0,0.5-0.1,0.5-0.5c0-1.1,0-2.3,0-3.4c0-0.4-0.1-0.6-0.5-0.5
		c-1,0-1.9,0.3-2.8,0.8C36,18.7,35.3,19.2,34.6,19.8"/>
	<path id="Path_24" class="st1" d="M16.5,27.4c0,2.1,0,4.1,0,6.1c0,0.5-0.1,0.6-0.6,0.6c-1.1,0-2.2,0-3.3,0c-0.4,0-0.5-0.1-0.5-0.5
		c0-6.8,0-13.6,0-20.4c0-0.2,0-0.5,0.4-0.5c2.6,0,5.1-0.1,7.7,0c2.3,0,4.4,1,5.9,2.8c2.5,3.1,1.9,7.7-1.2,10.1
		C23.9,26.3,23,26.7,22,27c-1.6,0.4-3.2,0.5-4.8,0.4h-0.5L16.5,27.4 M16.5,23.5c1.3,0.1,2.7,0,4-0.3c2.2-0.6,2.8-2.4,2.2-4.4
		c-0.2-0.8-0.8-1.4-1.5-1.7c-1.5-0.7-3.1-0.5-4.8-0.5L16.5,23.5z"/>
	<path id="Path_25" class="st1" d="M34.6,19.8c0.7-0.5,1.4-1.1,2.2-1.6c0.8-0.5,1.8-0.7,2.7-0.8c0.4,0,0.6,0.1,0.5,0.5
		c0,1.1,0,2.3,0,3.4c0,0.4-0.1,0.5-0.5,0.5c-1.1,0-2.3,0.2-3.3,0.6c-0.2,0.1-0.4,0.2-0.6,0.3c-0.6,0.2-0.9,0.8-0.9,1.4
		c0,3.1,0,6.1,0,9.2c0,0.7,0,0.7-0.7,0.7c-1.1,0-2.2,0-3.3,0c-0.5,0-0.6-0.1-0.6-0.6c0-3.1,0-6.1,0-9.2c0-2-0.1-4-0.1-6
		c0-0.3,0.1-0.5,0.4-0.5c1,0,2.1,0,3.1,0c0.3-0.1,0.6,0.2,0.7,0.5c0,0,0,0,0,0.1L34.6,19.8"/>
	<path id="Path_26" class="st2" d="M16.5,23.5v-6.9c1.6,0,3.2-0.3,4.8,0.5c0.7,0.3,1.3,0.9,1.5,1.7c0.6,2-0.1,3.8-2.2,4.4
		C19.2,23.5,17.9,23.6,16.5,23.5"/>
</g>
</svg>
