<svg id="Layer_1" data-name="Layer 1" xmlns="http://www.w3.org/2000/svg" viewBox="0 0 48.76 47.58"><defs><style>.cls-1{fill:#00ff36;}</style></defs><path id="Path_23" data-name="Path 23" class="cls-1" d="M48.76,7.79v32a3,3,0,0,0-.08.32,8.57,8.57,0,0,1-8.58,7.45q-15.72,0-31.45,0A8.57,8.57,0,0,1,.24,40.94c-.09-.35-.16-.7-.24-1V7.69a.66.66,0,0,0,.08-.21A8.57,8.57,0,0,1,8.65,0Q24.39,0,40.11,0a8.58,8.58,0,0,1,8.41,6.62c.1.38.16.77.24,1.15M16,26.88l.18-.05h.52a17.08,17.08,0,0,0,4.78-.38,7.21,7.21,0,0,0,5.34-8.67A7.29,7.29,0,0,0,25.48,15,7.62,7.62,0,0,0,19.6,12.2c-2.55-.09-5.1,0-7.66,0-.37,0-.35.22-.35.47q0,10.2,0,20.42c0,.4.15.51.53.5,1.09,0,2.19,0,3.28,0,.5,0,.62-.17.61-.64,0-2,0-4.06,0-6.12m18.06-7.55c-.07-.45-.14-.95-.23-1.45a.59.59,0,0,0-.63-.56h-.07q-1.54,0-3.09,0c-.37,0-.45.14-.44.48.06,2,.1,4,.12,6.05q0,4.59,0,9.19c0,.46.14.61.6.6,1.11,0,2.22,0,3.33,0,.66,0,.66,0,.66-.65,0-3.08,0-6.16,0-9.24a1.37,1.37,0,0,1,.87-1.4,6.65,6.65,0,0,1,.61-.27,8.64,8.64,0,0,1,3.3-.58c.39,0,.53-.12.53-.52,0-1.14,0-2.29,0-3.43,0-.41-.12-.56-.55-.54a5.74,5.74,0,0,0-2.77.77c-.77.47-1.49,1-2.22,1.56"/><path id="Path_24" data-name="Path 24" d="M16,26.88C16,28.94,16,31,16,33c0,.46-.11.64-.6.63-1.1,0-2.19,0-3.29,0-.38,0-.53-.1-.53-.5q0-10.22,0-20.42c0-.25,0-.47.35-.47,2.56,0,5.11-.13,7.66,0A7.59,7.59,0,0,1,25.48,15a7.21,7.21,0,0,1-4,11.46,17.08,17.08,0,0,1-4.78.38h-.52l-.18.05M16,23a11.93,11.93,0,0,0,4-.28c2.18-.62,2.82-2.41,2.25-4.41a2.64,2.64,0,0,0-1.51-1.69c-1.54-.71-3.15-.46-4.78-.45Z"/><path id="Path_25" data-name="Path 25" d="M34.06,19.32c.72-.52,1.44-1.08,2.21-1.56A5.77,5.77,0,0,1,39,17c.43,0,.56.13.55.54,0,1.15,0,2.29,0,3.43,0,.4-.13.54-.52.53a8.68,8.68,0,0,0-3.31.57c-.21.08-.41.18-.61.28a1.35,1.35,0,0,0-.86,1.4c.05,3.08,0,6.15,0,9.23,0,.65,0,.65-.67.65-1.11,0-2.22,0-3.33,0-.46,0-.6-.14-.6-.6,0-3.06,0-6.13,0-9.19,0-2-.06-4-.11-6.05,0-.34.06-.48.43-.47,1,0,2.07,0,3.1,0a.6.6,0,0,1,.69.49.13.13,0,0,0,0,.06l.23,1.45"/><path id="Path_26" data-name="Path 26" class="cls-1" d="M16,23V16.15c1.62,0,3.24-.26,4.78.45a2.67,2.67,0,0,1,1.51,1.69c.57,2-.08,3.79-2.25,4.41A12.21,12.21,0,0,1,16,23"/></svg>