<?xml version="1.0" encoding="utf-8"?>
<!-- Generator: Adobe Illustrator 26.0.1, SVG Export Plug-In . SVG Version: 6.00 Build 0)  -->
<svg version="1.1" id="Layer_1" xmlns="http://www.w3.org/2000/svg" xmlns:xlink="http://www.w3.org/1999/xlink" x="0px" y="0px"
	 viewBox="0 0 49.8 48.5" style="enable-background:new 0 0 49.8 48.5;" xml:space="preserve">
<style type="text/css">
	.st0{fill:none;stroke:#794AE1;stroke-miterlimit:10;}
	.st1{fill:#FFFFFF;}
	.st2{fill:none;stroke:#794AE1;stroke-width:0.5;stroke-linecap:round;stroke-linejoin:round;stroke-miterlimit:10;}
</style>
<g>
	<path id="Path_10" class="st0" d="M0.5,40.4V8.2c0-0.1,0.1-0.1,0.1-0.2c0.5-4.3,4.2-7.5,8.6-7.5c10.5,0,21,0,31.5,0
		c4,0,7.5,2.7,8.4,6.6c0.1,0.4,0.2,0.8,0.2,1.1v32c0,0.1-0.1,0.2-0.1,0.3c-0.6,4.3-4.2,7.5-8.6,7.5c-10.5,0-21,0-31.5,0
		c-4,0-7.5-2.7-8.4-6.6C0.6,41.1,0.6,40.7,0.5,40.4 M15.9,27.4h0.3c1.4-0.1,2.9,0,4.3-0.2c3.6-0.5,6.4-2.9,6.3-7.2
		c0.1-2.2-0.9-4.3-2.6-5.6c-1.3-1-3-1.6-4.7-1.7c-2.5-0.1-5.1,0-7.7,0c-0.4,0-0.4,0.2-0.4,0.5v20.5c0,0.4,0.2,0.5,0.5,0.5
		c1.1,0,2.2,0,3.3,0c0.5,0,0.6-0.2,0.6-0.6c0-1.9,0-3.7,0-5.6L15.9,27.4z M29,29.6c0,0.1,0,0.3,0,0.4c0,1,0,2,0,3
		c0,0.3,0.2,0.7,0.5,0.8c1.3,0.5,2.7,0.8,4.1,0.8c1.5,0.1,3-0.1,4.4-0.7c1.6-0.7,2.7-2.2,2.8-4c0.2-1.8-0.7-3.6-2.4-4.4
		c-0.8-0.5-1.7-0.8-2.5-1.2s-1.5-0.7-2.2-1.1c-0.3-0.2-0.5-0.6-0.4-0.9c0.1-0.4,0.4-0.7,0.8-0.8l0.5-0.1c1.6-0.1,3.3,0.2,4.7,0.8
		c0.5,0.2,0.6,0.1,0.6-0.4v-2.9c0-0.4-0.1-0.6-0.5-0.6c-1.2-0.2-2.4-0.5-3.6-0.5c-1.5-0.1-3,0.2-4.3,0.9c-2.3,1.2-3.2,4-2.1,6.2
		c0.4,0.8,1,1.4,1.7,1.9c1.2,0.7,2.5,1.2,3.7,1.8c0.4,0.2,0.8,0.4,1.1,0.7c0.4,0.3,0.5,0.9,0.2,1.2c-0.1,0.2-0.3,0.3-0.5,0.3
		c-0.2,0.1-0.4,0.1-0.6,0.2c-1.2,0.2-2.3,0.1-3.4-0.3C30.8,30.2,30,29.9,29,29.6"/>
	<path id="Path_11" class="st1" d="M15.9,27.4v0.6c0,1.9,0,3.7,0,5.6c0,0.5-0.1,0.7-0.6,0.6c-1.1,0-2.2,0-3.3,0
		c-0.4,0-0.5-0.1-0.5-0.5c0-6.8,0-13.6,0-20.4c0-0.3,0-0.5,0.4-0.5c2.6,0,5.1-0.1,7.7,0c1.7,0,3.3,0.6,4.7,1.6
		c1.8,1.3,2.7,3.4,2.6,5.6c0,4.2-2.8,6.7-6.3,7.2c-1.4,0.2-2.9,0.1-4.3,0.2L15.9,27.4 M15.9,23.6c1.1-0.1,2.2-0.1,3.3-0.2
		c0.6-0.1,1.1-0.3,1.6-0.5c1.1-0.6,1.7-1.8,1.5-3c0-1.1-0.7-2.2-1.7-2.6c-0.6-0.3-1.3-0.4-2-0.5c-0.9-0.1-1.9,0-2.8,0L15.9,23.6z"/>
	<path id="Path_12" class="st1" d="M29,29.6c0.9,0.3,1.8,0.7,2.6,1c1.1,0.3,2.3,0.4,3.4,0.3c0.2,0,0.4-0.1,0.6-0.2
		c0.5-0.1,0.8-0.6,0.6-1.1c0,0,0-0.1,0-0.1c0-0.2-0.2-0.4-0.3-0.5c-0.3-0.3-0.7-0.5-1.1-0.7c-1.2-0.6-2.5-1.1-3.7-1.8
		c-2.2-1.3-2.9-4.2-1.5-6.4c0.5-0.7,1.1-1.3,1.9-1.7c1.3-0.7,2.8-1,4.3-0.8c1.2,0.1,2.4,0.4,3.6,0.5c0.4,0.1,0.5,0.3,0.5,0.7
		c0,1,0,1.9,0,2.9c0,0.5-0.2,0.6-0.7,0.4c-1.5-0.7-3.1-1-4.7-0.8c-0.2,0-0.3,0.1-0.5,0.1c-0.4,0.1-0.7,0.4-0.8,0.8
		c-0.1,0.4,0.1,0.8,0.4,0.9c0.7,0.4,1.4,0.7,2.2,1.1s1.7,0.8,2.5,1.2c1.7,0.8,2.6,2.6,2.4,4.4c-0.1,1.8-1.2,3.3-2.8,4
		c-1.4,0.6-2.9,0.8-4.4,0.7c-1.4,0-2.8-0.3-4.1-0.7C29.2,33.7,29,33.3,29,33c0-1,0-2,0-3C29,29.9,29,29.7,29,29.6"/>
	<path id="Path_13" class="st2" d="M15.9,23.6v-6.9c0.9,0,1.9-0.1,2.8,0c0.7,0,1.4,0.2,2,0.5c1.1,0.4,1.7,1.5,1.7,2.6
		c0.2,1.2-0.4,2.4-1.5,3c-0.5,0.3-1,0.5-1.6,0.5C18.2,23.4,17.1,23.5,15.9,23.6"/>
</g>
</svg>
