<svg id="Layer_1" data-name="Layer 1" xmlns="http://www.w3.org/2000/svg" viewBox="0 0 48.76 47.58"><defs><style>.cls-1{fill:#00ff36;}</style></defs><path id="Path_10" data-name="Path 10" class="cls-1" d="M0,39.89V7.69a.67.67,0,0,0,.09-.21A8.55,8.55,0,0,1,8.65,0Q24.39,0,40.11,0a8.58,8.58,0,0,1,8.41,6.62c.1.38.16.77.24,1.15v32c0,.1-.06.21-.08.31a8.57,8.57,0,0,1-8.58,7.46q-15.72,0-31.45,0A8.57,8.57,0,0,1,.24,40.94c-.09-.35-.16-.7-.24-1.06m15.38-13,.34,0c1.42-.06,2.86,0,4.27-.2,3.58-.5,6.35-2.94,6.34-7.18a6.71,6.71,0,0,0-2.64-5.64A8.07,8.07,0,0,0,19,12.19c-2.55-.06-5.11,0-7.66,0-.36,0-.37.2-.37.47V33.12c0,.41.16.51.53.5,1.1,0,2.19,0,3.29,0,.5,0,.61-.17.61-.64,0-1.85,0-3.71,0-5.57Zm13.17,2.2a2.7,2.7,0,0,0-.05.41c0,1,0,2,0,3a.71.71,0,0,0,.51.75,11.92,11.92,0,0,0,4.09.78,9.07,9.07,0,0,0,4.36-.74,4.62,4.62,0,0,0,2.84-4,4.25,4.25,0,0,0-2.38-4.39c-.82-.45-1.69-.8-2.53-1.21s-1.46-.69-2.16-1.08a.87.87,0,0,1-.43-.94,1,1,0,0,1,.8-.78l.51-.1a9.51,9.51,0,0,1,4.73.83c.5.23.64.14.64-.39v-2.9c0-.35-.12-.6-.47-.65-1.19-.19-2.37-.45-3.56-.54A7.86,7.86,0,0,0,31.1,18a4.65,4.65,0,0,0-.33,8.12c1.17.71,2.48,1.18,3.71,1.79a4.66,4.66,0,0,1,1.09.66.89.89,0,0,1,.16,1.24.85.85,0,0,1-.47.32,3.55,3.55,0,0,1-.64.17A7.8,7.8,0,0,1,31.19,30c-.88-.26-1.72-.61-2.65-1"/><path id="Path_11" data-name="Path 11" d="M15.38,26.86v.57c0,1.85,0,3.71,0,5.57,0,.46-.11.65-.61.63-1.09,0-2.19,0-3.28,0-.38,0-.54-.09-.54-.5q0-10.22,0-20.42c0-.27,0-.47.36-.47,2.56,0,5.11-.1,7.66,0a8.07,8.07,0,0,1,4.7,1.62,6.72,6.72,0,0,1,2.64,5.64c0,4.24-2.76,6.68-6.34,7.18-1.41.19-2.85.14-4.27.2l-.34,0m0-3.78c1.15-.07,2.25-.09,3.32-.22a4.8,4.8,0,0,0,1.61-.55,2.93,2.93,0,0,0,1.54-3,2.8,2.8,0,0,0-1.71-2.64,6.39,6.39,0,0,0-2-.48c-.92-.08-1.85,0-2.79,0Z"/><path id="Path_12" data-name="Path 12" d="M28.55,29.06c.93.34,1.77.7,2.64,1a7.71,7.71,0,0,0,3.44.27,2.88,2.88,0,0,0,.64-.17A.88.88,0,0,0,35.89,29a.85.85,0,0,0-.31-.47,4.92,4.92,0,0,0-1.09-.67c-1.23-.6-2.54-1.08-3.71-1.79A4.62,4.62,0,0,1,31.12,18a7.73,7.73,0,0,1,4.33-.82c1.2.09,2.38.35,3.56.54.36.06.48.3.48.66,0,1,0,1.93,0,2.9,0,.52-.15.61-.65.38a9.35,9.35,0,0,0-4.72-.82,2.88,2.88,0,0,0-.51.1.94.94,0,0,0-.8.77.84.84,0,0,0,.43.94c.7.4,1.43.74,2.15,1.08s1.71.77,2.53,1.21a4.25,4.25,0,0,1,2.38,4.39,4.62,4.62,0,0,1-2.83,4A9,9,0,0,1,33.1,34,11.74,11.74,0,0,1,29,33.26a.72.72,0,0,1-.51-.75c0-1,0-2,0-3,0-.14,0-.28,0-.41"/><path id="Path_13" data-name="Path 13" class="cls-1" d="M15.43,23.08V16.14c.94,0,1.87-.06,2.79,0a6.12,6.12,0,0,1,2,.48,2.8,2.8,0,0,1,1.71,2.64,2.93,2.93,0,0,1-1.54,3,5,5,0,0,1-1.61.55c-1.07.13-2.17.15-3.32.22"/></svg>