<svg id="Layer_1" data-name="Layer 1" xmlns="http://www.w3.org/2000/svg" xmlns:xlink="http://www.w3.org/1999/xlink" viewBox="0 0 159.49 125.41"><defs><style>.cls-1,.cls-3,.cls-6{fill:none;}.cls-2{clip-path:url(#clip-path);}.cls-3{stroke:#ff8f0b;stroke-width:6px;}.cls-3,.cls-6{stroke-miterlimit:10;}.cls-4{fill:#ff8f0b;}.cls-5{fill:#0b27ff;}.cls-6{stroke:#fff;stroke-width:5px;}</style><clipPath id="clip-path"><rect class="cls-1" width="159.49" height="125.41"/></clipPath></defs><g class="cls-2"><g id="Group_112" data-name="Group 112"><rect id="Rectangle_14" data-name="Rectangle 14" class="cls-3" x="37.71" y="3.63" width="118.14" height="118.14" rx="38.57"/><path id="Path_37" data-name="Path 37" class="cls-4" d="M105,102.29H88.55A31.34,31.34,0,0,1,57.21,71h0V54.47A31.34,31.34,0,0,1,88.55,23.13H105a31.34,31.34,0,0,1,31.35,31.33h0V70.94A31.35,31.35,0,0,1,105,102.29h0"/><path id="Path_38" data-name="Path 38" d="M90.26,62.71A45.13,45.13,0,1,1,45.13,17.58,45.14,45.14,0,0,1,90.26,62.71h0"/><path id="Path_39" data-name="Path 39" class="cls-5" d="M78.24,62.71A33.12,33.12,0,1,1,45.13,29.59,33.11,33.11,0,0,1,78.24,62.71h0"/><path id="Path_40" data-name="Path 40" class="cls-6" d="M78.24,62.71A33.12,33.12,0,1,1,45.13,29.59,33.11,33.11,0,0,1,78.24,62.71Z"/></g></g></svg>