<?xml version="1.0" encoding="utf-8"?>
<!-- Generator: Adobe Illustrator 26.0.1, SVG Export Plug-In . SVG Version: 6.00 Build 0)  -->
<svg version="1.1" id="Layer_1" xmlns="http://www.w3.org/2000/svg" xmlns:xlink="http://www.w3.org/1999/xlink" x="0px" y="0px"
	 viewBox="0 0 151.6 122" style="enable-background:new 0 0 151.6 122;" xml:space="preserve">
<style type="text/css">
	.st0{fill:#FFFFFF;}
	.st1{fill:none;}
	.st2{fill:#030303;}
</style>
<g>
	<path id="Path_283" class="st0" d="M107.7,122H73.6c-24.3,0-43.9-19.7-43.9-43.9V43.9C29.7,19.7,49.3,0,73.6,0h34.1
		c24.3,0,43.9,19.7,43.9,43.9V78C151.6,102.3,131.9,121.9,107.7,122 M73.6,11.3c-18,0-32.6,14.6-32.6,32.6V78
		c0,18,14.6,32.6,32.6,32.6h34.1c18,0,32.6-14.6,32.6-32.6V43.9c0-18-14.6-32.6-32.6-32.6L73.6,11.3z"/>
	<rect id="Rectangle_39" x="29.6" class="st1" width="122" height="122"/>
	<path id="Path_284" class="st0" d="M115.5,98H65.8c-6.8,0-12.2-5.5-12.2-12.2v0V36.1c0-6.8,5.5-12.2,12.2-12.2l0,0h49.7
		c6.8,0,12.2,5.5,12.2,12.2v49.7C127.7,92.6,122.2,98,115.5,98"/>
	<path id="Path_285" class="st0" d="M84.5,61c0,23.3-18.9,42.3-42.3,42.3S0,84.3,0,61c0-23.3,18.9-42.3,42.3-42.3
		C65.6,18.7,84.5,37.6,84.5,61C84.5,61,84.5,61,84.5,61"/>
	<path id="Path_286" class="st2" d="M42.3,96.7c-19.7,0-35.7-16-35.7-35.7s16-35.7,35.7-35.7C62,25.2,78,41.2,78,61c0,0,0,0,0,0
		C78,80.7,62,96.7,42.3,96.7 M42.3,34.7C27.7,34.7,16,46.5,16,61s11.8,26.3,26.3,26.3S68.5,75.5,68.5,61c0,0,0,0,0,0
		C68.5,46.5,56.8,34.7,42.3,34.7"/>
	<rect id="Rectangle_40" class="st1" width="151.6" height="122"/>
	<rect id="Rectangle_41" class="st1" width="151.6" height="122"/>
</g>
</svg>
