<?xml version="1.0" encoding="utf-8"?>
<!-- Generator: Adobe Illustrator 26.0.1, SVG Export Plug-In . SVG Version: 6.00 Build 0)  -->
<svg version="1.1" id="Layer_1" xmlns="http://www.w3.org/2000/svg" xmlns:xlink="http://www.w3.org/1999/xlink" x="0px" y="0px"
	 viewBox="0 0 49.7 48.5" style="enable-background:new 0 0 49.7 48.5;" xml:space="preserve">
<style type="text/css">
	.st0{fill:none;stroke:#00FF36;stroke-linecap:round;stroke-linejoin:round;stroke-miterlimit:10;}
	.st1{fill:#FFFFFF;}
	.st2{fill:none;stroke:#00FF36;stroke-width:0.5;stroke-linecap:round;stroke-linejoin:round;stroke-miterlimit:10;}
</style>
<g>
	<path id="Path_19" class="st0" d="M49.2,8.3v31.9c0,0.1-0.1,0.2-0.1,0.3c-0.6,4.4-4.4,7.6-8.9,7.5C30,48,19.7,48,9.5,48
		c-0.5,0-1.1,0-1.6-0.1c-4.3-0.6-7.4-4.4-7.3-8.7V9.3C0.4,4.5,4.1,0.6,8.9,0.5c0,0,0,0,0,0h0.3c10.5,0,20.9,0,31.3,0
		c4,0,7.5,2.7,8.4,6.6C49,7.5,49.1,7.9,49.2,8.3 M37.5,17.6c-0.8,0-1.6,0-2.4,0c-4.7,0.2-8.3,4.1-8.1,8.8c0,0.1,0,0.1,0,0.2
		c0.1,3.9,2.2,6.6,6,7.5c3,0.6,6.1,0.3,8.8-0.9c0.2-0.1,0.3-0.3,0.3-0.5c0-1.2-0.1-2.5-0.1-3.7c0-5.8,0-11.6,0-17.4
		c0-0.4-0.1-0.6-0.5-0.5c-1.2,0-2.3,0-3.5,0c-0.4,0-0.5,0.1-0.5,0.5c0,1.9,0,3.7,0,5.6L37.5,17.6z M7.7,12.7C7.8,13,7.9,13.1,8,13.3
		c1.9,3.2,3.8,6.4,5.7,9.6c0.2,0.3,0.2,0.6,0,0.9c-2,3.2-4,6.4-5.9,9.6c-0.1,0.2-0.2,0.4-0.3,0.5c0.1,0,0.1,0,0.2,0.1
		c1.5,0,3,0,4.4,0c0.2,0,0.4-0.2,0.6-0.4c1-1.8,2-3.6,2.9-5.4c0.4-0.7,0.7-1.4,1.1-2.1l0.2,0.4c1.2,2.3,2.5,4.6,3.7,7
		c0.1,0.4,0.5,0.6,0.9,0.6c1.5,0,3,0,4.4,0c0.1,0,0.3,0,0.5,0c-0.1-0.2-0.2-0.4-0.3-0.6c-2-3.3-4-6.6-6-9.8c-0.2-0.3-0.2-0.6,0-0.9
		c1.9-3.1,3.8-6.2,5.7-9.3c0.1-0.1,0.2-0.3,0.3-0.5c-0.1,0-0.3-0.1-0.4-0.1c-1.4,0-2.7,0-4,0c-0.2,0-0.4,0.2-0.5,0.4
		c-1.3,2.4-2.6,4.9-3.9,7.3c-0.1,0.1-0.1,0.2-0.2,0.3c-0.2-0.5-0.5-0.9-0.7-1.3c-1.1-2.1-2.3-4.2-3.4-6.3c-0.2-0.2-0.4-0.3-0.7-0.4
		c-1.4,0-2.8,0-4.2,0C8.1,12.7,7.9,12.8,7.7,12.7"/>
	<path id="Path_20" class="st1" d="M37.5,17.6V17c0-1.9,0-3.7,0-5.6c0-0.4,0.1-0.5,0.5-0.5c1.2,0,2.3,0,3.5,0c0.4,0,0.5,0.1,0.5,0.6
		c0,5.8,0,11.6,0,17.4c0,1.2,0.1,2.5,0.1,3.7c0,0.2-0.1,0.4-0.3,0.5C39,34.4,36,34.7,33,34.1c-3.7-0.8-5.9-3.5-6-7.5
		c-0.3-4.7,3.2-8.7,7.9-9h0.2C35.9,17.6,36.7,17.6,37.5,17.6 M37.5,21.5c-1.5-0.4-3.1-0.1-4.3,0.9c-1.5,1.4-2.1,3.5-1.3,5.4
		c0.4,1.5,1.7,2.5,3.2,2.7c0.7,0,1.3,0,2,0c0.4,0,0.5-0.2,0.5-0.5c0-2.7,0-5.4,0-8C37.5,21.8,37.5,21.6,37.5,21.5"/>
	<path id="Path_21" class="st1" d="M7.7,12.7c0.2,0,0.4,0,0.5-0.1c1.4,0,2.8,0,4.2,0c0.3,0,0.5,0.1,0.7,0.4c1.1,2.1,2.3,4.2,3.4,6.3
		c0.2,0.4,0.4,0.8,0.7,1.3c0.1-0.1,0.1-0.2,0.2-0.3c1.3-2.4,2.6-4.9,3.9-7.3c0.1-0.2,0.3-0.3,0.5-0.3c1.4,0,2.7,0,4,0
		c0.1,0,0.3,0,0.4,0.1l-0.3,0.5c-1.9,3.1-3.8,6.2-5.7,9.3c-0.2,0.3-0.2,0.6,0,0.9c2,3.3,4,6.6,6,9.8c0.1,0.2,0.2,0.3,0.3,0.6
		c-0.2,0-0.3,0-0.5,0c-1.5,0-2.9,0-4.4,0c-0.4,0-0.8-0.2-0.9-0.6c-1.2-2.3-2.5-4.6-3.7-7L16.8,26c-0.4,0.8-0.7,1.5-1.1,2.1
		c-1,1.8-1.9,3.6-2.9,5.4c-0.1,0.2-0.3,0.4-0.6,0.4c-1.5,0-2.9,0-4.4,0l-0.2,0c0.1-0.2,0.2-0.4,0.3-0.5c1.9-3.2,3.9-6.4,5.9-9.6
		c0.2-0.3,0.2-0.6,0-0.9c-1.9-3.2-3.8-6.4-5.7-9.6C7.9,13.1,7.8,12.9,7.7,12.7"/>
	<path id="Path_22" class="st2" d="M37.4,21.5c0,0.1,0,0.3,0,0.4c0,2.7,0,5.3,0,8c0,0.4-0.1,0.5-0.5,0.5c-0.7,0-1.3,0-2,0
		c-1.5-0.1-2.8-1.2-3.2-2.7c-0.7-1.9-0.2-4.1,1.3-5.4C34.3,21.4,35.9,21.1,37.4,21.5"/>
</g>
</svg>
