<svg id="Layer_1" data-name="Layer 1" xmlns="http://www.w3.org/2000/svg" viewBox="0 0 48.67 47.49"><defs><style>.cls-1{fill:#00ff36;}</style></defs><path id="Path_19" data-name="Path 19" class="cls-1" d="M48.67,7.78V39.71a1.38,1.38,0,0,0-.08.27,8.68,8.68,0,0,1-8.86,7.51c-10.26,0-20.52,0-30.78,0a9.61,9.61,0,0,1-1.61-.1A8.59,8.59,0,0,1,0,38.71V8.78A8.58,8.58,0,0,1,8.39,0h.27Q24.34,0,40,0a8.56,8.56,0,0,1,8.4,6.6c.1.38.17.77.25,1.15M37,17.07c-.85,0-1.64-.05-2.43,0a8.47,8.47,0,0,0-8.1,8.81c0,.07,0,.15,0,.22.13,3.92,2.24,6.62,6,7.47a14.82,14.82,0,0,0,8.84-.94.74.74,0,0,0,.29-.55c0-1.24-.1-2.47-.1-3.7q0-8.72,0-17.44c0-.41-.1-.55-.52-.54-1.16,0-2.32,0-3.47,0-.39,0-.52.1-.52.5,0,1.87,0,3.74,0,5.61ZM7.18,12.23c.14.24.22.4.3.54q2.85,4.83,5.71,9.64a.71.71,0,0,1,0,.85q-3,4.78-5.86,9.6c-.1.18-.18.36-.26.54a.76.76,0,0,0,.2.06c1.47,0,3,0,4.42,0a.8.8,0,0,0,.56-.38c1-1.8,2-3.61,2.94-5.42.37-.7.73-1.4,1.12-2.15l.25.4c1.25,2.33,2.51,4.65,3.74,7a.88.88,0,0,0,.91.57c1.47,0,2.95,0,4.42,0,.13,0,.26,0,.47,0-.13-.24-.21-.42-.32-.59q-3-4.94-6-9.85a.72.72,0,0,1,0-.89q2.85-4.65,5.66-9.33c.09-.14.17-.29.28-.5a3.1,3.1,0,0,0-.42-.08c-1.35,0-2.69,0-4,0a.75.75,0,0,0-.53.35c-1.3,2.43-2.57,4.87-3.85,7.3a2,2,0,0,1-.2.31c-.24-.47-.45-.89-.67-1.31-1.13-2.1-2.25-4.21-3.4-6.3a.93.93,0,0,0-.69-.35c-1.4,0-2.79,0-4.18,0a3.06,3.06,0,0,0-.54.07"/><path id="Path_20" data-name="Path 20" d="M37,17.08v-.56c0-1.87,0-3.74,0-5.61,0-.4.12-.51.51-.51,1.16,0,2.32,0,3.47,0,.43,0,.53.13.53.55q0,8.72,0,17.44c0,1.23.08,2.47.09,3.7a.68.68,0,0,1-.29.55,14.78,14.78,0,0,1-8.83.94c-3.74-.85-5.86-3.55-6-7.47a8.46,8.46,0,0,1,7.88-9l.21,0c.78,0,1.58,0,2.43,0m0,3.88a5,5,0,0,0-4.28.86,4.87,4.87,0,0,0-1.32,5.42,3.61,3.61,0,0,0,3.17,2.67,14.68,14.68,0,0,0,2,0c.36,0,.47-.16.47-.53,0-2.67,0-5.35,0-8,0-.14,0-.28,0-.41"/><path id="Path_21" data-name="Path 21" d="M7.19,12.23a5,5,0,0,1,.54-.06c1.39,0,2.79,0,4.18,0a.93.93,0,0,1,.69.35c1.15,2.09,2.27,4.2,3.4,6.3.22.42.43.84.67,1.31.08-.13.15-.22.2-.32,1.29-2.43,2.56-4.87,3.85-7.3a.79.79,0,0,1,.53-.34c1.35,0,2.69,0,4,0a2,2,0,0,1,.42.08l-.27.5c-1.89,3.11-3.77,6.23-5.67,9.33a.72.72,0,0,0,0,.89c2,3.27,4,6.56,6,9.84.1.17.19.35.32.59-.2,0-.34.05-.47.05-1.47,0-2.94,0-4.42,0a.89.89,0,0,1-.91-.58c-1.23-2.33-2.49-4.65-3.74-7l-.25-.4c-.39.75-.74,1.45-1.12,2.14-1,1.81-1.94,3.63-2.94,5.42a.79.79,0,0,1-.56.39c-1.47,0-2.94,0-4.42,0l-.2-.05c.08-.19.17-.37.26-.54q2.92-4.81,5.86-9.6a.71.71,0,0,0,0-.85q-2.86-4.82-5.7-9.64c-.09-.15-.17-.3-.3-.54"/><path id="Path_22" data-name="Path 22" class="cls-1" d="M36.93,21c0,.13,0,.27,0,.41q0,4,0,8c0,.37-.11.54-.46.54a16.5,16.5,0,0,1-2,0,3.58,3.58,0,0,1-3.17-2.67,4.86,4.86,0,0,1,1.32-5.42A5,5,0,0,1,36.93,21"/></svg>