<?xml version="1.0" encoding="utf-8"?>
<!-- Generator: Adobe Illustrator 26.0.1, SVG Export Plug-In . SVG Version: 6.00 Build 0)  -->
<svg version="1.1" id="Layer_1" xmlns="http://www.w3.org/2000/svg" xmlns:xlink="http://www.w3.org/1999/xlink" x="0px" y="0px"
	 viewBox="0 0 403.5 108.3" style="enable-background:new 0 0 403.5 108.3;" xml:space="preserve">
<style type="text/css">
	.st0{fill:#046E7F;}
	.st1{fill:none;stroke:#EAE400;stroke-width:2;stroke-miterlimit:10;}
	.st2{fill:#EAE400;}
	.st3{fill:#D900FF;}
	.st4{fill:none;stroke:#FFFFFF;stroke-width:2;stroke-miterlimit:10;}
	.st5{fill:#FFFFFF;}
	.st6{fill:#A0461F;}
	.st7{fill:#00C7D6;}
	.st8{fill:#602B00;}
	.st9{fill:#FF0000;}
	.st10{fill:none;stroke:#00C7D6;stroke-miterlimit:10;}
	.st11{fill:none;stroke:#00C7D6;stroke-width:0.75;stroke-miterlimit:10;}
	.st12{fill:none;stroke:#602B00;stroke-width:0.5;stroke-miterlimit:10;}
	.st13{fill:#1200FF;}
	.st14{fill:none;stroke:#FF0000;stroke-miterlimit:10;}
	.st15{fill:none;stroke:#FF0000;stroke-width:0.5;stroke-miterlimit:10;}
	.st16{fill:none;stroke:#1200FF;stroke-linecap:round;stroke-linejoin:round;stroke-miterlimit:10;}
	.st17{fill:none;stroke:#FF0000;stroke-linecap:round;stroke-linejoin:round;stroke-miterlimit:10;}
	.st18{fill:none;stroke:#D900FF;stroke-linecap:round;stroke-linejoin:round;stroke-miterlimit:10;}
	.st19{fill:#FFFFFF;stroke:#000000;stroke-width:0.25;stroke-linecap:round;stroke-linejoin:round;stroke-miterlimit:10;}
	.st20{fill:#F4D600;}
	.st21{fill:none;stroke:#F4D600;stroke-width:0.5;stroke-miterlimit:10;}
	.st22{fill:none;stroke:#F4D600;stroke-miterlimit:10;}
	.st23{fill:none;stroke:#000000;stroke-miterlimit:10;}
	.st24{enable-background:new    ;}
	.st25{fill:url(#);}
	.st26{fill:#E88469;}
	.st27{fill:#FFFFFF;stroke:#000000;stroke-miterlimit:10;}
	.st28{fill:#B138F2;}
	.st29{fill:#F746F3;}
	.st30{fill:#FF6C39;}
	.st31{fill:#6047F4;}
	.st32{fill:#4705E8;}
	.st33{fill:#6BEA68;}
	.st34{fill:#1D1D1B;}
	.st35{fill:none;stroke:#1D1D1B;stroke-miterlimit:10;}
	.st36{fill:#A2CEF9;stroke:#FFFFFF;stroke-miterlimit:10;}
	.st37{fill:#89C6F7;stroke:#FFFFFF;stroke-miterlimit:10;}
	.st38{fill:#7DAEEA;stroke:#FFFFFF;stroke-miterlimit:10;}
	.st39{fill:#7CBCE8;stroke:#FFFFFF;stroke-miterlimit:10;}
	.st40{fill:#49F2C5;stroke:#FFFFFF;stroke-miterlimit:10;}
	.st41{fill:#771CF9;stroke:#FFFFFF;stroke-miterlimit:10;}
	.st42{fill:#C21EF7;stroke:#FFFFFF;stroke-miterlimit:10;}
	.st43{fill:#4B67EF;stroke:#FFFFFF;stroke-miterlimit:10;}
</style>
<g>
	<g class="st24">
		<path d="M2.3,56.4v-3.3h3.9V13.3H2.3V10h13.9c3.2,0,6.2,0.5,9,1.6c2.8,1.1,5.3,2.6,7.4,4.7c2.1,2,3.8,4.5,5,7.3
			c1.2,2.9,1.9,6.1,1.9,9.7c0,2.6-0.5,5.3-1.4,8c-0.9,2.7-2.4,5.2-4.4,7.4c-2,2.3-4.7,4.1-7.9,5.5c-3.3,1.4-7.2,2.2-11.9,2.2H2.3z
			 M9.7,53.1h5.4c3.4,0,6.4-0.6,9.1-1.7c2.6-1.1,4.9-2.6,6.7-4.4c1.7-1.8,3-3.9,4-6.3c0.9-2.4,1.4-4.9,1.4-7.6
			c0-3.1-0.5-5.8-1.6-8.3c-1-2.5-2.5-4.6-4.3-6.3c-1.9-1.7-4-3-6.4-3.9c-2.4-0.9-5-1.4-7.8-1.4H9.7V53.1z"/>
		<path d="M62.6,55.9c-1.6,0.7-3.3,1-5.1,1c-1.9,0-3.6-0.3-5.1-1c-1.6-0.7-3-1.6-4.2-2.8C46.9,52,46,50.6,45.3,49
			c-0.7-1.6-1-3.3-1-5.1c0-1.8,0.3-3.5,1-5c0.7-1.6,1.6-3,2.8-4.2c1.2-1.2,2.6-2.1,4.2-2.8c1.6-0.7,3.3-1,5.1-1c1.8,0,3.5,0.3,5.1,1
			c1.6,0.7,3,1.6,4.2,2.8c1.2,1.2,2.1,2.6,2.8,4.2c0.7,1.6,1.1,3.3,1.1,5c0,1.8-0.3,3.5-1,5.1c-0.7,1.6-1.6,2.9-2.8,4.1
			C65.6,54.3,64.2,55.3,62.6,55.9z M53.6,52.8c1.2,0.5,2.4,0.8,3.8,0.8c1.3,0,2.5-0.3,3.7-0.8c1.2-0.5,2.2-1.2,3.1-2.1
			c0.9-0.8,1.6-1.8,2.1-3c0.5-1.2,0.8-2.4,0.8-3.8c0-1.3-0.3-2.5-0.8-3.7c-0.5-1.2-1.2-2.2-2.1-3.1c-0.9-0.9-1.9-1.6-3.1-2.1
			c-1.2-0.5-2.4-0.8-3.7-0.8c-1.4,0-2.6,0.3-3.8,0.8c-1.2,0.5-2.1,1.2-3,2.1c-0.9,0.9-1.6,1.9-2.1,3.1c-0.5,1.2-0.8,2.4-0.8,3.7
			c0,1.4,0.3,2.6,0.8,3.8c0.5,1.2,1.2,2.1,2.1,3C51.4,51.6,52.4,52.3,53.6,52.8z"/>
		<path d="M94.9,55.1c-2,1.3-4.2,1.9-6.6,1.9c-2.5,0-4.4-0.7-5.9-2.1c-1.4-1.4-2.2-3.2-2.3-5.4V34.9h-4.8v-3.3h8.2v16.8
			c0.1,1.4,0.6,2.6,1.5,3.6c0.9,1,2.3,1.6,4.1,1.7c1.3,0,2.5-0.2,3.7-0.7c1.2-0.4,2.2-1.1,3.1-1.9c0.9-0.8,1.6-1.7,2.2-2.8
			c0.6-1.1,0.8-2.3,0.8-3.6v-9.9h-4.8v-3.3h8.2v21.9h4.6v3h-7.8L99.1,53l0.1-3C98.3,52.1,96.8,53.8,94.9,55.1z"/>
		<path d="M111.6,53.1h5V10H112V6.6h8v27c0,0.6,0,1,0,1.4c0,0.4-0.1,0.8-0.1,1.4c0.2-0.6,0.6-1.2,1.1-1.8s1.2-1.2,2.1-1.8
			c0.9-0.5,1.9-1,3-1.3c1.1-0.4,2.3-0.5,3.5-0.5c1.9,0,3.6,0.3,5.2,1c1.6,0.7,3,1.6,4.2,2.8s2.1,2.6,2.8,4.1c0.7,1.6,1,3.2,1,5
			c0,1.8-0.3,3.5-1,5s-1.6,3-2.8,4.1c-1.2,1.2-2.6,2.1-4.2,2.8s-3.3,1-5.2,1c-1.3,0-2.5-0.2-3.6-0.5s-2.1-0.8-3-1.3
			c-0.9-0.5-1.6-1.1-2.2-1.8c-0.6-0.6-1-1.3-1.2-1.9c0,0.5,0,0.9,0,1.3s0,0.8,0,1.3v2.3h-8V53.1z M125.8,35.1
			c-1.2,0.5-2.2,1.2-3.1,2.2c-0.8,0.8-1.5,1.8-1.9,3c-0.4,1.2-0.7,2.4-0.7,3.7c0,1.4,0.3,2.7,0.8,3.9c0.5,1.2,1.2,2.2,2.1,3.1
			c0.9,0.8,1.9,1.4,3.1,1.9c1.2,0.5,2.4,0.7,3.7,0.7c1.4,0,2.6-0.2,3.8-0.7c1.2-0.5,2.2-1.2,3.1-2.1c0.8-0.8,1.5-1.8,2-3
			c0.5-1.2,0.8-2.4,0.8-3.8c0-1.4-0.3-2.7-0.8-3.9c-0.5-1.2-1.2-2.2-2.1-3.1c-0.9-0.8-1.9-1.5-3.1-2c-1.2-0.5-2.4-0.7-3.7-0.7
			C128.3,34.3,127,34.6,125.8,35.1z"/>
		<path d="M147.5,56.4v-3.3h4.9V10h-4.6V6.6h8v46.5h4.9v3.3H147.5z"/>
		<path d="M183.3,56c-1.5,0.6-3.1,0.9-4.8,0.9c-1.8,0-3.5-0.3-5.1-1s-3-1.6-4.1-2.8c-1.2-1.2-2.1-2.6-2.8-4.2c-0.7-1.6-1-3.3-1-5.1
			c0-1.8,0.3-3.5,1-5c0.7-1.6,1.6-3,2.8-4.2c1.2-1.2,2.5-2.1,4.1-2.8c1.6-0.7,3.3-1,5.1-1c1.4,0,2.7,0.3,3.9,0.8
			c1.2,0.5,2.4,1.2,3.4,2.1c0.9,0.8,1.8,1.9,2.5,3.1c0.7,1.2,1.3,2.5,1.7,3.9c-3.3,1.3-6.6,2.6-10,3.9c-3.3,1.3-6.6,2.6-10,3.9
			c0.8,1.6,1.9,2.8,3.4,3.7c1.5,0.9,3.2,1.4,5.1,1.4c1.3,0,2.5-0.2,3.6-0.7c1.1-0.5,2.1-1.1,2.9-2l2.1,2.5
			C186,54.6,184.7,55.4,183.3,56z M174.2,35.3c-1.3,0.6-2.4,1.5-3.2,2.6c-0.8,1-1.4,2.2-1.7,3.5c-0.4,1.3-0.4,2.6-0.2,3.9
			c2.7-1.1,5.5-2.1,8.2-3.2c2.7-1.1,5.5-2.1,8.3-3.2c-0.8-1.3-1.8-2.4-3-3.3c-1.2-0.8-2.6-1.3-4.1-1.3
			C176.9,34.3,175.5,34.7,174.2,35.3z"/>
		<path d="M244.9,56.1c-2,0.6-4.2,0.9-6.4,0.9c-3.3,0-6.4-0.6-9.2-1.9c-2.9-1.2-5.4-2.9-7.5-5.1c-2.2-2.1-3.9-4.6-5.1-7.5
			c-1.2-2.9-1.9-6-1.9-9.2c0-3.3,0.6-6.4,1.9-9.3c1.2-2.9,2.9-5.4,5.1-7.6c2.1-2.1,4.6-3.8,7.5-5.1c2.9-1.3,6-1.9,9.2-1.9
			c2.3,0,4.4,0.3,6.4,0.9c2,0.6,3.9,1.4,5.7,2.5v7.4h-3.3v-5.3c-1.4-0.7-2.8-1.2-4.3-1.6c-1.5-0.4-3-0.5-4.5-0.5
			c-2.8,0-5.4,0.5-7.9,1.6c-2.5,1.1-4.6,2.6-6.4,4.4c-1.9,1.9-3.3,4-4.4,6.5c-1.1,2.5-1.6,5.1-1.6,7.9c0,2.8,0.5,5.5,1.6,8
			c1.1,2.5,2.5,4.6,4.4,6.4c1.8,1.9,3.9,3.3,6.4,4.4c2.4,1.1,5,1.6,7.8,1.6c1.9,0,3.7-0.2,5.4-0.7s3.3-1.2,4.8-2.1l1.9,2.8
			C248.8,54.7,246.9,55.5,244.9,56.1z"/>
		<path d="M273.6,55.9c-1.6,0.7-3.3,1-5.1,1c-1.9,0-3.6-0.3-5.1-1c-1.6-0.7-3-1.6-4.2-2.8c-1.2-1.2-2.1-2.5-2.8-4.1
			c-0.7-1.6-1-3.3-1-5.1c0-1.8,0.3-3.5,1-5c0.7-1.6,1.6-3,2.8-4.2c1.2-1.2,2.6-2.1,4.2-2.8c1.6-0.7,3.3-1,5.1-1c1.8,0,3.5,0.3,5.1,1
			c1.6,0.7,3,1.6,4.2,2.8c1.2,1.2,2.1,2.6,2.8,4.2c0.7,1.6,1.1,3.3,1.1,5c0,1.8-0.3,3.5-1,5.1c-0.7,1.6-1.6,2.9-2.8,4.1
			C276.6,54.3,275.2,55.3,273.6,55.9z M264.6,52.8c1.2,0.5,2.4,0.8,3.8,0.8c1.3,0,2.5-0.3,3.7-0.8c1.2-0.5,2.2-1.2,3.1-2.1
			c0.9-0.8,1.6-1.8,2.1-3c0.5-1.2,0.8-2.4,0.8-3.8c0-1.3-0.3-2.5-0.8-3.7c-0.5-1.2-1.2-2.2-2.1-3.1c-0.9-0.9-1.9-1.6-3.1-2.1
			c-1.2-0.5-2.4-0.8-3.7-0.8c-1.4,0-2.6,0.3-3.8,0.8c-1.2,0.5-2.1,1.2-3,2.1c-0.9,0.9-1.6,1.9-2.1,3.1c-0.5,1.2-0.8,2.4-0.8,3.7
			c0,1.4,0.3,2.6,0.8,3.8c0.5,1.2,1.2,2.1,2.1,3C262.4,51.6,263.4,52.3,264.6,52.8z"/>
		<path d="M305.8,55.1c-2,1.3-4.2,1.9-6.6,1.9c-2.5,0-4.4-0.7-5.9-2.1c-1.4-1.4-2.2-3.2-2.3-5.4V34.9h-4.8v-3.3h8.2v16.8
			c0.1,1.4,0.6,2.6,1.5,3.6c0.9,1,2.3,1.6,4.1,1.7c1.3,0,2.5-0.2,3.7-0.7c1.2-0.4,2.2-1.1,3.1-1.9c0.9-0.8,1.6-1.7,2.2-2.8
			c0.6-1.1,0.8-2.3,0.8-3.6v-9.9h-4.8v-3.3h8.2v21.9h4.6v3h-7.8L310,53l0.1-3C309.2,52.1,307.8,53.8,305.8,55.1z"/>
		<path d="M323.2,69.7h4.4V34.9h-5v-3.3h7.8c0,0.9,0,1.8,0.1,2.7c0.1,0.9,0.1,1.7,0.1,2.6c0.7-1.5,1.9-2.8,3.6-4
			c1.7-1.2,3.9-1.8,6.5-1.8c1.8,0,3.5,0.3,5.1,1c1.6,0.7,3,1.6,4.2,2.8c1.2,1.2,2.1,2.6,2.8,4.1c0.7,1.6,1,3.2,1,5
			c0,1.8-0.3,3.5-1,5.1c-0.7,1.6-1.6,3-2.8,4.2c-1.2,1.2-2.6,2.1-4.2,2.8c-1.6,0.7-3.3,1-5.1,1c-1.3,0-2.5-0.2-3.6-0.5
			c-1.1-0.3-2.1-0.8-2.9-1.3c-0.9-0.5-1.6-1.1-2.1-1.6c-0.5-0.6-0.9-1.1-1.2-1.8c0,0.4,0.1,0.7,0.1,1.1c0,0.4,0,0.7,0,1v15.8h5.4V73
			h-13.3V69.7z M336.8,35.2c-1.2,0.5-2.2,1.2-3.1,2c-0.8,0.9-1.5,1.9-2,3.1c-0.5,1.2-0.7,2.4-0.7,3.7c0,1.4,0.3,2.7,0.8,3.9
			c0.5,1.2,1.2,2.2,2.2,3.1c0.9,0.8,1.9,1.4,3.1,1.9c1.2,0.5,2.4,0.7,3.7,0.7s2.6-0.2,3.7-0.7s2.1-1.1,3-2c0.9-0.8,1.6-1.9,2.2-3.1
			c0.5-1.2,0.8-2.5,0.8-4c0-1.4-0.3-2.7-0.8-3.9s-1.3-2.2-2.2-3.1c-0.8-0.8-1.8-1.4-3-1.8c-1.2-0.5-2.4-0.7-3.7-0.7
			C339.3,34.4,338,34.7,336.8,35.2z"/>
		<path d="M358.5,56.4v-3.3h4.9V10h-4.6V6.6h8v46.5h4.9v3.3H358.5z"/>
		<path d="M394.3,56c-1.5,0.6-3.1,0.9-4.8,0.9c-1.8,0-3.5-0.3-5.1-1s-3-1.6-4.1-2.8c-1.2-1.2-2.1-2.6-2.8-4.2c-0.7-1.6-1-3.3-1-5.1
			c0-1.8,0.3-3.5,1-5c0.7-1.6,1.6-3,2.8-4.2c1.2-1.2,2.5-2.1,4.1-2.8c1.6-0.7,3.3-1,5.1-1c1.4,0,2.7,0.3,3.9,0.8
			c1.2,0.5,2.4,1.2,3.4,2.1c0.9,0.8,1.8,1.9,2.5,3.1c0.7,1.2,1.3,2.5,1.7,3.9c-3.3,1.3-6.6,2.6-10,3.9c-3.3,1.3-6.6,2.6-10,3.9
			c0.8,1.6,1.9,2.8,3.4,3.7c1.5,0.9,3.2,1.4,5.1,1.4c1.3,0,2.5-0.2,3.6-0.7c1.1-0.5,2.1-1.1,2.9-2l2.1,2.5
			C397.1,54.6,395.8,55.4,394.3,56z M385.2,35.3c-1.3,0.6-2.4,1.5-3.2,2.6c-0.8,1-1.4,2.2-1.7,3.5c-0.4,1.3-0.4,2.6-0.2,3.9
			c2.7-1.1,5.5-2.1,8.2-3.2c2.7-1.1,5.5-2.1,8.3-3.2c-0.8-1.3-1.8-2.4-3-3.3c-1.2-0.8-2.6-1.3-4.1-1.3
			C388,34.3,386.5,34.7,385.2,35.3z"/>
	</g>
	<g class="st24">
		<path d="M109.6,100.7c-0.8,0.3-1.6,0.4-2.5,0.4c-0.8,0-1.5-0.1-2.2-0.2c-0.7-0.2-1.3-0.4-1.8-0.6c-0.5-0.2-1-0.5-1.4-0.8
			c-0.4-0.3-0.7-0.6-0.9-0.8v-3.2h1.2v2.7c0.5,0.5,1.2,0.9,2,1.3c0.8,0.4,1.8,0.5,2.9,0.5c0.7,0,1.3-0.1,2-0.3
			c0.6-0.2,1.2-0.5,1.7-0.9c0.5-0.4,0.8-0.9,1.1-1.5c0.3-0.6,0.4-1.2,0.4-1.9c0-0.7-0.1-1.3-0.3-1.8c-0.2-0.5-0.5-0.9-0.9-1.3
			c-0.4-0.4-0.9-0.7-1.4-0.9c-0.5-0.2-1.1-0.5-1.7-0.7c-0.7-0.2-1.4-0.4-2.1-0.7c-0.7-0.2-1.4-0.5-2-0.8c-0.6-0.4-1.1-0.8-1.5-1.4
			s-0.6-1.4-0.7-2.3c0-0.7,0.1-1.3,0.3-2c0.2-0.7,0.5-1.3,0.9-1.8c0.4-0.5,1-1,1.7-1.3s1.5-0.5,2.6-0.5c0.3,0,0.7,0,1.1,0.1
			c0.4,0,0.8,0.1,1.2,0.2c0.4,0.1,0.8,0.3,1.2,0.5c0.4,0.2,0.8,0.5,1.2,0.8v3.2h-1.2v-2.6c-0.4-0.2-0.9-0.5-1.5-0.6
			c-0.6-0.2-1.3-0.3-2.1-0.3c-0.7,0-1.3,0.1-1.9,0.4c-0.5,0.2-1,0.6-1.3,1c-0.3,0.4-0.6,0.9-0.8,1.4s-0.3,1-0.3,1.6
			c0,0.9,0.2,1.6,0.7,2.1c0.4,0.5,1,0.9,1.7,1.2c0.8,0.4,1.7,0.7,2.6,0.9c1,0.2,1.9,0.6,2.7,1c0.8,0.4,1.5,1,2.1,1.8
			c0.5,0.8,0.8,1.8,0.9,3.2c0,0.9-0.2,1.7-0.5,2.4c-0.3,0.7-0.8,1.3-1.3,1.8C111,100,110.4,100.4,109.6,100.7z"/>
		<path d="M117.8,100.8v-10h-2.6v-1.2h2.6v-7.3h1.2v7.3h3.5v1.2h-3.5v8.9h2.5v1.2H117.8z"/>
		<path d="M126.4,108.3v-1.2h2.5c0.5-1.1,1-2.1,1.5-3.1c0.5-1,1.1-2.1,1.6-3.1c-0.9-1.7-1.7-3.4-2.5-5s-1.7-3.4-2.5-5.1h-2.3v-1.2
			h5.5v1.2h-1.9c0.7,1.5,1.5,3,2.2,4.5c0.8,1.5,1.5,3,2.2,4.5c0.7-1.5,1.4-2.9,2.1-4.4s1.5-3,2.3-4.5h-1.7v-1.2h5.2v1.2h-2.2
			c-1.4,2.8-2.7,5.5-4.1,8.2s-2.7,5.4-4.1,8.2h1.9v1.2H126.4z"/>
		<path d="M142.7,100.8v-1.2h2.2V79.5h-2.1v-1.2h3.4v21.3h2.3v1.2H142.7z"/>
		<path d="M158.6,100.6c-0.7,0.3-1.4,0.4-2.2,0.4c-0.8,0-1.6-0.1-2.3-0.5c-0.7-0.3-1.3-0.7-1.9-1.3s-1-1.2-1.3-1.9s-0.5-1.5-0.5-2.3
			c0-0.8,0.2-1.6,0.5-2.3c0.3-0.7,0.7-1.3,1.3-1.9s1.2-0.9,1.9-1.2s1.5-0.5,2.3-0.5c0.6,0,1.2,0.1,1.8,0.3c0.6,0.2,1.1,0.5,1.5,0.9
			c0.4,0.4,0.8,0.8,1.1,1.3c0.3,0.5,0.6,1.1,0.8,1.7c-1.6,0.6-3.1,1.2-4.7,1.8s-3.1,1.2-4.7,1.9c0.4,0.8,0.9,1.4,1.7,1.9
			c0.7,0.5,1.6,0.7,2.5,0.7c0.6,0,1.2-0.1,1.7-0.3s1-0.5,1.4-0.9l0.8,0.9C159.9,100,159.3,100.3,158.6,100.6z M154.4,91
			c-0.6,0.3-1.2,0.8-1.6,1.3c-0.4,0.5-0.7,1.1-0.8,1.8c-0.2,0.7-0.2,1.3,0,2c1.4-0.5,2.7-1.1,4.1-1.6c1.4-0.5,2.7-1.1,4.1-1.6
			c-0.4-0.7-0.9-1.2-1.5-1.7c-0.6-0.4-1.3-0.6-2.1-0.6C155.7,90.5,155,90.7,154.4,91z"/>
		<path d="M174.5,108.3v-1.2h2.5c0.5-1.1,1-2.1,1.5-3.1c0.5-1,1.1-2.1,1.6-3.1c-0.9-1.7-1.7-3.4-2.5-5s-1.7-3.4-2.5-5.1h-2.3v-1.2
			h5.5v1.2h-1.9c0.7,1.5,1.5,3,2.2,4.5c0.8,1.5,1.5,3,2.2,4.5c0.7-1.5,1.4-2.9,2.1-4.4s1.5-3,2.3-4.5h-1.7v-1.2h5.2v1.2h-2.2
			c-1.4,2.8-2.7,5.5-4.1,8.2s-2.7,5.4-4.1,8.2h1.9v1.2H174.5z"/>
		<path d="M199.1,100.6c-0.7,0.3-1.5,0.5-2.3,0.5c-0.8,0-1.6-0.1-2.3-0.5c-0.7-0.3-1.3-0.7-1.8-1.3c-0.5-0.5-1-1.1-1.3-1.8
			c-0.3-0.7-0.5-1.5-0.5-2.3c0-0.8,0.2-1.6,0.5-2.3c0.3-0.7,0.7-1.4,1.3-1.9c0.5-0.5,1.1-0.9,1.9-1.2c0.7-0.3,1.5-0.5,2.3-0.5
			s1.6,0.2,2.3,0.5c0.7,0.3,1.4,0.7,1.9,1.2c0.5,0.5,0.9,1.2,1.2,1.9c0.3,0.7,0.5,1.5,0.5,2.3c0,0.8-0.2,1.6-0.5,2.3
			c-0.3,0.7-0.7,1.3-1.2,1.9C200.4,99.9,199.8,100.3,199.1,100.6z M194.9,99.5c0.6,0.2,1.2,0.4,1.8,0.4c0.6,0,1.2-0.1,1.8-0.4
			c0.6-0.2,1.1-0.6,1.5-1c0.4-0.4,0.8-0.9,1-1.4c0.2-0.6,0.4-1.2,0.4-1.8c0-0.6-0.1-1.2-0.4-1.8c-0.2-0.6-0.6-1.1-1-1.5
			c-0.4-0.4-0.9-0.8-1.5-1c-0.6-0.2-1.2-0.4-1.8-0.4c-0.6,0-1.2,0.1-1.8,0.4c-0.6,0.2-1,0.6-1.5,1c-0.4,0.4-0.8,0.9-1,1.5
			c-0.2,0.6-0.4,1.2-0.4,1.8c0,0.7,0.1,1.3,0.4,1.8c0.2,0.6,0.6,1,1,1.4C193.8,98.9,194.3,99.2,194.9,99.5z"/>
		<path d="M213.6,100.2c-0.9,0.6-1.9,0.9-3,0.9c-1.1,0-2-0.3-2.6-0.9c-0.6-0.6-1-1.4-1-2.4v-7h-2.2v-1.2h3.5v7.8
			c0,0.7,0.3,1.2,0.7,1.7c0.4,0.5,1.1,0.7,1.9,0.8c0.6,0,1.2-0.1,1.8-0.3c0.5-0.2,1-0.5,1.5-0.9c0.4-0.3,0.8-0.8,1-1.3
			c0.2-0.5,0.4-1.1,0.4-1.7v-5h-2.2v-1.2h3.5v10.2h2.1v1.1h-3.2l-0.1-1.6v-1.4C215.1,98.9,214.5,99.7,213.6,100.2z"/>
		<path d="M220.9,100.8v-1.2h2.3v-8.9h-2.2v-1.2h3.1l0.1,1.6c0,0.3,0,0.6,0,0.7c0,0.1,0,0.3,0,0.7c0.2-0.5,0.5-0.9,0.9-1.3
			c0.3-0.4,0.7-0.7,1.2-1c0.4-0.3,0.9-0.5,1.3-0.6c0.5-0.1,0.9-0.2,1.4-0.2l-0.1,1.2c-0.6,0-1.2,0.1-1.7,0.3c-0.5,0.2-1,0.5-1.4,0.8
			c-0.5,0.3-0.8,0.8-1.1,1.3c-0.3,0.5-0.4,1.1-0.4,1.7v5h2.2v1.2H220.9z"/>
		<path d="M247.9,101.5c-0.9-1.8-1.8-3.6-2.7-5.4c-0.9-1.8-1.8-3.6-2.7-5.4h-2.4v-1.2h5.4v1.2h-1.8c0.7,1.4,1.4,2.9,2.2,4.4
			c0.7,1.5,1.4,2.9,2,4.2c0.6-1.2,1.2-2.4,1.8-3.4c0.5-1.1,1.1-2.2,1.7-3.3l-0.9-1.8h-2.1v-1.2h5.5v1.2h-2c0.7,1.4,1.4,2.9,2.1,4.3
			c0.7,1.4,1.4,2.8,2,4.2c0.7-1.4,1.4-2.9,2-4.3c0.7-1.4,1.4-2.8,2.1-4.3h-1.7v-1.2h5v1.2h-2c-0.9,1.8-1.8,3.6-2.7,5.4
			c-0.9,1.8-1.8,3.6-2.7,5.4l-4-8.1L247.9,101.5z"/>
		<path d="M276.3,100.8v-1.2c0-0.2,0-0.5,0-0.7c0-0.2,0-0.4,0-0.7c-0.1,0.4-0.4,0.7-0.6,1c-0.3,0.3-0.6,0.6-1,0.9
			c-0.4,0.3-0.9,0.5-1.4,0.7c-0.5,0.2-1.1,0.2-1.7,0.2c-0.8,0-1.6-0.1-2.3-0.5c-0.7-0.3-1.3-0.7-1.9-1.3s-1-1.2-1.3-1.9
			s-0.5-1.5-0.5-2.3c0-0.8,0.2-1.5,0.5-2.2c0.3-0.7,0.7-1.4,1.3-1.9c0.5-0.5,1.2-0.9,1.9-1.2s1.5-0.5,2.3-0.5c1.2,0,2.2,0.3,3,0.9
			c0.8,0.6,1.4,1.2,1.8,2c0-0.4,0-0.9,0-1.3c0-0.5,0-0.9,0.1-1.3h1v10.1h2.2v1.2H276.3z M269.7,90.9c-0.6,0.2-1.1,0.6-1.5,1
			c-0.4,0.4-0.7,0.9-1,1.5c-0.2,0.6-0.3,1.2-0.3,1.8c0,0.7,0.1,1.3,0.4,1.9s0.6,1.1,1.1,1.5c0.4,0.4,0.9,0.7,1.4,0.9
			s1.1,0.3,1.8,0.3c0.6,0,1.2-0.1,1.8-0.3c0.6-0.2,1-0.6,1.5-1c0.4-0.4,0.8-0.9,1-1.5c0.2-0.6,0.4-1.2,0.4-1.8
			c0-0.7-0.1-1.3-0.4-1.8c-0.2-0.6-0.6-1.1-1-1.5c-0.4-0.4-0.9-0.7-1.5-1s-1.2-0.3-1.8-0.3C270.9,90.5,270.2,90.7,269.7,90.9z"/>
		<path d="M281.8,100.8v-1.2h2.2V79.5h-2.1v-1.2h3.4v21.3h2.3v1.2H281.8z"/>
		<path d="M289.7,99.7h2.2V79.5h-2.1v-1.2h3.4v16.8l4.7-4.4H296v-1.2h5.6v1.2h-2.2c-0.6,0.6-1.2,1.1-1.7,1.6s-1.1,1-1.7,1.6
			c0.7,1,1.4,1.9,2,2.8c0.7,0.9,1.4,1.9,2.1,2.8h2.6v1.2h-5.5v-1.2h1.5c-0.6-0.8-1.2-1.6-1.8-2.4c-0.6-0.8-1.2-1.6-1.7-2.4l-1.9,1.8
			v3h2.3v1.2h-5.8V99.7z"/>
	</g>
</g>
</svg>
