<?xml version="1.0" encoding="utf-8"?>
<!-- Generator: Adobe Illustrator 26.0.1, SVG Export Plug-In . SVG Version: 6.00 Build 0)  -->
<svg version="1.1" id="Layer_1" xmlns="http://www.w3.org/2000/svg" xmlns:xlink="http://www.w3.org/1999/xlink" x="0px" y="0px"
	 viewBox="0 0 118.4 109.3" style="enable-background:new 0 0 118.4 109.3;" xml:space="preserve">
<style type="text/css">
	.st0{fill:#046E7F;}
	.st1{fill:none;stroke:#EAE400;stroke-width:2;stroke-miterlimit:10;}
	.st2{fill:#EAE400;}
	.st3{fill:#D900FF;}
	.st4{fill:none;stroke:#FFFFFF;stroke-width:2;stroke-miterlimit:10;}
	.st5{fill:#FFFFFF;}
	.st6{fill:#A0461F;}
	.st7{fill:#00C7D6;}
	.st8{fill:#602B00;}
	.st9{fill:#FF0000;}
	.st10{fill:none;stroke:#00C7D6;stroke-miterlimit:10;}
	.st11{fill:none;stroke:#00C7D6;stroke-width:0.75;stroke-miterlimit:10;}
	.st12{fill:none;stroke:#602B00;stroke-width:0.5;stroke-miterlimit:10;}
	.st13{fill:#1200FF;}
	.st14{fill:none;stroke:#FF0000;stroke-miterlimit:10;}
	.st15{fill:none;stroke:#FF0000;stroke-width:0.5;stroke-miterlimit:10;}
	.st16{fill:none;stroke:#1200FF;stroke-linecap:round;stroke-linejoin:round;stroke-miterlimit:10;}
	.st17{fill:none;stroke:#FF0000;stroke-linecap:round;stroke-linejoin:round;stroke-miterlimit:10;}
	.st18{fill:none;stroke:#D900FF;stroke-linecap:round;stroke-linejoin:round;stroke-miterlimit:10;}
	.st19{fill:#FFFFFF;stroke:#000000;stroke-width:0.25;stroke-linecap:round;stroke-linejoin:round;stroke-miterlimit:10;}
	.st20{fill:#F4D600;}
	.st21{fill:none;stroke:#F4D600;stroke-width:0.5;stroke-miterlimit:10;}
	.st22{fill:none;stroke:#F4D600;stroke-miterlimit:10;}
	.st23{fill:none;stroke:#000000;stroke-miterlimit:10;}
	.st24{fill:url(#);}
	.st25{fill:#E88469;}
	.st26{fill:#FFFFFF;stroke:#000000;stroke-miterlimit:10;}
	.st27{fill:#B138F2;}
	.st28{fill:#F746F3;}
	.st29{fill:#FF6C39;}
	.st30{fill:#6047F4;}
	.st31{fill:#4705E8;}
	.st32{fill:#6BEA68;}
	.st33{fill:#1D1D1B;}
	.st34{fill:none;stroke:#1D1D1B;stroke-miterlimit:10;}
	.st35{fill:#A2CEF9;stroke:#FFFFFF;stroke-miterlimit:10;}
	.st36{fill:#89C6F7;stroke:#FFFFFF;stroke-miterlimit:10;}
	.st37{fill:#7DAEEA;stroke:#FFFFFF;stroke-miterlimit:10;}
	.st38{fill:#7CBCE8;stroke:#FFFFFF;stroke-miterlimit:10;}
	.st39{fill:#49F2C5;stroke:#FFFFFF;stroke-miterlimit:10;}
	.st40{fill:#771CF9;stroke:#FFFFFF;stroke-miterlimit:10;}
	.st41{fill:#C21EF7;stroke:#FFFFFF;stroke-miterlimit:10;}
	.st42{fill:#4B67EF;stroke:#FFFFFF;stroke-miterlimit:10;}
	.st43{fill:#F0EDED;}
</style>
<g>
	<g>
		<path d="M53.2,93.7c-9.8-6.2-16.5-15.9-19-27.2S33.8,43.6,40,33.9c5-7.9,12.8-13.3,21.9-15.3c9.1-2,18.5-0.4,26.3,4.7
			c6.3,4,10.7,10.3,12.3,17.7s0.3,14.9-3.8,21.2C90.1,72.7,76,75.8,65.4,69c-8.6-5.5-11.1-16.9-5.6-25.4c4.4-7,13.7-9,20.6-4.6
			c5.7,3.6,7.3,11.2,3.7,16.8c-3,4.6-9.1,6-13.8,3c-3.8-2.4-4.9-7.5-2.5-11.3c2-3.1,6.2-4.1,9.4-2.1l-1.2,1.9
			c-2.1-1.4-5-0.7-6.3,1.4c-1.8,2.8-1,6.5,1.8,8.3c3.6,2.3,8.4,1.2,10.7-2.4c3-4.6,1.6-10.8-3-13.8c-5.9-3.8-13.8-2-17.6,3.9
			c-2.3,3.6-3.1,8-2.2,12.2c0.9,4.2,3.5,7.8,7.1,10.2c9.5,6.1,22.3,3.3,28.3-6.3c3.7-5.8,5-12.8,3.5-19.5S92.9,28.8,87,25.1
			c-7.4-4.7-16.1-6.2-24.6-4.4c-8.5,1.9-15.8,7-20.5,14.3c-5.9,9.3-7.9,20.3-5.5,31c2.4,10.7,8.8,19.9,18,25.8L53.2,93.7z"/>
	</g>
	<g>
		<path d="M78.2,109.3c-5.6,0-10.2-4.6-10.2-10.2s4.6-10.2,10.2-10.2c5.6,0,10.2,4.6,10.2,10.2S83.9,109.3,78.2,109.3z M78.2,91
			c-4.4,0-8,3.6-8,8s3.6,8,8,8c4.4,0,8-3.6,8-8S82.7,91,78.2,91z"/>
	</g>
	<g>
		<circle cx="11" cy="55.1" r="9.1"/>
	</g>
	<g>
		<circle cx="15.4" cy="17.7" r="8"/>
	</g>
	<g>
		<path d="M15.4,33.1C6.9,33.1,0,26.2,0,17.7C0,9.2,6.9,2.3,15.4,2.3s15.4,6.9,15.4,15.4C30.8,26.2,23.9,33.1,15.4,33.1z M15.4,4.5
			c-7.3,0-13.2,5.9-13.2,13.2c0,7.3,5.9,13.2,13.2,13.2c7.3,0,13.2-5.9,13.2-13.2C28.6,10.4,22.7,4.5,15.4,4.5z"/>
	</g>
	<g>
		<path d="M118.4,55.9h-2.2c0-29.6-24.1-53.7-53.7-53.7V0C93.3,0,118.4,25.1,118.4,55.9z"/>
	</g>
</g>
</svg>
