<?xml version="1.0" encoding="utf-8"?>
<!-- Generator: Adobe Illustrator 26.0.1, SVG Export Plug-In . SVG Version: 6.00 Build 0)  -->
<svg version="1.1" id="Layer_1" xmlns="http://www.w3.org/2000/svg" xmlns:xlink="http://www.w3.org/1999/xlink" x="0px" y="0px"
	 viewBox="0 0 121.8 60.9" style="enable-background:new 0 0 121.8 60.9;" xml:space="preserve">
<style type="text/css">
	.st0{stroke:#000000;stroke-width:2;stroke-miterlimit:10;}
	.st1{stroke:#000000;stroke-miterlimit:10;}
	.st2{fill:none;stroke:#FF0000;stroke-width:0.25;stroke-miterlimit:10;}
	.st3{fill:none;stroke:#4400FF;stroke-width:0.25;stroke-miterlimit:10;}
	.st4{fill:#FF8A0B;}
	.st5{fill:#FF8A0B;stroke:#FF8A0B;stroke-width:2;stroke-miterlimit:10;}
	.st6{fill:none;stroke:#9B9797;stroke-width:0.25;stroke-miterlimit:10;}
	.st7{opacity:0.54;}
	.st8{fill:#0540F2;}
	.st9{fill:none;stroke:#0540F2;stroke-miterlimit:10;}
	.st10{fill:none;stroke:#FF8A0B;stroke-miterlimit:10;}
	.st11{fill:none;stroke:#000000;stroke-miterlimit:10;}
	.st12{fill:#EA7A0A;}
	.st13{fill:#1C5CF9;}
	.st14{fill:#FFFFFF;}
	.st15{clip-path:url(#SVGID_00000125594221085671725790000011401205094605759149_);}
	.st16{fill:none;stroke:#FF8A0B;stroke-width:0.25;stroke-miterlimit:10;}
	.st17{fill:#FF7F00;}
</style>
<g>
	<g>
		<g>
			<path class="st8" d="M11.1,26.3v2.3H2.6V33H10v2.2H2.6V40h8.5v2.3H0v-16H11.1z"/>
			<path class="st8" d="M22.5,30.8c1,0.9,1.5,2.3,1.5,4.2v7.2h-2.6v-1c-0.4,0.4-1,0.7-1.6,0.9c-0.6,0.2-1.3,0.3-2,0.3
				c-1,0-1.9-0.2-2.7-0.6c-0.8-0.4-1.4-0.9-1.8-1.6c-0.4-0.7-0.7-1.4-0.7-2.2s0.2-1.6,0.7-2.2c0.4-0.7,1.1-1.2,1.8-1.5
				c0.8-0.4,1.7-0.6,2.7-0.6c0.7,0,1.4,0.1,2,0.3s1.1,0.5,1.6,0.9c0-1.2-0.3-2.1-0.9-2.7c-0.6-0.6-1.5-0.9-2.6-0.9
				c-0.7,0-1.4,0.1-2.1,0.3c-0.7,0.2-1.3,0.5-1.8,0.9L13.2,31c0.6-0.4,1.4-0.8,2.3-1.1c0.9-0.3,1.9-0.4,2.9-0.4
				C20.2,29.5,21.5,29.9,22.5,30.8z M20.6,40c0.6-0.5,0.9-1.1,0.9-1.9c0-0.8-0.3-1.4-0.9-1.9c-0.6-0.5-1.3-0.7-2.3-0.7
				c-0.9,0-1.7,0.2-2.3,0.7c-0.6,0.5-0.9,1.1-0.9,1.9c0,0.8,0.3,1.4,0.9,1.9c0.6,0.5,1.4,0.7,2.3,0.7C19.3,40.7,20.1,40.5,20.6,40z"
				/>
			<path class="st8" d="M34,33.2c-0.2-0.5-0.6-1-1.1-1.3c-0.5-0.3-1.1-0.5-1.8-0.5c-0.7,0-1.3,0.1-1.7,0.4c-0.4,0.3-0.6,0.6-0.6,1.1
				c0,0.5,0.2,0.9,0.7,1.2c0.5,0.3,1.3,0.5,2.5,0.8c1.4,0.3,2.5,0.8,3.2,1.4c0.7,0.6,1.1,1.4,1.1,2.5c0,0.8-0.2,1.5-0.7,2.1
				c-0.5,0.6-1.1,1-1.9,1.2c-0.8,0.3-1.6,0.4-2.4,0.4c-1.4,0-2.5-0.3-3.5-0.8c-0.9-0.5-1.6-1.3-1.9-2.4l2.1-1
				c0.3,0.7,0.7,1.3,1.3,1.6c0.6,0.3,1.3,0.5,2,0.5c0.7,0,1.3-0.1,1.8-0.4c0.5-0.3,0.7-0.7,0.7-1.3c0-0.5-0.2-0.9-0.6-1.2
				c-0.4-0.3-1.1-0.5-2.1-0.8c-0.9-0.2-1.7-0.5-2.3-0.7C28,35.9,27.5,35.5,27,35c-0.5-0.5-0.7-1.2-0.7-1.9c0-1.2,0.5-2.1,1.4-2.7
				c0.9-0.6,2.1-0.9,3.4-0.9c1.2,0,2.3,0.3,3.1,0.8c0.9,0.5,1.5,1.2,1.8,2.1L34,33.2z"/>
			<path class="st8" d="M46,29.7h2.6v0.1l-4.9,14c-0.5,1.4-1,2.4-1.7,3c-0.6,0.6-1.4,0.9-2.3,0.9c-0.6,0-1.3-0.1-2.1-0.3l0.6-2
				c0.5,0.1,0.8,0.2,1.1,0.2c0.5,0,0.9-0.1,1.2-0.4c0.3-0.3,0.6-0.8,0.8-1.5l0.4-1.3l-4.6-12.3v-0.1h2.7l3.1,8.9L46,29.7z"/>
			<path class="st8" d="M68.4,32.8v-6.5H71v16h-2.6v-7.2h-8v7.2h-2.6v-16h2.6v6.5H68.4z"/>
			<path class="st8" d="M76.6,41.7c-1-0.6-1.7-1.3-2.3-2.3c-0.5-1-0.8-2.1-0.8-3.4s0.3-2.4,0.8-3.4c0.5-1,1.3-1.8,2.3-2.3
				c1-0.6,2.1-0.8,3.3-0.8c1.2,0,2.3,0.3,3.3,0.8c1,0.6,1.7,1.3,2.3,2.3c0.5,1,0.8,2.1,0.8,3.4s-0.3,2.4-0.8,3.4
				c-0.5,1-1.3,1.8-2.3,2.3c-1,0.6-2.1,0.8-3.3,0.8C78.6,42.5,77.5,42.3,76.6,41.7z M81.9,39.7c0.6-0.4,1.1-0.9,1.4-1.5
				c0.3-0.7,0.5-1.4,0.5-2.2c0-0.8-0.2-1.6-0.5-2.2s-0.8-1.2-1.4-1.5c-0.6-0.4-1.3-0.6-2-0.6c-0.7,0-1.4,0.2-2,0.6
				c-0.6,0.4-1.1,0.9-1.4,1.5c-0.3,0.7-0.5,1.4-0.5,2.2c0,0.8,0.2,1.6,0.5,2.2c0.3,0.7,0.8,1.2,1.4,1.5c0.6,0.4,1.3,0.6,2,0.6
				C80.6,40.3,81.3,40.1,81.9,39.7z"/>
			<path class="st8" d="M106,30.8c0.8,0.9,1.2,2,1.2,3.5v8h-2.5v-7.7c0-0.9-0.3-1.6-0.8-2.2c-0.5-0.6-1.2-0.8-2-0.8
				c-0.8,0-1.5,0.3-2,0.8c-0.5,0.6-0.8,1.3-0.8,2.2v7.7h-2.5v-7.7c0-0.9-0.3-1.6-0.8-2.2c-0.5-0.6-1.1-0.8-1.9-0.8
				c-0.8,0-1.5,0.3-2,0.8c-0.5,0.6-0.8,1.3-0.8,2.2v7.7h-2.5V29.7h2.5v1.6c0.4-0.6,0.9-1,1.5-1.4c0.6-0.3,1.3-0.5,2.1-0.5
				c0.9,0,1.7,0.2,2.3,0.6c0.6,0.4,1.1,1,1.4,1.8c0.4-0.8,1-1.3,1.7-1.8c0.7-0.4,1.6-0.6,2.5-0.6C104.1,29.5,105.2,29.9,106,30.8z"
				/>
			<path class="st8" d="M118.9,30.4c0.9,0.6,1.6,1.4,2.1,2.4c0.5,1,0.7,2.1,0.7,3.2c0,0.4,0,0.7,0,0.9h-9.9c0.2,1,0.6,1.8,1.3,2.4
				s1.5,0.9,2.5,0.9c0.6,0,1.2-0.1,1.8-0.4c0.5-0.3,1-0.7,1.4-1.2l1.9,1.3c-1.2,1.7-2.9,2.5-5,2.5c-1.2,0-2.3-0.3-3.2-0.9
				c-1-0.6-1.7-1.3-2.2-2.3c-0.5-1-0.8-2.1-0.8-3.3c0-1.2,0.3-2.3,0.8-3.3c0.5-1,1.3-1.8,2.2-2.3c0.9-0.6,2-0.8,3.2-0.8
				C116.9,29.5,118,29.8,118.9,30.4z M113.1,32.7c-0.7,0.6-1.1,1.5-1.3,2.5h7.6c-0.1-1-0.5-1.8-1.2-2.4c-0.7-0.7-1.5-1-2.6-1
				C114.7,31.7,113.8,32,113.1,32.7z"/>
		</g>
		<g>
			<path class="st8" d="M5.5,50v0.6H0.8v3H5v0.6H0.8v3.3h4.7V58H0.1v-8H5.5z"/>
			<path class="st8" d="M6.6,53.2c0.3-0.5,0.6-0.9,1.1-1.2c0.5-0.3,1-0.4,1.6-0.4c0.6,0,1.2,0.2,1.6,0.5c0.5,0.3,0.8,0.7,1.1,1.2
				l-0.5,0.3c-0.2-0.4-0.5-0.7-0.9-1c-0.4-0.2-0.8-0.4-1.3-0.4c-0.5,0-0.9,0.1-1.3,0.3c-0.4,0.2-0.7,0.5-0.9,0.9
				c-0.2,0.4-0.3,0.9-0.3,1.4s0.1,1,0.3,1.4c0.2,0.4,0.5,0.7,0.9,0.9c0.4,0.2,0.8,0.3,1.3,0.3c0.5,0,0.9-0.1,1.3-0.4
				c0.4-0.2,0.7-0.6,0.9-1l0.5,0.3c-0.2,0.5-0.6,0.9-1.1,1.2s-1,0.5-1.6,0.5c-0.6,0-1.1-0.1-1.6-0.4c-0.5-0.3-0.8-0.7-1.1-1.2
				s-0.4-1.1-0.4-1.7C6.2,54.2,6.4,53.7,6.6,53.2z"/>
			<path class="st8" d="M14.6,57.7c-0.5-0.3-0.9-0.7-1.1-1.2C13.2,56,13,55.5,13,54.8c0-0.6,0.1-1.2,0.4-1.7
				c0.3-0.5,0.6-0.9,1.1-1.2c0.5-0.3,1-0.4,1.6-0.4c0.6,0,1.2,0.1,1.6,0.4c0.5,0.3,0.9,0.7,1.1,1.2c0.3,0.5,0.4,1.1,0.4,1.7
				c0,0.6-0.1,1.2-0.4,1.7c-0.3,0.5-0.6,0.9-1.1,1.2c-0.5,0.3-1,0.4-1.6,0.4C15.6,58.1,15,58,14.6,57.7z M17.5,57.2
				c0.4-0.2,0.7-0.5,0.9-1c0.2-0.4,0.3-0.9,0.3-1.4s-0.1-1-0.3-1.4c-0.2-0.4-0.5-0.7-0.9-1c-0.4-0.2-0.8-0.3-1.3-0.3
				c-0.5,0-0.9,0.1-1.3,0.3c-0.4,0.2-0.7,0.5-0.9,1c-0.2,0.4-0.3,0.9-0.3,1.4s0.1,1,0.3,1.4c0.2,0.4,0.5,0.7,0.9,1
				c0.4,0.2,0.8,0.3,1.3,0.3C16.7,57.5,17.1,57.4,17.5,57.2z"/>
			<path class="st8" d="M25.7,52.4c0.5,0.5,0.7,1.2,0.7,2.2V58h-0.7v-3.4c0-0.7-0.2-1.3-0.6-1.8c-0.4-0.4-0.9-0.7-1.5-0.7
				c-0.4,0-0.8,0.1-1.1,0.3c-0.3,0.2-0.6,0.5-0.8,0.8s-0.3,0.8-0.3,1.3V58h-0.7v-6.3h0.7v1.4c0.2-0.5,0.5-0.8,0.9-1.1
				s0.9-0.4,1.4-0.4C24.6,51.6,25.2,51.9,25.7,52.4z"/>
			<path class="st8" d="M29.2,57.7c-0.5-0.3-0.9-0.7-1.1-1.2c-0.3-0.5-0.4-1.1-0.4-1.7c0-0.6,0.1-1.2,0.4-1.7
				c0.3-0.5,0.6-0.9,1.1-1.2c0.5-0.3,1-0.4,1.6-0.4c0.6,0,1.2,0.1,1.6,0.4c0.5,0.3,0.9,0.7,1.1,1.2c0.3,0.5,0.4,1.1,0.4,1.7
				c0,0.6-0.1,1.2-0.4,1.7c-0.3,0.5-0.6,0.9-1.1,1.2c-0.5,0.3-1,0.4-1.6,0.4C30.2,58.1,29.7,58,29.2,57.7z M32.1,57.2
				c0.4-0.2,0.7-0.5,0.9-1c0.2-0.4,0.3-0.9,0.3-1.4s-0.1-1-0.3-1.4c-0.2-0.4-0.5-0.7-0.9-1c-0.4-0.2-0.8-0.3-1.3-0.3
				c-0.5,0-0.9,0.1-1.3,0.3c-0.4,0.2-0.7,0.5-0.9,1c-0.2,0.4-0.3,0.9-0.3,1.4s0.1,1,0.3,1.4c0.2,0.4,0.5,0.7,0.9,1
				c0.4,0.2,0.8,0.3,1.3,0.3C31.3,57.5,31.7,57.4,32.1,57.2z"/>
			<path class="st8" d="M43.5,51.9c0.3,0.2,0.6,0.5,0.8,0.9c0.2,0.4,0.3,0.8,0.3,1.3V58h-0.7v-3.8c0-0.6-0.2-1.1-0.5-1.4
				c-0.3-0.4-0.8-0.5-1.3-0.5c-0.5,0-1,0.2-1.3,0.5c-0.3,0.4-0.5,0.8-0.5,1.4V58h-0.7v-3.8c0-0.6-0.2-1.1-0.5-1.4
				c-0.3-0.4-0.8-0.5-1.3-0.5c-0.5,0-1,0.2-1.3,0.5c-0.3,0.4-0.5,0.8-0.5,1.4V58h-0.7v-6.3h0.7v1.2c0.2-0.4,0.4-0.7,0.8-0.9
				c0.3-0.2,0.7-0.3,1.2-0.3c0.5,0,0.9,0.1,1.3,0.4c0.4,0.3,0.6,0.6,0.7,1.1c0.2-0.5,0.4-0.8,0.8-1.1c0.4-0.3,0.8-0.4,1.4-0.4
				C42.8,51.6,43.2,51.7,43.5,51.9z"/>
			<path class="st8" d="M46.3,50.4c-0.1-0.1-0.2-0.2-0.2-0.4c0-0.1,0.1-0.3,0.2-0.4c0.1-0.1,0.2-0.1,0.4-0.1c0.1,0,0.3,0,0.4,0.1
				c0.1,0.1,0.1,0.2,0.1,0.4c0,0.1,0,0.3-0.1,0.4c-0.1,0.1-0.2,0.2-0.4,0.2C46.5,50.5,46.4,50.5,46.3,50.4z M47,58h-0.7v-6.3H47V58z
				"/>
			<path class="st8" d="M48.9,53.2c0.3-0.5,0.6-0.9,1.1-1.2c0.5-0.3,1-0.4,1.6-0.4c0.6,0,1.2,0.2,1.6,0.5c0.5,0.3,0.8,0.7,1.1,1.2
				l-0.5,0.3c-0.2-0.4-0.5-0.7-0.9-1s-0.8-0.4-1.3-0.4c-0.5,0-0.9,0.1-1.3,0.3c-0.4,0.2-0.7,0.5-0.9,0.9c-0.2,0.4-0.3,0.9-0.3,1.4
				s0.1,1,0.3,1.4c0.2,0.4,0.5,0.7,0.9,0.9c0.4,0.2,0.8,0.3,1.3,0.3c0.5,0,0.9-0.1,1.3-0.4c0.4-0.2,0.7-0.6,0.9-1l0.5,0.3
				c-0.2,0.5-0.6,0.9-1.1,1.2c-0.5,0.3-1,0.5-1.6,0.5c-0.6,0-1.1-0.1-1.6-0.4c-0.5-0.3-0.8-0.7-1.1-1.2s-0.4-1.1-0.4-1.7
				C48.5,54.2,48.6,53.7,48.9,53.2z"/>
			<path class="st8" d="M63.6,52.3c0.5,0.5,0.7,1.2,0.7,2.1V58h-0.7v-0.8c-0.2,0.3-0.5,0.5-0.9,0.7c-0.4,0.2-0.8,0.3-1.3,0.3
				c-0.5,0-1-0.1-1.4-0.3c-0.4-0.2-0.7-0.4-0.9-0.8c-0.2-0.3-0.3-0.7-0.3-1.1c0-0.4,0.1-0.8,0.3-1.1c0.2-0.3,0.5-0.6,0.9-0.8
				c0.4-0.2,0.9-0.3,1.4-0.3c0.5,0,0.9,0.1,1.3,0.3c0.4,0.2,0.7,0.4,0.9,0.7v-0.3c0-0.7-0.2-1.3-0.6-1.7c-0.4-0.4-0.9-0.6-1.6-0.6
				c-0.4,0-0.8,0.1-1.2,0.2c-0.4,0.1-0.7,0.3-1,0.5l-0.2-0.5c0.3-0.2,0.7-0.4,1.1-0.6s0.9-0.2,1.4-0.2
				C62.5,51.6,63.1,51.8,63.6,52.3z M63.1,57.1c0.4-0.3,0.6-0.7,0.6-1.2c0-0.5-0.2-0.9-0.6-1.2c-0.4-0.3-0.9-0.5-1.5-0.5
				s-1.1,0.2-1.5,0.5c-0.4,0.3-0.6,0.7-0.6,1.2c0,0.5,0.2,0.9,0.6,1.2c0.4,0.3,0.9,0.5,1.5,0.5S62.7,57.5,63.1,57.1z"/>
			<path class="st8" d="M71.1,49.4h0.7V58h-0.7v-1.6c-0.2,0.5-0.6,0.9-1,1.2c-0.5,0.3-1,0.5-1.6,0.5c-0.5,0-1-0.1-1.5-0.4
				c-0.4-0.3-0.8-0.7-1-1.2c-0.3-0.5-0.4-1-0.4-1.6s0.1-1.2,0.4-1.6c0.3-0.5,0.6-0.9,1-1.2c0.4-0.3,0.9-0.4,1.5-0.4
				c0.6,0,1.1,0.2,1.6,0.5c0.5,0.3,0.8,0.7,1,1.2V49.4z M69.9,57.2c0.4-0.2,0.7-0.5,0.9-0.9c0.2-0.4,0.3-0.9,0.3-1.4s-0.1-1-0.3-1.4
				c-0.2-0.4-0.5-0.7-0.9-0.9c-0.4-0.2-0.8-0.3-1.3-0.3c-0.5,0-0.9,0.1-1.2,0.3c-0.4,0.2-0.6,0.5-0.8,0.9c-0.2,0.4-0.3,0.9-0.3,1.4
				s0.1,1,0.3,1.4c0.2,0.4,0.5,0.7,0.8,0.9c0.4,0.2,0.8,0.3,1.2,0.3C69.1,57.5,69.5,57.4,69.9,57.2z"/>
			<path class="st8" d="M71.7,60c0.2,0.1,0.3,0.1,0.5,0.2c0.2,0,0.3,0.1,0.5,0.1c0.4,0,0.6-0.1,0.8-0.4c0.2-0.2,0.3-0.7,0.3-1.3
				v-6.9h0.7v6.9c0,0.8-0.1,1.4-0.4,1.7c-0.3,0.3-0.7,0.5-1.2,0.5c-0.2,0-0.4,0-0.7-0.1c-0.2-0.1-0.5-0.2-0.7-0.3L71.7,60z
				 M73.7,50.4c-0.1-0.1-0.2-0.2-0.2-0.4c0-0.1,0.1-0.3,0.2-0.4c0.1-0.1,0.2-0.1,0.4-0.1s0.3,0,0.4,0.1c0.1,0.1,0.1,0.2,0.1,0.4
				c0,0.1,0,0.3-0.1,0.4c-0.1,0.1-0.2,0.2-0.4,0.2S73.8,50.5,73.7,50.4z"/>
			<path class="st8" d="M80.8,51.7h0.7l0,3.7c0,0.5-0.1,1-0.3,1.4c-0.2,0.4-0.5,0.7-0.9,0.9s-0.9,0.3-1.4,0.3c-0.5,0-1-0.1-1.4-0.3
				c-0.4-0.2-0.7-0.5-0.9-0.9c-0.2-0.4-0.3-0.9-0.3-1.4v-3.7h0.7v3.7c0,0.6,0.2,1.1,0.5,1.5c0.4,0.4,0.8,0.6,1.4,0.6
				c0.6,0,1.1-0.2,1.4-0.6c0.4-0.4,0.5-0.9,0.5-1.5V51.7z"/>
			<path class="st8" d="M87.1,53.3c-0.1-0.4-0.3-0.6-0.7-0.8c-0.3-0.2-0.7-0.3-1.2-0.3c-0.5,0-0.8,0.1-1.1,0.3s-0.5,0.5-0.5,0.8
				c0,0.3,0.1,0.5,0.3,0.6c0.2,0.2,0.4,0.3,0.7,0.4c0.3,0.1,0.6,0.2,1,0.3c0.7,0.2,1.3,0.4,1.6,0.6c0.4,0.3,0.6,0.7,0.6,1.2
				c0,0.6-0.2,1-0.7,1.3c-0.5,0.3-1.1,0.4-1.7,0.4c-0.7,0-1.2-0.1-1.7-0.4c-0.5-0.3-0.8-0.7-0.9-1.2l0.6-0.2c0.1,0.4,0.4,0.8,0.7,1
				s0.8,0.3,1.3,0.3s0.9-0.1,1.3-0.3c0.3-0.2,0.5-0.5,0.5-0.9c0-0.4-0.1-0.7-0.4-0.8c-0.3-0.2-0.7-0.3-1.3-0.5
				c-0.5-0.1-0.9-0.2-1.2-0.3c-0.3-0.1-0.6-0.3-0.9-0.5C83.1,54,83,53.7,83,53.3c0-0.6,0.2-1,0.7-1.3c0.4-0.3,1-0.4,1.6-0.4
				c0.6,0,1.2,0.1,1.6,0.4c0.4,0.3,0.7,0.6,0.9,1.1L87.1,53.3z"/>
			<path class="st8" d="M92.1,57.4V58h-0.8c-0.6,0-1.1-0.2-1.4-0.5c-0.3-0.3-0.4-0.8-0.4-1.4v-3.9h-1v-0.5h1v-1.4l0.7-0.1v1.6h1.7
				v0.5h-1.7v3.7c0,0.5,0.1,0.9,0.3,1.1c0.2,0.2,0.5,0.4,1,0.4H92.1z"/>
			<path class="st8" d="M101.5,51.9c0.3,0.2,0.6,0.5,0.8,0.9c0.2,0.4,0.3,0.8,0.3,1.3V58h-0.7v-3.8c0-0.6-0.2-1.1-0.5-1.4
				c-0.3-0.4-0.8-0.5-1.3-0.5c-0.5,0-1,0.2-1.3,0.5c-0.3,0.4-0.5,0.8-0.5,1.4V58h-0.7v-3.8c0-0.6-0.2-1.1-0.5-1.4
				c-0.3-0.4-0.8-0.5-1.3-0.5c-0.5,0-1,0.2-1.3,0.5c-0.3,0.4-0.5,0.8-0.5,1.4V58h-0.7v-6.3h0.7v1.2c0.2-0.4,0.4-0.7,0.8-0.9
				c0.3-0.2,0.7-0.3,1.2-0.3c0.5,0,0.9,0.1,1.3,0.4c0.4,0.3,0.6,0.6,0.7,1.1c0.2-0.5,0.4-0.8,0.8-1.1c0.4-0.3,0.8-0.4,1.4-0.4
				C100.7,51.6,101.1,51.7,101.5,51.9z"/>
			<path class="st8" d="M108.6,52c0.5,0.3,0.8,0.7,1.1,1.2c0.2,0.5,0.4,1,0.4,1.6c0,0.1,0,0.2,0,0.4h-5.5c0,0.5,0.2,0.9,0.4,1.2
				c0.2,0.4,0.5,0.6,0.9,0.8c0.4,0.2,0.8,0.3,1.2,0.3c0.4,0,0.8-0.1,1.1-0.3c0.3-0.2,0.6-0.4,0.9-0.8l0.5,0.4
				c-0.6,0.8-1.4,1.3-2.5,1.3c-0.6,0-1.1-0.1-1.6-0.4c-0.5-0.3-0.8-0.7-1.1-1.2c-0.3-0.5-0.4-1-0.4-1.7s0.1-1.2,0.4-1.7
				s0.6-0.9,1.1-1.2c0.5-0.3,1-0.4,1.6-0.4C107.6,51.6,108.2,51.7,108.6,52z M105.8,52.5c-0.4,0.2-0.7,0.5-0.9,0.8
				c-0.2,0.4-0.4,0.8-0.4,1.2h4.9c0-0.4-0.1-0.8-0.3-1.2c-0.2-0.4-0.5-0.7-0.8-0.9c-0.4-0.2-0.8-0.3-1.3-0.3
				C106.6,52.2,106.1,52.3,105.8,52.5z"/>
			<path class="st8" d="M116.4,52.4c0.5,0.5,0.7,1.2,0.7,2.2V58h-0.7v-3.4c0-0.7-0.2-1.3-0.6-1.8c-0.4-0.4-0.9-0.7-1.5-0.7
				c-0.4,0-0.8,0.1-1.1,0.3c-0.3,0.2-0.6,0.5-0.8,0.8s-0.3,0.8-0.3,1.3V58h-0.7v-6.3h0.7v1.4c0.2-0.5,0.5-0.8,0.9-1.1
				c0.4-0.3,0.9-0.4,1.4-0.4C115.3,51.6,116,51.9,116.4,52.4z"/>
			<path class="st8" d="M121.6,57.4V58h-0.8c-0.6,0-1.1-0.2-1.4-0.5c-0.3-0.3-0.4-0.8-0.4-1.4v-3.9h-1v-0.5h1v-1.4l0.7-0.1v1.6h1.7
				v0.5h-1.7v3.7c0,0.5,0.1,0.9,0.3,1.1c0.2,0.2,0.5,0.4,1,0.4H121.6z"/>
		</g>
	</g>
	<g>
		<g>
			<path class="st4" d="M69.3,9c-3.1-3.1-5.9-5.9-9-9c-0.1,0.1-0.2,0.1-0.2,0.2c0,0-0.1,0.1-0.1,0.1c-0.2,0.2-0.4,0.4-0.6,0.6
				c0,0-0.1,0.1-0.1,0.1c-0.1,0.1-0.3,0.3-0.4,0.4c2.3,2.3,4.3,4.3,6.6,6.6c-0.5,0.1-0.8,0.5-0.8,1.1c0,2,0,4,0,6.1c0,1.7-1.4,3-3,3
				c-4.1,0-57.3,0-61.3,0c-0.1,0-0.1,0-0.2,0c0,0.7,0,1.4,0,2c0.1,0,0.2,0,0.2,0c2,0,53.1,0,55.2,0c1,0,2,0,3.1,0c1,0,2.1,0,3.1,0
				c2.7,0,5-2.1,5-4.7c0.1-2.1,0-4.2,0-6.3c0.4,0.4,0.8,0.8,1.1,1.1c0.1,0.1,0.2,0.2,0.3,0.2c0.6,0.5,1.4,0.2,1.6-0.5
				C69.8,9.7,69.6,9.4,69.3,9z"/>
		</g>
		<g>
			<path class="st4" d="M121.7,18.2c-4.1,0-58.6,0-62.7,0c-0.7,0-1.3-0.2-1.8-0.6C56.4,17,56,16.2,56,15.2c0-2,0-4,0-6
				c0-0.5-0.2-0.8-0.6-1c-0.1,0-0.1,0-0.2-0.1c2.2-2.3,4.4-4.4,6.6-6.6c-0.5-0.5-1-1-1.4-1.4c-3,3-5.9,5.9-9,9
				c-0.1,0.1-0.2,0.1-0.2,0.2c-0.5,0.6-0.2,1.4,0.5,1.6c0.5,0.2,0.8,0,1.2-0.4c0.4-0.4,0.8-0.8,1.2-1.2c0,2,0,3.9,0,5.9
				c0,2.8,2.3,5.1,5.1,5.1c2,0,4.1,0,6.1,0c1,0,2,0,3.1,0c1,0,52.5,0,53.6,0C121.8,20.3,121.8,18.2,121.7,18.2z"/>
		</g>
	</g>
</g>
</svg>
