<?xml version="1.0" encoding="utf-8"?>
<!-- Generator: Adobe Illustrator 26.0.1, SVG Export Plug-In . SVG Version: 6.00 Build 0)  -->
<svg version="1.1" id="Layer_1" xmlns="http://www.w3.org/2000/svg" xmlns:xlink="http://www.w3.org/1999/xlink" x="0px" y="0px"
	 viewBox="0 0 25.4 14.1" style="enable-background:new 0 0 25.4 14.1;" xml:space="preserve">
<style type="text/css">
	.st0{stroke:#000000;stroke-width:2;stroke-miterlimit:10;}
	.st1{stroke:#000000;stroke-miterlimit:10;}
	.st2{fill:none;stroke:#FF0000;stroke-width:0.25;stroke-miterlimit:10;}
	.st3{fill:none;stroke:#4400FF;stroke-width:0.25;stroke-miterlimit:10;}
	.st4{fill:#FF8A0B;}
	.st5{fill:#FF8A0B;stroke:#FF8A0B;stroke-width:2;stroke-miterlimit:10;}
	.st6{fill:none;stroke:#9B9797;stroke-width:0.25;stroke-miterlimit:10;}
	.st7{opacity:0.54;}
	.st8{fill:#0540F2;}
	.st9{fill:none;stroke:#0540F2;stroke-miterlimit:10;}
	.st10{fill:none;stroke:#FF8A0B;stroke-miterlimit:10;}
	.st11{fill:none;stroke:#000000;stroke-miterlimit:10;}
	.st12{fill:#EA7A0A;}
	.st13{fill:#1C5CF9;}
	.st14{fill:#FFFFFF;}
	.st15{clip-path:url(#SVGID_00000071518634028993015100000012211322695824770954_);}
	.st16{fill:none;stroke:#FF8A0B;stroke-width:0.25;stroke-miterlimit:10;}
	.st17{fill:#FF7F00;}
</style>
<g>
	<g>
		<path class="st14" d="M18.4,6.3c-2.2-2.1-4.1-4.1-6.3-6.3C12.1,0.1,12,0.1,12,0.2c0,0,0,0.1-0.1,0.1c-0.1,0.1-0.3,0.3-0.4,0.4
			c0,0-0.1,0.1-0.1,0.1c-0.1,0.1-0.2,0.2-0.3,0.3c1.6,1.6,3,3,4.6,4.6c-0.3,0.1-0.6,0.3-0.6,0.7c0,1.4,0,2.8,0,4.2
			c0,1.2-0.9,2.1-2.1,2.1c-2.8,0-10,0-12.9,0c0,0-0.1,0-0.1,0c0,0.5,0,0.9,0,1.4c0.1,0,0.1,0,0.2,0c1.4,0,7.2,0,8.6,0
			c0.7,0,1.4,0,2.1,0c0.7,0,1.4,0,2.1,0c1.8,0,3.4-1.5,3.5-3.3c0-1.5,0-2.9,0-4.4c0.3,0.3,0.5,0.5,0.8,0.8c0.1,0.1,0.1,0.1,0.2,0.2
			c0.4,0.3,1,0.2,1.1-0.3C18.8,6.8,18.6,6.5,18.4,6.3z"/>
	</g>
	<g>
		<path class="st14" d="M25.4,12.7c-2.8,0-11.3,0-14.1,0c-0.5,0-0.9-0.1-1.3-0.4c-0.5-0.4-0.8-1-0.8-1.7c0-1.4,0-2.8,0-4.2
			C9.1,6,9,5.8,8.7,5.7c0,0-0.1,0-0.1,0c1.6-1.6,3-3,4.6-4.6c-0.3-0.3-0.7-0.7-1-1C10.1,2.1,8,4.1,5.9,6.2C5.9,6.3,5.8,6.3,5.8,6.4
			c-0.3,0.4-0.2,1,0.3,1.1c0.3,0.1,0.6,0,0.8-0.3C7.2,7,7.5,6.7,7.7,6.5c0,1.4,0,2.7,0,4.1c0,2,1.6,3.5,3.5,3.5c1.4,0,2.8,0,4.2,0
			c0.7,0,1.4,0,2.1,0c0.7,0,7,0,7.7,0C25.4,14.1,25.4,12.7,25.4,12.7z"/>
	</g>
</g>
</svg>
