<?xml version="1.0" encoding="utf-8"?>
<!-- Generator: Adobe Illustrator 26.0.1, SVG Export Plug-In . SVG Version: 6.00 Build 0)  -->
<svg version="1.1" id="Layer_1" xmlns="http://www.w3.org/2000/svg" xmlns:xlink="http://www.w3.org/1999/xlink" x="0px" y="0px"
	 viewBox="0 0 121.8 47.7" style="enable-background:new 0 0 121.8 47.7;" xml:space="preserve">
<style type="text/css">
	.st0{stroke:#000000;stroke-width:2;stroke-miterlimit:10;}
	.st1{stroke:#000000;stroke-miterlimit:10;}
	.st2{fill:none;stroke:#FF0000;stroke-width:0.25;stroke-miterlimit:10;}
	.st3{fill:none;stroke:#4400FF;stroke-width:0.25;stroke-miterlimit:10;}
	.st4{fill:#FF8A0B;}
	.st5{fill:#FF8A0B;stroke:#FF8A0B;stroke-width:2;stroke-miterlimit:10;}
	.st6{fill:none;stroke:#9B9797;stroke-width:0.25;stroke-miterlimit:10;}
	.st7{opacity:0.54;}
	.st8{fill:#0540F2;}
	.st9{fill:none;stroke:#0540F2;stroke-miterlimit:10;}
	.st10{fill:none;stroke:#FF8A0B;stroke-miterlimit:10;}
	.st11{fill:none;stroke:#000000;stroke-miterlimit:10;}
	.st12{fill:#EA7A0A;}
	.st13{fill:#1C5CF9;}
	.st14{fill:#FFFFFF;}
	.st15{clip-path:url(#SVGID_00000018922681046689004230000003116769328093187219_);}
	.st16{fill:none;stroke:#FF8A0B;stroke-width:0.25;stroke-miterlimit:10;}
	.st17{fill:#FF7F00;}
	.st18{fill:#F8F8F8;}
</style>
<g>
	<g>
		<g>
			<path class="st8" d="M11.1,26.3v2.3H2.6V33H10v2.2H2.6V40h8.5v2.3H0v-16H11.1z"/>
			<path class="st8" d="M22.5,30.8c1,0.9,1.5,2.3,1.5,4.2v7.2h-2.6v-1c-0.4,0.4-1,0.7-1.6,0.9c-0.6,0.2-1.3,0.3-2,0.3
				c-1,0-1.9-0.2-2.7-0.6c-0.8-0.4-1.4-0.9-1.8-1.6c-0.4-0.7-0.7-1.4-0.7-2.2s0.2-1.6,0.7-2.2c0.4-0.7,1.1-1.2,1.8-1.5
				c0.8-0.4,1.7-0.6,2.7-0.6c0.7,0,1.4,0.1,2,0.3s1.1,0.5,1.6,0.9c0-1.2-0.3-2.1-0.9-2.7c-0.6-0.6-1.5-0.9-2.6-0.9
				c-0.7,0-1.4,0.1-2.1,0.3c-0.7,0.2-1.3,0.5-1.8,0.9L13.2,31c0.6-0.4,1.4-0.8,2.3-1.1c0.9-0.3,1.9-0.4,2.9-0.4
				C20.2,29.5,21.5,29.9,22.5,30.8z M20.6,40c0.6-0.5,0.9-1.1,0.9-1.9c0-0.8-0.3-1.4-0.9-1.9c-0.6-0.5-1.3-0.7-2.3-0.7
				c-0.9,0-1.7,0.2-2.3,0.7c-0.6,0.5-0.9,1.1-0.9,1.9c0,0.8,0.3,1.4,0.9,1.9c0.6,0.5,1.4,0.7,2.3,0.7C19.3,40.7,20.1,40.5,20.6,40z"
				/>
			<path class="st8" d="M34,33.2c-0.2-0.5-0.6-1-1.1-1.3c-0.5-0.3-1.1-0.5-1.8-0.5c-0.7,0-1.3,0.1-1.7,0.4c-0.4,0.3-0.6,0.6-0.6,1.1
				c0,0.5,0.2,0.9,0.7,1.2c0.5,0.3,1.3,0.5,2.5,0.8c1.4,0.3,2.5,0.8,3.2,1.4c0.7,0.6,1.1,1.4,1.1,2.5c0,0.8-0.2,1.5-0.7,2.1
				c-0.5,0.6-1.1,1-1.9,1.2c-0.8,0.3-1.6,0.4-2.4,0.4c-1.4,0-2.5-0.3-3.5-0.8c-0.9-0.5-1.6-1.3-1.9-2.4l2.1-1
				c0.3,0.7,0.7,1.3,1.3,1.6c0.6,0.3,1.3,0.5,2,0.5c0.7,0,1.3-0.1,1.8-0.4c0.5-0.3,0.7-0.7,0.7-1.3c0-0.5-0.2-0.9-0.6-1.2
				c-0.4-0.3-1.1-0.5-2.1-0.8c-0.9-0.2-1.7-0.5-2.3-0.7C28,35.9,27.5,35.5,27,35c-0.5-0.5-0.7-1.2-0.7-1.9c0-1.2,0.5-2.1,1.4-2.7
				c0.9-0.6,2.1-0.9,3.4-0.9c1.2,0,2.3,0.3,3.1,0.8c0.9,0.5,1.5,1.2,1.8,2.1L34,33.2z"/>
			<path class="st8" d="M46,29.7h2.6v0.1l-4.9,14c-0.5,1.4-1,2.4-1.7,3c-0.6,0.6-1.4,0.9-2.3,0.9c-0.6,0-1.3-0.1-2.1-0.3l0.6-2
				c0.5,0.1,0.8,0.2,1.1,0.2c0.5,0,0.9-0.1,1.2-0.4c0.3-0.3,0.6-0.8,0.8-1.5l0.4-1.3l-4.6-12.3v-0.1h2.7l3.1,8.9L46,29.7z"/>
			<path class="st8" d="M68.4,32.8v-6.5H71v16h-2.6v-7.2h-8v7.2h-2.6v-16h2.6v6.5H68.4z"/>
			<path class="st8" d="M76.6,41.7c-1-0.6-1.7-1.3-2.3-2.3c-0.5-1-0.8-2.1-0.8-3.4s0.3-2.4,0.8-3.4c0.5-1,1.3-1.8,2.3-2.3
				c1-0.6,2.1-0.8,3.3-0.8c1.2,0,2.3,0.3,3.3,0.8c1,0.6,1.7,1.3,2.3,2.3c0.5,1,0.8,2.1,0.8,3.4s-0.3,2.4-0.8,3.4
				c-0.5,1-1.3,1.8-2.3,2.3c-1,0.6-2.1,0.8-3.3,0.8C78.6,42.5,77.5,42.3,76.6,41.7z M81.9,39.7c0.6-0.4,1.1-0.9,1.4-1.5
				c0.3-0.7,0.5-1.4,0.5-2.2c0-0.8-0.2-1.6-0.5-2.2s-0.8-1.2-1.4-1.5c-0.6-0.4-1.3-0.6-2-0.6c-0.7,0-1.4,0.2-2,0.6
				c-0.6,0.4-1.1,0.9-1.4,1.5c-0.3,0.7-0.5,1.4-0.5,2.2c0,0.8,0.2,1.6,0.5,2.2c0.3,0.7,0.8,1.2,1.4,1.5c0.6,0.4,1.3,0.6,2,0.6
				C80.6,40.3,81.3,40.1,81.9,39.7z"/>
			<path class="st8" d="M106,30.8c0.8,0.9,1.2,2,1.2,3.5v8h-2.5v-7.7c0-0.9-0.3-1.6-0.8-2.2c-0.5-0.6-1.2-0.8-2-0.8
				c-0.8,0-1.5,0.3-2,0.8c-0.5,0.6-0.8,1.3-0.8,2.2v7.7h-2.5v-7.7c0-0.9-0.3-1.6-0.8-2.2c-0.5-0.6-1.1-0.8-1.9-0.8
				c-0.8,0-1.5,0.3-2,0.8c-0.5,0.6-0.8,1.3-0.8,2.2v7.7h-2.5V29.7h2.5v1.6c0.4-0.6,0.9-1,1.5-1.4c0.6-0.3,1.3-0.5,2.1-0.5
				c0.9,0,1.7,0.2,2.3,0.6c0.6,0.4,1.1,1,1.4,1.8c0.4-0.8,1-1.3,1.7-1.8c0.7-0.4,1.6-0.6,2.5-0.6C104.1,29.5,105.2,29.9,106,30.8z"
				/>
			<path class="st8" d="M118.9,30.4c0.9,0.6,1.6,1.4,2.1,2.4c0.5,1,0.7,2.1,0.7,3.2c0,0.4,0,0.7,0,0.9h-9.9c0.2,1,0.6,1.8,1.3,2.4
				s1.5,0.9,2.5,0.9c0.6,0,1.2-0.1,1.8-0.4c0.5-0.3,1-0.7,1.4-1.2l1.9,1.3c-1.2,1.7-2.9,2.5-5,2.5c-1.2,0-2.3-0.3-3.2-0.9
				c-1-0.6-1.7-1.3-2.2-2.3c-0.5-1-0.8-2.1-0.8-3.3c0-1.2,0.3-2.3,0.8-3.3c0.5-1,1.3-1.8,2.2-2.3c0.9-0.6,2-0.8,3.2-0.8
				C116.9,29.5,118,29.8,118.9,30.4z M113.1,32.7c-0.7,0.6-1.1,1.5-1.3,2.5h7.6c-0.1-1-0.5-1.8-1.2-2.4c-0.7-0.7-1.5-1-2.6-1
				C114.7,31.7,113.8,32,113.1,32.7z"/>
		</g>
	</g>
	<g>
		<g>
			<path class="st4" d="M69.3,9c-3.1-3.1-5.9-5.9-9-9c-0.1,0.1-0.2,0.1-0.2,0.2c0,0-0.1,0.1-0.1,0.1c-0.2,0.2-0.4,0.4-0.6,0.6
				c0,0-0.1,0.1-0.1,0.1c-0.1,0.1-0.3,0.3-0.4,0.4c2.3,2.3,4.3,4.3,6.6,6.6c-0.5,0.1-0.8,0.5-0.8,1.1c0,2,0,4,0,6.1c0,1.7-1.4,3-3,3
				c-4.1,0-57.3,0-61.3,0c-0.1,0-0.1,0-0.2,0c0,0.7,0,1.4,0,2c0.1,0,0.2,0,0.2,0c2,0,53.1,0,55.2,0c1,0,2,0,3.1,0c1,0,2.1,0,3.1,0
				c2.7,0,5-2.1,5-4.7c0.1-2.1,0-4.2,0-6.3c0.4,0.4,0.8,0.8,1.1,1.1c0.1,0.1,0.2,0.2,0.3,0.2c0.6,0.5,1.4,0.2,1.6-0.5
				C69.8,9.7,69.6,9.4,69.3,9z"/>
		</g>
		<g>
			<path class="st4" d="M121.7,18.2c-4.1,0-58.6,0-62.7,0c-0.7,0-1.3-0.2-1.8-0.6C56.4,17,56,16.2,56,15.2c0-2,0-4,0-6
				c0-0.5-0.2-0.8-0.6-1c-0.1,0-0.1,0-0.2-0.1c2.2-2.3,4.4-4.4,6.6-6.6c-0.5-0.5-1-1-1.4-1.4c-3,3-5.9,5.9-9,9
				c-0.1,0.1-0.2,0.1-0.2,0.2c-0.5,0.6-0.2,1.4,0.5,1.6c0.5,0.2,0.8,0,1.2-0.4c0.4-0.4,0.8-0.8,1.2-1.2c0,2,0,3.9,0,5.9
				c0,2.8,2.3,5.1,5.1,5.1c2,0,4.1,0,6.1,0c1,0,2,0,3.1,0c1,0,52.5,0,53.6,0C121.8,20.3,121.8,18.2,121.7,18.2z"/>
		</g>
	</g>
</g>
</svg>
