<?xml version="1.0" encoding="utf-8"?>
<!-- Generator: Adobe Illustrator 26.0.1, SVG Export Plug-In . SVG Version: 6.00 Build 0)  -->
<svg version="1.1" id="Layer_1" xmlns="http://www.w3.org/2000/svg" xmlns:xlink="http://www.w3.org/1999/xlink" x="0px" y="0px"
	 viewBox="0 0 39.5 21.9" style="enable-background:new 0 0 39.5 21.9;" xml:space="preserve">
<style type="text/css">
	.st0{stroke:#000000;stroke-width:2;stroke-miterlimit:10;}
	.st1{stroke:#000000;stroke-miterlimit:10;}
	.st2{fill:none;stroke:#FF0000;stroke-width:0.25;stroke-miterlimit:10;}
	.st3{fill:none;stroke:#4400FF;stroke-width:0.25;stroke-miterlimit:10;}
	.st4{fill:#FF8A0B;}
	.st5{fill:#FF8A0B;stroke:#FF8A0B;stroke-width:2;stroke-miterlimit:10;}
	.st6{fill:none;stroke:#9B9797;stroke-width:0.25;stroke-miterlimit:10;}
	.st7{opacity:0.54;}
	.st8{fill:#0540F2;}
	.st9{fill:none;stroke:#0540F2;stroke-miterlimit:10;}
	.st10{fill:none;stroke:#FF8A0B;stroke-miterlimit:10;}
	.st11{fill:none;stroke:#000000;stroke-miterlimit:10;}
	.st12{fill:#EA7A0A;}
	.st13{fill:#1C5CF9;}
	.st14{fill:#FFFFFF;}
	.st15{clip-path:url(#SVGID_00000065041036375371791210000018420774095736213898_);}
	.st16{fill:none;stroke:#FF8A0B;stroke-width:0.25;stroke-miterlimit:10;}
	.st17{fill:#FF7F00;}
</style>
<g>
	<g>
		<path class="st4" d="M28.6,9.8c-3.3-3.3-6.4-6.4-9.7-9.7c-0.1,0.1-0.2,0.2-0.2,0.2c0,0-0.1,0.1-0.1,0.1c-0.2,0.2-0.4,0.4-0.7,0.6
			c0,0-0.1,0.1-0.1,0.1c-0.1,0.1-0.3,0.3-0.4,0.4C19.8,4,22,6.2,24.4,8.7c-0.5,0.1-0.9,0.5-0.9,1.1c0,2.2,0,4.4,0,6.6
			c0,1.8-1.5,3.3-3.3,3.3c-4.4,0-15.6,0-20,0c-0.1,0-0.1,0-0.2,0c0,0.7,0,1.5,0,2.2c0.1,0,0.2,0,0.3,0c2.2,0,11.2,0,13.4,0
			c1.1,0,2.2,0,3.3,0c1.1,0,2.2,0,3.3,0c2.9,0,5.4-2.3,5.4-5.1c0.1-2.3,0-4.5,0-6.8c0.4,0.4,0.8,0.8,1.2,1.2
			c0.1,0.1,0.2,0.2,0.3,0.3c0.6,0.5,1.5,0.2,1.7-0.5C29.2,10.5,29,10.1,28.6,9.8z"/>
	</g>
	<g>
		<path class="st4" d="M39.4,19.7c-4.4,0-17.5,0-22,0c-0.7,0-1.4-0.2-2-0.7c-0.8-0.7-1.3-1.5-1.3-2.6c0-2.2,0-4.4,0-6.5
			c0-0.5-0.2-0.9-0.7-1.1c-0.1,0-0.1-0.1-0.2-0.1C15.8,6.3,18,4,20.5,1.6c-0.5-0.5-1-1-1.6-1.6c-3.3,3.3-6.4,6.4-9.7,9.7
			C9.1,9.8,9.1,9.9,9,9.9c-0.5,0.6-0.2,1.5,0.5,1.8c0.5,0.2,0.9,0,1.3-0.4c0.4-0.4,0.8-0.8,1.3-1.3c0,2.1,0,4.2,0,6.4
			c0,3.1,2.5,5.5,5.5,5.5c2.2,0,4.4,0,6.6,0c1.1,0,2.2,0,3.3,0c1.1,0,10.9,0,12,0C39.5,21.9,39.5,19.7,39.4,19.7z"/>
	</g>
</g>
</svg>
