<svg id="Layer_1" data-name="Layer 1" xmlns="http://www.w3.org/2000/svg" viewBox="0 0 113.89 113.89"><defs><style>.cls-1{fill:#0c1f81;}.cls-2{fill:#ff8f0b;}.cls-3{fill:#eaeced;}.cls-4,.cls-5,.cls-6{fill:none;}.cls-5,.cls-6{stroke:#fff;stroke-linecap:round;}.cls-5{stroke-miterlimit:10;stroke-width:4px;}.cls-6{stroke-miterlimit:10;stroke-width:5px;}</style></defs><circle id="Ellipse_6-2" data-name="Ellipse 6-2" class="cls-1" cx="56.94" cy="56.94" r="56.94"/><g id="Path_156" data-name="Path 156"><path class="cls-2" d="M56.53,109.29A51.59,51.59,0,0,1,4.88,57.63,51.63,51.63,0,0,1,93.06,21.11a51.68,51.68,0,0,1-16.42,84.12A51.22,51.22,0,0,1,56.53,109.29Z"/><path class="cls-3" d="M56.53,8A49.65,49.65,0,0,0,21.42,92.75,49.67,49.67,0,1,0,56.53,8m0-4A53.66,53.66,0,1,1,2.88,57.63,53.66,53.66,0,0,1,56.53,4Z"/></g><rect id="Rectangle_64" data-name="Rectangle 64" class="cls-4" x="32.02" y="30.05" width="48.82" height="54.9"/><g id="Group_347" data-name="Group 347"><path id="Path_123" data-name="Path 123" class="cls-5" d="M78.79,74.78a26,26,0,1,1,.85-33.55"/><rect id="Rectangle_65" data-name="Rectangle 65" class="cls-1" x="41.32" y="39.78" width="35.45" height="17.72"/><path id="Path_125" data-name="Path 125" class="cls-6" d="M73.33,68.78a22.64,22.64,0,0,0-14.74-5.07c-5.5,0-9.38,1.95-13.59,5.46"/></g><rect id="Rectangle_66" data-name="Rectangle 66" class="cls-4" x="32.02" y="30.05" width="48.82" height="54.9"/></svg>