<svg id="Layer_1" data-name="Layer 1" xmlns="http://www.w3.org/2000/svg" viewBox="0 0 113.89 113.89"><defs><style>.cls-1{fill:#0c1f81;}.cls-2{fill:#ff8f0b;}.cls-3{fill:#eaeced;}.cls-4,.cls-5,.cls-6,.cls-7{fill:none;}.cls-5,.cls-6,.cls-7{stroke:#fff;stroke-linecap:round;}.cls-5,.cls-6{stroke-miterlimit:10;}.cls-5{stroke-width:4px;}.cls-6{stroke-width:5px;}.cls-7{stroke-miterlimit:10;stroke-width:5px;}</style></defs><circle id="Ellipse_6" data-name="Ellipse 6" class="cls-1" cx="56.94" cy="56.94" r="56.94"/><g id="Path_149" data-name="Path 149"><path class="cls-2" d="M56.73,109.45A51.67,51.67,0,0,1,36.62,10.2,51.65,51.65,0,0,1,93.25,94.32a51.39,51.39,0,0,1-36.52,15.13Z"/><path class="cls-3" d="M56.73,8.14A49.67,49.67,0,0,0,37.4,103.55,49.67,49.67,0,0,0,76.05,12a49.26,49.26,0,0,0-19.32-3.9m0-4A53.66,53.66,0,1,1,3.07,57.8,53.66,53.66,0,0,1,56.73,4.14Z"/></g><rect id="Rectangle_49" data-name="Rectangle 49" class="cls-4" x="32" y="30.21" width="48.82" height="54.9"/><rect id="Rectangle_52" data-name="Rectangle 52" class="cls-4" x="26.84" y="30.21" width="59.47" height="54.9"/><g id="Group_342" data-name="Group 342"><path id="Path_103" data-name="Path 103" class="cls-5" d="M78.76,75a25.92,25.92,0,1,1-2-36.6,25.17,25.17,0,0,1,2.89,3"/><path id="Path_105" data-name="Path 105" class="cls-1" d="M47.29,59.29,52.87,55l5.58-4.3.94,7,.94,7L53.81,62Z"/><path id="Path_107" data-name="Path 107" class="cls-1" d="M70.76,56l-5.58,4.31L59.6,64.65l-.94-7-.94-7,6.52,2.68Z"/><path id="Path_146" data-name="Path 146" class="cls-6" d="M71.56,42.84A23.28,23.28,0,0,0,55.71,40c-5.61.89-9.26,3.52-13,7.79"/><path id="Path_147" data-name="Path 147" class="cls-7" d="M43.52,69.27A23.31,23.31,0,0,0,58.11,76.1c5.65.59,9.86-1,14.58-4.16"/></g></svg>