<svg id="Layer_1" data-name="Layer 1" xmlns="http://www.w3.org/2000/svg" viewBox="0 0 113.89 113.89"><defs><style>.cls-1{fill:#0c1f81;}.cls-2{fill:#ff8f0b;}.cls-3,.cls-4,.cls-5,.cls-6,.cls-7{fill:none;}.cls-3{stroke:#eaeced;}.cls-3,.cls-5{stroke-width:4px;}.cls-5,.cls-6,.cls-7{stroke:#fff;stroke-linecap:round;}.cls-5{stroke-miterlimit:10;}.cls-6{stroke-miterlimit:10;stroke-width:5px;}.cls-7{stroke-miterlimit:10;stroke-width:5px;}</style></defs><circle id="Ellipse_6-3" data-name="Ellipse 6-3" class="cls-1" cx="56.94" cy="56.94" r="56.94"/><g id="Ellipse_5" data-name="Ellipse 5"><circle class="cls-2" cx="56.53" cy="57.63" r="53.66"/><circle class="cls-3" cx="56.53" cy="57.63" r="51.66"/></g><rect id="Rectangle_67" data-name="Rectangle 67" class="cls-4" x="32.02" y="30.05" width="48.82" height="54.9"/><g id="Group_346" data-name="Group 346"><path id="Path_126" data-name="Path 126" class="cls-5" d="M78.78,74.78a25.91,25.91,0,1,1-2-36.59,25.17,25.17,0,0,1,2.89,3"/><path id="Path_127" data-name="Path 127" class="cls-6" d="M42.13,65.58a21.63,21.63,0,0,0,11.54,9.48c4.93,1.83,9.08,1.37,14-.38"/><path id="Path_128" data-name="Path 128" class="cls-7" d="M72.05,44.64a21.49,21.49,0,0,0-14.27-4.38c-5.26.18-8.92,2.18-12.84,5.69"/><path id="Path_129" data-name="Path 129" class="cls-1" d="M64.16,57.5A5.49,5.49,0,1,1,58.67,52a5.48,5.48,0,0,1,5.49,5.48"/></g><rect id="Rectangle_68" data-name="Rectangle 68" class="cls-4" x="32.02" y="30.05" width="48.82" height="54.9"/></svg>