<svg id="Layer_1" data-name="Layer 1" xmlns="http://www.w3.org/2000/svg" viewBox="0 0 113.89 113.89"><defs><style>.cls-1{fill:#0c1f81;}.cls-2{fill:#ff8f0b;}.cls-3{fill:#eaeced;}.cls-4,.cls-5,.cls-6{fill:none;}.cls-5,.cls-6{stroke:#fff;stroke-linecap:round;stroke-miterlimit:10;}.cls-5{stroke-width:4px;}.cls-6{stroke-width:5px;}</style></defs><path id="Path_160" data-name="Path 160" class="cls-1" d="M56.94,0A56.95,56.95,0,1,1,0,56.94,56.94,56.94,0,0,1,56.94,0Z"/><g id="Path_154" data-name="Path 154"><path class="cls-2" d="M56.53,109.37A51.59,51.59,0,0,1,4.88,57.71,51.63,51.63,0,0,1,93.06,21.19a51.68,51.68,0,0,1-16.42,84.12A51.22,51.22,0,0,1,56.53,109.37Z"/><path class="cls-3" d="M56.53,8.06A49.65,49.65,0,0,0,21.42,92.83,49.67,49.67,0,1,0,56.53,8.06m0-4A53.66,53.66,0,1,1,2.88,57.71,53.65,53.65,0,0,1,56.53,4.06Z"/></g><rect id="Rectangle_69" data-name="Rectangle 69" class="cls-4" x="32.02" y="30.13" width="48.82" height="54.9"/><g id="Group_343" data-name="Group 343"><path id="Path_130" data-name="Path 130" class="cls-5" d="M78.78,74.86a25.91,25.91,0,1,1-2-36.59,25.17,25.17,0,0,1,2.89,3"/><path id="Path_131" data-name="Path 131" class="cls-1" d="M71.23,60.92A12.39,12.39,0,1,1,58.84,48.54h0A12.39,12.39,0,0,1,71.23,60.92"/><path id="Path_132" data-name="Path 132" class="cls-6" d="M45.22,46.1a17,17,0,0,1,9.57-6.71c6.24-1.55,13.08.92,17.67,6.26"/></g><rect id="Rectangle_70" data-name="Rectangle 70" class="cls-4" x="32.02" y="30.13" width="48.82" height="54.9"/></svg>