<svg id="Layer_1" data-name="Layer 1" xmlns="http://www.w3.org/2000/svg" viewBox="0 0 113.89 113.89"><defs><style>.cls-1{fill:#0c1f81;}.cls-2{fill:#ff8f0b;}.cls-3{fill:#eaeced;}.cls-4,.cls-5,.cls-6{fill:none;}.cls-5,.cls-6{stroke:#fff;stroke-linecap:round;stroke-miterlimit:10;}.cls-5{stroke-width:4px;}.cls-6{stroke-width:5px;}</style></defs><path id="Path_161" data-name="Path 161" class="cls-1" d="M56.94,0A56.95,56.95,0,1,1,0,56.94,56.94,56.94,0,0,1,56.94,0Z"/><g id="Path_152" data-name="Path 152"><path class="cls-2" d="M56.53,109.15A51.59,51.59,0,0,1,4.88,57.49,51.63,51.63,0,0,1,93.06,21a51.68,51.68,0,0,1-16.42,84.12A51.22,51.22,0,0,1,56.53,109.15Z"/><path class="cls-3" d="M56.53,7.83A49.65,49.65,0,0,0,21.42,92.61,49.67,49.67,0,1,0,56.53,7.83m0-4A53.66,53.66,0,1,1,2.88,57.49,53.66,53.66,0,0,1,56.53,3.83Z"/></g><rect id="Rectangle_59" data-name="Rectangle 59" class="cls-4" x="32.02" y="29.91" width="48.82" height="54.9"/><path id="Path_117" data-name="Path 117" class="cls-1" d="M65.29,74.42a17.73,17.73,0,0,1,0-35.45"/><g id="Group_345" data-name="Group 345"><path id="Path_116" data-name="Path 116" class="cls-5" d="M78.78,74.64a25.91,25.91,0,1,1-2-36.59,25.17,25.17,0,0,1,2.89,3"/><rect id="Rectangle_60" data-name="Rectangle 60" class="cls-1" x="47.56" y="38.97" width="17.72" height="35.45"/><path id="Path_118" data-name="Path 118" class="cls-6" d="M46.43,42.07a23.22,23.22,0,0,0-4.87,15.35c.14,5.67,2.26,9.64,6,13.91"/></g><rect id="Rectangle_61" data-name="Rectangle 61" class="cls-4" x="32.02" y="29.91" width="48.82" height="54.9"/></svg>