<svg id="Layer_1" data-name="Layer 1" xmlns="http://www.w3.org/2000/svg" viewBox="0 0 113.89 113.89"><defs><style>.cls-1{fill:#0c1f81;}.cls-2{fill:#ff8f0b;}.cls-3{fill:#eaeced;}.cls-4,.cls-5,.cls-6,.cls-7{fill:none;}.cls-5,.cls-6,.cls-7{stroke:#fff;}.cls-5,.cls-7{stroke-miterlimit:10;}.cls-5{stroke-width:4px;}.cls-6,.cls-7{stroke-linecap:round;}.cls-6{stroke-miterlimit:10;stroke-width:5px;}.cls-7{stroke-width:5px;}</style></defs><circle id="Ellipse_6-2" data-name="Ellipse 6-2" class="cls-1" cx="56.94" cy="56.94" r="56.94"/><g id="Path_150" data-name="Path 150"><path class="cls-2" d="M56.73,109.45A51.67,51.67,0,0,1,36.62,10.2,51.65,51.65,0,0,1,93.25,94.32a51.39,51.39,0,0,1-36.52,15.13Z"/><path class="cls-3" d="M56.73,8.14A49.67,49.67,0,0,0,37.4,103.55,49.67,49.67,0,0,0,76.05,12a49.26,49.26,0,0,0-19.32-3.9m0-4A53.66,53.66,0,1,1,3.07,57.8,53.66,53.66,0,0,1,56.73,4.14Z"/></g><rect id="Rectangle_53" data-name="Rectangle 53" class="cls-4" x="32.21" y="30.21" width="48.82" height="54.9"/><g id="Group_341" data-name="Group 341"><path id="Path_108" data-name="Path 108" class="cls-5" d="M77.06,75a26,26,0,1,1,.85-33.56"/><path id="Path_109" data-name="Path 109" class="cls-6" d="M39.19,57.19A23.27,23.27,0,0,0,46.4,71.6c4.06,4,8.35,5.33,14,5.78"/><path id="Path_110" data-name="Path 110" class="cls-7" d="M70.09,42.31A23.25,23.25,0,0,0,54.23,39.5c-5.61.88-9.26,3.51-13,7.78"/><rect id="Rectangle_54" data-name="Rectangle 54" class="cls-1" x="49.4" y="52.76" width="12.53" height="12.53"/><rect id="Rectangle_55" data-name="Rectangle 55" class="cls-1" x="57.19" y="46.41" width="12.53" height="12.53"/></g><rect id="Rectangle_56" data-name="Rectangle 56" class="cls-4" x="32.21" y="30.21" width="48.82" height="54.9"/></svg>