<svg id="Layer_1" data-name="Layer 1" xmlns="http://www.w3.org/2000/svg" viewBox="0 0 113.89 113.89"><defs><style>.cls-1{fill:#0c1f81;}.cls-2{fill:#ff8f0b;}.cls-3{fill:#eaeced;}.cls-4,.cls-5,.cls-6{fill:none;}.cls-5,.cls-6{stroke:#fff;stroke-linecap:round;stroke-miterlimit:10;}.cls-5{stroke-width:4px;}.cls-6{stroke-width:5px;}</style></defs><path id="Path_162" data-name="Path 162" class="cls-1" d="M56.94,0A56.95,56.95,0,1,1,0,56.94,56.94,56.94,0,0,1,56.94,0Z"/><g id="Path_151" data-name="Path 151"><path class="cls-2" d="M56.53,109.45A51.63,51.63,0,0,1,20,21.27a51.68,51.68,0,0,1,84.12,16.42,51.62,51.62,0,0,1-47.6,71.76Z"/><path class="cls-3" d="M56.53,8.14a49.67,49.67,0,0,0-19.32,95.41A49.67,49.67,0,0,0,75.86,12a49.31,49.31,0,0,0-19.33-3.9m0-4A53.66,53.66,0,1,1,2.88,57.8,53.65,53.65,0,0,1,56.53,4.14Z"/></g><rect id="Rectangle_57" data-name="Rectangle 57" class="cls-4" x="32.02" y="30.21" width="48.82" height="54.9"/><g id="Group_340" data-name="Group 340"><path id="Path_111" data-name="Path 111" class="cls-5" d="M78.78,75a25.92,25.92,0,1,1-2-36.6,25.17,25.17,0,0,1,2.89,3"/><path id="Path_112" data-name="Path 112" class="cls-1" d="M64.47,65.57A5.48,5.48,0,1,1,59,60.09h0a5.48,5.48,0,0,1,5.48,5.48"/><path id="Path_115" data-name="Path 115" class="cls-6" d="M45.37,57.66A17.06,17.06,0,0,1,54.94,51c6.24-1.55,13.08.91,17.67,6.26"/><path id="Path_148" data-name="Path 148" class="cls-6" d="M45.37,48.07a17.06,17.06,0,0,1,9.57-6.7c6.24-1.55,13.08.91,17.67,6.26"/></g><rect id="Rectangle_58" data-name="Rectangle 58" class="cls-4" x="32.02" y="30.21" width="48.82" height="54.9"/></svg>