<svg id="Layer_1" data-name="Layer 1" xmlns="http://www.w3.org/2000/svg" viewBox="0 0 113.89 113.89"><defs><style>.cls-1{fill:#0c1f81;}.cls-2{fill:#ff8f0b;}.cls-3{fill:#eaeced;}.cls-4,.cls-5,.cls-6{fill:none;}.cls-5,.cls-6{stroke:#fff;stroke-linecap:round;}.cls-5{stroke-miterlimit:10;stroke-width:4px;}.cls-6{stroke-miterlimit:10;stroke-width:5px;}</style></defs><circle id="Ellipse_6" data-name="Ellipse 6" class="cls-1" cx="56.94" cy="56.94" r="56.94"/><g id="Path_153" data-name="Path 153"><path class="cls-2" d="M56.53,109.37A51.59,51.59,0,0,1,4.88,57.71,51.63,51.63,0,0,1,93.06,21.19a51.68,51.68,0,0,1-16.42,84.12A51.22,51.22,0,0,1,56.53,109.37Z"/><path class="cls-3" d="M56.53,8.06A49.65,49.65,0,0,0,21.42,92.83,49.67,49.67,0,1,0,56.53,8.06m0-4A53.66,53.66,0,1,1,2.88,57.71,53.65,53.65,0,0,1,56.53,4.06Z"/></g><rect id="Rectangle_62" data-name="Rectangle 62" class="cls-4" x="32.02" y="30.13" width="48.82" height="54.9"/><g id="Group_344" data-name="Group 344"><path id="Path_119" data-name="Path 119" class="cls-1" d="M44.89,55.28a14.3,14.3,0,1,1,28.6,0"/><path id="Path_120" data-name="Path 120" class="cls-5" d="M78.79,74.86a26,26,0,1,1,.85-33.55"/><path id="Path_122" data-name="Path 122" class="cls-6" d="M73.28,67.56a22.63,22.63,0,0,0-14.65-5.32c-5.49-.1-9.4,1.79-13.67,5.22"/></g><rect id="Rectangle_63" data-name="Rectangle 63" class="cls-4" x="32.02" y="30.13" width="48.82" height="54.9"/></svg>