<svg id="Layer_1" data-name="Layer 1" xmlns="http://www.w3.org/2000/svg" viewBox="0 0 113.89 113.89"><defs><style>.cls-1{fill:#0c1f81;}.cls-2{fill:#ff8f0b;}.cls-3{fill:#eaeced;}.cls-4,.cls-5,.cls-6{fill:none;}.cls-5,.cls-6{stroke:#fff;stroke-linecap:round;stroke-miterlimit:10;}.cls-5{stroke-width:4px;}.cls-6{stroke-width:5px;}</style></defs><circle id="Ellipse_6" data-name="Ellipse 6" class="cls-1" cx="56.94" cy="56.94" r="56.94"/><g id="Path_155" data-name="Path 155"><path class="cls-2" d="M56.53,109.29A51.59,51.59,0,0,1,4.88,57.63,51.63,51.63,0,0,1,93.06,21.11a51.68,51.68,0,0,1-16.42,84.12A51.22,51.22,0,0,1,56.53,109.29Z"/><path class="cls-3" d="M56.53,8A49.65,49.65,0,0,0,21.42,92.75,49.67,49.67,0,1,0,56.53,8m0-4A53.66,53.66,0,1,1,2.88,57.63,53.66,53.66,0,0,1,56.53,4Z"/></g><rect id="Rectangle_71" data-name="Rectangle 71" class="cls-4" x="32.02" y="30.05" width="48.82" height="54.9"/><path id="Path_134" data-name="Path 134" class="cls-1" d="M41.19,64.78a17.73,17.73,0,0,1,35.45,0"/><g id="Group_348" data-name="Group 348"><path id="Path_133" data-name="Path 133" class="cls-5" d="M78.78,74.78a25.91,25.91,0,1,1-2-36.59,25.17,25.17,0,0,1,2.89,3"/><rect id="Rectangle_72" data-name="Rectangle 72" class="cls-1" x="41.19" y="47.06" width="35.45" height="17.72"/><path id="Path_135" data-name="Path 135" class="cls-6" d="M73.08,46.87a22.64,22.64,0,0,0-14.71-5.18c-5.49,0-9.38,1.89-13.62,5.37"/><path id="Path_136" data-name="Path 136" class="cls-6" d="M44.77,67.94a22.62,22.62,0,0,0,14.46,5.84c5.49.29,9.47-1.46,13.85-4.74"/></g><rect id="Rectangle_73" data-name="Rectangle 73" class="cls-4" x="32.02" y="30.05" width="48.82" height="54.9"/></svg>