<svg id="Layer_1" data-name="Layer 1" xmlns="http://www.w3.org/2000/svg" xmlns:xlink="http://www.w3.org/1999/xlink" viewBox="0 0 113.89 113.89"><defs><style>.cls-1,.cls-4{fill:none;}.cls-2{fill:#0c1f81;}.cls-3{fill:#ff8f0b;}.cls-4{stroke:#eaeced;stroke-width:4px;}.cls-5{clip-path:url(#clip-path);}.cls-6{fill:#fff;}</style><clipPath id="clip-path"><rect class="cls-1" x="33.3" y="30.35" width="47.29" height="53.18"/></clipPath></defs><circle id="Ellipse_6-3" data-name="Ellipse 6-3" class="cls-2" cx="56.94" cy="56.94" r="56.94"/><g id="Ellipse_5" data-name="Ellipse 5"><circle class="cls-3" cx="56.53" cy="57.63" r="53.66"/><circle class="cls-4" cx="56.53" cy="57.63" r="51.66"/></g><g id="Group_307" data-name="Group 307"><g class="cls-5"><g id="Group_306" data-name="Group 306"><g id="Group_305" data-name="Group 305"><g id="Group_304" data-name="Group 304"><g class="cls-5"><g id="Group_303" data-name="Group 303"><g id="Path_137" data-name="Path 137"><path class="cls-6" d="M59.88,83.44A26.49,26.49,0,1,1,80.53,40.3a1.4,1.4,0,0,1-2.19,1.76,24.75,24.75,0,0,0-2.64-2.78,23.7,23.7,0,1,0,1.85,33.47,1.41,1.41,0,0,1,2.1,1.87A26.44,26.44,0,0,1,59.88,83.44Z"/></g></g></g></g></g><g id="Path_138" data-name="Path 138"><path class="cls-6" d="M60.92,75.46l-1.2,0a23.16,23.16,0,0,1-14.76-6,1.2,1.2,0,1,1,1.62-1.78A20.78,20.78,0,0,0,59.85,73c4.57.24,8.12-1,12.63-4.36a1.2,1.2,0,0,1,1.44,1.93C69.37,74,65.52,75.46,60.92,75.46Z"/></g><g id="Path_139" data-name="Path 139"><path class="cls-2" d="M71.49,55.88a12,12,0,1,1-12-12h0a12,12,0,0,1,12,12"/></g></g></g></g></svg>