<svg id="Layer_1" data-name="Layer 1" xmlns="http://www.w3.org/2000/svg" viewBox="0 0 158.33 159.45"><defs><style>.cls-1{fill:#161615;}.cls-2{fill:#d7006c;}.cls-3{fill:#fff;}.cls-4{fill:#ca247c;}.cls-5{fill:none;stroke:#040405;stroke-miterlimit:10;stroke-width:1.5px;}</style></defs><path id="Path_461" data-name="Path 461" class="cls-1" d="M79.59,159.45C76.36,146.14,48.48,138.56,40.05,149c3.48-11.82-10.31-31.23-25.72-23.5C25.17,114.22,12.28,94.15,0,94.86c11.69-3.85,18.83-31.73,4-39,12.43,3,27.35-31.6,21.5-38.4,8.25,5.85,27.5,2,25-11C55.67,15,93.28,13.73,96.7,0c-.38,7.43,28.24,21.54,33.65,16.83-8.54,11.41,5.23,27.58,14,23.76-11.31,8,3.52,31.92,14,32.21-10,2.15-21.88,19.1-6.25,26.08-13.31-.2-22.45,17.27-12.55,27.79-10.56-4.65-30.13,9.23-26,24.24-5.72-7.55-31.57-2.25-34,8.54"/><path id="Path_462" data-name="Path 462" class="cls-2" d="M80.05,146.92c-2.67-11-25.72-17.27-32.7-8.64,2.88-9.77-8.52-25.82-21.26-19.43,9-9.33,1.35-30.53-8.64-31.12,11.07-2.8,11.76-34.65,3.1-40.37C29.75,51.1,46,35.86,43.1,26.94c8.07,8.26,23.3-.66,24.27-9.36,4.14,10.7,24,8.85,26.82-2.5-.31,6.15,23.23,25.82,32.1,17.91-4,5,1.15,32.85,13.23,29.89-8.48,3.21-10,21.77,3.08,25.31-13.71.74-21.18,22.93-13,31.63-8.73-3.84-24.91,7.64-21.46,20-4.73-6.23-26.11-1.86-28.09,7.06"/><path id="Path_463" data-name="Path 463" class="cls-3" d="M124,75.18a46.7,46.7,0,1,1-46.7-46.7A46.7,46.7,0,0,1,124,75.18h0"/><path id="Path_464" data-name="Path 464" class="cls-4" d="M114.6,121.22c-1.44-1.58-17.22,8.9-42.6,8.4-12.36-.24-20.38-3-21.3-1.48-1.18,1.9,10,9.72,23.36,10.87,22.48,1.94,42.27-15.89,40.54-17.78"/><path id="Path_465" data-name="Path 465" class="cls-3" d="M81,103.22c-1.3-3.36-12.36-4.16-14.85-.29.88-4.59-5.57-10.35-10.24-7.19,3.63-4.65-1.87-18.8-7-19.32,6.47-1.29,6.76-6.67,1.32-9.33,4.54,1.09,11.58-9.53,9.27-12.42,1.87,2.24.72.88-1.42-1.6,3,2.14,17-1.1,17.75-6C77,51.78,85.64,52,87.39,48.91c-.77,3.39,8.71,10.82,12,8.8C96,61.05,99.11,72.24,105,71.87c-3.35,1-5.67,13.64-2.2,16-5.06-1.56-9.66,4.71-6.48,9.76-2.7-2.25-14.93,2.58-15.27,5.59"/><path id="Path_466" data-name="Path 466" class="cls-5" d="M81,103.22c-1.3-3.36-12.36-4.16-14.85-.29.88-4.59-5.57-10.35-10.24-7.19,3.63-4.65-1.87-18.8-7-19.32,6.47-1.29,6.76-6.67,1.32-9.33,4.54,1.09,11.58-9.53,9.27-12.42,1.87,2.24.72.88-1.42-1.6,3,2.14,17-1.1,17.75-6C77,51.78,85.64,52,87.39,48.91c-.77,3.39,8.71,10.82,12,8.8C96,61.05,99.11,72.24,105,71.87c-3.35,1-5.67,13.64-2.2,16-5.06-1.56-9.66,4.71-6.48,9.76C93.57,95.37,81.34,100.2,81,103.22Z"/><path id="Path_467" data-name="Path 467" class="cls-1" d="M91.43,75.31a15.1,15.1,0,1,1-15.1-15.1h0a15.1,15.1,0,0,1,15.1,15.1"/></svg>