<svg id="Layer_1" data-name="Layer 1" xmlns="http://www.w3.org/2000/svg" viewBox="0 0 128.28 155.62"><defs><style>.cls-1{fill:#040405;}.cls-2{fill:#d7006c;}.cls-3{fill:#e13433;}</style></defs><g id="Group_301" data-name="Group 301"><path id="Path_447" data-name="Path 447" class="cls-1" d="M77.82,155.62h-28c-61.31,0-53.72-94.15-41.11-133.7a50.34,50.34,0,0,1,6.07-7.35A49.46,49.46,0,0,1,49.81,0h28a49.31,49.31,0,0,1,31.5,11.37,48.7,48.7,0,0,1,4.09,3.77c13.06,13.48,14.09,34.38,14.53,52.06.5,20.31,1.64,41.94-7.12,60.85-5.84,12.62-15.16,22-33,26.55a49.79,49.79,0,0,1-10,1"/><path id="Path_448" data-name="Path 448" class="cls-2" d="M76.87,121.33A12.92,12.92,0,1,1,64,108.41a12.92,12.92,0,0,1,12.91,12.92h0"/><path id="Path_449" data-name="Path 449" class="cls-3" d="M73.19,121.33A9.24,9.24,0,1,1,64,112.09a9.22,9.22,0,0,1,9.24,9.24h0"/><path id="Path_450" data-name="Path 450" class="cls-2" d="M36.59,15c1.1,1.28,15.47-4.64,37.13-1.76,10.54,1.4,17.18,4.14,18.09,3.18C93,15.21,84,8.5,72.73,6.35,53.67,2.73,35.27,13.51,36.59,15"/><path id="Path_451" data-name="Path 451" class="cls-3" d="M43.61,41.84c-.73,2.14-2.77,8.11.47,11.71,2.17,2.42,6.49,3.51,8.9,1.87,3.56-2.42.29-9,4.21-12.18,2.34-1.9,6.05-1.65,8.44-.46,5.53,2.73,5.61,11.26,5.62,12.64.1,11-8.64,21.08-10.78,23.43-2.67,2.94-5.8,5.6-6.56,10.3-.18,1.19-.73,4.63,1.41,7,2.72,3,8.44,2.93,10.77.47,2-2.08.56-4.78.94-8.9.68-7.32,6.19-9.66,11.25-16.87.62-.88,9-13.21,7-27.64C84.87,40.1,83.19,28,74.53,24c-11.15-5.15-27,6.25-30.92,17.8"/></g></svg>