<svg id="Layer_1" data-name="Layer 1" xmlns="http://www.w3.org/2000/svg" viewBox="0 0 160.54 167.18"><defs><style>.cls-1{fill:#df2824;}.cls-2{fill:#4f0c0f;}.cls-3{fill:#d02e31;}.cls-4{fill:#040405;}.cls-5{fill:#fff;}.cls-6{fill:none;stroke:#040405;stroke-miterlimit:10;}.cls-7{fill:#161615;}</style></defs><path id="Path_360" data-name="Path 360" class="cls-1" d="M96,162.08c-1.45-8.77-3.34-12.82-4.27-4.47-3.6-9.3-6.24-6.19-8.67,4.71-3.27-13.45-6.2-15.49-9.83-1.65-1.25-12.47-3.19-9.07-5,1.8-.88-10.86-2.74-14.51-8.4-4,.74-13.29-2.31-12.39-9.21-1.68,2.42-12.71,1-15.61-7.52-5,3.52-12-.06-10.44-8-2.38,5.14-11.23,5.88-15.9-4.92-6.94,8.3-14,5-14.27-7.88-5.52,10-12.89,10.4-16.72-5.16-8.91,11-11.4,6-11.17-7.18-6.31,7.3-5.53,10.48-14.52-1.83-11.69,12.53-6.71,6.94-13.69-5.47-13C23.09,93,15,77,0,73.31,15.26,74,21.69,65,6.65,57.6c12.56,3,20.42-2.62,5-12.39,13.57,5.87,18.71-3.46,7.87-14.69,10.29,6.75,16.57-.57,9.52-9.71,7.64,8.47,20.33,2.3,16.72-10.88,7.8,10.7,13.32,1.63,12.2-7.24,4.86,8.17,17.35,13.06,19.51-.52C80.6,15.22,90.8,8,93.81,0c-.83,14.55,3.1,15.06,6.55,1.19-.38,7.52,4.22,14.66,9.06,6.09-2.13,9.4,4.88,6.14,8.83.21-2.1,6.86,2.73,18.93,8.93,13.16-2.17,5.23,1.58,12.1,12.42,2.43-4.84,6.13-6.31,19.54,5.17,13-6.64,6.46-6.16,14.82,6.82,9.74-12,7.66-10.06,10.63-2.76,8.3-7.18,7.85,2.06,8.64,11.71,6.93C151,63.83,141.87,71.85,158,70.82c-11.71,3.07-11.58,8.17.74,10.26-16.6,2.51-15.18,5.14.76,9.47-16.76.9-19,3.51-3.19,10.57-13.46-.2-14,7.45-4.4,14-14-4.3-13.56-1.66-2.44,7.37-13.26-5.14-15.85-3.9-5.85,6.73-10.67-4.7-8.74,0-3,8.48-11.62-8.66-15.5-9.55-6.7,4.45-7.46-6.24-10.27-7.1-6.38.71-5.7-4.47-4.7-.27-1.59,7.27-9.16-10.3-12.83-11.58-8.62,3.58-5.78-7.62-8.59-9.2-7.22-.65-4.74-5.92-5.31-1.7-4.66,6.73-4.47-11.67-6.63-15.3-4.42-1.72-5.1-13.06-5.82-8.9-5.09,4"/><path id="Path_361" data-name="Path 361" class="cls-1" d="M95.13,167.18H67.68C7.6,167.18,15,82.58,27.4,47a46.52,46.52,0,0,1,6-6.6,50.78,50.78,0,0,1,34.33-13.1H95.13A51.09,51.09,0,0,1,126,37.56,47.76,47.76,0,0,1,130,41c12.8,12.11,13.8,30.89,14.23,46.78.5,18.25,1.62,37.68-7,54.68-5.73,11.34-14.86,19.81-32.38,23.86a53.31,53.31,0,0,1-9.76.91"/><path id="Path_362" data-name="Path 362" class="cls-2" d="M48.35,34.89a60.93,60.93,0,0,1,6.83-6c25-18.75,50.22-3.57,64.27,8"/><path id="Path_363" data-name="Path 363" class="cls-3" d="M40.4,37C44.82,41.29,52.54,46.57,63,50.46c29.24,10.87,54.84-11.38,58.3-13.8"/><path id="Path_364" data-name="Path 364" class="cls-4" d="M64.82,30.15A27.67,27.67,0,0,1,68,27.41c11.61-8.53,23.31-1.63,29.84,3.65"/><path id="Path_365" data-name="Path 365" class="cls-5" d="M81.13,64.93c-.58,15.24-12.37,27.62-27.62,27.62A27.62,27.62,0,0,1,25.89,64.93c0-15.26,6.1-29.61,19.59-22.51C61,50.6,81.4,57.55,81.13,64.93"/><path id="Path_366" data-name="Path 366" class="cls-6" d="M81.13,64.93c-.58,15.24-12.37,27.62-27.62,27.62A27.62,27.62,0,0,1,25.89,64.93c0-15.26,6.1-29.61,19.59-22.51C61,50.6,81.4,57.55,81.13,64.93Z"/><path id="Path_367" data-name="Path 367" class="cls-7" d="M71.15,64.31A19.08,19.08,0,1,1,52.08,45.23,19.07,19.07,0,0,1,71.15,64.31"/><path id="Path_368" data-name="Path 368" class="cls-5" d="M60.77,64a9.06,9.06,0,1,1-9.05-9h0a9,9,0,0,1,9.05,9h0"/><path id="Path_369" data-name="Path 369" class="cls-4" d="M31.08,92.16c.86-.94,10.19,5.26,25.2,5,7.31-.15,12.06-1.75,12.6-.88.7,1.12-5.94,5.75-13.82,6.43-13.29,1.14-25-9.4-24-10.52"/><path id="Path_370" data-name="Path 370" class="cls-4" d="M53.14,71.5c-.14-.83-.32-1.22-.41-.43-.34-.88-.59-.58-.82.45-.31-1.27-.58-1.47-.93-.16-.12-1.18-.3-.85-.47.17-.08-1-.26-1.37-.8-.37.07-1.26-.21-1.18-.87-.16.23-1.21.1-1.48-.71-.48.33-1.13,0-1-.76-.23.48-1.06.55-1.5-.47-.65.79-1.32.48-1.35-.74-.53,1-1.22,1-1.58-.49-.84,1-1.08.56-1.06-.68-.6.69-.52,1-.84.22-.64.95-.63.77-.74-.4-.47,1.19-.63,1.39-.9.08-.73,1-.49.58-.56-.6-.49,1.12-.37,1.53-.6.37-.67,1.28-.33,1-.49-.34-.62,1.7-.34,1.14-.61-.28-1,1.44.06,2,0,.37-.32,1.31.16,1.58.16.32-.13,1.11.16.7,0-.42-.22,1.12.2,1.54.27.46,0,1.24.25,1,.18-.28-.12,1.61.34,1.06.22-.31-.08,1.36.12,1.91.07.49-.63,1.19.29,1.45.27.39-.27,1,.28.66,0-.27-.47,1.58.54,1.81.5.36-.43,1.28.56.88.23-.13-.43,1.07.43,1.54.53.59-.38,1.36.74,1.3.48.28-.58,1,.64,1.28.73.61-.09.67.49.38.08-.2-.62.67.58,1.05.87.58.22.72.69.58.44-.08-.43.72.8.91,1,.3.23.49.59.19.23-.37-.42.79.56,1.24.74.9-.29.94.95,1.09.7.75-.55.74,1,1,1,.74-.21.5.81.52.36.41-.48.46.78.8,1.16.91.15.48,1.24.74,1.09.94-.2.29,1.24.54,1.34.86.1.16.89.4.46.69-.31-.08,1.38-.07,1.94.38.37-.26,1.59-.09,1.06.24-.25,0,.71,0,1.17.29.7-.1.82.1.69.56-.13-.2.9-.15,1.1.29.43-.1.52.17.16.55-.4-.2.64-.3,1.1.08.73-.27.75-.06.68.55,0-.38.82-.37,1,.22.5-.21.5.16.22.68-.23-.82,1.09-1.14,1.59,0,.47-1,1.26-.56.91.46,0-.46.58-.74,1-.23.69-.57.68-.34.65.51.12-.88.88-.87,1,.21.42-.63.62-.17.45.56.11-.66.5-1,.84-.2.47-1.08.77-.94.83.29.35-1.14.72-1.18.91.13.51-.84.52-.33.47.54.3-.81.28-1.32.47-.63.25-1,.36-.72.31.39,0-1.33.49-1.43.59,0,.24-1,.38-.46.3.46.14-.91.26-1.43.43-.37.24-1.43.41-1.3.46.17.26-1.45.39-1.57.52,0,.43-1.11.29-.56.34.44.37-1,.21-1.54.4-.37.6-1.57.24-1.44.49.07.9-1.59.09-1.8.33-.3,1-1.28,0-.84.39.07,1-.94-.24-1.4-.28-.49.34-1.33-.41-1.28-.16-.23.7-1.26-.49-1.5-.37-.55.63-1-.44-.83,0-.28.8-1.1-.82-1.47-.9-.64.43-.71-.6-1-.68-.6.06-.54-.42-.45,0-.15.69-.87-1-1.22-1.1-.82.34-.55-.72-.81-.87-.68-.06-.45-.56-.5-.16-.44.64-.43-1.11-.63-1.45-.42-.17-.49-1.23-.55-.84-.49.38"/><path id="Path_371" data-name="Path 371" class="cls-5" d="M82.21,64.93c.58,15.24,12.37,27.62,27.62,27.62a27.62,27.62,0,0,0,27.62-27.62c0-15.26-6.1-29.61-19.59-22.51C102.33,50.6,81.93,57.55,82.21,64.93"/><path id="Path_372" data-name="Path 372" class="cls-6" d="M82.21,64.93c.58,15.24,12.37,27.62,27.62,27.62a27.62,27.62,0,0,0,27.62-27.62c0-15.26-6.1-29.61-19.59-22.51C102.34,50.6,81.93,57.55,82.21,64.93Z"/><path id="Path_373" data-name="Path 373" class="cls-7" d="M92.18,64.31a19.08,19.08,0,1,0,19.08-19.08A19.08,19.08,0,0,0,92.18,64.31"/><path id="Path_374" data-name="Path 374" class="cls-5" d="M102.56,64a9.06,9.06,0,1,0,9.06-9h0a9,9,0,0,0-9,9h0"/><path id="Path_375" data-name="Path 375" class="cls-4" d="M132.26,92.16c-.86-.94-10.19,5.26-25.2,5C99.75,97,95,95.38,94.46,96.25c-.7,1.12,5.94,5.75,13.81,6.43,13.3,1.14,25-9.4,24-10.52"/><path id="Path_376" data-name="Path 376" class="cls-4" d="M110.2,71.5c.13-.83.31-1.22.4-.43.34-.88.59-.58.82.45.31-1.27.59-1.47.93-.16.12-1.18.3-.85.48.17.08-1,.26-1.37.79-.37-.06-1.26.22-1.18.88-.16-.23-1.21-.1-1.48.71-.48-.33-1.13,0-1,.76-.23-.49-1.06-.56-1.5.46-.65-.78-1.32-.47-1.35.75-.53-1-1.22-1-1.58.49-.84-1-1.08-.56-1.06.68-.6-.69-.52-1-.84-.22-.64-.95-.63-.77-.74.39-.47-1.18-.63-1.38-.9-.07-.73-1-.49-.58-.56.6-.49-1.12-.37-1.53-.6-.37-.67-1.28-.33-1-.49.34-.62-1.7-.34-1.14-.61.28-1-1.45.06-2,0-.37-.32-1.31.16-1.58.16-.32-.13-1.11.16-.7,0,.42-.22-1.12.2-1.54.27-.46,0-1.24.25-1,.18.28-.12-1.61.34-1.06.22.31-.08-1.37.12-1.91.07-.49-.63-1.19.29-1.46.27-.39-.27-1,.28-.66,0,.27-.47-1.58.54-1.82.5-.36-.43-1.28.56-.88.23.13-.43-1.07.43-1.54.53-.6-.38-1.35.74-1.3.48-.27-.58-1,.64-1.28.73-.61-.09-.67.49-.38.08.2-.62-.67.58-1.05.87-.59.22-.71.69-.58.44.09-.43-.72.8-.91,1-.3.23-.49.59-.19.23.37-.42-.79.56-1.24.74-.9-.29-.94.95-1.09.7-.75-.55-.74,1-1,1-.74-.21-.5.81-.52.36-.41-.48-.46.78-.8,1.16-.91.15-.48,1.24-.74,1.09-.94-.2-.3,1.24-.54,1.34-.87.1-.15.89-.4.46-.68-.31.08,1.38.06,1.94-.38.37.26,1.59.09,1.06-.24-.25,0,.71,0,1.17-.29.7.1.82-.11.69-.56-.13.2.9.14,1.1-.29.43.1.52-.18.16-.55-.4.2.64.3,1.1-.08.73.27.75.06.68-.55,0,.38.82.37,1-.22.5.21.5-.16.22-.68-.23.82,1.09,1.14,1.59,0,.47,1,1.26.56.91-.46,0,.46.58.74,1,.23.69.57.68.34.65-.51.12.88.88.87,1-.21.42.63.62.17.45-.56.11.66.5,1,.84.2.47,1.08.77.94.83-.29.35,1.14.72,1.18.91-.13.51.84.52.33.47-.54.3.81.28,1.32.47.63.25,1,.36.72.31-.39,0,1.33.49,1.43.59,0,.24,1,.38.46.3-.46.14.91.26,1.43.43.37.24,1.43.41,1.3.46-.17.26,1.45.39,1.57.52,0,.43,1.11.29.56.34-.44.37,1,.21,1.54.4.37.6,1.57.24,1.44.49-.07.9,1.59.09,1.8.33.3,1,1.28,0,.84.39-.07,1,.94-.24,1.4-.28.49.34,1.33-.41,1.28-.16.23.7,1.26-.49,1.5-.37.55.63,1-.44.83,0,.28.8,1.1-.82,1.47-.9.64.43.71-.6,1-.68.6.06.54-.42.45,0,.15.69.87-1,1.22-1.1.82.34.55-.72.81-.87.68-.06.45-.56.5-.16.44.64.43-1.11.63-1.45.42-.17.49-1.23.55-.84.49.38"/><path id="Path_377" data-name="Path 377" class="cls-4" d="M35.75,39.05c-.43,2.36,41.88,22.22,43.62,21,2.24-1.53,1.91-15-5.08-22.18-11.8-12.12-38-1.68-38.54,1.14"/><path id="Path_378" data-name="Path 378" class="cls-4" d="M126.19,39.05c.43,2.36-41.88,22.22-43.62,21-2.24-1.53-1.91-15,5.08-22.18,11.8-12.12,38-1.68,38.54,1.14"/></svg>