<svg id="Layer_1" data-name="Layer 1" xmlns="http://www.w3.org/2000/svg" xmlns:xlink="http://www.w3.org/1999/xlink" viewBox="0 0 91.25 140.79"><defs><style>.cls-1{fill:none;}.cls-2{clip-path:url(#clip-path);}.cls-3{fill:#d8006b;}</style><clipPath id="clip-path"><rect class="cls-1" width="91.25" height="140.79"/></clipPath></defs><g id="Group_276" data-name="Group 276"><g class="cls-2"><g id="Group_275" data-name="Group 275"><path id="Path_331" data-name="Path 331" class="cls-3" d="M20,128.35c-1.45-1.43-7.63-14.28-7.63-14.28S23.22,57.4,24.84,53.14c.13-.33,16.35-13.09,16.35-13.09H63.94A3.19,3.19,0,0,0,67.24,37V27.66a2.45,2.45,0,0,0-2.52-2.36H62.78V14.09L57,10.94V25.3H54.54L53.18,14.91C53.07,14.3,58,6,58,6c.24-.32,8.8-2.86,8.8-2.86L66.84,0,56.06,1.59l-7.59,9.05L46.33,25.3H42.77s-2.47,0-2.52,0v6.77C40.25,32.2,17,45.59,16.88,46,16.78,46.28,0,112.58,0,113.27c3,4.45,14.65,27.16,14.89,27.4s23.57.1,23.82.1l52.5-.08c0-.1.07-12,0-12"/></g></g></g></svg>