<svg id="Layer_1" data-name="Layer 1" xmlns="http://www.w3.org/2000/svg" viewBox="0 0 128.28 155.62"><defs><style>.cls-1{fill:#d7006c;}.cls-2{fill:#814d0c;}.cls-3{fill:#fff;}.cls-4{fill:none;stroke:#ba458c;stroke-miterlimit:10;}.cls-5{fill:#161615;}.cls-6{fill:#cc5292;}</style></defs><path id="Path_379" data-name="Path 379" class="cls-1" d="M77.81,155.62h-28c-61.31,0-53.72-94.15-41.11-133.7A49.92,49.92,0,0,1,49.81,0h28a49.34,49.34,0,0,1,31.51,11.37,50.31,50.31,0,0,1,4.09,3.77c13.06,13.48,14.08,34.38,14.52,52.06.51,20.31,1.65,41.94-7.11,60.85-5.85,12.62-15.16,22-33,26.55a49.11,49.11,0,0,1-10,1"/><path id="Path_380" data-name="Path 380" class="cls-2" d="M28.7,10.21a65.33,65.33,0,0,1,7-3.32c25.53-10.34,51.25-2,65.58,4.42"/><path id="Path_381" data-name="Path 381" class="cls-3" d="M63.53,37.9A28.19,28.19,0,1,1,35.34,9.72,28.18,28.18,0,0,1,63.53,37.9h0"/><path id="Path_382" data-name="Path 382" class="cls-4" d="M63.53,37.9A28.19,28.19,0,1,1,35.34,9.72,28.18,28.18,0,0,1,63.53,37.9Z"/><path id="Path_383" data-name="Path 383" class="cls-5" d="M53.35,37.27A19.47,19.47,0,1,1,33.88,17.8,19.46,19.46,0,0,1,53.35,37.27h0"/><path id="Path_384" data-name="Path 384" class="cls-3" d="M36.66,27.42a9.24,9.24,0,1,1-9.24-9.24,9.24,9.24,0,0,1,9.24,9.24h0"/><path id="Path_385" data-name="Path 385" class="cls-6" d="M12.46,65.69c.87-1,10.4,5.36,25.71,5.07,7.45-.15,12.3-1.79,12.85-.9.71,1.14-6.06,5.86-14.1,6.55-13.56,1.17-25.5-9.59-24.46-10.73"/><path id="Path_386" data-name="Path 386" class="cls-3" d="M120.11,37.9A28.18,28.18,0,1,1,91.93,9.72,28.17,28.17,0,0,1,120.11,37.9h0"/><path id="Path_387" data-name="Path 387" class="cls-4" d="M120.11,37.9A28.18,28.18,0,1,1,91.93,9.72,28.17,28.17,0,0,1,120.11,37.9Z"/><path id="Path_388" data-name="Path 388" class="cls-5" d="M109.94,37.27A19.47,19.47,0,1,1,90.47,17.8a19.47,19.47,0,0,1,19.47,19.47h0"/><path id="Path_389" data-name="Path 389" class="cls-3" d="M90.65,27.42a9.24,9.24,0,1,1-9.24-9.24,9.24,9.24,0,0,1,9.24,9.24h0"/><path id="Path_390" data-name="Path 390" class="cls-6" d="M114.46,65.69c-.88-1-10.4,5.36-25.71,5.07-7.46-.15-12.3-1.79-12.86-.9C75.18,71,82,75.72,90,76.41c13.57,1.17,25.51-9.59,24.47-10.73"/></svg>