<svg id="Layer_1" data-name="Layer 1" xmlns="http://www.w3.org/2000/svg" viewBox="0 0 334.83 124.8"><defs><style>.cls-1{fill:#e4087e;}</style></defs><path class="cls-1" d="M6.5,96.56l1.95,23h.11l1.95-23h6.34V124.8H13.3V99.47h-.21L10.41,124.8h-4L3.81,99.47H3.56V124.8H0V96.56Z"/><path class="cls-1" d="M25.41,96.56h7l3.3,28.24h-4l-.57-6.44H26.7l-.47,6.44H22.11Zm3.4,2.82-2,16H31l-2.06-16Z"/><path class="cls-1" d="M51.38,107.66a2.91,2.91,0,0,1-.54,1.77,3,3,0,0,1-1.37,1,3.43,3.43,0,0,1,1.37,1.23,3.55,3.55,0,0,1,.54,2v11.1H47.57V113.17a1.52,1.52,0,0,0-.26-.9.79.79,0,0,0-.67-.36H44.06V124.8H40.35V96.56h8a3.11,3.11,0,0,1,2.09.79,2.38,2.38,0,0,1,.9,1.85Zm-3.81-7.47a.76.76,0,0,0-.26-.56.91.91,0,0,0-.67-.25H44.06v9.67h2.58a1,1,0,0,0,.67-.23.72.72,0,0,0,.26-.58Z"/><path class="cls-1" d="M67.51,122.34a2.09,2.09,0,0,1-1,1.76,3.78,3.78,0,0,1-2.27.7H59.32a3.2,3.2,0,0,1-2.07-.7,2.16,2.16,0,0,1-.87-1.76v-8.1h3.86V122h3.25v-6.88a1.19,1.19,0,0,0-.31-.81c-.21-.24-.45-.49-.72-.76-.86-.69-1.63-1.33-2.32-1.93l-1.7-1.45-1.08-.92a2.37,2.37,0,0,1-.8-.85,3.9,3.9,0,0,1-.18-1.43V99.11a2.29,2.29,0,0,1,.87-1.81,3.13,3.13,0,0,1,2.07-.74h5.15a3.11,3.11,0,0,1,2.09.74,2.33,2.33,0,0,1,.85,1.81v8.06H63.64V99.38h-3.4v7.12a.7.7,0,0,0,.26.62l1.16,1,1.67,1.43c.59.49,1.12,1,1.6,1.37l.88.76,1.11,1.09a2.47,2.47,0,0,1,.59,1.77Z"/><path class="cls-1" d="M76.17,96.56v11.1h4.48V96.56h3.76V124.8H80.65V110.61H76.17V124.8H72.41V96.56Z"/><path class="cls-1" d="M96,96.56l2,23H98l2-23h6.34V124.8h-3.55V99.47h-.21L99.87,124.8h-4L93.27,99.47H93V124.8H89.46V96.56Z"/><path class="cls-1" d="M114.2,96.56h7l3.3,28.24h-4l-.56-6.44h-4.38L115,124.8H110.9Zm3.4,2.82-2,16h4.17l-2.06-16Z"/><path class="cls-1" d="M132.39,96.56V122h4.33v2.78h-8.14V96.56Z"/><path class="cls-1" d="M145.53,96.56V122h4.33v2.78h-8.14V96.56Z"/><path class="cls-1" d="M164.13,96.56a3.17,3.17,0,0,1,2.12.76,2.32,2.32,0,0,1,.87,1.79v23.18a2.24,2.24,0,0,1-.87,1.77,3.2,3.2,0,0,1-2.12.74h-6.39a3.18,3.18,0,0,1-2.11-.74,2.22,2.22,0,0,1-.88-1.77V99.11a2.3,2.3,0,0,1,.88-1.79,3.14,3.14,0,0,1,2.11-.76Zm-.77,2.82h-4.84V122h4.84Z"/><path class="cls-1" d="M176.19,96.56l1.8,21.8h.06l1.08-21.8h4.38l1.39,21.8h.15l1.34-21.8h4l-2.47,28.24h-5l-1.29-17.32h-.15l-1.29,17.32h-4.85L172,96.56Z"/><path class="cls-1" d="M214.69,97.3a2.29,2.29,0,0,1,.87,1.81v7.21h-3.81V99.38h-3.4V122h3.4v-7.33h3.81v7.51a2.33,2.33,0,0,1-.87,1.86,3.2,3.2,0,0,1-2.12.74h-5a3.19,3.19,0,0,1-2.08-.74,2.28,2.28,0,0,1-.91-1.86V99.11a2.24,2.24,0,0,1,.91-1.81,3.19,3.19,0,0,1,2.08-.74h5A3.2,3.2,0,0,1,214.69,97.3Z"/><path class="cls-1" d="M224.58,96.56V124.8h-3.81V96.56Z"/><path class="cls-1" d="M238.34,96.56v2.82H236V124.8h-3.82V99.38h-2.37V96.56Z"/><path class="cls-1" d="M247.1,96.56l1.9,10.83,1.65-10.83h3.82L251,113.25V124.8h-3.81V113.25L243,96.56Z"/><path class="cls-1" d="M279.87,122.34a2.09,2.09,0,0,1-1,1.76,3.77,3.77,0,0,1-2.26.7h-4.95a3.17,3.17,0,0,1-2.06-.7,2.14,2.14,0,0,1-.88-1.76v-8.1h3.86V122h3.25v-6.88a1.19,1.19,0,0,0-.31-.81,9.73,9.73,0,0,0-.72-.76c-.86-.69-1.63-1.33-2.32-1.93l-1.7-1.45-1.08-.92a2.37,2.37,0,0,1-.8-.85,3.9,3.9,0,0,1-.18-1.43V99.11a2.27,2.27,0,0,1,.88-1.81,3.1,3.1,0,0,1,2.06-.74h5.15a3.09,3.09,0,0,1,2.09.74,2.3,2.3,0,0,1,.85,1.81v8.06H276V99.38H272.6v7.12a.7.7,0,0,0,.26.62l1.16,1c.53.46,1.09.94,1.68,1.43l1.59,1.37.88.76,1.11,1.09a2.47,2.47,0,0,1,.59,1.77Z"/><path class="cls-1" d="M288.84,96.56V124.8H285V96.56Z"/><path class="cls-1" d="M306.41,96.56V124.8h-5.82l-3-25.19h-.16V124.8h-3.3V96.56H300l3.09,25.33h.1V96.56Z"/><path class="cls-1" d="M322.44,122.34a2.09,2.09,0,0,1-1,1.76,3.8,3.8,0,0,1-2.27.7h-4.95a3.19,3.19,0,0,1-2.06-.7,2.16,2.16,0,0,1-.88-1.76v-8.1h3.87V122h3.25v-6.88a1.24,1.24,0,0,0-.31-.81c-.21-.24-.45-.49-.73-.76-.85-.69-1.63-1.33-2.31-1.93l-1.7-1.45-1.09-.92a2.24,2.24,0,0,1-.79-.85,3.84,3.84,0,0,1-.19-1.43V99.11a2.3,2.3,0,0,1,.88-1.81,3.12,3.12,0,0,1,2.06-.74h5.16a3.06,3.06,0,0,1,2.08.74,2.3,2.3,0,0,1,.85,1.81v8.06h-3.76V99.38h-3.4v7.12a.7.7,0,0,0,.26.62l1.16,1,1.67,1.43c.59.49,1.12,1,1.6,1.37l.88.76c.34.33.71.69,1.1,1.09a2.43,2.43,0,0,1,.6,1.77Z"/><path class="cls-1" d="M14.25,1.88l29.45-.3c1.78-.21,2.9,1,2.68,2.88l-2,18.5a2.65,2.65,0,0,1-.85,1.62L34.21,34l7.36-.88a2.89,2.89,0,0,1,3,3.3l-3,36.18a3.7,3.7,0,0,1-1.53,1.82A6.1,6.1,0,0,1,36,75.51L1.84,75.26Zm20,67.48,4.37-30.12L15.14,49.92,10.36,69.58Zm-8-34.44L39.12,21.8,41.06,3.48,19.53,12.83,15.17,36.24Z"/><path class="cls-1" d="M36.05,77.06,0,76.8,12.93.34,43.61,0a4,4,0,0,1,3.22,1.05,4.21,4.21,0,0,1,1.09,3.57l-2,18.49a4.24,4.24,0,0,1-1.38,2.62l-6.1,6.16,2.93-.35A4.4,4.4,0,0,1,45.07,33a4.17,4.17,0,0,1,1.07,3.59l-3,36.09A4.7,4.7,0,0,1,41,75.64,7.47,7.47,0,0,1,36.05,77.06ZM3.68,73.72,36,74a4.57,4.57,0,0,0,3.12-.8,4.29,4.29,0,0,0,.92-.87l3-36.21a1.08,1.08,0,0,0-.31-1,1.32,1.32,0,0,0-1-.47L30,36.05,42.43,23.48a1.19,1.19,0,0,0,.42-.77l2-18.41a1.33,1.33,0,0,0-.19-1,.94.94,0,0,0-.75-.15H42.66l-2,19.36L27,36.4,13.25,38l4.9-26.3L37.81,3.2l-22.24.22ZM20.91,13.93,17.09,34.44l8.44-1L37.63,21.1,39.23,6ZM8.38,71.16l5.43-22.35L40.6,36.65l-5,34.26ZM16.47,51,12.35,68l20.58-.19,3.77-26Z"/><path class="cls-1" d="M52.53,72.7,57.7,32.82a5.24,5.24,0,0,1,.7-1.53,6.09,6.09,0,0,1,5.14-3l15.82-.16a2.21,2.21,0,0,1,2.45,2.69l-5.16,40c-.16,1-.72,4.49-1.74,4.62H55A2.31,2.31,0,0,1,52.53,72.7Zm20.52-9.61,4.08-30L60.29,39.31l-3,31.08Z"/><path class="cls-1" d="M54.71,77A3.81,3.81,0,0,1,52,75.74a3.92,3.92,0,0,1-1-3.25l5.17-39.87a5.45,5.45,0,0,1,.91-2.13,7.64,7.64,0,0,1,6.45-3.77l15.75-.15a3.67,3.67,0,0,1,3.14,1.17,3.82,3.82,0,0,1,.92,3.4L78.19,71c-.58,4-1.5,5.76-3.07,6l-.21,0H54.71Zm25-47.29h-.3l-15.83.16a4.53,4.53,0,0,0-3.82,2.26,4.68,4.68,0,0,0-.49,1L54.07,72.93a.81.81,0,0,0,.19.68.71.71,0,0,0,.59.22H74.32a14.1,14.1,0,0,0,.79-3.28l5.15-39.93a.79.79,0,0,0-.14-.76A.55.55,0,0,0,79.68,29.66ZM55.47,72.94l3.37-34.75L79,30.76,74.48,64.15Zm6.28-32.51-2.66,27.4L71.62,62l3.62-26.57Z"/><path class="cls-1" d="M96.71,28.3l34.89-.19c1.3-.16,3.05,3.39,2.81,5l-4.94,42.23-6.28,0,6.51-44.94-10.54,7.2L115,41l-4,34.25-4.73,0,6.23-42.82-8.91,5.05L99,40.45,94.86,75.38l-6.44.07Z"/><path class="cls-1" d="M86.56,77,95.4,26.76l36.12-.2a2.86,2.86,0,0,1,2.27,1c1.24,1.27,2.43,3.94,2.16,5.74l-5.1,43.56-9.46-.05,6.26-43.21L120,38.81l-3.58,3-4.08,35-7.92.09,6-41.48-6.14,3.49-3.93,2.48L96.25,76.92ZM98,29.85l-7.75,44,3.2,0,4-34.31,5.25-3.31,11.36-6.45Zm27,43.87,3.1,0,4.79-40.84a5.57,5.57,0,0,0-1.37-3.23h-.13Zm-10.54-44-6.38,44,1.54,0,3.9-33.51,4.66-3.87,9.72-6.64Z"/><path class="cls-1" d="M140.79,75.48l6-58.73,5.94-8.83-1.84,26.71L173.51,32c1.82-.31,2.6,3,2.59,4.32l-2.56,29.07a9.16,9.16,0,0,1-.38,1.93,14.38,14.38,0,0,1-1.92,4c-.52.74-2.23,3.26-4.32,3.94-1.06.35-10,.18-11.55.16l-10,.16ZM164.56,65l5.73-28.94-19.54,7.7-3.12,26.65Z"/><path class="cls-1" d="M145.36,77.1c-.07,0-4.47,0-4.7-.07l-1.58-.13,6.2-60.7,9.4-14-2.11,30.65,20.76-2.4a2.88,2.88,0,0,1,2.34.71c1.64,1.39,2,4.27,2,5.17l-2.57,29.2a10.17,10.17,0,0,1-.45,2.26,15.8,15.8,0,0,1-2.13,4.38c-.77,1.09-2.62,3.7-5.11,4.52-.74.24-2.89.37-11.34.25h-.71l-10,.15ZM142.52,74l2.8,0h0l10-.15h.76c8.1.11,10,0,10.38-.11,1.47-.48,2.93-2.56,3.42-3.24a13.16,13.16,0,0,0,1.78-3.64,7.63,7.63,0,0,0,.31-1.58l2.56-29.07a4.72,4.72,0,0,0-.92-2.68l-1.28.15-6.44,32.56L145.8,72.65l3.51-30,22.77-9-22.87,2.68,1.56-22.78-2.47,3.68Zm9.67-29.05-2.73,23.32,13.75-4.39,5-25.24Z"/><path class="cls-1" d="M228,15.05l5.78-7.74-2,25.27,21.89-2.51c2.89.11,2.67,3,2.37,4.53l-7.44,40.6h-6.75L252,35.64l-21.37,7.19-5.3,32.5-6.94-.09Z"/><path class="cls-1" d="M226.66,76.9l-10.08-.12,10-62.35,9.23-12.38-2.28,28.77,20.13-2.32h.12a4,4,0,0,1,3.1,1.45c1.13,1.44,1,3.48.74,4.94l-7.67,41.86H239.88L249.79,38,232,44Zm-6.43-3.19,3.78,0,5.25-32.1,25-8.4-10.34,40.4h3.45l7.2-39.33a3.39,3.39,0,0,0-.12-2.43.88.88,0,0,0-.67-.26l-23.64,2.71,1.73-21.78-2.33,3.12Z"/><path class="cls-1" d="M304.57,9.49l5.4-4-8.09,70-7.75-.17Z"/><path class="cls-1" d="M303.26,77.05l-10.94-.25L303.14,8.62l8.79-6.55ZM296,73.77l4.54.1,7.52-65-2,1.49Z"/><path class="cls-1" d="M327.48,9.07l5.39-4-8.09,70.55L317,75.41Z"/><path class="cls-1" d="M326.16,77.17l-10.94-.25L326,8.21l8.79-6.6Zm-7.31-3.28,4.54.1,7.52-65.55-2,1.5Z"/><path class="cls-1" d="M261.44,73.71l4-32.93c.18-.87,1.6-13.88,1.79-13.83l18.35.33c1,0,3.2,1.74,3,3L284,53.79a2,2,0,0,1-1.09,1.45L267,61.46l-1.39,9.6,14.69-1.89-1.85,7.24-15.36-.16C262.06,76.27,261.26,75,261.44,73.71ZM283,46.24l-.58-15-11.78,7.22-2.18,18.34Z"/><path class="cls-1" d="M279.08,77.2l-16-.17a2.19,2.19,0,0,1-1.69-.79,3.34,3.34,0,0,1-.75-2.63l4-32.93c.07-.37.35-2.74.63-5,1.07-9,1.07-9,1.49-9.33l.29-.2.26.06,18.25.34a4.51,4.51,0,0,1,2.92,1.71,2.8,2.8,0,0,1,.81,2.24l-4.52,23.48a2.81,2.81,0,0,1-1.59,2L267.74,62l-1.18,8.14,14.81-1.91Zm-16-1.72,14.78.15,1.41-5.54L264.73,72l1.6-11.07,16.3-6.39a1.29,1.29,0,0,0,.62-.92l4.51-23.41c0-.15-.08-.49-.46-.94a3.62,3.62,0,0,0-1.73-1.18h0l-17.74-.32c-.22,1.44-.68,5.36-1,8.09-.36,3-.56,4.75-.64,5.11l-4,32.88a1.78,1.78,0,0,0,.37,1.39A.85.85,0,0,0,263.1,75.48Zm4.39-17L269.92,38l13.23-8.11.65,16.74Zm3.89-19.55-1.92,16.2,12.75-9.28-.51-13.25Z"/><path class="cls-1" d="M182.34,72.18,184.77,62h4.46l-2.1,9.3L201.4,65l3.6-9.34-18.58-5.16c-.39-.14.4-3,.57-4.22l1.46-12c.15-1.37.65-6.07,1.54-6.07l19.4,1.47a2.62,2.62,0,0,1,2.29,2.71c0,1.2.13,3.08,0,5.69v6.65l-4.95-.24,1.12-10.81-14.39,3.72-3.06,9.16L207.73,56a2.42,2.42,0,0,1,1,2.56l-3.58,14.79c-.25,1-1.08,2-2,2l-18.82,0C182.73,75.39,182,73.6,182.34,72.18Z"/><path class="cls-1" d="M203.14,77l-18.82,0a3.41,3.41,0,0,1-2.69-1.29,4.62,4.62,0,0,1-.81-3.81v0l2.71-11.36h7.64l-1.84,8.16,10.83-4.83,2.76-7.14L186,52c-1.66-.57-1.31-2.22-.82-4.51.11-.53.22-1,.27-1.42l1.46-12c.56-5.16,1.13-7.44,3.08-7.44L209.5,28a4.2,4.2,0,0,1,3.74,4.25c0,.31,0,.68,0,1.09,0,1.15.08,2.72,0,4.69v8.2L205,45.88l1.05-10.22-11.4,2.94-2.38,7.14,16.18,8.94a4,4,0,0,1,1.74,4.22l-3.59,14.85C206.21,75.37,204.89,77,203.14,77Zm-17.85-3.16,17.85,0a2.37,2.37,0,0,0,.47-.87l3.56-14.76a.91.91,0,0,0-.24-.86l-.77-.43-3.54,9.16Zm-1.43-1.3a1.56,1.56,0,0,0,.2,1.17.29.29,0,0,0,.26.13H185l2.31-10.26H186ZM188,49.27l8.6,2.39-8.05-4.45L192.26,36l17.38-4.49-1.18,11.41,1.67.07V38c.09-1.92.05-3.37,0-4.53,0-.43,0-.82,0-1.16a1.11,1.11,0,0,0-.86-1.16l-18.53-1.41a29.18,29.18,0,0,0-.73,4.55l-1.47,12.14c-.06.45-.19,1-.32,1.67C188.15,48.42,188.06,48.87,188,49.27Z"/></svg>