<svg id="Layer_1" data-name="Layer 1" xmlns="http://www.w3.org/2000/svg" viewBox="0 0 365.84 365.84"><defs><style>.cls-1,.cls-2{font-size:25px;font-family:OpenSansHebrewCondensed-Bold, Open Sans Hebrew Condensed;font-weight:700;}.cls-1,.cls-4{fill:#e5117e;}.cls-2,.cls-3,.cls-5{fill:#fff;}.cls-5{stroke:#cc5c9c;}.cls-10,.cls-5{stroke-miterlimit:10;}.cls-6{fill:#1d1d1b;}.cls-7{fill:#da3b8e;}.cls-8{fill:#d83c8e;}.cls-9{fill:#e84133;}.cls-10{fill:none;stroke:#fff;}</style></defs><circle cx="182.92" cy="182.92" r="182.92"/><text class="cls-1" transform="translate(118.91 62.41)">Sweet lovers</text><text class="cls-2" transform="translate(116.14 62.41)">Sweet lovers</text><path class="cls-3" d="M154.2,102.2a2,2,0,0,1-.47.11,3.87,3.87,0,0,1-.64,0,2.29,2.29,0,0,1-.83-.19v-1.51a.86.86,0,0,0,.45.13.5.5,0,0,0,.54-.37,3.1,3.1,0,0,0,.08-.76v-5l-.68.14v-1.5l.4-.09c.17,0,.53-.09,1.1-.16A14.53,14.53,0,0,1,155.7,93a6.89,6.89,0,0,1,1.14.07,3.35,3.35,0,0,1,.73.2,1.54,1.54,0,0,1,.52.33,1.87,1.87,0,0,1,.36.45,2.14,2.14,0,0,1,.23.59,7,7,0,0,1,.13,1.52v6.06h-1.87V96.15a2.06,2.06,0,0,0-.29-1.27,1.24,1.24,0,0,0-1-.35h-.41v5.13a7.27,7.27,0,0,1-.09,1.4,1.6,1.6,0,0,1-.25.65l-.3.3A1.24,1.24,0,0,1,154.2,102.2Z"/><path class="cls-3" d="M161.05,99.15v-6h1.87v4.19l-1.16,1.82Z"/><path class="cls-3" d="M166.54,94.57a3.09,3.09,0,0,0-.94.16V93.16a3.55,3.55,0,0,1,1.15-.16,4.36,4.36,0,0,1,1.12.13,2,2,0,0,1,.71.36,1.5,1.5,0,0,1,.42.58,3.31,3.31,0,0,1,.2.73,7.58,7.58,0,0,1,.05.9v6.52h-1.36l-.31-1.33h-.11a1.69,1.69,0,0,1-.23.48,2.83,2.83,0,0,1-.4.48,2.14,2.14,0,0,1-.59.35,2.11,2.11,0,0,1-.75.16,4.82,4.82,0,0,1-.81-.08l.16-1.74s.08,0,.21,0a2.42,2.42,0,0,0,.37,0,2.76,2.76,0,0,0,1.3-.27,1,1,0,0,0,.52-.63,4.54,4.54,0,0,0,.12-1.18V95.7C167.37,95,167.1,94.57,166.54,94.57Z"/><path class="cls-3" d="M173.35,102.22h-1.87V93.14h1.87Z"/><path class="cls-3" d="M178.67,93.14v1.51c-.09.16-.23.43-.4.8a5.48,5.48,0,0,0-.4,1.26,7,7,0,0,0-.17,1.19q0,.5,0,1.26v3.06H175.8V99.16a8.41,8.41,0,0,1,.3-2.44,4.43,4.43,0,0,1,.64-1.39,2.55,2.55,0,0,1,.52-.57l.08-.06v0h-1.79V93.14Z"/><path class="cls-3" d="M185.87,93.09a14.26,14.26,0,0,1,1.51-.09,6.52,6.52,0,0,1,1.1.07,3.06,3.06,0,0,1,.73.2,1.59,1.59,0,0,1,.53.33,1.91,1.91,0,0,1,.58,1,7,7,0,0,1,.14,1.52v6.06h-1.88V96.15a2.07,2.07,0,0,0-.28-1.27,1.28,1.28,0,0,0-1.05-.35c-.34,0-.73,0-1.16.06s-.77.09-1,.14l-.39.07V93.3A8.64,8.64,0,0,1,185.87,93.09Zm.68,9.13h-1.88V96.43h1.88Z"/><path class="cls-3" d="M195.71,93.14v1.51a8.24,8.24,0,0,0-.4.8,5.48,5.48,0,0,0-.41,1.26,8.24,8.24,0,0,0-.17,1.19c0,.33,0,.75,0,1.26v3.06h-1.87V99.16a8.41,8.41,0,0,1,.3-2.44,4.69,4.69,0,0,1,.63-1.39,2.82,2.82,0,0,1,.52-.57l.09-.06v0h-1.79V93.14Z"/><path class="cls-3" d="M197.43,99.15v-6h1.87v4.19l-1.16,1.82Z"/><path class="cls-3" d="M201.12,93.11c.69-.07,1.29-.11,1.8-.11a5.33,5.33,0,0,1,1.3.14,2.48,2.48,0,0,1,.85.38,1.64,1.64,0,0,1,.5.65,3.31,3.31,0,0,1,.24.87,7.11,7.11,0,0,1,.07,1.12v6.06H204V96.15a2.32,2.32,0,0,0-.26-1.26,1.28,1.28,0,0,0-1.07-.36c-.33,0-.85,0-1.55.1Z"/><path class="cls-3" d="M214.13,93.14v3.25a3,3,0,0,1-.42,1.73,2.09,2.09,0,0,1-.47.47,2.65,2.65,0,0,1-.71.38l1.53,3.25H211.9l-1.81-4.31a1.45,1.45,0,0,0-.3,1v3.27h-1.87V99a5.08,5.08,0,0,1,.05-.72,3.27,3.27,0,0,1,.19-.67,2.14,2.14,0,0,1,1.22-1.13l-1.64-3.31h2.16l1.35,3.11.61,1.3a1.41,1.41,0,0,0,.41-1.14V93.14Z"/><path class="cls-3" d="M143.69,119.51v-9a8.44,8.44,0,0,1,1.11-.13c.53,0,1-.07,1.54-.07a7.08,7.08,0,0,1,1.16.07,3.2,3.2,0,0,1,.73.2,1.59,1.59,0,0,1,.53.33,1.87,1.87,0,0,1,.36.45,2.14,2.14,0,0,1,.22.59,7,7,0,0,1,.14,1.52v6.06ZM147.6,118v-4.55a2.07,2.07,0,0,0-.28-1.27,1.28,1.28,0,0,0-1-.35l-.7,0V118Z"/><path class="cls-3" d="M151.71,116.44v-6h1.87v4.19l-1.15,1.82Z"/><path class="cls-3" d="M160.48,119.27v.24h-1.86v-.24a12.91,12.91,0,0,1,.55-3.32l1-4H156v-1.51h6.19v1.17l-1.12,4.28c-.21.83-.37,1.5-.47,2A6.65,6.65,0,0,0,160.48,119.27Zm-2.57,3.7H156v-8.89h1.87Z"/><path class="cls-3" d="M165.92,119.51h-1.87v-9.08h1.87Z"/><path class="cls-3" d="M169.6,119.49a2.16,2.16,0,0,1-.47.11,4,4,0,0,1-.64.05,2.29,2.29,0,0,1-.83-.19V118a.86.86,0,0,0,.45.13.5.5,0,0,0,.54-.37,3.1,3.1,0,0,0,.08-.76v-5l-.68.14v-1.5l.4-.09c.17,0,.53-.09,1.09-.15a12.69,12.69,0,0,1,1.56-.1,7,7,0,0,1,1.14.07,3.1,3.1,0,0,1,.72.2,1.59,1.59,0,0,1,.53.33,1.87,1.87,0,0,1,.36.45,2.14,2.14,0,0,1,.23.59,7,7,0,0,1,.13,1.52v6.06h-1.88v-6.07a2.07,2.07,0,0,0-.28-1.27,1.25,1.25,0,0,0-1.05-.35h-.4V117a6.34,6.34,0,0,1-.1,1.4,1.63,1.63,0,0,1-.24.65q-.15.16-.3.3A1.24,1.24,0,0,1,169.6,119.49Z"/><path class="cls-3" d="M178.87,110.78a2,2,0,0,1,.62-.34,2.34,2.34,0,0,1,.85-.15,2.1,2.1,0,0,1,.82.15,1.44,1.44,0,0,1,.59.43,2.51,2.51,0,0,1,.4.63,2.94,2.94,0,0,1,.24.82,11.38,11.38,0,0,1,.16,1.92v5.27H179V118h1.68v-3.73c0-1.6-.32-2.39-1-2.39a1,1,0,0,0-.52.15,1.22,1.22,0,0,0-.38.37,3.16,3.16,0,0,0-.41.79l0,.15-.53,6.18H176l.5-5.89c0-.19,0-.39,0-.59a6.32,6.32,0,0,0-.26-1.8l-.25-.8h1.78q.1.27.21.63l.15.63h.1a2.28,2.28,0,0,1,.26-.47A2.48,2.48,0,0,1,178.87,110.78Z"/><path class="cls-3" d="M189.06,119.51v-9a8.44,8.44,0,0,1,1.11-.13c.53,0,1-.07,1.54-.07a7.08,7.08,0,0,1,1.16.07,3.2,3.2,0,0,1,.73.2,1.69,1.69,0,0,1,.53.33,1.87,1.87,0,0,1,.36.45,2.14,2.14,0,0,1,.22.59,7,7,0,0,1,.14,1.52v6.06ZM193,118v-4.55a2.07,2.07,0,0,0-.28-1.27,1.28,1.28,0,0,0-1.05-.35l-.7,0V118Z"/><path class="cls-3" d="M197.08,116.44v-6H199v4.19l-1.15,1.82Z"/><path class="cls-3" d="M203.69,110.78a2,2,0,0,1,.61-.34,2.43,2.43,0,0,1,.86-.15,2.1,2.1,0,0,1,.82.15,1.44,1.44,0,0,1,.59.43,2.51,2.51,0,0,1,.4.63,2.94,2.94,0,0,1,.24.82,11.42,11.42,0,0,1,.15,1.92v5.27H203.8V118h1.69v-3.73c0-1.6-.32-2.39-1-2.39a1,1,0,0,0-.51.15,1.12,1.12,0,0,0-.38.37,2.85,2.85,0,0,0-.41.79l0,.15-.53,6.18h-1.87l.49-5.89a5.68,5.68,0,0,0,0-.59,6.32,6.32,0,0,0-.26-1.8l-.25-.8h1.78q.1.27.21.63l.15.63h.1a2.28,2.28,0,0,1,.26-.47A2.16,2.16,0,0,1,203.69,110.78Z"/><path class="cls-3" d="M211.74,114.53l.37,2.79a3.89,3.89,0,0,0,.66-1.15,4.41,4.41,0,0,0,.32-1.36l.38-4.37h1.87L215,114.5a9.09,9.09,0,0,1-.29,1.83,5.31,5.31,0,0,1-.59,1.33A3.78,3.78,0,0,1,213,118.8a5.14,5.14,0,0,1-1.84.73l-2,.4v-1.54l1.47-.29-1.54-7.67H211Z"/><path class="cls-3" d="M219.63,110.35a4.62,4.62,0,0,1,.79-.06,2.07,2.07,0,0,1,.89.21,2.19,2.19,0,0,1,.74.57,4.32,4.32,0,0,1,.52.83,4.28,4.28,0,0,1,.34,1,8.86,8.86,0,0,1,.23,2,9.82,9.82,0,0,1-.12,1.64,5.78,5.78,0,0,1-.31,1.17,3.35,3.35,0,0,1-.45.84,2.71,2.71,0,0,1-.54.57,2.45,2.45,0,0,1-.58.34,2.11,2.11,0,0,1-.55.17,2.33,2.33,0,0,1-1,0,2.11,2.11,0,0,1-.55-.17,2.45,2.45,0,0,1-.58-.34,2.27,2.27,0,0,1-.53-.57,3.3,3.3,0,0,1-.46-.83,7.32,7.32,0,0,1-.43-2.72v-4.53H219V115a6.65,6.65,0,0,0,.33,2.53,1.21,1.21,0,0,0,.35.49.76.76,0,0,0,.88,0,1.21,1.21,0,0,0,.35-.49,3.44,3.44,0,0,0,.25-1,15.06,15.06,0,0,0,0-3.1,3.45,3.45,0,0,0-.25-1,1.11,1.11,0,0,0-.35-.48.66.66,0,0,0-.44-.14l-.48,0Z"/><path class="cls-4" d="M211.93,161.79a14.63,14.63,0,0,0-3.93-7.31h0a23.47,23.47,0,0,0-4.08-3.28,12.12,12.12,0,0,0-17.25,4.67l-2.86,5.51a.15.15,0,0,1-.27,0l-3.23-6.22a12.14,12.14,0,0,0-17.26-4.68,24.81,24.81,0,0,0-4.08,3.29,24.21,24.21,0,0,0-2.92,3.54l0,0c-11.26,26.47,25.81,62,28.22,64.28a.15.15,0,0,0,.23,0l19-29.57C205.7,188.44,215.26,177.89,211.93,161.79Z"/><circle class="cls-5" cx="169.46" cy="168.16" r="13.63"/><circle class="cls-6" cx="168.76" cy="167.85" r="9.42"/><circle class="cls-3" cx="165.63" cy="163.09" r="4.47"/><path class="cls-7" d="M158.39,181.6c.42-.46,5,2.6,12.44,2.45,3.61-.07,5.95-.86,6.22-.43s-2.94,2.84-6.82,3.17C163.66,187.36,157.89,182.15,158.39,181.6Z"/><circle class="cls-5" cx="197.38" cy="168.16" r="13.63"/><circle class="cls-6" cx="196.67" cy="167.85" r="9.42"/><circle class="cls-3" cx="193.54" cy="163.09" r="4.47"/><path class="cls-8" d="M186.31,181.6c.42-.46,5,2.6,12.43,2.45,3.61-.07,6-.86,6.22-.43s-2.93,2.84-6.82,3.17C191.58,187.36,185.8,182.15,186.31,181.6Z"/><path class="cls-9" d="M310.69,199c.18-.24,1.74-17.27,1.74-17.27s7-3.6,6-2.93c-.08,0,1.07,22.23.85,22.52s-35.34,38.12-38.89,41.76l-5.65-8.72C279.81,229.44,308.65,201.74,310.69,199Z"/><path class="cls-9" d="M55.15,199c-.18-.24-1.74-17.27-1.74-17.27s-7-3.6-6-2.93c.08,0-1.07,22.23-.85,22.52s35.34,38.12,38.89,41.76l5.65-8.72C86,229.44,57.18,201.74,55.15,199Z"/><path class="cls-3" d="M105.61,253.4h3.32v1.27L107.74,259l-.72,3.5H105.2l.72-3.5,1.12-4.07h-3.3v-3.38h1.87Z"/><path class="cls-3" d="M110.75,259.41v-6h1.87v4.19l-1.16,1.82Z"/><path class="cls-3" d="M116.17,254.93a.9.9,0,0,0-.48-.1,3.66,3.66,0,0,0-.84.13V253.4a5.86,5.86,0,0,1,1.14-.14,4.32,4.32,0,0,1,.84.07,2.85,2.85,0,0,1,.62.19,1.25,1.25,0,0,1,.44.31,1.57,1.57,0,0,1,.29.4,2.53,2.53,0,0,1,.17.51,6.61,6.61,0,0,1,.09,1.22v4a11.2,11.2,0,0,1-.08,1.3,7.64,7.64,0,0,1-.18,1l-.09.31h-3.66V261h2a8.07,8.07,0,0,0,.12-1.62V256C116.57,255.42,116.44,255.08,116.17,254.93Z"/><path class="cls-3" d="M122.55,262.48h-1.87V253.4h1.87Z"/><path class="cls-3" d="M227,262.48v-9a8.44,8.44,0,0,1,1.11-.13c.53-.05,1-.07,1.54-.07a7,7,0,0,1,1.16.07,3.06,3.06,0,0,1,.73.2,1.59,1.59,0,0,1,.53.33,1.91,1.91,0,0,1,.58,1,7,7,0,0,1,.14,1.52v6.06Zm3.91-1.52v-4.55a2.07,2.07,0,0,0-.28-1.27,1.28,1.28,0,0,0-1-.35l-.7,0V261Z"/><path class="cls-3" d="M235,259.41v-6h1.88v4.19l-1.16,1.82Z"/><path class="cls-3" d="M244.75,262.48H238.9V261h2.43l1.21.1v0l-1.16-1.78-2.55-5.85h1.95l1.66,3.93a3,3,0,0,0,.45-.78,4.57,4.57,0,0,0,.24-1.16l.17-2h1.87l-.14,1.67c0,.25-.05.46-.07.62a7.48,7.48,0,0,1-.15.76,5.17,5.17,0,0,1-.29.89,5.36,5.36,0,0,1-.5.86,3.81,3.81,0,0,1-.75.8l1.48,2.35Z"/><path class="cls-3" d="M248.86,262.48H247V253.4h1.87Z"/><path class="cls-3" d="M251.32,258.48a2.51,2.51,0,0,1-.4-.82,4.1,4.1,0,0,1-.16-1.24,3.58,3.58,0,0,1,.25-1.36,2.61,2.61,0,0,1,.66-1,2.88,2.88,0,0,1,2-.79,2.43,2.43,0,0,1,.92.17,3.14,3.14,0,0,1,.69.37,2.79,2.79,0,0,1,.54.58,3.85,3.85,0,0,1,.45.83,5.72,5.72,0,0,1,.31,1.18,9.08,9.08,0,0,1,.12,1.54,9.29,9.29,0,0,1-.12,1.55,5.78,5.78,0,0,1-.31,1.17,3.71,3.71,0,0,1-.45.84,2.71,2.71,0,0,1-.54.57,2.89,2.89,0,0,1-.58.35,2.83,2.83,0,0,1-1.07.21c-.36,0-.72,0-1.09-.05l-.79-.1-.25-.05v-1.58a12.27,12.27,0,0,0,2.17.25.72.72,0,0,0,.44-.14,1.21,1.21,0,0,0,.35-.49,3.17,3.17,0,0,0,.24-1,13.39,13.39,0,0,0,0-3.1,3.17,3.17,0,0,0-.24-1,1.11,1.11,0,0,0-.35-.48.72.72,0,0,0-.48-.14.81.81,0,0,0-.53.2,1.12,1.12,0,0,0-.32.52,3.53,3.53,0,0,0-.14.89c0,.91.33,1.43,1,1.55l.27.05-.36,1.48-.37-.05a5.74,5.74,0,0,1-.65-.13,3,3,0,0,1-.64-.3A2.11,2.11,0,0,1,251.32,258.48Z"/><path class="cls-3" d="M264.29,262.48h-5.84V261h2.43l1.21.1v0l-1.17-1.78-2.55-5.85h1.95l1.66,3.93a2.81,2.81,0,0,0,.46-.78,4.21,4.21,0,0,0,.23-1.16l.17-2h1.88l-.15,1.67c0,.25,0,.46-.06.62s-.08.42-.16.76a3.87,3.87,0,0,1-.29.89,5.24,5.24,0,0,1-.49.86,3.85,3.85,0,0,1-.76.8l1.48,2.35Z"/><path class="cls-3" d="M266.69,258.48a2.32,2.32,0,0,1-.4-.82,4.08,4.08,0,0,1-.17-1.24,3.78,3.78,0,0,1,.25-1.36,2.63,2.63,0,0,1,.67-1,2.86,2.86,0,0,1,2-.79,2.45,2.45,0,0,1,.93.17,3.29,3.29,0,0,1,.68.37,2.79,2.79,0,0,1,.54.58,3.88,3.88,0,0,1,.46.83,6.43,6.43,0,0,1,.31,1.18,9.08,9.08,0,0,1,.12,1.54,9.29,9.29,0,0,1-.12,1.55,6.53,6.53,0,0,1-.31,1.17,3.73,3.73,0,0,1-.46.84,2.71,2.71,0,0,1-.54.57,2.63,2.63,0,0,1-.58.35,2.75,2.75,0,0,1-1.06.21c-.37,0-.73,0-1.09-.05l-.8-.1-.25-.05v-1.58a12.37,12.37,0,0,0,2.17.25.77.77,0,0,0,.45-.14,1.44,1.44,0,0,0,.35-.49,3.87,3.87,0,0,0,.24-1,15.06,15.06,0,0,0,0-3.1,3.89,3.89,0,0,0-.24-1,1.29,1.29,0,0,0-.35-.48.77.77,0,0,0-.49-.14.79.79,0,0,0-.52.2,1.12,1.12,0,0,0-.32.52,3.18,3.18,0,0,0-.15.89c0,.91.33,1.43,1,1.55l.27.05-.36,1.48-.37-.05a5.33,5.33,0,0,1-.65-.13,3.05,3.05,0,0,1-.65-.3A2.06,2.06,0,0,1,266.69,258.48Z"/><path class="cls-3" d="M149.86,311.17a11.23,11.23,0,0,1,1.6-.11,7.33,7.33,0,0,1,1.19.07,3.12,3.12,0,0,1,.72.19,1.79,1.79,0,0,1,.53.34,1.87,1.87,0,0,1,.36.45,2.6,2.6,0,0,1,.22.58,7,7,0,0,1,.14,1.52v4.55h.94v1.51h-5.7v-1.51h2.88v-4.55a2.18,2.18,0,0,0-.28-1.28,1.3,1.3,0,0,0-1-.35,8.68,8.68,0,0,0-1.4.09l-.16,0Z"/><path class="cls-3" d="M158.69,311.2H162v1.26l-1.19,4.32-.72,3.49h-1.81l.72-3.49,1.11-4.07h-3.3v-3.38h1.88Z"/><path class="cls-3" d="M163.82,320.27v-8.91a14.24,14.24,0,0,1,2.85-.3,3.24,3.24,0,0,1,2.22.6,2,2,0,0,1,.58,1,7,7,0,0,1,.14,1.52v6.06h-1.88v-6.06a2.18,2.18,0,0,0-.28-1.28,1.31,1.31,0,0,0-1-.35,4.29,4.29,0,0,0-.7.07v7.62Z"/><path class="cls-3" d="M181.14,311.2v1.42a1.78,1.78,0,0,0-1.07,1.89v5.76H178.2v-5.81a2.19,2.19,0,0,1,.1-.7,1.78,1.78,0,0,1,.27-.5,1.59,1.59,0,0,1,.58-.46l.11,0v-.05h-3.74V311.2Z"/><path class="cls-3" d="M184.16,311.2h3.31v1.26l-1.19,4.32-.72,3.49h-1.81l.72-3.49,1.12-4.07h-3.3v-3.38h1.87Z"/><path class="cls-3" d="M191.16,320.27h-1.87V311.2h1.87Z"/><path class="cls-3" d="M198.06,320v.24H196.2V320a13.28,13.28,0,0,1,.54-3.31l1-4h-4.16V311.2h6.19v1.16l-1.12,4.29q-.31,1.25-.48,2A7.23,7.23,0,0,0,198.06,320Zm-2.57,3.71h-1.87v-8.9h1.87Z"/><path class="cls-3" d="M203.5,320.27h-1.87V311.2h1.87Z"/><path class="cls-3" d="M208.6,320.27H206l-.72-9.07h1.86l.39,4.67a.85.85,0,0,0,.69-.33,1.84,1.84,0,0,0,.28-1l.27-3.39h1.85l-.26,3.37a2.54,2.54,0,0,1-2.73,2.63l.14,1.56h.79a2.65,2.65,0,0,0,2.12-.92,4.39,4.39,0,0,0,.92-2.56l.33-4.08h1.87l-.34,4.07a8.17,8.17,0,0,1-.34,1.84,5.26,5.26,0,0,1-.75,1.48,4.65,4.65,0,0,1-.62.65,3.42,3.42,0,0,1-.82.54A5.37,5.37,0,0,1,208.6,320.27Z"/><path class="cls-9" d="M212.69,253.74l-58.95-.3c-1.1,3.41-2.4,6.83-3.8,10.24,3.1.11,19,.05,19.23.05l43.5-.07C212.67,263.58,212.73,253.74,212.69,253.74Z"/><path class="cls-10" d="M252,246.82h-4.54a8.2,8.2,0,0,1-8.3-6.51c-1.75-8,5.32-12.83,12.61-11.61a10.36,10.36,0,0,1,5.72,2.82c4.65,4.75,2.93,13.73-3.88,15.13A7.78,7.78,0,0,1,252,246.82Z"/><path class="cls-3" d="M242.67,237.65c.31-.16,3.79.74,9.33.51,2.7-.12,4.44-.44,4.65-.31s-2.16,1-5.07,1.24C246.68,239.45,242.3,237.85,242.67,237.65Z"/><path class="cls-10" d="M184.6,299h-4.54a8.19,8.19,0,0,1-8.3-6.5c-.48-2.17-.39-6.05.69-8a14.25,14.25,0,0,1,4.29-4.65c2.95-2.05,5.35-3.25,8.75-1.39a15.53,15.53,0,0,1,5.26,4.53,12.88,12.88,0,0,1,1,12.5c-.94,2-2.66,2.6-5.56,3.33A7.78,7.78,0,0,1,184.6,299Z"/><path class="cls-3" d="M176.65,282.14c-.16.31.74,3.79.5,9.33-.11,2.7-.44,4.45-.3,4.65s1-2.16,1.24-5.07C178.44,286.15,176.85,281.77,176.65,282.14Z"/><path class="cls-3" d="M181.72,282.14c-.16.31.74,3.79.5,9.33-.11,2.7-.44,4.45-.3,4.65s1-2.16,1.24-5.07C183.51,286.15,181.92,281.77,181.72,282.14Z"/><path class="cls-3" d="M186.79,282.14c-.17.31.74,3.79.5,9.33-.12,2.7-.44,4.45-.3,4.65s1-2.16,1.23-5.07C188.58,286.15,187,281.77,186.79,282.14Z"/><path class="cls-10" d="M115.36,246.72h-4.54c-9.93,0-10.92-12.62-4.38-16.77.18-.27,5.78.34,5.83,0,.1-.65-3.5-2.29-3.42-2.94.11-1,.28-2.11.46-3.07.26-1.39,0-2.45,1.51-2.45h4.54c1.56,0,1.29,1,1.5,2.81.12,1,.2,2,.34,3,.09.64-3.24,1.81-3.14,2.44,0,.12,6,.09,6.08.15,4.55,2.28,3.84,9.54,2.42,12.6-1,2-2.69,3.28-5.59,4A7.78,7.78,0,0,1,115.36,246.72Z"/><path class="cls-3" d="M109.14,223.22c.26-.15,1.37,0,5.87-.06,2.19,0,1.95.41,2.11.55s-.12.27-2.49.37C110.65,224.24,108.83,223.41,109.14,223.22Z"/></svg>