<svg id="Layer_1" data-name="Layer 1" xmlns="http://www.w3.org/2000/svg" viewBox="0 0 365.84 365.84"><defs><style>.cls-1{fill:#6ec7db;}.cls-2,.cls-3{font-size:20px;font-family:OpenSansHebrewCondensed-Bold, Open Sans Hebrew Condensed;font-weight:700;}.cls-2,.cls-5{fill:#e5117e;}.cls-3{fill:#fdfdfd;}.cls-4,.cls-7{fill:#fff;}.cls-6{fill:#916214;}.cls-7{stroke:#cc5c9c;}.cls-10,.cls-7{stroke-miterlimit:10;}.cls-8{fill:#1d1d1b;}.cls-9{fill:#db69a2;}.cls-10{fill:none;stroke:#fff;}</style></defs><circle class="cls-1" cx="182.92" cy="182.92" r="182.92"/><text class="cls-2" transform="translate(113.83 60.27)">Sweet about me</text><text class="cls-3" transform="translate(111.06 60.27)">Sweet about me</text><path class="cls-4" d="M151.59,92.43a3,3,0,0,0-.94.16V91a3.55,3.55,0,0,1,1.15-.16,4,4,0,0,1,1.12.13,2.24,2.24,0,0,1,.71.35,1.52,1.52,0,0,1,.41.59,2.84,2.84,0,0,1,.2.73,5.92,5.92,0,0,1,0,.9v6.51h-1.35l-.31-1.32h-.11a1.52,1.52,0,0,1-.24.48,1.95,1.95,0,0,1-1,.83,2,2,0,0,1-.75.15,4.73,4.73,0,0,1-.8-.07l.16-1.74a.57.57,0,0,0,.21,0,2.36,2.36,0,0,0,.37,0,2.76,2.76,0,0,0,1.3-.27,1,1,0,0,0,.52-.63,4.63,4.63,0,0,0,.12-1.19V93.56C152.42,92.8,152.14,92.43,151.59,92.43Z"/><path class="cls-4" d="M157.77,92.53a.9.9,0,0,0-.48-.1,3.59,3.59,0,0,0-.84.13V91a5.86,5.86,0,0,1,1.13-.14,4.36,4.36,0,0,1,.85.07,2.85,2.85,0,0,1,.62.19,1.49,1.49,0,0,1,.44.3,1.59,1.59,0,0,1,.45.92,5.74,5.74,0,0,1,.1,1.22v4a9.36,9.36,0,0,1-.09,1.3,6.22,6.22,0,0,1-.17,1l-.09.31H156V98.56h2a7.26,7.26,0,0,0,.13-1.62V93.56C158.17,93,158,92.68,157.77,92.53Z"/><path class="cls-4" d="M162.28,97V91h1.87v4.19L163,97Z"/><path class="cls-4" d="M166,91a18,18,0,0,1,1.8-.1,5.37,5.37,0,0,1,1.3.13,2.68,2.68,0,0,1,.85.38,1.68,1.68,0,0,1,.5.66,3.5,3.5,0,0,1,.25.87,8.77,8.77,0,0,1,.06,1.12v6h-1.88V94a2.27,2.27,0,0,0-.26-1.26,1.28,1.28,0,0,0-1.07-.37c-.33,0-.85,0-1.55.11Z"/><path class="cls-4" d="M175.75,100.07h-2.56L172.47,91h1.86l.39,4.67a.91.91,0,0,0,.7-.32,2,2,0,0,0,.27-.95L176,91h1.85l-.26,3.38A2.54,2.54,0,0,1,174.83,97l.13,1.55h.79a2.65,2.65,0,0,0,2.12-.92,4.39,4.39,0,0,0,.92-2.56l.33-4.08H181l-.34,4.07a7.55,7.55,0,0,1-.34,1.84,5,5,0,0,1-.75,1.48,3.74,3.74,0,0,1-.62.65,3.42,3.42,0,0,1-.82.54A5.37,5.37,0,0,1,175.75,100.07Z"/><path class="cls-4" d="M188.41,100.06a2.71,2.71,0,0,1-.47.11,4,4,0,0,1-.64,0,2.26,2.26,0,0,1-.83-.18V98.52a1,1,0,0,0,.46.13.58.58,0,0,0,.35-.1.53.53,0,0,0,.18-.28,3,3,0,0,0,.08-.76v-5l-.68.13V91.2l.4-.1,1.1-.15a14.53,14.53,0,0,1,1.55-.09,6.89,6.89,0,0,1,1.14.07,3.35,3.35,0,0,1,.73.2,1.54,1.54,0,0,1,.52.33,2.21,2.21,0,0,1,.37.45,2.14,2.14,0,0,1,.22.59A7,7,0,0,1,193,94v6h-1.87V94a2.09,2.09,0,0,0-.29-1.28,1.27,1.27,0,0,0-1-.35h-.4v5.12a7.24,7.24,0,0,1-.1,1.41,1.67,1.67,0,0,1-.25.65,2.69,2.69,0,0,1-.3.29A1,1,0,0,1,188.41,100.06Z"/><path class="cls-4" d="M198.27,91v1.51c-.09.16-.23.43-.4.8a5.48,5.48,0,0,0-.41,1.26,9.93,9.93,0,0,0-.17,1.19c0,.32,0,.74,0,1.26v3H195.4V97a8.48,8.48,0,0,1,.3-2.45,4.74,4.74,0,0,1,.63-1.38,2.82,2.82,0,0,1,.52-.57l.09-.06v0h-1.79V91Z"/><path class="cls-4" d="M200,97V91h1.87v4.19L200.71,97Z"/><path class="cls-4" d="M203.68,91a18,18,0,0,1,1.81-.1,5.29,5.29,0,0,1,1.29.13,2.68,2.68,0,0,1,.85.38,1.68,1.68,0,0,1,.5.66,3.12,3.12,0,0,1,.25.87,8.77,8.77,0,0,1,.06,1.12v6h-1.88V94a2.27,2.27,0,0,0-.26-1.26,1.27,1.27,0,0,0-1.07-.37c-.33,0-.85,0-1.55.11Z"/><path class="cls-4" d="M216.7,91v3.25a3,3,0,0,1-.43,1.73,2.24,2.24,0,0,1-.46.47,2.44,2.44,0,0,1-.72.37l1.54,3.25h-2.17l-1.81-4.3a1.45,1.45,0,0,0-.3,1v3.26h-1.87V96.83a5.08,5.08,0,0,1,.05-.72,4,4,0,0,1,.19-.67A2.13,2.13,0,0,1,212,94.31L210.31,91h2.16l1.35,3.11.6,1.29a1.34,1.34,0,0,0,.41-1.13V91Z"/><path class="cls-4" d="M146.06,117.36v-9a10,10,0,0,1,1.11-.14c.53,0,1-.06,1.54-.06a7.08,7.08,0,0,1,1.16.07,3.2,3.2,0,0,1,.73.2,1.69,1.69,0,0,1,.53.33,1.91,1.91,0,0,1,.58,1,6.89,6.89,0,0,1,.14,1.52v6Zm3.91-1.51V111.3a2.1,2.1,0,0,0-.28-1.28,1.31,1.31,0,0,0-1.05-.35,5.37,5.37,0,0,0-.7,0v6.15Z"/><path class="cls-4" d="M154.08,114.3v-6H156v4.19l-1.15,1.82Z"/><path class="cls-4" d="M159.51,109.82a.9.9,0,0,0-.48-.1,3.52,3.52,0,0,0-.84.13v-1.56a5.86,5.86,0,0,1,1.13-.14,4.19,4.19,0,0,1,.84.07,3,3,0,0,1,.63.19,1.33,1.33,0,0,1,.43.3,1.54,1.54,0,0,1,.29.41,1.79,1.79,0,0,1,.17.51,5.74,5.74,0,0,1,.1,1.22v4a9.36,9.36,0,0,1-.09,1.3,7.79,7.79,0,0,1-.17,1l-.09.31h-3.66v-1.51h2a7.26,7.26,0,0,0,.13-1.62v-3.38C159.91,110.31,159.78,110,159.51,109.82Z"/><path class="cls-4" d="M164,114.3v-6h1.88v4.19l-1.16,1.82Z"/><path class="cls-4" d="M173.21,108.29v1.43a1.77,1.77,0,0,0-1.07,1.88v5.76h-1.87v-5.81a2.23,2.23,0,0,1,.11-.7,1.4,1.4,0,0,1,.26-.49,1.55,1.55,0,0,1,.59-.47l.1,0v0h-3.74v-1.51Z"/><path class="cls-4" d="M177,112.38l.38,2.8A4.39,4.39,0,0,0,178,114a4.72,4.72,0,0,0,.32-1.36l.37-4.37h1.88l-.35,4.06a8.74,8.74,0,0,1-.3,1.82,4.7,4.7,0,0,1-.58,1.33,3.74,3.74,0,0,1-1.12,1.15,5.09,5.09,0,0,1-1.83.73l-2,.4v-1.54l1.47-.29-1.54-7.67h1.87Z"/><path class="cls-4" d="M186.69,117.36v-9a10,10,0,0,1,1.11-.14c.53,0,1-.06,1.54-.06a7.22,7.22,0,0,1,1.17.07,3.1,3.1,0,0,1,.72.2,1.59,1.59,0,0,1,.53.33,1.91,1.91,0,0,1,.58,1,6.33,6.33,0,0,1,.14,1.52v6Zm3.91-1.51V111.3a2.1,2.1,0,0,0-.28-1.28,1.28,1.28,0,0,0-1-.35,5.48,5.48,0,0,0-.7,0v6.15Z"/><path class="cls-4" d="M194.72,114.3v-6h1.87v4.19l-1.16,1.82Z"/><path class="cls-4" d="M201.32,108.63a2.5,2.5,0,0,1,1.47-.48,2.1,2.1,0,0,1,.82.15,1.44,1.44,0,0,1,.6.43,2.61,2.61,0,0,1,.39.62,3.16,3.16,0,0,1,.24.82,10.54,10.54,0,0,1,.16,1.93v5.26h-3.56v-1.51h1.69v-3.73c0-1.6-.33-2.4-1-2.4a1,1,0,0,0-.52.15,1.44,1.44,0,0,0-.37.37,2.72,2.72,0,0,0-.41.79l0,.16-.53,6.17h-1.86l.49-5.88a5.83,5.83,0,0,0,0-.59,6.69,6.69,0,0,0-.26-1.8l-.26-.8h1.78q.1.27.21.63l.15.63h.1a2.28,2.28,0,0,1,.26-.47A3,3,0,0,1,201.32,108.63Z"/><path class="cls-4" d="M209.37,112.38l.37,2.8a4.14,4.14,0,0,0,.67-1.15,5.07,5.07,0,0,0,.32-1.36l.37-4.37H213l-.35,4.06a9.46,9.46,0,0,1-.3,1.82,5,5,0,0,1-.58,1.33,3.85,3.85,0,0,1-1.12,1.15,5.14,5.14,0,0,1-1.84.73l-2,.4v-1.54l1.47-.29-1.53-7.67h1.86Z"/><path class="cls-4" d="M217.27,108.21a4.58,4.58,0,0,1,.78-.06,2,2,0,0,1,.89.21,2,2,0,0,1,.74.57,3.88,3.88,0,0,1,.52.83,4.28,4.28,0,0,1,.34,1,8.9,8.9,0,0,1,.24,2,9.7,9.7,0,0,1-.12,1.63,6.43,6.43,0,0,1-.31,1.18,3.73,3.73,0,0,1-.46.84,3,3,0,0,1-.54.57,2.59,2.59,0,0,1-.58.34,2.42,2.42,0,0,1-.55.17,2.56,2.56,0,0,1-.47,0,2.59,2.59,0,0,1-.48,0,2.42,2.42,0,0,1-.55-.17,2.59,2.59,0,0,1-.58-.34,3,3,0,0,1-.54-.57,3.88,3.88,0,0,1-.46-.83,7.35,7.35,0,0,1-.43-2.72V108.3h1.92v4.52a6.73,6.73,0,0,0,.32,2.53,1.29,1.29,0,0,0,.35.48.72.72,0,0,0,.45.15.71.71,0,0,0,.44-.15,1.29,1.29,0,0,0,.35-.48,3.87,3.87,0,0,0,.24-1,15.06,15.06,0,0,0,0-3.1,3.89,3.89,0,0,0-.24-1,1.29,1.29,0,0,0-.35-.48.71.71,0,0,0-.44-.15l-.48,0Z"/><path class="cls-5" d="M189.54,220.36H176c-29.66,0-26-45.54-19.89-64.68a25,25,0,0,1,2.94-3.55,23.93,23.93,0,0,1,17-7h13.55a23.87,23.87,0,0,1,15.24,5.5,26.18,26.18,0,0,1,2,1.82c6.31,6.53,6.81,16.63,7,25.19.25,9.83.8,20.29-3.44,29.44-2.83,6.1-7.33,10.66-16,12.84A24,24,0,0,1,189.54,220.36Z"/><path class="cls-6" d="M165.78,150a31.72,31.72,0,0,1,3.37-1.61c12.35-5,24.79-.95,31.73,2.14"/><circle class="cls-7" cx="168.99" cy="163.41" r="13.63"/><circle class="cls-8" cx="168.28" cy="163.11" r="9.42"/><circle class="cls-4" cx="165.16" cy="158.34" r="4.47"/><path class="cls-9" d="M157.92,176.86c.42-.47,5,2.59,12.44,2.45,3.61-.07,5.95-.87,6.22-.44s-2.94,2.84-6.83,3.18C163.19,182.61,157.42,177.41,157.92,176.86Z"/><circle class="cls-7" cx="196.37" cy="163.41" r="13.63"/><circle class="cls-8" cx="195.66" cy="163.11" r="9.42"/><circle class="cls-4" cx="191.28" cy="158.34" r="4.47"/><path class="cls-9" d="M207.26,176.86c-.42-.47-5,2.59-12.43,2.45-3.61-.07-6-.87-6.22-.44s2.93,2.84,6.82,3.18C202,182.61,207.77,177.41,207.26,176.86Z"/><path d="M310.69,196.82c.18-.23,1.74-17.26,1.74-17.26s7-3.6,6-2.94c-.08,0,1.07,22.23.85,22.53s-35.34,38.12-38.89,41.76l-5.65-8.72C279.81,227.3,308.65,199.6,310.69,196.82Z"/><path d="M55.15,196.82c-.18-.23-1.74-17.26-1.74-17.26s-7-3.6-6-2.94c.08,0-1.07,22.23-.85,22.53s35.34,38.12,38.89,41.76l5.65-8.72C86,227.3,57.18,199.6,55.15,196.82Z"/><path class="cls-4" d="M100.05,260.32a2.84,2.84,0,0,1-.48.11,3.9,3.9,0,0,1-.64,0,2.1,2.1,0,0,1-.82-.19v-1.5a1,1,0,0,0,.45.13.59.59,0,0,0,.36-.1.53.53,0,0,0,.18-.28,3.11,3.11,0,0,0,.07-.76v-4.95l-.67.13v-1.49l.4-.1,1.09-.15a14.71,14.71,0,0,1,1.56-.09,6.84,6.84,0,0,1,1.13.07,3.06,3.06,0,0,1,.73.2,1.59,1.59,0,0,1,.53.33,1.87,1.87,0,0,1,.36.45,2.14,2.14,0,0,1,.23.59,7,7,0,0,1,.13,1.52v6h-1.88v-6.06a2.1,2.1,0,0,0-.28-1.28,1.31,1.31,0,0,0-1-.35h-.4v5.12a6.51,6.51,0,0,1-.1,1.41,1.52,1.52,0,0,1-.25.65,1.64,1.64,0,0,1-.3.29A1.1,1.1,0,0,1,100.05,260.32Z"/><path class="cls-4" d="M107,256.34a2.61,2.61,0,0,1-.4-.82,4.17,4.17,0,0,1-.16-1.25,3.76,3.76,0,0,1,.24-1.35,2.67,2.67,0,0,1,.67-1,2.88,2.88,0,0,1,2-.79,2.33,2.33,0,0,1,.93.17,2.88,2.88,0,0,1,.68.37,3,3,0,0,1,.54.57,3.71,3.71,0,0,1,.45.84,5.78,5.78,0,0,1,.31,1.17,9.29,9.29,0,0,1,.12,1.55,9.08,9.08,0,0,1-.12,1.54,5.72,5.72,0,0,1-.31,1.18,4.19,4.19,0,0,1-.45.84,3,3,0,0,1-.54.57,2.63,2.63,0,0,1-1.65.55,10.05,10.05,0,0,1-1.09-.05c-.36,0-.62-.06-.79-.09l-.25-.05V258.7a12.27,12.27,0,0,0,2.17.25.67.67,0,0,0,.44-.15,1.11,1.11,0,0,0,.35-.48,3.25,3.25,0,0,0,.24-1,13.39,13.39,0,0,0,0-3.1,3.1,3.1,0,0,0-.24-1,1.21,1.21,0,0,0-.35-.49.8.8,0,0,0-.48-.14.77.77,0,0,0-.53.21,1.12,1.12,0,0,0-.32.52,3.12,3.12,0,0,0-.14.88q0,1.38,1,1.56l.27.05-.36,1.48-.37,0a5.27,5.27,0,0,1-.65-.14,2.51,2.51,0,0,1-.64-.29A2.11,2.11,0,0,1,107,256.34Z"/><path class="cls-4" d="M120,260.33h-5.85v-1.51h2.44l1.21.1v0l-1.17-1.79-2.55-5.84h2l1.66,3.93a2.81,2.81,0,0,0,.46-.78,4.21,4.21,0,0,0,.23-1.16l.17-2h1.88l-.15,1.67c0,.25,0,.46-.06.62s-.08.42-.16.76a4.65,4.65,0,0,1-.29.89,5.19,5.19,0,0,1-.49.85,3.91,3.91,0,0,1-.76.81l1.48,2.35Z"/><path class="cls-4" d="M126.85,260.09v.24H125v-.24a13.28,13.28,0,0,1,.54-3.31l1-4h-4.16v-1.51h6.19v1.17l-1.12,4.28q-.33,1.25-.48,2A7.23,7.23,0,0,0,126.85,260.09Zm-2.57,3.71h-1.87v-8.9h1.87Z"/><path class="cls-4" d="M238.58,257.27v-6h1.87v4.19l-1.15,1.82Z"/><path class="cls-4" d="M242.91,256.34a2.61,2.61,0,0,1-.4-.82,4.17,4.17,0,0,1-.16-1.25,3.56,3.56,0,0,1,.25-1.35,2.54,2.54,0,0,1,.66-1,2.88,2.88,0,0,1,2-.79,2.25,2.25,0,0,1,.92.17,3.14,3.14,0,0,1,.69.37,2.68,2.68,0,0,1,.53.57,3.37,3.37,0,0,1,.46.84,5.78,5.78,0,0,1,.31,1.17,9.29,9.29,0,0,1,.12,1.55,9.08,9.08,0,0,1-.12,1.54,5.72,5.72,0,0,1-.31,1.18,3.56,3.56,0,0,1-.46.84,2.68,2.68,0,0,1-.53.57,2.63,2.63,0,0,1-1.65.55c-.36,0-.73,0-1.09,0l-.79-.1-.25-.05V258.7a12.27,12.27,0,0,0,2.17.25.67.67,0,0,0,.44-.15,1.11,1.11,0,0,0,.35-.48,3.17,3.17,0,0,0,.24-1,13.39,13.39,0,0,0,0-3.1,3.1,3.1,0,0,0-.24-1,1.21,1.21,0,0,0-.35-.49.8.8,0,0,0-.48-.14.77.77,0,0,0-.53.21,1.12,1.12,0,0,0-.32.52,3.13,3.13,0,0,0-.14.89c0,.91.33,1.43,1,1.55l.27.05-.36,1.48-.37,0a5.27,5.27,0,0,1-.65-.14,2.51,2.51,0,0,1-.64-.29A2.11,2.11,0,0,1,242.91,256.34Z"/><path class="cls-4" d="M252.22,260.33h-1.87v-9.07h1.87Z"/><path class="cls-4" d="M257,251.18a4.62,4.62,0,0,1,.79-.06,2.16,2.16,0,0,1,.88.2,2.26,2.26,0,0,1,.75.58,4.32,4.32,0,0,1,.52.83,4.8,4.8,0,0,1,.34,1,9.49,9.49,0,0,1,.23,2,9.7,9.7,0,0,1-.12,1.63,5.72,5.72,0,0,1-.31,1.18,4,4,0,0,1-.46.84,2.48,2.48,0,0,1-.54.57,2.59,2.59,0,0,1-.58.34,2.36,2.36,0,0,1-.54.17,2.67,2.67,0,0,1-.48,0,2.63,2.63,0,0,1-1.61-.55,3,3,0,0,1-.54-.57,3.88,3.88,0,0,1-.46-.83,7.58,7.58,0,0,1-.42-2.72v-4.53h1.91v4.52a7,7,0,0,0,.32,2.53,1.29,1.29,0,0,0,.35.48.72.72,0,0,0,.45.15.69.69,0,0,0,.44-.15,1.19,1.19,0,0,0,.35-.48,3.48,3.48,0,0,0,.24-1,13.39,13.39,0,0,0,0-3.1,3.4,3.4,0,0,0-.24-1,1.32,1.32,0,0,0-.35-.49.74.74,0,0,0-.44-.14l-.48.05Z"/><path class="cls-4" d="M175.82,309.05h3.32v1.27L178,314.63l-.72,3.5h-1.82l.72-3.5,1.12-4.06H174v-3.39h1.87Z"/><path class="cls-4" d="M181,315.06v-6h1.87v4.2l-1.15,1.81Z"/><path class="cls-4" d="M186.38,310.58a1,1,0,0,0-.48-.1,3.71,3.71,0,0,0-.84.14v-1.57a5.86,5.86,0,0,1,1.13-.14,5.08,5.08,0,0,1,.84.07,2.78,2.78,0,0,1,.63.19,1.52,1.52,0,0,1,.44.31,2.13,2.13,0,0,1,.29.4,2,2,0,0,1,.16.51,5.84,5.84,0,0,1,.1,1.23v3.94a9.25,9.25,0,0,1-.09,1.3,6.4,6.4,0,0,1-.17,1l-.09.31h-3.66v-1.51h2a7.26,7.26,0,0,0,.13-1.62v-3.38C186.78,311.08,186.65,310.73,186.38,310.58Z"/><path class="cls-4" d="M192.76,318.13h-1.87v-9.08h1.87Z"/><path d="M212.69,251.6l-58.95-.31c-1.1,3.42-2.4,6.84-3.8,10.25,3.1.11,19,0,19.23,0l43.5-.07C212.67,261.44,212.73,251.6,212.69,251.6Z"/><path class="cls-10" d="M185.64,298.73H181.1c-9.93,0-10.92-12.62-4.38-16.77.18-.27,5.78.34,5.83,0,.1-.66-3.5-2.29-3.42-2.95.11-1,.28-2.1.46-3.07.26-1.39,0-2.44,1.51-2.44h4.54c1.56,0,1.29,1,1.5,2.81.12,1,.2,2,.34,3,.08.63-3.25,1.81-3.15,2.44,0,.12,6,.09,6.09.15,4.55,2.27,3.84,9.54,2.42,12.6-1,2-2.69,3.28-5.59,4A7.78,7.78,0,0,1,185.64,298.73Z"/><path class="cls-4" d="M179.42,275.23c.26-.15,1.37,0,5.86-.06,2.2,0,2,.4,2.12.55s-.13.27-2.49.36C180.93,276.24,179.11,275.41,179.42,275.23Z"/><path class="cls-10" d="M117.18,246.07h-4.54c-4.07,0-7.71-2.79-10.11-6.12-1.45-2-2.4-3-1-4,6.2-4.13,3.43-4.37,6.23-6.37.87-.63,1.85-.59,2.54-1.53s1-1.88,1.62-2.77a17.84,17.84,0,0,0,1.76-3.09c.57-1.36,4.38,4.39,5.26,5.07.5.39,2.88,1.95,3,2,5.63,3.24,2.67,5.32,6,7.7,1.87,1.36-1.93,4.65-3.33,5.68-1.82,1.33-2.9,2.5-5.8,3.23A7.78,7.78,0,0,1,117.18,246.07Z"/><path class="cls-4" d="M123.81,233.58c-.38-.17-4.72.71-11.65.43-3.37-.14-5.55-.48-5.8-.35s2.7,1,6.33,1.28C118.82,235.34,124.28,233.78,123.81,233.58Z"/><path class="cls-4" d="M126.7,236.9c-.54-.24-6.62,1-16.32.63-4.72-.2-7.77-.69-8.13-.49s3.79,1.5,8.88,1.84C119.71,239.45,127.35,237.19,126.7,236.9Z"/><path class="cls-10" d="M252.2,246.63h-3.1a5.62,5.62,0,0,1-5.69-4.46c-1.2-5.48,3.64-8.79,8.64-7.95a7.12,7.12,0,0,1,3.91,1.93c3.19,3.25,2,9.41-2.65,10.37A5.8,5.8,0,0,1,252.2,246.63Z"/><path class="cls-10" d="M242.76,239.13c-.17-.23-3.62-4.63-5.41-3.81-.19.08-.73.39-1.27,3.57s-1,5.76-.12,6.23C236.54,245.43,238.05,245,242.76,239.13Z"/><path class="cls-10" d="M258,239.13c.18-.23,3.62-4.63,5.42-3.81.18.08.73.39,1.27,3.57s1,5.76.11,6.23C264.18,245.43,262.67,245,258,239.13Z"/><path class="cls-4" d="M246.45,244.14c.24-.15,1.29-.09,5.55-.29,2.08-.09,1.87.31,2,.43s-.11.26-2.34.44C247.92,245,246.17,244.32,246.45,244.14Z"/></svg>