<svg id="Layer_1" data-name="Layer 1" xmlns="http://www.w3.org/2000/svg" viewBox="0 0 365.84 365.84"><defs><style>.cls-1{fill:#e5117e;}.cls-2,.cls-3{font-size:25px;font-family:OpenSansHebrewCondensed-Bold, Open Sans Hebrew Condensed;font-weight:700;}.cls-3,.cls-4,.cls-5{fill:#fff;}.cls-5{stroke:#e94c44;}.cls-5,.cls-8{stroke-miterlimit:10;}.cls-6{fill:#1d1d1b;}.cls-7{fill:#5fc1ca;}.cls-8{fill:none;stroke:#fff;}</style></defs><circle class="cls-1" cx="182.92" cy="182.92" r="182.92"/><text class="cls-2" transform="translate(134.38 62.41)">Mix it up</text><text class="cls-3" transform="translate(131.61 62.41)">Mix it up</text><path class="cls-4" d="M151.59,94.57a3,3,0,0,0-.94.16V93.16A3.55,3.55,0,0,1,151.8,93a4.42,4.42,0,0,1,1.12.13,2.06,2.06,0,0,1,.71.36,1.48,1.48,0,0,1,.41.58,2.8,2.8,0,0,1,.2.74,7.28,7.28,0,0,1,0,.89v6.52h-1.35l-.32-1.33h-.1a1.77,1.77,0,0,1-.24.48,2.4,2.4,0,0,1-.39.48,2.21,2.21,0,0,1-.6.35,2.11,2.11,0,0,1-.75.16,4.81,4.81,0,0,1-.8-.08l.15-1.74a.5.5,0,0,0,.22,0,2.36,2.36,0,0,0,.37,0,2.78,2.78,0,0,0,1.3-.27,1,1,0,0,0,.52-.63,4.54,4.54,0,0,0,.12-1.18V95.7C152.42,95,152.14,94.57,151.59,94.57Z"/><path class="cls-4" d="M157.77,94.67a.9.9,0,0,0-.48-.1,3.52,3.52,0,0,0-.84.13V93.14a5.86,5.86,0,0,1,1.13-.14,4.19,4.19,0,0,1,.84.07,3,3,0,0,1,.63.19,1.35,1.35,0,0,1,.44.31,1.71,1.71,0,0,1,.28.4,2,2,0,0,1,.17.51,5.74,5.74,0,0,1,.1,1.22v4A9.36,9.36,0,0,1,160,101a6.4,6.4,0,0,1-.17,1l-.09.31H156V100.7h2a7.22,7.22,0,0,0,.13-1.61V95.7C158.17,95.16,158,94.82,157.77,94.67Z"/><path class="cls-4" d="M162.27,99.15v-6h1.88v4.19L163,99.15Z"/><path class="cls-4" d="M166,93.11c.7-.07,1.3-.11,1.81-.11a5.38,5.38,0,0,1,1.3.14,2.34,2.34,0,0,1,.84.38,1.58,1.58,0,0,1,.51.65,3.31,3.31,0,0,1,.24.87,7.2,7.2,0,0,1,.07,1.12v6.06h-1.88V96.15a2.22,2.22,0,0,0-.27-1.26,1.25,1.25,0,0,0-1.06-.36c-.33,0-.85,0-1.56.1Z"/><path class="cls-4" d="M175.75,102.22h-2.56l-.72-9.08h1.86l.39,4.67a.88.88,0,0,0,.7-.32,2,2,0,0,0,.27-.95l.27-3.4h1.85l-.26,3.38a2.55,2.55,0,0,1-2.73,2.63l.14,1.55h.79a2.62,2.62,0,0,0,2.12-.92,4.39,4.39,0,0,0,.92-2.56l.33-4.08H181l-.34,4.07a8,8,0,0,1-.34,1.84,5.12,5.12,0,0,1-.75,1.48,4.17,4.17,0,0,1-.62.66,3.71,3.71,0,0,1-.82.53A5.37,5.37,0,0,1,175.75,102.22Z"/><path class="cls-4" d="M188.41,102.2a2.16,2.16,0,0,1-.47.11,4,4,0,0,1-.64,0,2.29,2.29,0,0,1-.83-.19v-1.51a.86.86,0,0,0,.45.13.5.5,0,0,0,.54-.37,3,3,0,0,0,.08-.76v-5l-.68.14v-1.5l.4-.09c.17,0,.53-.09,1.1-.15a12.42,12.42,0,0,1,1.55-.1,7,7,0,0,1,1.14.07,3.1,3.1,0,0,1,.72.2,1.59,1.59,0,0,1,.53.33,1.87,1.87,0,0,1,.36.45,2.14,2.14,0,0,1,.23.59,7,7,0,0,1,.13,1.52v6.06h-1.88V96.15a2.07,2.07,0,0,0-.28-1.27,1.24,1.24,0,0,0-1-.35h-.41v5.13a7.27,7.27,0,0,1-.09,1.4,1.76,1.76,0,0,1-.25.65q-.15.17-.3.3A1.24,1.24,0,0,1,188.41,102.2Z"/><path class="cls-4" d="M198.27,93.14v1.51a8.24,8.24,0,0,0-.4.8,5.48,5.48,0,0,0-.41,1.26,9.93,9.93,0,0,0-.17,1.19c0,.33,0,.75,0,1.26v3.06H195.4V99.16a8.41,8.41,0,0,1,.3-2.44,4.69,4.69,0,0,1,.63-1.39,2.82,2.82,0,0,1,.52-.57l.09-.06v0h-1.79V93.14Z"/><path class="cls-4" d="M200,99.15v-6h1.87v4.19l-1.16,1.82Z"/><path class="cls-4" d="M203.68,93.11c.69-.07,1.29-.11,1.8-.11a5.27,5.27,0,0,1,1.3.14,2.48,2.48,0,0,1,.85.38,1.64,1.64,0,0,1,.5.65,3.77,3.77,0,0,1,.25.87,8.89,8.89,0,0,1,.06,1.12v6.06h-1.88V96.15a2.32,2.32,0,0,0-.26-1.26,1.27,1.27,0,0,0-1.07-.36c-.33,0-.85,0-1.55.1Z"/><path class="cls-4" d="M216.69,93.14v3.25a3,3,0,0,1-.42,1.73,2.25,2.25,0,0,1-.46.47,2.72,2.72,0,0,1-.72.38l1.53,3.25h-2.16l-1.81-4.31a1.45,1.45,0,0,0-.3,1v3.27h-1.87V99a5.08,5.08,0,0,1,.05-.72,4,4,0,0,1,.19-.67A2.13,2.13,0,0,1,212,96.45l-1.64-3.31h2.16l1.35,3.11.6,1.3a1.37,1.37,0,0,0,.41-1.14V93.14Z"/><path class="cls-4" d="M134.23,119.51v-9a8.44,8.44,0,0,1,1.11-.13c.53,0,1-.07,1.53-.07a7.14,7.14,0,0,1,1.17.07,3.35,3.35,0,0,1,.73.2,1.54,1.54,0,0,1,.52.33,2.21,2.21,0,0,1,.37.45,2.14,2.14,0,0,1,.21.59,6.32,6.32,0,0,1,.15,1.52v6.06Zm3.91-1.52v-4.55a2.14,2.14,0,0,0-.28-1.27,1.28,1.28,0,0,0-1.05-.35,5.56,5.56,0,0,0-.71,0V118Z"/><path class="cls-4" d="M142.25,116.44v-6h1.87v4.19L143,116.44Z"/><path class="cls-4" d="M146.43,116.44v-6h1.87v4.19l-1.15,1.82Z"/><path class="cls-4" d="M152,110.43h3.31v1.27L154.11,116l-.71,3.5h-1.82l.72-3.5,1.12-4.07h-3.3v-3.38H152Z"/><path class="cls-4" d="M159,119.51h-1.87v-9.08H159Z"/><path class="cls-4" d="M162.5,110.39a12.2,12.2,0,0,1,1.52-.1,6.6,6.6,0,0,1,1.1.07,3.35,3.35,0,0,1,.73.2,1.54,1.54,0,0,1,.52.33,1.91,1.91,0,0,1,.58,1,6.38,6.38,0,0,1,.14,1.52v6.06h-1.87v-6.07a2.06,2.06,0,0,0-.29-1.27,1.24,1.24,0,0,0-1-.35c-.35,0-.73,0-1.16.06s-.78.09-1,.14l-.39.07v-1.5A7.61,7.61,0,0,1,162.5,110.39Zm.68,9.12H161.3v-5.79h1.88Z"/><path class="cls-4" d="M171.2,119.51h-1.87v-9.08h1.87Z"/><path class="cls-4" d="M173.1,110.48a7.29,7.29,0,0,1,1.66-.19,3.43,3.43,0,0,1,1.34.23,2.3,2.3,0,0,1,.84.59,2.75,2.75,0,0,1,.5.91,5.27,5.27,0,0,1,.27,1.09,11.12,11.12,0,0,1,.06,1.21v1.51a5.52,5.52,0,0,1-.37,2.13,3.09,3.09,0,0,1-.52.87,2.39,2.39,0,0,1-.84.59,2.82,2.82,0,0,1-1.16.23,6.45,6.45,0,0,1-1.78-.22v-1.62a5.4,5.4,0,0,0,1.63.23c.75,0,1.12-.73,1.12-2.21v-1.51c0-1.62-.37-2.43-1.12-2.43a15.85,15.85,0,0,0-1.63.12Z"/><path class="cls-4" d="M181.19,110.43h3.31v1.27L183.31,116l-.72,3.5h-1.81l.72-3.5,1.11-4.07h-3.29v-3.38h1.87Z"/><path class="cls-4" d="M192.34,110.43v3.25a3,3,0,0,1-.42,1.73,2.09,2.09,0,0,1-.47.47,2.81,2.81,0,0,1-.71.38l1.53,3.25H190.1l-1.8-4.31a1.41,1.41,0,0,0-.31,1v3.27h-1.86v-3.25a5.08,5.08,0,0,1,.05-.72,2.74,2.74,0,0,1,.19-.67,2.14,2.14,0,0,1,1.22-1.13L186,110.43h2.16l1.35,3.11.61,1.3a1.41,1.41,0,0,0,.41-1.14v-3.27Z"/><path class="cls-4" d="M198.52,119.51v-9a8.66,8.66,0,0,1,1.12-.13c.53,0,1-.07,1.53-.07a7.14,7.14,0,0,1,1.17.07,3.35,3.35,0,0,1,.73.2,1.65,1.65,0,0,1,.52.33,2.21,2.21,0,0,1,.37.45,2.14,2.14,0,0,1,.21.59,6.38,6.38,0,0,1,.14,1.52v6.06Zm3.92-1.52v-4.55a2.06,2.06,0,0,0-.29-1.27,1.24,1.24,0,0,0-1-.35,5.56,5.56,0,0,0-.71,0V118Z"/><path class="cls-4" d="M206.55,116.44v-6h1.87v4.19l-1.15,1.82Z"/><path class="cls-4" d="M213.15,110.78a2.1,2.1,0,0,1,.62-.34,2.37,2.37,0,0,1,.85-.15,2.1,2.1,0,0,1,.82.15,1.54,1.54,0,0,1,.6.43,3.37,3.37,0,0,1,.4.63,3.34,3.34,0,0,1,.23.82,10.43,10.43,0,0,1,.16,1.92v5.27h-3.56V118H215v-3.73c0-1.6-.33-2.39-1-2.39a1,1,0,0,0-.51.15,1.12,1.12,0,0,0-.38.37,2.6,2.6,0,0,0-.41.79l0,.15-.54,6.18h-1.86l.49-5.89a5.68,5.68,0,0,0,0-.59,6.69,6.69,0,0,0-.26-1.8l-.26-.8H212q.1.27.21.63l.15.63h.1a2.28,2.28,0,0,1,.26-.47A2.92,2.92,0,0,1,213.15,110.78Z"/><path class="cls-4" d="M221.2,114.53l.37,2.79a4.14,4.14,0,0,0,.67-1.15,5.07,5.07,0,0,0,.32-1.36l.37-4.37h1.88l-.35,4.06a9.74,9.74,0,0,1-.3,1.83,5.31,5.31,0,0,1-.58,1.33,3.93,3.93,0,0,1-1.12,1.14,5.14,5.14,0,0,1-1.84.73l-2,.4v-1.54l1.47-.29-1.53-7.67h1.86Z"/><path class="cls-4" d="M229.1,110.35a4.62,4.62,0,0,1,.79-.06,2,2,0,0,1,.88.21,2.1,2.1,0,0,1,.74.57,4.15,4.15,0,0,1,.52.83,4.29,4.29,0,0,1,.35,1,9.49,9.49,0,0,1,.23,2,9.82,9.82,0,0,1-.12,1.64,5.78,5.78,0,0,1-.31,1.17,3.73,3.73,0,0,1-.46.84,2.79,2.79,0,0,1-.54.58,2.56,2.56,0,0,1-.58.33,2,2,0,0,1-.55.17,2.28,2.28,0,0,1-1,0,2,2,0,0,1-.55-.17,2.56,2.56,0,0,1-.58-.33,2.79,2.79,0,0,1-.54-.58,3.65,3.65,0,0,1-.46-.83,7.53,7.53,0,0,1-.43-2.72v-4.53h1.92V115a6.91,6.91,0,0,0,.32,2.53,1.44,1.44,0,0,0,.35.49.77.77,0,0,0,.45.14A.77.77,0,0,0,230,118a1.32,1.32,0,0,0,.35-.49,3.87,3.87,0,0,0,.24-1,15.06,15.06,0,0,0,0-3.1,3.89,3.89,0,0,0-.24-1A1.19,1.19,0,0,0,230,112a.7.7,0,0,0-.44-.14l-.48,0Z"/><path d="M190.18,220.74H176.64c-29.66,0-26-45.55-19.89-64.68a24.12,24.12,0,0,1,19.89-10.61h13.54a23.9,23.9,0,0,1,15.25,5.5,22.7,22.7,0,0,1,2,1.83c6.32,6.52,6.82,16.63,7,25.18.25,9.83.8,20.29-3.44,29.44-2.83,6.11-7.34,10.67-16,12.85A23.88,23.88,0,0,1,190.18,220.74Z"/><path class="cls-1" d="M166.42,150.39a30,30,0,0,1,3.38-1.6c12.35-5,24.79-1,31.72,2.14"/><path class="cls-4" d="M175.37,149.6a14,14,0,0,1,1.56-.74c5.74-2.32,11.51-.44,14.73,1"/><path class="cls-5" d="M183.27,165.46c0,7.53-5.32-.38-12.85-.38S156,173,156,165.46a13.64,13.64,0,1,1,27.27,0Z"/><path class="cls-6" d="M178.35,165.15c0,5.2-2.52.34-7.72.34s-11.12,4.86-11.12-.34a9.42,9.42,0,1,1,18.84,0Z"/><circle class="cls-4" cx="167.79" cy="159.71" r="3.08"/><path class="cls-1" d="M178.74,171.06c-.35.52-5.34-1.85-12.66-.66-3.56.58-5.77,1.7-6.09,1.31s2.5-3.23,6.3-4.11C172.71,166.11,179.16,170.45,178.74,171.06Z"/><path class="cls-5" d="M212.25,165.46c0,7.53-5.33-.38-12.86-.38S185,173,185,165.46a13.64,13.64,0,1,1,27.27,0Z"/><path class="cls-6" d="M207.33,165.15c0,5.2-2.53.34-7.73.34s-11.11,4.86-11.11-.34a9.42,9.42,0,1,1,18.84,0Z"/><circle class="cls-4" cx="196.77" cy="159.71" r="3.08"/><path class="cls-1" d="M207.72,171.06c-.36.52-5.35-1.85-12.66-.66-3.56.58-5.77,1.7-6.1,1.31s2.5-3.23,6.3-4.11C201.68,166.11,208.14,170.45,207.72,171.06Z"/><path class="cls-4" d="M243.1,245.16c.31-.16,3.79.74,9.33.5,2.7-.11,4.44-.44,4.65-.3s-2.16,1-5.07,1.24C247.11,247,242.73,245.36,243.1,245.16Z"/><path d="M178.64,313.6a7.07,7.07,0,0,1,.83-.4"/><path class="cls-7" d="M310.69,199c.18-.24,1.74-17.27,1.74-17.27s7-3.6,6-2.93c-.08,0,1.07,22.23.85,22.52s-35.34,38.12-38.89,41.76l-5.65-8.72C279.81,229.44,308.65,201.74,310.69,199Z"/><path class="cls-7" d="M55.15,199c-.18-.24-1.74-17.27-1.74-17.27s-7-3.6-6-2.93c.08,0-1.07,22.23-.85,22.52s35.34,38.12,38.89,41.76l5.65-8.72C86,229.44,57.18,201.74,55.15,199Z"/><path class="cls-4" d="M100.05,262.46a2.12,2.12,0,0,1-.48.11,3.78,3.78,0,0,1-.64.05,2.29,2.29,0,0,1-.82-.19v-1.51a.86.86,0,0,0,.45.13.55.55,0,0,0,.36-.1.53.53,0,0,0,.18-.28,3.06,3.06,0,0,0,.07-.76v-5l-.67.14v-1.5a2.77,2.77,0,0,1,.4-.09c.17,0,.53-.09,1.09-.16a14.71,14.71,0,0,1,1.56-.09,6.84,6.84,0,0,1,1.13.07,3.06,3.06,0,0,1,.73.2,1.59,1.59,0,0,1,.53.33,1.87,1.87,0,0,1,.36.45,2.14,2.14,0,0,1,.23.59,7,7,0,0,1,.13,1.52v6.06h-1.88v-6.07a2.12,2.12,0,0,0-.28-1.28,1.31,1.31,0,0,0-1-.34h-.4v5.12a6.39,6.39,0,0,1-.1,1.41,1.47,1.47,0,0,1-.25.65,2.13,2.13,0,0,1-.3.3A1.31,1.31,0,0,1,100.05,262.46Z"/><path class="cls-4" d="M107,258.48a2.51,2.51,0,0,1-.4-.82,4.17,4.17,0,0,1-.16-1.25,3.76,3.76,0,0,1,.24-1.35,2.75,2.75,0,0,1,.67-1,2.88,2.88,0,0,1,2-.79,2.43,2.43,0,0,1,.92.17,2.78,2.78,0,0,1,.69.38,2.64,2.64,0,0,1,.54.56,3.94,3.94,0,0,1,.45.84,5.72,5.72,0,0,1,.31,1.18,9.08,9.08,0,0,1,.12,1.54,9.29,9.29,0,0,1-.12,1.55,5.78,5.78,0,0,1-.31,1.17,3.71,3.71,0,0,1-.45.84,2.71,2.71,0,0,1-.54.57,2.89,2.89,0,0,1-.58.35,2.83,2.83,0,0,1-1.07.21c-.36,0-.73,0-1.09-.05l-.79-.1-.25-.05v-1.58a12.17,12.17,0,0,0,2.17.25.72.72,0,0,0,.44-.14,1.21,1.21,0,0,0,.35-.49,3.17,3.17,0,0,0,.24-1,13.39,13.39,0,0,0,0-3.1,3.17,3.17,0,0,0-.24-1,1.11,1.11,0,0,0-.35-.48.74.74,0,0,0-.48-.14.81.81,0,0,0-.53.2,1.12,1.12,0,0,0-.32.52,3.13,3.13,0,0,0-.14.89c0,.91.33,1.43,1,1.55l.27.05-.36,1.48-.37-.05a5.74,5.74,0,0,1-.65-.13,3,3,0,0,1-.64-.3A2.11,2.11,0,0,1,107,258.48Z"/><path class="cls-4" d="M120,262.48h-5.85V261h2.44l1.21.1v0l-1.17-1.78-2.55-5.85h2l1.66,3.93a2.81,2.81,0,0,0,.46-.78,4.21,4.21,0,0,0,.23-1.16l.17-2h1.88l-.15,1.67c0,.25,0,.46-.06.62s-.08.42-.16.76a4.43,4.43,0,0,1-.29.89,5.24,5.24,0,0,1-.49.86,3.85,3.85,0,0,1-.76.8l1.48,2.35Z"/><path class="cls-4" d="M126.84,262.24v.24H125v-.24a13.28,13.28,0,0,1,.54-3.32l1-4H122.4V253.4h6.2v1.17l-1.12,4.28q-.33,1.25-.48,2A7.41,7.41,0,0,0,126.84,262.24Zm-2.56,3.7H122.4V257h1.88Z"/><path class="cls-4" d="M243.23,256.67v9.27h-1.87v-9.27a16,16,0,0,0-.1-1.75,8.59,8.59,0,0,0-.21-1.17l-.1-.35h1.87c0,.09.07.22.11.39a10,10,0,0,1,.19,1.1A14.54,14.54,0,0,1,243.23,256.67Z"/><path class="cls-4" d="M245.54,259.41v-6h1.87v4.19l-1.15,1.82Z"/><path class="cls-4" d="M251.64,253.4l.1.16a21,21,0,0,1-1.24,3.37h-1.43c.31-1.34.54-2.52.7-3.53Z"/><path class="cls-4" d="M254.71,254.83a3.09,3.09,0,0,0-.94.16v-1.57a3.55,3.55,0,0,1,1.15-.16,4.36,4.36,0,0,1,1.12.13,2,2,0,0,1,.71.36,1.48,1.48,0,0,1,.41.58,2.84,2.84,0,0,1,.2.73,5.92,5.92,0,0,1,.05.9v6.52h-1.35l-.31-1.33h-.11a1.52,1.52,0,0,1-.24.48,2.4,2.4,0,0,1-.39.48,2.06,2.06,0,0,1-.6.35,2,2,0,0,1-.75.16,4.81,4.81,0,0,1-.8-.08l.16-1.74s.08,0,.21,0a2.36,2.36,0,0,0,.37,0,2.78,2.78,0,0,0,1.3-.27,1,1,0,0,0,.52-.63,4.54,4.54,0,0,0,.12-1.18V256C255.54,255.21,255.27,254.83,254.71,254.83Z"/><path class="cls-4" d="M165.52,320.27h-1.87V311.2h1.87Z"/><path class="cls-4" d="M167.63,311.17a11.23,11.23,0,0,1,1.6-.11,7.41,7.41,0,0,1,1.19.07,3.12,3.12,0,0,1,.72.19,1.79,1.79,0,0,1,.53.34,1.87,1.87,0,0,1,.36.45,2.14,2.14,0,0,1,.21.59,6.26,6.26,0,0,1,.15,1.52v4.54h.94v1.51h-5.7v-1.51h2.88v-4.55a2.18,2.18,0,0,0-.28-1.28,1.31,1.31,0,0,0-1-.35,8.63,8.63,0,0,0-1.39.09l-.16,0Z"/><path class="cls-4" d="M175.08,317.21v-6H177v4.19l-1.16,1.82Z"/><path class="cls-4" d="M180.64,311.2H184v1.26l-1.19,4.32-.72,3.49h-1.81l.72-3.49,1.11-4.07h-3.29v-3.38h1.87Z"/><path class="cls-4" d="M191.79,311.2v3.25a3.05,3.05,0,0,1-.42,1.73,2.31,2.31,0,0,1-.47.47,2.8,2.8,0,0,1-.71.37l1.53,3.25h-2.17l-1.81-4.3a1.45,1.45,0,0,0-.3,1v3.26h-1.86V317a3.94,3.94,0,0,1,0-.72,2.74,2.74,0,0,1,.19-.67,2.11,2.11,0,0,1,1.22-1.13l-1.64-3.31h2.16l1.35,3.11.61,1.29a1.38,1.38,0,0,0,.41-1.13V311.2Z"/><path class="cls-4" d="M196.12,311.54a2.14,2.14,0,0,1,.61-.33,2.39,2.39,0,0,1,.86-.15,2.35,2.35,0,0,1,.82.14,1.61,1.61,0,0,1,.59.43,2.93,2.93,0,0,1,.4.63,3.16,3.16,0,0,1,.24.82,11.54,11.54,0,0,1,.15,1.93v5.26h-3.56v-1.51h1.69V315c0-1.59-.32-2.39-1-2.39a1,1,0,0,0-.51.15,1.22,1.22,0,0,0-.38.37,3,3,0,0,0-.41.79l0,.16-.53,6.17H193.2l.49-5.89a5.49,5.49,0,0,0,0-.58,6.69,6.69,0,0,0-.26-1.8l-.25-.8H195q.1.27.21.63l.15.63h.09a2.13,2.13,0,0,1,.27-.47A2,2,0,0,1,196.12,311.54Z"/><path class="cls-7" d="M212.69,253.74l-58.95-.3c-1.1,3.41-2.4,6.83-3.8,10.24,3.1.11,19,.05,19.22.05l43.51-.07C212.67,263.58,212.73,253.74,212.69,253.74Z"/><path class="cls-8" d="M251.28,247.2c-1.51,0-3,0-4.54,0-4.07,0-3.52-2.35-3.84-6.36-.86-10.93.51-10.56,7.71-10.56,2.16,0,5.4.68,6.2,2.11s.29,3.28.17,4.79a37.93,37.93,0,0,1-.56,4.11c-.4,2.12-.9,5.19-3.38,5.83a4.69,4.69,0,0,1-1.12.12Z"/><path class="cls-8" d="M185,299.94H180.5c-9.93,0-10.92-12.62-4.38-16.77.18-.28,5.82-3.53,5.9-4.19.12-1-3.21-.83-3-1.8.11-.57,1.17-.57,1.59-.58a12.25,12.25,0,0,1,3.07.39,8.77,8.77,0,0,1,2.22.79,2.82,2.82,0,0,1,1.27,1.56,10.53,10.53,0,0,0,2.94,4,7.62,7.62,0,0,1,2,1.89,8.48,8.48,0,0,1,1.06,3,13.89,13.89,0,0,1-.51,6.65c-.11.33-.24.66-.38,1-1,2-2.69,3.28-5.59,4A8.53,8.53,0,0,1,185,299.94Z"/><path class="cls-4" d="M188.81,294.9c-.16-.25-.1-1.38-.31-6-.1-2.23.33-2,.46-2.18s.28.12.47,2.52C189.76,293.33,189,295.21,188.81,294.9Z"/><path class="cls-4" d="M190.06,285.07c-.17.24.76,3,.56,7.44-.09,2.15-.41,3.54-.27,3.7s1-1.71,1.2-4C191.88,288.28,190.25,284.77,190.06,285.07Z"/><path class="cls-8" d="M117.28,248.21h-4.53c-4.07,0-7.71-2.79-10.11-6.12-1.46-2-2.4-3.05-1-4,6.19-4.13,3.43-4.36,6.22-6.37.87-.63,1.85-.59,2.54-1.52s1-1.88,1.63-2.78a19.24,19.24,0,0,0,1.76-3.09c.56-1.36,4.38,4.39,5.25,5.07.51.4,2.89,2,3,2,5.63,3.23,2.68,5.31,6,7.69,1.88,1.36-1.92,4.65-3.33,5.68-1.82,1.33-2.9,2.51-5.79,3.24A8.64,8.64,0,0,1,117.28,248.21Z"/><path class="cls-4" d="M123.92,235.73c-.39-.17-4.73.7-11.65.42-3.37-.14-5.55-.48-5.81-.35s2.71,1,6.34,1.28C118.93,237.48,124.38,235.93,123.92,235.73Z"/><path class="cls-4" d="M126.81,239c-.54-.24-6.62,1-16.32.63-4.72-.2-7.78-.68-8.13-.49s3.79,1.5,8.87,1.84C119.81,241.59,127.46,239.33,126.81,239Z"/></svg>