<svg id="Layer_1" data-name="Layer 1" xmlns="http://www.w3.org/2000/svg" viewBox="0 0 365.84 365.84"><defs><style>.cls-1,.cls-7{fill:#e84133;}.cls-2{fill:#631413;}.cls-3{fill:#db4642;}.cls-4,.cls-6{fill:#fff;}.cls-4{stroke:#000;}.cls-10,.cls-4{stroke-miterlimit:10;}.cls-5{fill:#1d1d1b;}.cls-7,.cls-8{font-size:25px;font-family:OpenSansHebrewCondensed-Bold, Open Sans Hebrew Condensed;font-weight:700;}.cls-8{fill:#fdfdfd;}.cls-9{fill:#6ec7db;}.cls-10{fill:none;stroke:#fff;}</style></defs><circle cx="182.92" cy="182.92" r="182.92"/><path class="cls-1" d="M190.24,218.47c-.67-4.08-1.55-6-2-2.08-1.67-4.32-2.9-2.88-4,2.19-1.52-6.25-2.88-7.2-4.57-.77-.58-5.79-1.48-4.21-2.32.83-.41-5-1.28-6.74-3.91-1.84.35-6.17-1.07-5.75-4.28-.78,1.13-5.9.47-7.25-3.49-2.35,1.64-5.55,0-4.85-3.73-1.1,2.39-5.22,2.73-7.39-2.29-3.23,3.86-6.48,2.35-6.63-3.66-2.56,4.67-6,4.84-7.77-2.4-4.14,5.09-5.3,2.78-5.19-3.33-2.94,3.39-2.57,4.87-6.75-.85-5.43,5.82-3.12,3.22-6.36-2.55-6,9.5-1.88,5.76-9.31-1.23-11,7.09.31,10.08-3.88,3.09-7.3,5.84,1.4,9.49-1.23,2.33-5.76,6.31,2.72,8.7-1.61,3.66-6.83,4.78,3.13,7.7-.27,4.43-4.51,3.55,3.93,9.45,1.07,7.77-5.06,3.62,5,6.19.76,5.67-3.36,2.26,3.79,8.06,6.07,9.06-.25,1.44,6.07,6.19,2.73,7.58-1-.38,6.76,1.44,7,3,.55-.18,3.49,2,6.81,4.21,2.83-1,4.37,2.27,2.85,4.1.1-1,3.19,1.27,8.8,4.15,6.11-1,2.43.73,5.62,5.77,1.13-2.24,2.85-2.93,9.08,2.4,6.06-3.08,3-2.86,6.88,3.17,4.52-5.56,3.56-4.67,4.94-1.28,3.86-3.33,3.65,1,4,5.44,3.22-4.45,1.28-8.67,5-1.16,4.53-5.45,1.42-5.38,3.79.34,4.76-7.71,1.17-7.05,2.39.35,4.4-7.78.42-8.82,1.64-1.48,4.92-6.25-.1-6.51,3.46-2,6.5-6.51-2-6.31-.78-1.14,3.42-6.16-2.39-7.36-1.81-2.72,3.12-5-2.18-4.06,0-1.37,3.95-5.39-4-7.2-4.44-3.11,2.06-3.47-2.9-4.77-3.3-3,.33-2.65-2.07-2.19-.12-.74,3.38-4.26-4.78-6-5.38-4,1.67-2.68-3.54-4-4.28-3.35-.31-2.21-2.75-2.47-.79-2.17,3.13-2.08-5.42-3.08-7.11-2-.8C190.24,210.53,189.9,212.46,190.24,218.47Z"/><path class="cls-1" d="M189.82,220.83H177.07c-27.92,0-24.47-39.31-18.72-55.82a21.12,21.12,0,0,1,2.77-3.07,23.54,23.54,0,0,1,15.95-6.09h12.75a23.75,23.75,0,0,1,14.35,4.75,18.9,18.9,0,0,1,1.86,1.58c5.95,5.63,6.42,14.35,6.62,21.73.23,8.49.75,17.52-3.24,25.41-2.66,5.27-6.91,9.21-15,11.09A24.11,24.11,0,0,1,189.82,220.83Z"/><path class="cls-2" d="M168.09,159.36a27.65,27.65,0,0,1,3.17-2.79c11.63-8.71,23.34-1.66,29.87,3.72"/><path class="cls-3" d="M164.39,160.36a31.33,31.33,0,0,0,10.51,6.24c13.59,5.05,25.48-5.29,27.09-6.42"/><path d="M175.74,157.16a12.68,12.68,0,0,1,1.48-1.28c5.39-4,10.83-.75,13.86,1.7"/><path class="cls-4" d="M183.32,173.32a13,13,0,0,1-12.84,12.83,12.82,12.82,0,0,1-12.83-12.83c0-7.09,2.83-13.76,9.1-10.46C174,166.66,183.45,169.89,183.32,173.32Z"/><circle class="cls-5" cx="169.82" cy="173.03" r="8.87"/><circle class="cls-6" cx="169.65" cy="172.89" r="4.21"/><path d="M160.06,186c.4-.43,4.73,2.45,11.71,2.31,3.4-.07,5.6-.81,5.85-.41s-2.76,2.67-6.42,3C165,191.39,159.59,186.49,160.06,186Z"/><path d="M170.31,176.37c-.06-.38-.15-.56-.19-.2-.15-.41-.27-.27-.38.21-.14-.59-.27-.68-.43-.07-.06-.55-.14-.4-.22.08,0-.48-.12-.64-.37-.18,0-.58-.1-.54-.41-.07.11-.56.05-.69-.33-.22.16-.53,0-.46-.35-.11.23-.49.26-.7-.22-.3.37-.62.23-.63-.34-.25.44-.56.45-.73-.23-.39.48-.5.26-.49-.32-.28.32-.24.48-.39.11-.29.44-.3.35-.35-.19-.22.55-.3.65-.42,0-.34.48-.23.27-.26-.28-.23.52-.17.71-.28.17-.31.6-.15.47-.23-.15-.29.78-.16.53-.28-.14-.45.68,0,.94,0,.18-.15.6.08.73.08.15-.05.51.07.32,0-.2-.1.52.09.72.12.21,0,.58.11.46.08-.12-.06.74.16.49.1-.15,0,.63.06.89,0,.23-.29.55.14.67.13.18-.12.46.12.31,0-.13-.22.74.25.85.23.17-.2.6.25.41.1-.06-.2.5.2.71.24.28-.18.63.34.6.22.13-.27.45.3.59.34.28,0,.31.23.17,0-.1-.29.32.27.49.4.28.1.33.32.26.2,0-.2.34.38.43.46.15.11.22.27.08.11-.18-.2.37.26.58.35.42-.13.44.44.51.32.35-.26.34.47.46.48.35-.09.23.37.24.17.19-.23.21.36.37.54.42.07.22.58.34.51.44-.09.13.58.25.62.4,0,.07.41.18.21.31-.14,0,.64,0,.9.18.17-.12.74,0,.49.11-.12,0,.33,0,.55.14.32,0,.38.05.32.26-.05-.09.41-.07.51.14.2,0,.24.08.07.25-.19-.09.3-.14.51,0,.34-.13.34,0,.31.25,0-.18.38-.17.49.1.24-.09.23.08.1.32-.11-.38.51-.53.74,0,.22-.47.58-.26.42.22,0-.21.27-.35.46-.11.32-.26.32-.16.31.24.06-.41.41-.41.48.1.2-.29.28-.08.2.26,0-.31.23-.49.38-.1.21-.5.36-.43.39.14.16-.53.34-.55.43.06.24-.39.25-.16.22.25.14-.37.13-.61.22-.29.12-.45.16-.34.14.18,0-.62.22-.67.27,0,.11-.46.17-.21.14.21.07-.42.12-.66.19-.17.1-.66.19-.6.22.08.12-.67.19-.73.25,0,.2-.51.14-.26.16.2.18-.46.1-.71.18-.17.28-.73.11-.66.22,0,.41-.74,0-.84.16-.14.47-.6,0-.39.18,0,.46-.44-.12-.65-.13-.23.15-.61-.19-.59-.07-.1.33-.59-.23-.7-.17-.26.29-.47-.2-.39,0-.13.38-.51-.38-.68-.42-.3.19-.33-.27-.45-.31-.28,0-.25-.19-.2,0-.07.32-.4-.45-.56-.51-.38.16-.25-.33-.37-.4-.31,0-.21-.26-.24-.07-.21.3-.2-.51-.29-.67-.19-.08C170.31,175.62,170.28,175.8,170.31,176.37Z"/><path class="cls-4" d="M183.82,173.32a13,13,0,0,0,12.84,12.83,12.83,12.83,0,0,0,12.83-12.83c0-7.09-2.83-13.76-9.1-10.46C193.17,166.66,183.69,169.89,183.82,173.32Z"/><circle class="cls-5" cx="197.32" cy="173.03" r="8.87"/><circle class="cls-6" cx="197.49" cy="172.89" r="4.21"/><path d="M207.08,186c-.4-.43-4.74,2.45-11.71,2.31-3.4-.07-5.6-.81-5.85-.41s2.76,2.67,6.42,3C202.11,191.39,207.55,186.49,207.08,186Z"/><path d="M196.83,176.37c.06-.38.14-.56.19-.2.15-.41.27-.27.38.21.14-.59.27-.68.43-.07,0-.55.14-.4.22.08,0-.48.12-.64.37-.18,0-.58.1-.54.41-.07-.11-.56-.05-.69.33-.22-.16-.53,0-.46.35-.11-.23-.49-.26-.7.22-.3-.37-.62-.23-.63.34-.25-.44-.56-.46-.73.23-.39-.48-.5-.26-.49.32-.28-.32-.24-.48-.39-.11-.29-.44-.3-.36-.35.19-.22-.55-.3-.65-.42,0-.34-.48-.23-.27-.26.28-.23-.52-.17-.71-.28-.18-.31-.59-.15-.46-.23.16-.29-.79-.16-.53-.28.13-.45-.67,0-.93,0-.17-.15-.6.08-.73.08-.15-.05-.51.07-.32,0,.2-.1-.52.09-.72.12-.22,0-.57.11-.45.08.13-.06-.74.16-.49.1.15,0-.64.06-.89,0-.23-.29-.55.14-.67.13-.18-.12-.46.12-.31,0,.13-.22-.74.25-.85.23-.17-.2-.6.25-.41.1.06-.2-.5.2-.71.24-.28-.18-.63.34-.6.22-.13-.27-.45.3-.59.34-.28,0-.31.23-.17,0,.1-.29-.32.27-.49.4-.28.1-.33.32-.27.2,0-.2-.33.38-.42.46-.14.11-.23.27-.08.11.18-.2-.37.26-.58.35-.42-.13-.44.44-.51.32-.35-.26-.34.47-.46.48-.35-.09-.23.37-.24.17-.19-.23-.21.36-.37.54-.42.07-.22.58-.34.51-.44-.09-.13.58-.25.62-.4,0-.07.41-.18.21-.32-.14,0,.64,0,.9-.17.17.12.74,0,.49-.11-.12,0,.33,0,.55-.14.32.05.38-.05.32-.26-.05.09.41.07.51-.14.2.05.24-.08.07-.25-.19.09.3.14.51,0,.34.13.34,0,.31-.26,0,.18.38.18.49-.09.24.09.23-.08.1-.32-.11.38.51.53.74,0,.22.47.58.26.42-.22,0,.21.27.35.46.11.32.26.32.16.31-.24.06.41.41.41.48-.1.2.29.28.08.2-.26,0,.31.23.49.38.1.21.5.36.43.39-.14.16.53.34.55.43-.06.24.39.25.15.22-.25.14.37.13.61.22.29.12.45.16.34.14-.18,0,.62.22.67.27,0,.11.45.17.21.14-.21.07.42.12.66.19.17.1.66.19.6.22-.08.12.67.19.73.25,0,.2.51.14.26.16-.2.18.46.1.71.18.17.28.73.11.66.22,0,.41.74,0,.84.16.14.47.59,0,.39.18,0,.46.44-.12.65-.13.23.15.61-.19.59-.07.1.33.59-.23.7-.17.26.29.47-.2.39,0,.13.38.51-.38.68-.42.3.19.32-.27.45-.31.28,0,.25-.19.2,0,.07.32.4-.45.56-.51.38.16.25-.33.37-.4.31,0,.21-.26.24-.07.21.3.2-.51.29-.67.19-.08C196.83,175.62,196.86,175.8,196.83,176.37Z"/><path d="M162.23,161.29c-.2,1.1,19.46,10.33,20.27,9.78,1-.71.89-7-2.36-10.31C174.66,155.13,162.47,160,162.23,161.29Z"/><path d="M204.26,161.29c.2,1.1-19.46,10.33-20.27,9.78-1-.71-.89-7,2.36-10.31C191.83,155.13,204,160,204.26,161.29Z"/><text class="cls-7" transform="translate(131.92 62.41)">Spicy slay</text><text class="cls-8" transform="translate(129.15 62.41)">Spicy slay</text><path class="cls-6" d="M151.59,94.57a3,3,0,0,0-.94.16V93.16A3.55,3.55,0,0,1,151.8,93a4.36,4.36,0,0,1,1.12.13,2.06,2.06,0,0,1,.71.36,1.48,1.48,0,0,1,.41.58,2.8,2.8,0,0,1,.2.74,7.28,7.28,0,0,1,0,.89v6.52h-1.35l-.32-1.33h-.1a1.42,1.42,0,0,1-.24.48,2.4,2.4,0,0,1-.39.48,2.21,2.21,0,0,1-.6.35,2.06,2.06,0,0,1-.75.16,4.81,4.81,0,0,1-.8-.08l.15-1.74a.5.5,0,0,0,.22,0l.37,0a2.78,2.78,0,0,0,1.3-.28,1,1,0,0,0,.52-.63,4.54,4.54,0,0,0,.12-1.18V95.7C152.42,95,152.14,94.57,151.59,94.57Z"/><path class="cls-6" d="M157.77,94.67a.9.9,0,0,0-.48-.1,3.52,3.52,0,0,0-.84.13V93.14a5.86,5.86,0,0,1,1.13-.14,4.19,4.19,0,0,1,.84.07,2.78,2.78,0,0,1,.63.19,1.35,1.35,0,0,1,.44.31,1.78,1.78,0,0,1,.45.91,5.74,5.74,0,0,1,.1,1.22v4A9.36,9.36,0,0,1,160,101a6.4,6.4,0,0,1-.17,1l-.09.31H156V100.7h2a7.22,7.22,0,0,0,.13-1.61V95.7C158.17,95.16,158,94.82,157.77,94.67Z"/><path class="cls-6" d="M162.27,99.15v-6h1.88v4.19L163,99.15Z"/><path class="cls-6" d="M166,93.11c.7-.07,1.3-.11,1.81-.11a5.33,5.33,0,0,1,1.3.14,2.34,2.34,0,0,1,.84.38,1.58,1.58,0,0,1,.51.65,3.31,3.31,0,0,1,.24.87,7.2,7.2,0,0,1,.07,1.12v6.06h-1.88V96.15a2.32,2.32,0,0,0-.26-1.26,1.28,1.28,0,0,0-1.07-.36c-.33,0-.85,0-1.56.1Z"/><path class="cls-6" d="M175.75,102.22h-2.56l-.72-9.08h1.86l.39,4.67a.88.88,0,0,0,.7-.32,2,2,0,0,0,.27-.95l.27-3.4h1.85l-.26,3.38a2.55,2.55,0,0,1-2.73,2.63l.14,1.55h.79a2.62,2.62,0,0,0,2.12-.92,4.39,4.39,0,0,0,.92-2.56l.33-4.08H181l-.34,4.07a8,8,0,0,1-.34,1.84,5.12,5.12,0,0,1-.75,1.48,4.17,4.17,0,0,1-.62.66,3.71,3.71,0,0,1-.82.53A5.37,5.37,0,0,1,175.75,102.22Z"/><path class="cls-6" d="M188.41,102.2a2.93,2.93,0,0,1-.47.12,5.6,5.6,0,0,1-.64,0,2.29,2.29,0,0,1-.83-.19v-1.51a.86.86,0,0,0,.45.13.5.5,0,0,0,.54-.37,3,3,0,0,0,.08-.76v-5l-.68.14v-1.5l.4-.09c.17,0,.53-.09,1.1-.15a12.42,12.42,0,0,1,1.55-.1,6.89,6.89,0,0,1,1.14.07,3.1,3.1,0,0,1,.72.2,1.59,1.59,0,0,1,.53.33,1.87,1.87,0,0,1,.36.45,2.14,2.14,0,0,1,.23.59,7,7,0,0,1,.13,1.52v6.06h-1.88V96.15a2.07,2.07,0,0,0-.28-1.27,1.24,1.24,0,0,0-1-.35h-.41v5.13a7.27,7.27,0,0,1-.09,1.4,1.6,1.6,0,0,1-.25.65q-.15.17-.3.3A1.24,1.24,0,0,1,188.41,102.2Z"/><path class="cls-6" d="M198.27,93.14v1.51a8.24,8.24,0,0,0-.4.8,5.48,5.48,0,0,0-.41,1.26,9.93,9.93,0,0,0-.17,1.19c0,.33,0,.75,0,1.26v3.06H195.4V99.16a8.41,8.41,0,0,1,.3-2.44,4.69,4.69,0,0,1,.63-1.39,2.82,2.82,0,0,1,.52-.57l.09-.06v0h-1.79V93.14Z"/><path class="cls-6" d="M200,99.15v-6h1.87v4.19l-1.16,1.82Z"/><path class="cls-6" d="M203.68,93.11c.69-.07,1.29-.11,1.8-.11a5.27,5.27,0,0,1,1.3.14,2.48,2.48,0,0,1,.85.38,1.64,1.64,0,0,1,.5.65,3.77,3.77,0,0,1,.25.87,8.89,8.89,0,0,1,.06,1.12v6.06h-1.88V96.15a2.32,2.32,0,0,0-.26-1.26,1.27,1.27,0,0,0-1.07-.36c-.33,0-.85,0-1.55.1Z"/><path class="cls-6" d="M216.69,93.14v3.25a3,3,0,0,1-.42,1.73,2.25,2.25,0,0,1-.46.47,2.72,2.72,0,0,1-.72.38l1.53,3.25h-2.16l-1.81-4.31a1.45,1.45,0,0,0-.3,1v3.27h-1.87V99a5.08,5.08,0,0,1,.05-.72,4,4,0,0,1,.19-.67A2.13,2.13,0,0,1,212,96.45l-1.64-3.31h2.16l1.35,3.11.6,1.3a1.37,1.37,0,0,0,.41-1.14V93.14Z"/><path class="cls-6" d="M145,119.51v-9a8.9,8.9,0,0,1,1.12-.13c.53,0,1-.07,1.53-.07a7.14,7.14,0,0,1,1.17.07,3.35,3.35,0,0,1,.73.2,1.54,1.54,0,0,1,.52.33,2.21,2.21,0,0,1,.37.45,2.14,2.14,0,0,1,.21.59,6.38,6.38,0,0,1,.14,1.52v6.06ZM148.9,118v-4.55a2.14,2.14,0,0,0-.28-1.27,1.28,1.28,0,0,0-1.05-.35,5.56,5.56,0,0,0-.71,0V118Z"/><path class="cls-6" d="M153,116.44v-6h1.87v4.19l-1.15,1.82Z"/><path class="cls-6" d="M157.34,115.51a2.32,2.32,0,0,1-.4-.82,4.08,4.08,0,0,1-.17-1.24,3.78,3.78,0,0,1,.25-1.36,2.75,2.75,0,0,1,.67-1,2.86,2.86,0,0,1,2-.79,2.43,2.43,0,0,1,.92.17,2.89,2.89,0,0,1,.68.38,2.49,2.49,0,0,1,.54.57,3.88,3.88,0,0,1,.46.83,6.43,6.43,0,0,1,.31,1.18,9.08,9.08,0,0,1,.12,1.54,9.29,9.29,0,0,1-.12,1.55,6.53,6.53,0,0,1-.31,1.17,3.73,3.73,0,0,1-.46.84,2.79,2.79,0,0,1-.54.58,3,3,0,0,1-.58.34,2.75,2.75,0,0,1-1.06.21c-.37,0-.73,0-1.09-.05s-.63-.07-.8-.1l-.25,0v-1.58a12.37,12.37,0,0,0,2.18.25.77.77,0,0,0,.44-.14,1.32,1.32,0,0,0,.35-.49,3.87,3.87,0,0,0,.24-1,15.06,15.06,0,0,0,0-3.1,3.89,3.89,0,0,0-.24-1,1.19,1.19,0,0,0-.35-.48.77.77,0,0,0-.49-.14.79.79,0,0,0-.52.2,1.17,1.17,0,0,0-.32.52,3.24,3.24,0,0,0-.15.89c0,.91.33,1.43,1,1.55l.27,0-.36,1.48-.37-.05a5.33,5.33,0,0,1-.65-.13,2.79,2.79,0,0,1-.64-.3A2,2,0,0,1,157.34,115.51Z"/><path class="cls-6" d="M164.78,116.44v-6h1.87v4.19l-1.16,1.82Z"/><path class="cls-6" d="M168.47,110.4c.69-.07,1.29-.11,1.8-.11a5.33,5.33,0,0,1,1.3.14,2.48,2.48,0,0,1,.85.38,1.64,1.64,0,0,1,.5.65,3.77,3.77,0,0,1,.25.87,8.89,8.89,0,0,1,.06,1.12v6.06h-1.88v-6.07a2.32,2.32,0,0,0-.26-1.26,1.27,1.27,0,0,0-1.07-.36c-.33,0-.85,0-1.55.1Z"/><path class="cls-6" d="M175.46,119.51v-8.92a14.41,14.41,0,0,1,2.86-.3,3.18,3.18,0,0,1,2.21.61,1.92,1.92,0,0,1,.58,1,7,7,0,0,1,.14,1.52v6.06h-1.88v-6.07a2.07,2.07,0,0,0-.28-1.27,1.26,1.26,0,0,0-1.05-.35,5.61,5.61,0,0,0-.7.06v7.63Z"/><path class="cls-6" d="M187.77,119.51v-9a8.44,8.44,0,0,1,1.11-.13c.53,0,1-.07,1.53-.07a7.14,7.14,0,0,1,1.17.07,3.35,3.35,0,0,1,.73.2,1.54,1.54,0,0,1,.52.33,2.21,2.21,0,0,1,.37.45,2.14,2.14,0,0,1,.21.59,6.32,6.32,0,0,1,.15,1.52v6.06Zm3.91-1.52v-4.55a2.14,2.14,0,0,0-.28-1.27,1.28,1.28,0,0,0-1.05-.35,5.56,5.56,0,0,0-.71,0V118Z"/><path class="cls-6" d="M195.79,116.44v-6h1.87v4.19l-1.15,1.82Z"/><path class="cls-6" d="M202.39,110.78a2.1,2.1,0,0,1,.62-.34,2.37,2.37,0,0,1,.85-.15,2.1,2.1,0,0,1,.82.15,1.54,1.54,0,0,1,.6.43,2.93,2.93,0,0,1,.4.63,3.82,3.82,0,0,1,.24.82,11.42,11.42,0,0,1,.15,1.92v5.27h-3.56V118h1.69v-3.73c0-1.6-.33-2.39-1-2.39a1,1,0,0,0-.51.15,1.12,1.12,0,0,0-.38.37,2.85,2.85,0,0,0-.41.79l0,.15-.54,6.18h-1.86l.49-5.89a5.68,5.68,0,0,0,0-.59,6.69,6.69,0,0,0-.26-1.8l-.26-.8h1.79q.1.27.21.63l.14.63h.1a2,2,0,0,1,.27-.47A2.44,2.44,0,0,1,202.39,110.78Z"/><path class="cls-6" d="M210.44,114.53l.38,2.79a4.39,4.39,0,0,0,.66-1.15,4.72,4.72,0,0,0,.32-1.36l.37-4.37h1.88l-.35,4.06a9.59,9.59,0,0,1-.3,1.83,5.31,5.31,0,0,1-.58,1.33,3.81,3.81,0,0,1-1.12,1.14,4.9,4.9,0,0,1-1.84.73l-2,.4V118.4l1.47-.3-1.53-7.67h1.87Z"/><path class="cls-6" d="M218.34,110.35a4.62,4.62,0,0,1,.79-.06,2,2,0,0,1,.88.21,2.14,2.14,0,0,1,.75.57,5.3,5.3,0,0,1,.52.83,4.8,4.8,0,0,1,.34,1,9.49,9.49,0,0,1,.23,2,9.82,9.82,0,0,1-.12,1.64,5.78,5.78,0,0,1-.31,1.17,3.73,3.73,0,0,1-.46.84,2.41,2.41,0,0,1-1.12.91,2.61,2.61,0,0,1-.54.18,2.9,2.9,0,0,1-1,0,2.68,2.68,0,0,1-.55-.18,2.56,2.56,0,0,1-.58-.33,2.79,2.79,0,0,1-.54-.58,3.65,3.65,0,0,1-.46-.83,7.53,7.53,0,0,1-.43-2.72v-4.53h1.92V115a6.91,6.91,0,0,0,.32,2.53,1.44,1.44,0,0,0,.35.49.77.77,0,0,0,.45.14.74.74,0,0,0,.44-.14,1.32,1.32,0,0,0,.35-.49,3.87,3.87,0,0,0,.24-1,13.39,13.39,0,0,0,0-3.1,3.89,3.89,0,0,0-.24-1,1.19,1.19,0,0,0-.35-.48.68.68,0,0,0-.44-.14l-.48,0Z"/><path class="cls-9" d="M310.69,199c.18-.24,1.74-17.27,1.74-17.27s7-3.6,6-2.93c-.08,0,1.07,22.23.85,22.52s-35.34,38.12-38.89,41.76l-5.65-8.72C279.81,229.44,308.65,201.74,310.69,199Z"/><path class="cls-9" d="M55.15,199c-.18-.24-1.74-17.27-1.74-17.27s-7-3.6-6-2.93c.08,0-1.07,22.23-.85,22.52s35.34,38.12,38.89,41.76l5.65-8.72C86,229.44,57.18,201.74,55.15,199Z"/><path class="cls-6" d="M233.06,259.41v-6h1.87v4.19l-1.15,1.82Z"/><path class="cls-6" d="M241.83,262.24v.24H240v-.24a13.28,13.28,0,0,1,.54-3.32l1-4h-4.16V253.4h6.19v1.17l-1.12,4.28q-.32,1.25-.48,2A7.32,7.32,0,0,0,241.83,262.24Zm-2.57,3.7h-1.87V257h1.87Z"/><path class="cls-6" d="M248.16,253.26a2.43,2.43,0,0,1,.92.17,2.7,2.7,0,0,1,.68.38,2.64,2.64,0,0,1,.54.56,4.22,4.22,0,0,1,.46.84,5.72,5.72,0,0,1,.31,1.18,9.08,9.08,0,0,1,.12,1.54,9.29,9.29,0,0,1-.12,1.55,5.78,5.78,0,0,1-.31,1.17,3.73,3.73,0,0,1-.46.84,2.71,2.71,0,0,1-.54.57,2.26,2.26,0,0,1-.58.34,2,2,0,0,1-.55.17,2.42,2.42,0,0,1-.47.05,2.61,2.61,0,0,1-.48-.05,2.11,2.11,0,0,1-.55-.17,2.26,2.26,0,0,1-.58-.34,2.71,2.71,0,0,1-.54-.57,3.73,3.73,0,0,1-.46-.84,7.53,7.53,0,0,1-.43-2.72,5.09,5.09,0,0,1,.32-1.74,3.18,3.18,0,0,1,.7-1.24v-.06l-.92.07v-1.5A19,19,0,0,1,248.16,253.26Zm.06,1.53a2.81,2.81,0,0,0-.56.06,3,3,0,0,0-.49,1.22,9.69,9.69,0,0,0-.13,1.75,14.55,14.55,0,0,0,.08,1.66,3.87,3.87,0,0,0,.24,1,1.44,1.44,0,0,0,.35.49.77.77,0,0,0,.45.14.77.77,0,0,0,.44-.14,1.32,1.32,0,0,0,.35-.49,3.87,3.87,0,0,0,.24-1,15.06,15.06,0,0,0,0-3.1,3.89,3.89,0,0,0-.24-1C248.75,255,248.51,254.79,248.22,254.79Z"/><path class="cls-6" d="M253.22,259.41v-6h1.88v4.19l-1.16,1.82Z"/><path class="cls-6" d="M259.28,262.48h-1.87V253.4h1.87Z"/><path class="cls-6" d="M263.46,262.48h-1.87V253.4h1.87Z"/><path class="cls-6" d="M103.1,259.41v-6H105v4.19l-1.15,1.82Z"/><path class="cls-6" d="M108.66,253.4H112v1.27L110.79,259l-.72,3.5h-1.82L109,259l1.12-4.07h-3.3v-3.38h1.87Z"/><path class="cls-6" d="M113.79,259.41v-6h1.87v4.19l-1.15,1.82Z"/><path class="cls-6" d="M119.9,253.4l.09.16a20.8,20.8,0,0,1-1.23,3.37h-1.44c.31-1.34.55-2.52.7-3.53Z"/><path class="cls-6" d="M127.18,262.48h-5.85V261h2.44l1.21.1v0l-1.17-1.78-2.55-5.85h1.95l1.66,3.93a2.78,2.78,0,0,0,.45-.78,4.17,4.17,0,0,0,.24-1.16l.17-2h1.88l-.15,1.67c0,.25,0,.46-.07.62s-.07.42-.15.76a4.43,4.43,0,0,1-.29.89,5.24,5.24,0,0,1-.49.86,3.85,3.85,0,0,1-.76.8l1.48,2.35Z"/><path class="cls-6" d="M147.7,311.16c.69-.07,1.3-.1,1.81-.1a5.29,5.29,0,0,1,1.29.13,2.4,2.4,0,0,1,.85.38,1.61,1.61,0,0,1,.5.66,3.12,3.12,0,0,1,.25.87,8.61,8.61,0,0,1,.06,1.11v6.06h-1.88v-6.06a2.19,2.19,0,0,0-.26-1.26,1.24,1.24,0,0,0-1.07-.37c-.33,0-.85,0-1.55.11Z"/><path class="cls-6" d="M154.7,317.2v-6h1.87v4.19l-1.16,1.81Z"/><path class="cls-6" d="M158.39,311.16a18,18,0,0,1,1.8-.1,5.37,5.37,0,0,1,1.3.13,2.48,2.48,0,0,1,.85.38,1.61,1.61,0,0,1,.5.66,3.11,3.11,0,0,1,.24.87,7,7,0,0,1,.07,1.11v6.06h-1.88v-6.06A2.27,2.27,0,0,0,161,313a1.25,1.25,0,0,0-1.07-.37c-.33,0-.85,0-1.55.11Z"/><path class="cls-6" d="M167.8,311.54a2.5,2.5,0,0,1,1.47-.48,2.27,2.27,0,0,1,.82.14,1.65,1.65,0,0,1,.6.43,2.93,2.93,0,0,1,.4.63,4,4,0,0,1,.24.82,11.54,11.54,0,0,1,.15,1.93v5.26h-3.56v-1.51h1.69V315c0-1.59-.33-2.39-1-2.39a1,1,0,0,0-.51.15,1.22,1.22,0,0,0-.38.37,3,3,0,0,0-.41.79l0,.16-.54,6.17h-1.86l.49-5.89a5.49,5.49,0,0,0,0-.58,6.69,6.69,0,0,0-.26-1.8l-.25-.8h1.78a6.61,6.61,0,0,1,.21.63l.14.63h.1a1.79,1.79,0,0,1,.27-.47A2.21,2.21,0,0,1,167.8,311.54Z"/><path class="cls-6" d="M183,311.2v1.42a1.79,1.79,0,0,0-1.07,1.89v5.76h-1.87v-5.81a2.19,2.19,0,0,1,.11-.7,1.4,1.4,0,0,1,.26-.49,1.55,1.55,0,0,1,.59-.47l.1,0v-.05h-3.74V311.2Z"/><path class="cls-6" d="M186,311.2h3.31v1.26l-1.19,4.32-.71,3.49h-1.82l.72-3.49,1.12-4.07h-3.3v-3.38H186Z"/><path class="cls-6" d="M193,320.27h-1.87V311.2H193Z"/><path class="cls-6" d="M199.93,320v.24h-1.86V320a12.91,12.91,0,0,1,.55-3.31l1-4h-4.17V311.2h6.19v1.16l-1.11,4.29q-.33,1.25-.48,2A6.56,6.56,0,0,0,199.93,320Zm-2.57,3.71h-1.87v-8.9h1.87Z"/><path class="cls-6" d="M205.37,320.27H203.5V311.2h1.87Z"/><path class="cls-6" d="M210.47,320.27h-2.55l-.73-9.07h1.87l.38,4.67a.89.89,0,0,0,.7-.33,1.85,1.85,0,0,0,.27-1l.27-3.39h1.85l-.26,3.37a2.54,2.54,0,0,1-2.72,2.63l.13,1.56h.79a2.63,2.63,0,0,0,2.12-.93,4.33,4.33,0,0,0,.93-2.55l.33-4.08h1.86l-.34,4.07a7.55,7.55,0,0,1-.34,1.84,4.78,4.78,0,0,1-.75,1.48,4.13,4.13,0,0,1-.62.65,3.42,3.42,0,0,1-.82.54A5.37,5.37,0,0,1,210.47,320.27Z"/><path class="cls-9" d="M212.69,253.74l-58.95-.3c-1.1,3.41-2.4,6.83-3.8,10.24,3.1.11,19,.05,19.23.05l43.5-.07C212.67,263.58,212.73,253.74,212.69,253.74Z"/><path class="cls-10" d="M250.9,236.15h-4.54c-9.93,0-10.92-12.62-4.38-16.77a3,3,0,0,0,.24-1.07c.1-.66.17-1.31.25-2a12.13,12.13,0,0,1,.47-3.07,3.76,3.76,0,0,1,3.42-2.33h4.54c1.56,0,3.79.86,4,2.65.12,1,.21,2,.34,3,.09.63.18,1.26.28,1.89,0,.12,0,.79.17.86,4.55,2.27,3.84,9.54,2.42,12.6-1,2-2.69,3.28-5.59,4A7.78,7.78,0,0,1,250.9,236.15Z"/><path class="cls-6" d="M244.5,212.83a6.28,6.28,0,0,1,.83-.39,10,10,0,0,1,7.76.52"/><path d="M246.69,212.63l.39-.18a4.6,4.6,0,0,1,3.6.25"/><path class="cls-6" d="M242,218.94c.31-.16,3.79.74,9.33.5,2.7-.11,4.44-.44,4.65-.3s-2.16,1-5.07,1.24C246,220.73,241.65,219.14,242,218.94Z"/><path class="cls-10" d="M117.41,236.15h-4.53a8.2,8.2,0,0,1-8.31-6.51,10.79,10.79,0,0,1,.7-6.56,7.12,7.12,0,0,1,2.73-3.41c.94-.52,1.85-.59,2.54-1.52s1-1.88,1.63-2.78a19.59,19.59,0,0,0,1.76-3.08c.57-1.37,4.38,4.38,5.26,5.06.5.4,2.88,2,3,2,4.56,2.27,3.84,9.54,2.42,12.6-.94,2-2.69,3.28-5.58,4A7.81,7.81,0,0,1,117.41,236.15Z"/><path class="cls-6" d="M108.07,232.62c.31-.17,3.79.74,9.33.5,2.7-.11,4.44-.44,4.65-.3s-2.16,1-5.07,1.23C112.08,234.41,107.7,232.82,108.07,232.62Z"/><path class="cls-10" d="M186.74,296.62h-4.53a8.2,8.2,0,0,1-8.31-6.51,10.82,10.82,0,0,1,.7-6.57,7.05,7.05,0,0,1,2.73-3.4c.94-.52,14.49.06,14.61.13,4.56,2.27,3.42,9.11,2,12.18-.94,2-2.69,3.27-5.58,4A8,8,0,0,1,186.74,296.62Z"/><path class="cls-6" d="M177.34,282.67c.31-.17,3.79.74,9.33.5,2.7-.12,4.44-.44,4.65-.3s-2.17,1-5.07,1.23C181.35,284.46,177,282.87,177.34,282.67Z"/><path class="cls-6" d="M177.34,287.74c.31-.17,3.79.74,9.33.5,2.7-.12,4.44-.44,4.65-.31s-2.17,1-5.07,1.24C181.35,289.53,177,287.93,177.34,287.74Z"/><path class="cls-6" d="M177.34,292.8c.31-.16,3.79.74,9.33.51,2.7-.12,4.44-.44,4.65-.31s-2.17,1-5.07,1.24C181.35,294.6,177,293,177.34,292.8Z"/><path class="cls-6" d="M189.85,281.27c.17.31-.74,3.79-.5,9.33.12,2.7.44,4.44.3,4.65s-1-2.17-1.23-5.07C188.06,285.28,189.65,280.9,189.85,281.27Z"/><path class="cls-6" d="M184.78,281.27c.17.31-.74,3.79-.5,9.33.12,2.7.44,4.44.31,4.65s-1-2.17-1.24-5.07C183,285.28,184.59,280.9,184.78,281.27Z"/><path class="cls-6" d="M179.71,281.27c.17.31-.73,3.79-.5,9.33.12,2.7.44,4.44.31,4.65s-1-2.17-1.24-5.07C177.92,285.28,179.52,280.9,179.71,281.27Z"/></svg>