<svg id="Layer_1" data-name="Layer 1" xmlns="http://www.w3.org/2000/svg" viewBox="0 0 365.84 365.84"><defs><style>.cls-1{fill:#e84133;}.cls-2,.cls-3{font-size:25px;font-family:OpenSansHebrewCondensed-Bold, Open Sans Hebrew Condensed;font-weight:700;}.cls-3{fill:#fdfdfd;}.cls-4,.cls-6{fill:#fff;}.cls-5{fill:#6fc7db;}.cls-6{stroke:#e94c44;}.cls-6,.cls-9{stroke-miterlimit:10;}.cls-7{fill:#1d1d1b;}.cls-8{fill:#5fc1ca;}.cls-9{fill:none;stroke:#fff;}</style></defs><circle class="cls-1" cx="182.92" cy="182.92" r="182.92"/><text class="cls-2" transform="translate(124.21 62.41)">Chill in out</text><text class="cls-3" transform="translate(121.44 62.41)">Chill in out</text><path class="cls-4" d="M151.59,94.57a3,3,0,0,0-.94.16V93.16A3.55,3.55,0,0,1,151.8,93a4.36,4.36,0,0,1,1.12.13,2.06,2.06,0,0,1,.71.36,1.48,1.48,0,0,1,.41.58,2.84,2.84,0,0,1,.2.73,5.92,5.92,0,0,1,0,.9v6.52h-1.35l-.31-1.33h-.11a1.52,1.52,0,0,1-.24.48,2.4,2.4,0,0,1-.39.48,2.06,2.06,0,0,1-.6.35,2,2,0,0,1-.75.16,4.81,4.81,0,0,1-.8-.08l.15-1.74a.5.5,0,0,0,.22,0,2.36,2.36,0,0,0,.37,0,2.78,2.78,0,0,0,1.3-.27,1,1,0,0,0,.52-.63,4.54,4.54,0,0,0,.12-1.18V95.7C152.42,95,152.14,94.57,151.59,94.57Z"/><path class="cls-4" d="M157.77,94.67a.9.9,0,0,0-.48-.1,3.59,3.59,0,0,0-.84.13V93.14a5.86,5.86,0,0,1,1.13-.14,4.19,4.19,0,0,1,.84.07,2.78,2.78,0,0,1,.63.19,1.35,1.35,0,0,1,.44.31,1.76,1.76,0,0,1,.29.4,2,2,0,0,1,.16.51,5.74,5.74,0,0,1,.1,1.22v4A9.36,9.36,0,0,1,160,101a6.4,6.4,0,0,1-.17,1l-.09.31H156V100.7h2a7.22,7.22,0,0,0,.13-1.61V95.7C158.17,95.16,158,94.82,157.77,94.67Z"/><path class="cls-4" d="M162.28,99.15v-6h1.87v4.19L163,99.15Z"/><path class="cls-4" d="M166,93.11c.69-.07,1.29-.11,1.8-.11a5.33,5.33,0,0,1,1.3.14,2.48,2.48,0,0,1,.85.38,1.64,1.64,0,0,1,.5.65,3.31,3.31,0,0,1,.24.87,7.11,7.11,0,0,1,.07,1.12v6.06h-1.88V96.15a2.32,2.32,0,0,0-.26-1.26,1.27,1.27,0,0,0-1.07-.36c-.33,0-.85,0-1.55.1Z"/><path class="cls-4" d="M175.75,102.22h-2.56l-.72-9.08h1.86l.39,4.67a.88.88,0,0,0,.7-.32,2,2,0,0,0,.27-.95l.27-3.4h1.85l-.26,3.38a2.54,2.54,0,0,1-2.72,2.63l.13,1.55h.79a2.62,2.62,0,0,0,2.12-.92,4.39,4.39,0,0,0,.92-2.56l.33-4.08H181l-.34,4.07a8,8,0,0,1-.34,1.84,4.89,4.89,0,0,1-.75,1.48,4.17,4.17,0,0,1-.62.66,3.71,3.71,0,0,1-.82.53A5.37,5.37,0,0,1,175.75,102.22Z"/><path class="cls-4" d="M188.41,102.2a2.68,2.68,0,0,1-.47.12,5.6,5.6,0,0,1-.64,0,2.29,2.29,0,0,1-.83-.19v-1.51a.86.86,0,0,0,.45.13.5.5,0,0,0,.54-.37,3.1,3.1,0,0,0,.08-.76v-5l-.68.14v-1.5l.4-.09c.17,0,.54-.09,1.1-.16a14.53,14.53,0,0,1,1.55-.09,6.89,6.89,0,0,1,1.14.07,3.35,3.35,0,0,1,.73.2,1.65,1.65,0,0,1,.52.33,1.87,1.87,0,0,1,.36.45,2.14,2.14,0,0,1,.23.59,7,7,0,0,1,.13,1.52v6.06h-1.88V96.15a2.07,2.07,0,0,0-.28-1.27,1.24,1.24,0,0,0-1-.35h-.4v5.13a7,7,0,0,1-.1,1.4,1.6,1.6,0,0,1-.25.65q-.15.17-.3.3A1.13,1.13,0,0,1,188.41,102.2Z"/><path class="cls-4" d="M198.27,93.14v1.51a8.24,8.24,0,0,0-.4.8,5.48,5.48,0,0,0-.41,1.26,9.93,9.93,0,0,0-.17,1.19c0,.33,0,.75,0,1.26v3.06H195.4V99.16a8.41,8.41,0,0,1,.3-2.44,4.69,4.69,0,0,1,.63-1.39,2.82,2.82,0,0,1,.52-.57l.09-.06v0h-1.79V93.14Z"/><path class="cls-4" d="M200,99.15v-6h1.87v4.19l-1.15,1.82Z"/><path class="cls-4" d="M203.68,93.11c.69-.07,1.29-.11,1.8-.11a5.27,5.27,0,0,1,1.3.14,2.48,2.48,0,0,1,.85.38,1.64,1.64,0,0,1,.5.65,3.77,3.77,0,0,1,.25.87,8.77,8.77,0,0,1,.06,1.12v6.06h-1.88V96.15a2.32,2.32,0,0,0-.26-1.26,1.27,1.27,0,0,0-1.07-.36c-.33,0-.85,0-1.55.1Z"/><path class="cls-4" d="M216.7,93.14v3.25a3,3,0,0,1-.43,1.73,2,2,0,0,1-.46.47,2.72,2.72,0,0,1-.72.38l1.54,3.25h-2.17l-1.81-4.31a1.45,1.45,0,0,0-.3,1v3.27h-1.87V99a5.08,5.08,0,0,1,.05-.72,4,4,0,0,1,.19-.67A2.13,2.13,0,0,1,212,96.45l-1.64-3.31h2.16l1.35,3.11.6,1.3a1.37,1.37,0,0,0,.41-1.14V93.14Z"/><path class="cls-4" d="M146.06,119.51v-9a8.44,8.44,0,0,1,1.11-.13c.53,0,1-.07,1.54-.07a7.08,7.08,0,0,1,1.16.07,3.2,3.2,0,0,1,.73.2,1.69,1.69,0,0,1,.53.33,1.91,1.91,0,0,1,.58,1,7,7,0,0,1,.14,1.52v6.06ZM150,118v-4.55a2.07,2.07,0,0,0-.28-1.27,1.28,1.28,0,0,0-1.05-.35l-.7,0V118Z"/><path class="cls-4" d="M154.08,116.44v-6H156v4.19l-1.15,1.82Z"/><path class="cls-4" d="M159.51,112a.9.9,0,0,0-.48-.1,3.52,3.52,0,0,0-.84.13v-1.56a5.86,5.86,0,0,1,1.13-.14,4.19,4.19,0,0,1,.84.07,3,3,0,0,1,.63.19,1.22,1.22,0,0,1,.43.31,1.5,1.5,0,0,1,.29.4,2,2,0,0,1,.17.51,5.8,5.8,0,0,1,.1,1.22v4a9.36,9.36,0,0,1-.09,1.3,8,8,0,0,1-.17,1l-.09.31h-3.66V118h2a7.22,7.22,0,0,0,.13-1.61V113C159.91,112.45,159.78,112.11,159.51,112Z"/><path class="cls-4" d="M164,116.44v-6h1.88v4.19l-1.16,1.82Z"/><path class="cls-4" d="M173.21,110.43v1.43a1.77,1.77,0,0,0-1.07,1.89v5.76h-1.87V113.7a2.25,2.25,0,0,1,.11-.71,1.49,1.49,0,0,1,.26-.49,1.65,1.65,0,0,1,.59-.47l.1,0v0h-3.74v-1.51Z"/><path class="cls-4" d="M177,114.53l.38,2.79a4.23,4.23,0,0,0,.66-1.15,4.72,4.72,0,0,0,.32-1.36l.37-4.37h1.88l-.35,4.07a8.86,8.86,0,0,1-.3,1.82,5,5,0,0,1-.58,1.33,3.81,3.81,0,0,1-1.12,1.14,4.92,4.92,0,0,1-1.83.73l-2,.4v-1.54l1.47-.29-1.53-7.67h1.87Z"/><path class="cls-4" d="M186.69,119.51v-9a8.44,8.44,0,0,1,1.11-.13c.53,0,1-.07,1.54-.07a7.22,7.22,0,0,1,1.17.07,3.1,3.1,0,0,1,.72.2,1.59,1.59,0,0,1,.53.33,1.91,1.91,0,0,1,.58,1,6.38,6.38,0,0,1,.14,1.52v6.06ZM190.6,118v-4.55a2.07,2.07,0,0,0-.28-1.27,1.25,1.25,0,0,0-1-.35l-.7,0V118Z"/><path class="cls-4" d="M194.72,116.44v-6h1.87v4.19l-1.16,1.82Z"/><path class="cls-4" d="M201.32,110.78a2,2,0,0,1,.62-.34,2.34,2.34,0,0,1,.85-.15,2.1,2.1,0,0,1,.82.15,1.54,1.54,0,0,1,.6.43,2.48,2.48,0,0,1,.39.63,2.94,2.94,0,0,1,.24.82,10.43,10.43,0,0,1,.16,1.92v5.27h-3.56V118h1.69v-3.73c0-1.6-.33-2.39-1-2.39a1,1,0,0,0-.52.15,1.22,1.22,0,0,0-.38.37,2.88,2.88,0,0,0-.4.78l0,.16-.53,6.18h-1.86l.49-5.89a5.83,5.83,0,0,0,0-.59,6.69,6.69,0,0,0-.26-1.8l-.26-.8h1.78q.1.27.21.63l.15.63h.1a2.28,2.28,0,0,1,.26-.47A2.48,2.48,0,0,1,201.32,110.78Z"/><path class="cls-4" d="M209.37,114.53l.37,2.79a4,4,0,0,0,.67-1.15,5.07,5.07,0,0,0,.32-1.36l.37-4.37H213l-.35,4.07a9.61,9.61,0,0,1-.3,1.82,5.31,5.31,0,0,1-.58,1.33,3.93,3.93,0,0,1-1.12,1.14,5,5,0,0,1-1.84.73l-2,.4v-1.54l1.47-.29-1.53-7.67h1.86Z"/><path class="cls-4" d="M217.27,110.35a4.58,4.58,0,0,1,.78-.06,2.07,2.07,0,0,1,.89.21,2,2,0,0,1,.74.58,3.58,3.58,0,0,1,.52.82,4.28,4.28,0,0,1,.34,1,8.9,8.9,0,0,1,.24,2,9.82,9.82,0,0,1-.12,1.64,6.53,6.53,0,0,1-.31,1.17,3.73,3.73,0,0,1-.46.84,2.71,2.71,0,0,1-.54.57,2.26,2.26,0,0,1-.58.34,2.11,2.11,0,0,1-.55.17,2.61,2.61,0,0,1-.48.05,2.5,2.5,0,0,1-.47-.05,2,2,0,0,1-.55-.17,2.26,2.26,0,0,1-.58-.34,2.49,2.49,0,0,1-.54-.57,3.65,3.65,0,0,1-.46-.83,7.32,7.32,0,0,1-.43-2.72v-4.53h1.92V115a6.7,6.7,0,0,0,.32,2.53,1.32,1.32,0,0,0,.35.49.77.77,0,0,0,.44.14.77.77,0,0,0,.45-.14,1.44,1.44,0,0,0,.35-.49,3.87,3.87,0,0,0,.24-1,15.06,15.06,0,0,0,0-3.1,3.89,3.89,0,0,0-.24-1,1.29,1.29,0,0,0-.35-.48.71.71,0,0,0-.45-.14l-.47,0Z"/><path class="cls-5" d="M189.56,222.23H176c-29.78,0-26.1-45.73-20-64.94a24.65,24.65,0,0,1,2.95-3.57,24,24,0,0,1,17-7.08h13.6a24,24,0,0,1,15.31,5.52,24.64,24.64,0,0,1,2,1.84c6.35,6.54,6.84,16.69,7.06,25.28.24,9.87.8,20.37-3.46,29.56-2.84,6.13-7.36,10.71-16,12.9A24.08,24.08,0,0,1,189.56,222.23Z"/><path class="cls-6" d="M155.24,164.34c0-7.56,27.38-7.56,27.38,0a13.69,13.69,0,0,1-27.38,0Z"/><path class="cls-7" d="M160.19,164.64c0-5.22,18.91-5.22,18.91,0a9.46,9.46,0,1,1-18.91,0Z"/><circle class="cls-4" cx="170.78" cy="170.1" r="3.09"/><path class="cls-6" d="M210.43,164.34c0-7.56-27.38-7.56-27.38,0a13.69,13.69,0,1,0,27.38,0Z"/><path class="cls-7" d="M205.48,164.64c0-5.22-18.91-5.22-18.91,0a9.46,9.46,0,1,0,18.91,0Z"/><circle class="cls-4" cx="194.89" cy="170.1" r="3.09"/><path class="cls-4" d="M164.84,182.28c.15-.62,5.68-.13,12.15-3.82,3.14-1.8,4.83-3.62,5.27-3.37s-1.22,3.91-4.49,6.07C172.26,184.82,164.67,183,164.84,182.28Z"/><path class="cls-4" d="M201.1,182.15c-.15-.61-5.68-.13-12.14-3.82-3.15-1.79-4.84-3.62-5.28-3.37s1.22,3.91,4.49,6.08C193.68,184.69,201.28,182.88,201.1,182.15Z"/><path class="cls-8" d="M310.69,199c.18-.24,1.74-17.27,1.74-17.27s7-3.6,6-2.93c-.08,0,1.07,22.23.85,22.52s-35.34,38.12-38.89,41.76l-5.65-8.72C279.81,229.44,308.65,201.74,310.69,199Z"/><path class="cls-8" d="M55.15,199c-.18-.24-1.74-17.27-1.74-17.27s-7-3.6-6-2.93c.08,0-1.07,22.23-.85,22.52s35.34,38.12,38.89,41.76l5.65-8.72C86,229.44,57.18,201.74,55.15,199Z"/><path class="cls-4" d="M95.85,262.48v-9a8.44,8.44,0,0,1,1.11-.13c.53-.05,1-.07,1.53-.07a7.14,7.14,0,0,1,1.17.07,3.35,3.35,0,0,1,.73.2,1.54,1.54,0,0,1,.52.33,2.21,2.21,0,0,1,.37.45,2.14,2.14,0,0,1,.21.59,6.32,6.32,0,0,1,.15,1.52v6.06ZM99.76,261v-4.55a2.11,2.11,0,0,0-.29-1.28,1.27,1.27,0,0,0-1-.34l-.71,0V261Z"/><path class="cls-4" d="M103.87,259.41v-6h1.87v4.19l-1.15,1.82Z"/><path class="cls-4" d="M109.29,254.93a.89.89,0,0,0-.47-.1,3.66,3.66,0,0,0-.85.13V253.4a5.86,5.86,0,0,1,1.14-.14,4.19,4.19,0,0,1,.84.07,2.85,2.85,0,0,1,.62.19,1.25,1.25,0,0,1,.44.31,1.76,1.76,0,0,1,.29.4,2,2,0,0,1,.17.51,6.48,6.48,0,0,1,.1,1.22v4a9.36,9.36,0,0,1-.09,1.3c-.06.43-.12.75-.17,1l-.09.31h-3.66V261h2a7.92,7.92,0,0,0,.13-1.62V256C109.7,255.42,109.56,255.08,109.29,254.93Z"/><path class="cls-4" d="M116.28,253.32a4.58,4.58,0,0,1,.78-.06,2,2,0,0,1,.89.21,2.1,2.1,0,0,1,.74.57,3.88,3.88,0,0,1,.52.83,4.29,4.29,0,0,1,.35,1,9.49,9.49,0,0,1,.23,2,9.82,9.82,0,0,1-.12,1.64,6.53,6.53,0,0,1-.31,1.17,3.73,3.73,0,0,1-.46.84,2.71,2.71,0,0,1-.54.57,2.26,2.26,0,0,1-.58.34,2,2,0,0,1-.55.17,2.28,2.28,0,0,1-1,0,2,2,0,0,1-.55-.17,2.26,2.26,0,0,1-.58-.34,2.49,2.49,0,0,1-.54-.57,3.88,3.88,0,0,1-.46-.83,7.53,7.53,0,0,1-.43-2.72v-4.53h1.92v4.52a6.7,6.7,0,0,0,.32,2.53,1.44,1.44,0,0,0,.35.49.77.77,0,0,0,.45.14.77.77,0,0,0,.44-.14,1.32,1.32,0,0,0,.35-.49,3.87,3.87,0,0,0,.24-1,15.06,15.06,0,0,0,0-3.1,3.89,3.89,0,0,0-.24-1,1.19,1.19,0,0,0-.35-.48.7.7,0,0,0-.44-.14l-.48,0Z"/><path class="cls-4" d="M123.69,262.48h-1.87V253.4h1.87Z"/><path class="cls-4" d="M125.8,253.37a12.92,12.92,0,0,1,1.6-.11,7.33,7.33,0,0,1,1.19.07,3.35,3.35,0,0,1,.73.2,1.54,1.54,0,0,1,.52.33,1.87,1.87,0,0,1,.36.45,2.51,2.51,0,0,1,.22.59,7,7,0,0,1,.14,1.52V261h.94v1.52h-5.7V261h2.88v-4.55a2.12,2.12,0,0,0-.28-1.28,1.3,1.3,0,0,0-1-.34,8.68,8.68,0,0,0-1.4.09l-.16,0Z"/><path class="cls-4" d="M236.07,262.46a2.16,2.16,0,0,1-.47.11,4,4,0,0,1-.64.05,2.29,2.29,0,0,1-.83-.19v-1.51a.86.86,0,0,0,.45.13.53.53,0,0,0,.36-.1.53.53,0,0,0,.18-.28,3,3,0,0,0,.07-.75v-5l-.67.14v-1.5l.4-.09c.17,0,.53-.09,1.09-.16a14.71,14.71,0,0,1,1.56-.09,7,7,0,0,1,1.14.07,3.1,3.1,0,0,1,.72.2,1.59,1.59,0,0,1,.53.33,1.87,1.87,0,0,1,.36.45,2.14,2.14,0,0,1,.23.59,7,7,0,0,1,.13,1.52v6.06H238.8v-6.07a2.12,2.12,0,0,0-.28-1.28,1.31,1.31,0,0,0-1.05-.34h-.4v5.13a6.4,6.4,0,0,1-.1,1.4,1.47,1.47,0,0,1-.25.65,2,2,0,0,1-.29.29A1.07,1.07,0,0,1,236.07,262.46Z"/><path class="cls-4" d="M243.06,258.48a2.51,2.51,0,0,1-.4-.82,4.1,4.1,0,0,1-.16-1.24,3.58,3.58,0,0,1,.25-1.36,2.61,2.61,0,0,1,.66-1,2.88,2.88,0,0,1,2-.79,2.52,2.52,0,0,1,.93.17,3.29,3.29,0,0,1,.68.37,2.79,2.79,0,0,1,.54.58,3.85,3.85,0,0,1,.45.83,5.72,5.72,0,0,1,.31,1.18,9.08,9.08,0,0,1,.12,1.54,9.29,9.29,0,0,1-.12,1.55,5.78,5.78,0,0,1-.31,1.17,3.71,3.71,0,0,1-.45.84,2.71,2.71,0,0,1-.54.57,2.89,2.89,0,0,1-.58.35,2.78,2.78,0,0,1-1.06.21c-.37,0-.73,0-1.1-.05l-.79-.1-.25-.05v-1.58a12.27,12.27,0,0,0,2.17.25.72.72,0,0,0,.44-.14,1.21,1.21,0,0,0,.35-.49,3.17,3.17,0,0,0,.24-1,13.39,13.39,0,0,0,0-3.1,3.17,3.17,0,0,0-.24-1,1.11,1.11,0,0,0-.35-.48.72.72,0,0,0-.48-.14.81.81,0,0,0-.53.2,1.2,1.2,0,0,0-.32.52,3.53,3.53,0,0,0-.14.89c0,.91.33,1.43,1,1.55l.26.05-.36,1.48-.37-.05a5.74,5.74,0,0,1-.65-.13,3,3,0,0,1-.64-.3A2.11,2.11,0,0,1,243.06,258.48Z"/><path class="cls-4" d="M256,262.48h-5.84V261h2.43l1.21.1v0l-1.17-1.78-2.54-5.85h1.94l1.66,3.93a2.81,2.81,0,0,0,.46-.78,4.21,4.21,0,0,0,.23-1.16l.17-2h1.88l-.15,1.67c0,.25,0,.46-.06.62s-.08.42-.15.76a4.41,4.41,0,0,1-.3.89,5.24,5.24,0,0,1-.49.86,3.85,3.85,0,0,1-.76.8l1.48,2.35Z"/><path class="cls-4" d="M262.87,262.24v.24H261v-.24a13.28,13.28,0,0,1,.54-3.32l1-4h-4.16V253.4h6.19v1.17l-1.12,4.28q-.33,1.25-.48,2A7.32,7.32,0,0,0,262.87,262.24Zm-2.57,3.7h-1.87v-8.89h1.87Z"/><path class="cls-4" d="M149.86,311.17a11.23,11.23,0,0,1,1.6-.11,7.33,7.33,0,0,1,1.19.07,3.37,3.37,0,0,1,.73.19,1.74,1.74,0,0,1,.52.34,1.87,1.87,0,0,1,.36.45,2.51,2.51,0,0,1,.22.59,6.89,6.89,0,0,1,.14,1.52v4.54h.94v1.51h-5.7v-1.51h2.88v-4.55a2.18,2.18,0,0,0-.28-1.28,1.3,1.3,0,0,0-1-.35,8.76,8.76,0,0,0-1.4.09l-.16,0Z"/><path class="cls-4" d="M158.69,311.2H162v1.26l-1.19,4.32-.72,3.49h-1.81l.72-3.49,1.11-4.07h-3.3v-3.38h1.88Z"/><path class="cls-4" d="M163.82,320.27v-8.91a14.24,14.24,0,0,1,2.85-.3,3.24,3.24,0,0,1,2.22.6,2,2,0,0,1,.58,1,6.89,6.89,0,0,1,.14,1.52v6h-1.88v-6.06a2.1,2.1,0,0,0-.28-1.28,1.31,1.31,0,0,0-1-.35,4.29,4.29,0,0,0-.7.07v7.62Z"/><path class="cls-4" d="M181.14,311.2v1.43a1.75,1.75,0,0,0-1.07,1.88v5.76H178.2v-5.81a1.94,1.94,0,0,1,.11-.7,1.55,1.55,0,0,1,.26-.5,1.59,1.59,0,0,1,.58-.46l.11,0v-.05h-3.74V311.2Z"/><path class="cls-4" d="M184.16,311.2h3.31v1.26l-1.19,4.32-.72,3.49h-1.81l.72-3.49,1.12-4.07h-3.3v-3.38h1.87Z"/><path class="cls-4" d="M191.16,320.27h-1.87V311.2h1.87Z"/><path class="cls-4" d="M198.06,320v.24H196.2V320a13.28,13.28,0,0,1,.54-3.31l1-4h-4.17V311.2h6.19v1.16l-1.12,4.29c-.21.83-.37,1.5-.47,2A6.56,6.56,0,0,0,198.06,320Zm-2.57,3.71h-1.87v-8.9h1.87Z"/><path class="cls-4" d="M203.5,320.27h-1.87V311.2h1.87Z"/><path class="cls-4" d="M208.6,320.27H206l-.72-9.07h1.86l.39,4.67a.91.91,0,0,0,.7-.32,2,2,0,0,0,.27-1l.27-3.39h1.85l-.26,3.37a2.55,2.55,0,0,1-2.73,2.64l.14,1.55h.79a2.65,2.65,0,0,0,2.12-.92,4.39,4.39,0,0,0,.92-2.56l.33-4.08h1.87l-.34,4.07a8.17,8.17,0,0,1-.34,1.84,4.78,4.78,0,0,1-.75,1.48,4.65,4.65,0,0,1-.62.65,3.42,3.42,0,0,1-.82.54A5.37,5.37,0,0,1,208.6,320.27Z"/><path class="cls-8" d="M212.69,253.74l-58.95-.3c-1.1,3.41-2.4,6.83-3.8,10.24,3.1.11,19,.05,19.22.05l43.51-.07C212.67,263.58,212.73,253.74,212.69,253.74Z"/><path class="cls-9" d="M189.17,299h-4.53a8.2,8.2,0,0,1-8.31-6.5c-.47-2.17-.39-6.05.7-8a14.11,14.11,0,0,1,4.28-4.65c2.95-2.05,5.35-3.25,8.76-1.39a15.4,15.4,0,0,1,5.25,4.53,12.85,12.85,0,0,1,1,12.5c-.95,2-2.67,2.6-5.56,3.33A7.81,7.81,0,0,1,189.17,299Z"/><path class="cls-4" d="M181.23,282.14c-.17.31.74,3.79.5,9.33-.12,2.7-.44,4.45-.3,4.65s1-2.16,1.23-5.07C183,286.15,181.43,281.77,181.23,282.14Z"/><path class="cls-4" d="M186.3,282.14c-.17.31.74,3.79.5,9.33-.12,2.7-.44,4.45-.31,4.65s1-2.16,1.24-5.07C188.09,286.15,186.49,281.77,186.3,282.14Z"/><path class="cls-4" d="M191.37,282.14c-.17.31.74,3.79.5,9.33-.12,2.7-.44,4.45-.31,4.65s1-2.16,1.24-5.07C193.16,286.15,191.56,281.77,191.37,282.14Z"/><path class="cls-9" d="M253.82,248.21h-4.53c-4.07,0-7.71-2.79-10.11-6.12-1.46-2-2.4-3.05-1-4,6.19-4.13,3.43-4.36,6.22-6.37.87-.63,1.85-.59,2.54-1.52s1-1.88,1.63-2.78a19.24,19.24,0,0,0,1.76-3.09c.56-1.36,4.38,4.39,5.25,5.07.51.4,2.89,2,3,2,5.63,3.23,2.68,5.31,6,7.69,1.88,1.36-1.92,4.65-3.33,5.68-1.82,1.33-2.9,2.51-5.79,3.24A8.64,8.64,0,0,1,253.82,248.21Z"/><path class="cls-4" d="M260.46,235.73c-.39-.17-4.73.7-11.65.42-3.37-.14-5.55-.48-5.81-.35s2.71,1,6.34,1.28C255.47,237.48,260.92,235.93,260.46,235.73Z"/><path class="cls-4" d="M263.35,239c-.54-.24-6.62,1-16.32.63-4.72-.2-7.78-.68-8.13-.49s3.79,1.5,8.87,1.84C256.35,241.59,264,239.33,263.35,239Z"/><path class="cls-9" d="M122.68,240.19c2.16,1.16,1.87,4,.49,6.19-2.16,3.45-7-.56-11,.29-8.8,1.9-9.43-2.5-9.43-4.44a3.51,3.51,0,0,1,3.13-3.55c2.32-.43,5.22,2.63,6.58,2.88C114.59,242,118,237.69,122.68,240.19Z"/><path class="cls-4" d="M106,240.09A16.42,16.42,0,0,0,105,242.7c-.2.78-.24,1.32-.31,1.36s-.19-.73,0-1.59A4,4,0,0,1,106,240.09Z"/><path class="cls-4" d="M122.39,241.83a15.24,15.24,0,0,1-.85,2.68c-.34.73-.65,1.17-.63,1.25s.62-.45,1-1.23A4,4,0,0,0,122.39,241.83Z"/></svg>