<?xml version="1.0" encoding="utf-8"?>
<!-- Generator: Adobe Illustrator 26.0.1, SVG Export Plug-In . SVG Version: 6.00 Build 0)  -->
<svg version="1.1" id="Layer_1" xmlns="http://www.w3.org/2000/svg" xmlns:xlink="http://www.w3.org/1999/xlink" x="0px" y="0px"
	 viewBox="0 0 49.4 56.3" style="enable-background:new 0 0 49.4 56.3;" xml:space="preserve">
<style type="text/css">
	.st0{fill:#FFFFFF;}
	.st1{fill:none;stroke:#FFFFFF;stroke-width:0.5;stroke-miterlimit:10;}
</style>
<g>
	<path class="st0" d="M17,50.8c1.4,2.2,6,3.3,9.6,3.3s6.5-1.1,8.4-3.4s3-5.8,3-10.4V9.8h-4.4V8.5h9.8v1.3h-3.7v30
		c0,5.6-1.2,9.7-3.7,12.5s-6.8,4.1-13.1,4.1S12,55,8.7,52.4s-5-7.1-5-13.4V9.8H0V8.5h21.2v1.3h-6.4v31.5
		C14.8,45.5,15.6,48.6,17,50.8z"/>
	<path class="st0" d="M29.2,9.9c0-2.7,4.5-4.9,10-4.9s10,2.2,10,4.9"/>
	<path class="st1" d="M29.3,9.9c0.2-5.5,4.8-9.8,10.2-9.6c5.2,0.2,9.4,4.4,9.6,9.6"/>
</g>
</svg>
