<?xml version="1.0" encoding="utf-8"?>
<!-- Generator: Adobe Illustrator 26.0.1, SVG Export Plug-In . SVG Version: 6.00 Build 0)  -->
<svg version="1.1" id="Layer_1" xmlns="http://www.w3.org/2000/svg" xmlns:xlink="http://www.w3.org/1999/xlink" x="0px" y="0px"
	 viewBox="0 0 192.7 77.4" style="enable-background:new 0 0 192.7 77.4;" xml:space="preserve">
<style type="text/css">
	.st0{display:none;}
	.st1{fill:none;stroke:#000000;stroke-width:0.5;stroke-miterlimit:10;}
</style>
<g id="Layer_1_00000126287079139481422710000017433545818368399294_" class="st0">
</g>
<g id="layer_x5F_1">
</g>
<g id="layer_x5F_2">
</g>
<g id="layer_x5F_3">
</g>
<g id="layer_x5F_4">
</g>
<g id="Layer_6">
</g>
<g id="Layer_7">
</g>
<g id="Layer_8">
</g>
<g id="Layer_9">
</g>
<g id="backline">
</g>
<g id="oreange">
</g>
<g id="dots_00000157282514908532705670000012918094734102484671_">
	<g>
		<g>
			<g>
				<path d="M19.6,10.8c4.4,0,7.7,0.9,9.9,2.7s4.2,5.1,5.9,10.1h1.2L35.9,9.3H0.2v1.5h4v45h-4v1.5h15.7v-1.5h-1.4V34.9h6.1
					c2.2,0,4,0.7,5.3,2.2c0.9,1,1.5,2.2,1.9,3.4c0.3,0.8,0.5,1.6,0.8,2.4c0.1,0.3,0.1,1.2,0.3,1.4c0.5,0.5,2,0,2.5-0.3
					c0.8-0.5,1.4-1.3,1.9-2.1c1.3-2.3,1.7-5.1,1.7-7.7c0-2.5-0.4-5.2-1.6-7.4c-0.4-0.8-1-1.6-1.8-2.2C31,24.2,30,23.9,29.3,24
					c-0.5,0.1-0.4,0.4-0.5,0.9s-0.2,0.9-0.4,1.4c-0.5,1.6-1.3,3.1-2.4,4.3c-1.5,1.6-3.3,2.4-5.5,2.4h-6.1V10.8H19.6z"/>
				<g>
					<path d="M1.2,63.4v4.6h6.1v1.1H1.2v5H0V62.2h8.1v1.1C8.1,63.2,1.2,63.2,1.2,63.4z"/>
					<path d="M18.3,65.1v8.8h-1.2v-1.6c-0.3,0.5-0.7,1-1.3,1.3s-1.2,0.4-1.9,0.4c-1.2,0-2.1-0.3-2.7-1c-0.7-0.6-1-1.6-1-2.8v-5.1
						h1.2v5c0,0.9,0.2,1.6,0.7,2.1s1.1,0.7,2,0.7s1.7-0.3,2.2-0.8s0.8-1.4,0.8-2.4v-4.6H18.3z"/>
					<path d="M24,65.6c0.6-0.3,1.2-0.5,2.1-0.5v1.2h-0.3c-0.9,0-1.7,0.3-2.2,0.9c-0.5,0.6-0.8,1.4-0.8,2.4v4.5h-1.2v-8.8h1.1v1.7
						C23,66.4,23.4,65.9,24,65.6z"/>
					<path d="M30.7,65.6c0.6-0.3,1.2-0.5,2.1-0.5v1.2h-0.3c-0.9,0-1.7,0.3-2.2,0.9c-0.5,0.6-0.8,1.4-0.8,2.4v4.5h-1.2v-8.8h1.1v1.7
						C29.8,66.4,30.2,65.9,30.7,65.6z"/>
					<path d="M42.5,65.1l-4.4,9.9c-0.4,0.8-0.8,1.4-1.2,1.8c-0.5,0.3-1,0.5-1.7,0.5c-0.4,0-0.8-0.1-1.2-0.2c-0.4-0.1-0.7-0.3-1-0.6
						l0.6-0.9c0.4,0.4,1,0.7,1.6,0.7c0.4,0,0.7-0.1,1-0.3c0.3-0.2,0.6-0.6,0.8-1.1l0.4-0.9l-3.9-8.8h1.2l3.3,7.5l3.3-7.5L42.5,65.1
						L42.5,65.1z"/>
					<path d="M50.1,63.4v4.6h6.1v1.1h-6.1v5h-1.2V62.2H57v1.1C57,63.2,50.1,63.2,50.1,63.4z"/>
					<path d="M61.6,65.6c0.6-0.3,1.2-0.5,2.1-0.5v1.2h-0.3c-0.9,0-1.7,0.3-2.2,0.9c-0.5,0.6-0.8,1.4-0.8,2.4v4.5h-1.2v-8.8h1.1v1.7
						C60.6,66.4,61,65.9,61.6,65.6z"/>
					<path d="M65.9,63c-0.2-0.2-0.3-0.4-0.3-0.6c0-0.2,0.1-0.4,0.3-0.6s0.4-0.3,0.6-0.3s0.5,0.1,0.6,0.2c0.2,0.2,0.3,0.4,0.3,0.6
						c0,0.2-0.1,0.5-0.3,0.6s-0.4,0.3-0.6,0.3C66.3,63.2,66.1,63.2,65.9,63z M65.9,65.1h1.2v8.8h-1.2V65.1z"/>
					<path d="M78.1,69.9h-7.4c0.1,0.9,0.4,1.7,1.1,2.2c0.6,0.6,1.4,0.8,2.4,0.8c0.5,0,1.1-0.1,1.5-0.3c0.5-0.2,0.9-0.5,1.2-0.9
						l0.7,0.8c-0.4,0.5-0.9,0.8-1.5,1.1c-0.6,0.2-1.2,0.4-1.9,0.4c-0.9,0-1.7-0.2-2.4-0.6c-0.7-0.4-1.2-0.9-1.6-1.6
						s-0.6-1.5-0.6-2.3s0.2-1.6,0.6-2.3c0.4-0.7,0.9-1.2,1.5-1.6c0.7-0.4,1.4-0.6,2.2-0.6c0.8,0,1.5,0.2,2.2,0.6
						c0.6,0.4,1.2,0.9,1.5,1.6c0.4,0.7,0.6,1.5,0.6,2.3L78.1,69.9z M71.7,66.9c-0.6,0.5-0.9,1.3-1,2.1H77c-0.1-0.9-0.4-1.6-1-2.1
						s-1.3-0.8-2.2-0.8C73,66.1,72.3,66.4,71.7,66.9z"/>
					<path d="M87.7,66.1c0.7,0.6,1,1.6,1,2.8v5.1h-1.2v-5c0-0.9-0.2-1.6-0.7-2.1s-1.1-0.7-2-0.7c-1,0-1.7,0.3-2.3,0.8
						c-0.6,0.6-0.8,1.3-0.8,2.3v4.7h-1.2v-8.8h1.1v1.6c0.3-0.5,0.8-1,1.4-1.3s1.2-0.4,2-0.4C86.2,65.1,87.1,65.4,87.7,66.1z"/>
					<path d="M100,61.5v12.5h-1.1v-1.7c-0.4,0.6-0.8,1-1.4,1.4c-0.6,0.4-1.3,0.5-2,0.5c-0.8,0-1.6-0.2-2.2-0.6
						c-0.6-0.4-1.2-0.9-1.6-1.6s-0.6-1.5-0.6-2.3s0.2-1.7,0.6-2.3c0.4-0.7,0.9-1.2,1.6-1.6c0.7-0.4,1.4-0.6,2.2-0.6
						c0.7,0,1.4,0.1,1.9,0.4c0.6,0.3,1,0.7,1.4,1.3v-5.3h1.2V61.5z M97.3,72.6c0.5-0.3,0.9-0.7,1.2-1.2c0.3-0.5,0.4-1.1,0.4-1.8
						s-0.1-1.3-0.4-1.8s-0.7-0.9-1.2-1.2c-0.5-0.3-1.1-0.4-1.7-0.4s-1.2,0.1-1.7,0.4s-0.9,0.7-1.2,1.2c-0.3,0.5-0.4,1.1-0.4,1.8
						c0,0.7,0.1,1.3,0.4,1.8s0.7,0.9,1.2,1.2s1.1,0.4,1.7,0.4S96.8,72.9,97.3,72.6z"/>
					<path d="M103.7,73.9c-0.7-0.2-1.2-0.5-1.5-0.8l0.5-0.9c0.4,0.3,0.8,0.5,1.4,0.7c0.6,0.2,1.1,0.3,1.7,0.3c0.8,0,1.4-0.1,1.8-0.4
						c0.4-0.3,0.6-0.6,0.6-1.1c0-0.3-0.1-0.6-0.3-0.8c-0.2-0.2-0.5-0.3-0.8-0.4c-0.3-0.1-0.8-0.2-1.3-0.3c-0.7-0.1-1.3-0.3-1.7-0.4
						c-0.4-0.1-0.8-0.4-1.1-0.7c-0.3-0.3-0.5-0.8-0.5-1.4c0-0.7,0.3-1.3,0.9-1.8c0.6-0.5,1.5-0.7,2.6-0.7c0.6,0,1.1,0.1,1.7,0.2
						c0.6,0.2,1,0.3,1.4,0.6l-0.5,1c-0.7-0.5-1.6-0.8-2.6-0.8c-0.8,0-1.3,0.1-1.7,0.4s-0.6,0.6-0.6,1.1c0,0.3,0.1,0.6,0.3,0.8
						c0.2,0.2,0.5,0.4,0.8,0.4s0.8,0.2,1.3,0.3c0.7,0.1,1.3,0.3,1.7,0.4c0.4,0.1,0.8,0.4,1.1,0.7c0.3,0.3,0.5,0.8,0.5,1.3
						c0,0.8-0.3,1.4-1,1.8c-0.6,0.5-1.5,0.7-2.7,0.7C105,74.1,104.3,74.1,103.7,73.9z"/>
					<path d="M125.4,68.9c0.4,0.5,0.6,1.1,0.6,1.9c0,1-0.4,1.8-1.1,2.3c-0.7,0.5-1.8,0.8-3.3,0.8h-5.4V62.2h5.1c1.3,0,2.3,0.3,3,0.8
						s1.1,1.3,1.1,2.2c0,0.6-0.2,1.2-0.5,1.7s-0.8,0.8-1.3,1C124.4,68.1,125,68.4,125.4,68.9z M117.5,63.4v4.3h3.7
						c1,0,1.7-0.2,2.2-0.5c0.5-0.4,0.8-0.9,0.8-1.6s-0.3-1.2-0.8-1.6c-0.5-0.4-1.2-0.5-2.2-0.5h-3.7V63.4z M124,72.4
						c0.5-0.4,0.8-0.9,0.8-1.7c0-1.5-1.1-2.2-3.2-2.2h-4.1v4.5h4.1C122.7,73.1,123.5,72.9,124,72.4z"/>
					<path d="M129.9,73.6c-0.7-0.4-1.2-0.9-1.6-1.6c-0.4-0.7-0.6-1.5-0.6-2.3s0.2-1.6,0.6-2.3c0.4-0.7,0.9-1.2,1.6-1.6
						c0.7-0.4,1.4-0.6,2.3-0.6c0.9,0,1.6,0.2,2.3,0.6c0.7,0.4,1.2,0.9,1.6,1.6c0.4,0.7,0.6,1.5,0.6,2.3s-0.2,1.6-0.6,2.3
						c-0.4,0.7-0.9,1.2-1.6,1.6c-0.7,0.4-1.5,0.6-2.3,0.6S130.6,73.9,129.9,73.6z M133.9,72.6c0.5-0.3,0.9-0.7,1.2-1.2
						s0.4-1.1,0.4-1.8s-0.1-1.3-0.4-1.8c-0.3-0.5-0.7-0.9-1.2-1.2c-0.5-0.3-1.1-0.4-1.7-0.4c-0.6,0-1.2,0.1-1.7,0.4
						s-0.9,0.7-1.2,1.2s-0.4,1.1-0.4,1.8c0,0.7,0.1,1.3,0.4,1.8c0.3,0.5,0.7,0.9,1.2,1.2s1.1,0.4,1.7,0.4
						C132.9,73.1,133.4,72.9,133.9,72.6z"/>
					<path d="M147.1,65.1v8.8H146v-1.6c-0.3,0.5-0.7,1-1.3,1.3s-1.2,0.4-1.9,0.4c-1.2,0-2.1-0.3-2.7-1c-0.7-0.6-1-1.6-1-2.8v-5.1
						h1.2v5c0,0.9,0.2,1.6,0.7,2.1s1.1,0.7,2,0.7s1.7-0.3,2.2-0.8s0.8-1.4,0.8-2.4v-4.6H147.1z"/>
					<path d="M155.1,73.6c-0.2,0.2-0.5,0.4-0.8,0.5c-0.3,0.1-0.7,0.2-1,0.2c-0.8,0-1.5-0.2-1.9-0.7c-0.4-0.4-0.7-1.1-0.7-1.9v-5.3
						h-1.6v-1h1.6v-1.9h1.2v1.9h2.7v1h-2.7v5.3c0,0.5,0.1,0.9,0.4,1.2c0.3,0.3,0.6,0.4,1.1,0.4c0.2,0,0.5,0,0.7-0.1
						c0.2-0.1,0.4-0.2,0.6-0.3L155.1,73.6z"/>
					<path d="M157.3,63c-0.2-0.2-0.3-0.4-0.3-0.6c0-0.2,0.1-0.4,0.3-0.6s0.4-0.3,0.6-0.3c0.2,0,0.5,0.1,0.6,0.2
						c0.2,0.2,0.3,0.4,0.3,0.6c0,0.2-0.1,0.5-0.3,0.6s-0.4,0.3-0.6,0.3C157.6,63.2,157.4,63.2,157.3,63z M157.3,65.1h1.2v8.8h-1.2
						V65.1z"/>
					<path d="M169.9,65.1v12.1h-1.2v-4.9c-0.4,0.6-0.8,1-1.4,1.3c-0.6,0.3-1.2,0.4-1.9,0.4c-0.8,0-1.6-0.2-2.3-0.6
						c-0.7-0.4-1.2-0.9-1.6-1.6c-0.4-0.7-0.6-1.5-0.6-2.4c0-0.9,0.2-1.7,0.6-2.3c0.4-0.7,0.9-1.2,1.6-1.6c0.7-0.4,1.4-0.6,2.2-0.6
						c0.7,0,1.4,0.2,2,0.5s1.1,0.8,1.4,1.3v-1.7L169.9,65.1L169.9,65.1z M167.1,72.6c0.5-0.3,0.9-0.7,1.2-1.2s0.4-1.1,0.4-1.8
						s-0.1-1.3-0.4-1.8c-0.3-0.5-0.7-0.9-1.2-1.2c-0.5-0.3-1.1-0.4-1.7-0.4c-0.6,0-1.2,0.1-1.7,0.4s-0.9,0.7-1.2,1.2
						s-0.4,1.1-0.4,1.8c0,0.7,0.1,1.3,0.4,1.8c0.3,0.5,0.7,0.9,1.2,1.2s1.1,0.4,1.7,0.4S166.6,72.9,167.1,72.6z"/>
					<path d="M181.1,65.1v8.8H180v-1.6c-0.3,0.5-0.7,1-1.3,1.3s-1.2,0.4-1.9,0.4c-1.2,0-2.1-0.3-2.7-1c-0.7-0.6-1-1.6-1-2.8v-5.1
						h1.2v5c0,0.9,0.2,1.6,0.7,2.1s1.1,0.7,2,0.7s1.7-0.3,2.2-0.8s0.8-1.4,0.8-2.4v-4.6H181.1z"/>
					<path d="M192.2,69.9h-7.4c0.1,0.9,0.4,1.7,1.1,2.2c0.6,0.6,1.4,0.8,2.4,0.8c0.5,0,1.1-0.1,1.5-0.3c0.5-0.2,0.9-0.5,1.2-0.9
						l0.7,0.8c-0.4,0.5-0.9,0.8-1.5,1.1c-0.6,0.2-1.2,0.4-1.9,0.4c-0.9,0-1.7-0.2-2.4-0.6c-0.7-0.4-1.2-0.9-1.6-1.6
						c-0.4-0.7-0.6-1.5-0.6-2.3s0.2-1.6,0.6-2.3c0.4-0.7,0.9-1.2,1.5-1.6c0.7-0.4,1.4-0.6,2.2-0.6s1.5,0.2,2.2,0.6
						c0.6,0.4,1.2,0.9,1.5,1.6c0.4,0.7,0.6,1.5,0.6,2.3L192.2,69.9z M185.8,66.9c-0.6,0.5-0.9,1.3-1,2.1h6.3c-0.1-0.9-0.4-1.6-1-2.1
						s-1.3-0.8-2.2-0.8C187.1,66.1,186.3,66.4,185.8,66.9z"/>
				</g>
				<g>
					<g>
						<path d="M113.5,52c1.4,2.2,6.1,3.4,9.8,3.4c3.8,0,6.6-1.2,8.6-3.5s3-5.9,3-10.6v-31h-4.5V9h10v1.3h-3.8v30.5
							c0,5.7-1.3,9.9-3.8,12.7c-2.5,2.8-7,4.2-13.3,4.2c-6.4,0-11.3-1.3-14.6-4c-3.4-2.7-5-7.2-5-13.7V10.3h-3.8V9h21.6v1.3h-6.5
							v32.1C111.3,46.5,112,49.9,113.5,52z"/>
					</g>
					<path d="M126,10.4c0-2.8,4.6-5,10.2-5c5.6,0,10.2,2.2,10.2,5"/>
					<path class="st1" d="M126,10.4c0-5.6,4.5-10.1,10.1-10.1s10.1,4.5,10.1,10.1"/>
				</g>
				<path class="st1" d="M29.6,24.4c5.5,0,10,4.5,10,10s-4.5,10-10,10"/>
				<g>
					<path d="M172.4,10.8c4.4,0,7.7,0.9,9.9,2.7s4.2,5.1,5.9,10.1h1.2l-0.7-14.3H153v1.5h4v45h-4v1.5h15.7v-1.5h-1.4V34.9h6.1
						c2.2,0,4,0.7,5.3,2.2c0.9,1,1.5,2.2,1.9,3.4c0.3,0.8,0.5,1.6,0.8,2.4c0.1,0.3,0.1,1.2,0.3,1.4c0.5,0.5,2,0,2.5-0.3
						c0.8-0.5,1.4-1.3,1.9-2.1c1.3-2.3,1.7-5.1,1.7-7.7c0-2.5-0.4-5.2-1.6-7.4c-0.4-0.8-1-1.6-1.8-2.2c-0.6-0.4-1.6-0.7-2.3-0.6
						c-0.5,0.1-0.4,0.4-0.5,0.9s-0.2,0.9-0.4,1.4c-0.5,1.6-1.3,3.1-2.4,4.3c-1.5,1.6-3.3,2.4-5.5,2.4h-6.1V10.8H172.4z"/>
					<path class="st1" d="M182.4,24.4c5.5,0,10,4.5,10,10s-4.5,10-10,10"/>
				</g>
				<g>
					<path d="M83,37c2.8,0,5,4.6,5,10.2s-2.2,10.2-5,10.2"/>
					<g>
						<path d="M46.7,9.3c8.2,0,16.5,0,24.7,0c0,0.5,0,1,0,1.5c-3.1,0-6.2,0-9.3,0c0,15,0,28,0,43c0,0.4,4.7,0.4,5.1,0.4s1.6,0,2.7,0
							c7.5,0,12.6-8.2,13-15c0-0.7,0-1.4,0-2.1c0.6,1.4,1.1,2.8,1.2,4.2c0.1,1,0,2.1-0.1,3.1c-0.4,4.3-0.7,8.6-1.1,12.9
							c-12.1,0-24.2,0-36.4,0c0-0.5,0-1,0-1.5c1.3,0,2.7,0,4,0c0-15,0-30,0-45c-1.3,0-2.7,0-4,0C46.7,10.3,46.7,9.8,46.7,9.3z"/>
						<path class="st1" d="M83,36.9c5.5,0,10,4.5,10,10s-4.5,10-10,10"/>
					</g>
				</g>
			</g>
		</g>
	</g>
</g>
</svg>
