<?xml version="1.0" encoding="utf-8"?>
<!-- Generator: Adobe Illustrator 26.0.1, SVG Export Plug-In . SVG Version: 6.00 Build 0)  -->
<svg version="1.1" id="Layer_1" xmlns="http://www.w3.org/2000/svg" xmlns:xlink="http://www.w3.org/1999/xlink" x="0px" y="0px"
	 viewBox="0 0 198.9 78.5" style="enable-background:new 0 0 198.9 78.5;" xml:space="preserve">
<style type="text/css">
	.st0{fill:none;stroke:#000000;stroke-width:0.5;stroke-miterlimit:10;}
	.st1{fill:none;stroke:#000000;stroke-miterlimit:10;}
	.st2{fill:none;stroke:#858589;stroke-width:0.25;stroke-miterlimit:10;}
	.st3{fill:none;stroke:#E2DEDE;stroke-width:0.25;stroke-miterlimit:10;}
	.st4{fill:#FA9A63;}
	.st5{fill:#FADC63;}
	.st6{fill:none;stroke:#000000;stroke-width:2;stroke-miterlimit:10;}
	.st7{fill:url(#);stroke:#000000;stroke-miterlimit:10;}
	.st8{fill:none;stroke:#FFFFFF;stroke-width:2;stroke-miterlimit:10;}
	.st9{fill:#FFFFFF;}
	.st10{fill:none;stroke:#FFFFFF;stroke-width:0.5;stroke-miterlimit:10;}
	.st11{fill:none;stroke:#FFFFFF;stroke-miterlimit:10;}
</style>
<g>
	<g>
		<path d="M25.5,10.8c4.4,0,7.7,0.9,9.9,2.7c2.2,1.8,4.2,5.1,5.9,10.1h1.2L41.8,9.3H6.2v1.5h4v45h-4v1.5h15.7v-1.5h-1.4V34.9h6.1
			c2.2,0,4,0.7,5.3,2.2c0.9,1,1.5,2.2,1.9,3.4c0.3,0.8,0.5,1.6,0.8,2.4c0.1,0.3,0.1,1.2,0.3,1.4c0.5,0.5,2,0,2.5-0.3
			c0.8-0.5,1.4-1.3,1.9-2.1c1.3-2.3,1.7-5.1,1.7-7.7c0-2.5-0.4-5.2-1.6-7.4c-0.4-0.8-1-1.6-1.8-2.2c-0.6-0.4-1.6-0.7-2.3-0.6
			c-0.5,0.1-0.4,0.4-0.5,0.9c-0.1,0.5-0.2,0.9-0.4,1.4c-0.5,1.6-1.3,3.1-2.4,4.3c-1.5,1.6-3.3,2.4-5.5,2.4h-6.1V10.8H25.5z"/>
		<g>
			<path d="M7.1,63.4V68h6.1v1.1H7.1v5H5.9V62.3h8.1v1.1H7.1z"/>
			<path d="M24.2,65.3v8.8h-1.1v-1.6c-0.3,0.5-0.7,1-1.3,1.3c-0.5,0.3-1.2,0.4-1.9,0.4c-1.2,0-2.1-0.3-2.7-1c-0.7-0.6-1-1.6-1-2.8
				v-5.1h1.2v5c0,0.9,0.2,1.6,0.7,2.1s1.1,0.7,2,0.7c0.9,0,1.7-0.3,2.2-0.8s0.8-1.4,0.8-2.4v-4.6H24.2z"/>
			<path d="M29.9,65.6c0.6-0.3,1.2-0.5,2.1-0.5v1.2l-0.3,0c-0.9,0-1.7,0.3-2.2,0.9c-0.5,0.6-0.8,1.4-0.8,2.4v4.5h-1.2v-8.8h1.1V67
				C29,66.4,29.4,66,29.9,65.6z"/>
			<path d="M36.7,65.6c0.6-0.3,1.2-0.5,2.1-0.5v1.2l-0.3,0c-0.9,0-1.7,0.3-2.2,0.9c-0.5,0.6-0.8,1.4-0.8,2.4v4.5h-1.2v-8.8h1.1V67
				C35.7,66.4,36.1,66,36.7,65.6z"/>
			<path d="M48.4,65.3L44,75.2c-0.4,0.8-0.8,1.4-1.2,1.8c-0.5,0.3-1,0.5-1.7,0.5c-0.4,0-0.8-0.1-1.2-0.2c-0.4-0.1-0.7-0.3-1-0.6
				l0.6-0.9c0.4,0.4,1,0.7,1.6,0.7c0.4,0,0.7-0.1,1-0.3c0.3-0.2,0.6-0.6,0.8-1.1l0.4-0.9l-3.9-8.8h1.2l3.3,7.5l3.3-7.5H48.4z"/>
			<path d="M56,63.4V68h6.1v1.1H56v5h-1.2V62.3h8.1v1.1H56z"/>
			<path d="M67.5,65.6c0.6-0.3,1.2-0.5,2.1-0.5v1.2l-0.3,0c-0.9,0-1.7,0.3-2.2,0.9c-0.5,0.6-0.8,1.4-0.8,2.4v4.5h-1.2v-8.8h1.1V67
				C66.6,66.4,67,66,67.5,65.6z"/>
			<path d="M71.9,63.1c-0.2-0.2-0.3-0.4-0.3-0.6c0-0.2,0.1-0.4,0.3-0.6c0.2-0.2,0.4-0.3,0.6-0.3c0.2,0,0.5,0.1,0.6,0.2
				s0.3,0.4,0.3,0.6c0,0.2-0.1,0.5-0.3,0.6s-0.4,0.3-0.6,0.3C72.2,63.3,72,63.2,71.9,63.1z M71.9,65.3h1.2v8.8h-1.2V65.3z"/>
			<path d="M84.1,70h-7.4c0.1,0.9,0.4,1.7,1.1,2.2c0.6,0.6,1.4,0.8,2.4,0.8c0.5,0,1.1-0.1,1.5-0.3s0.9-0.5,1.2-0.9l0.7,0.8
				c-0.4,0.5-0.9,0.8-1.5,1.1c-0.6,0.2-1.2,0.4-1.9,0.4c-0.9,0-1.7-0.2-2.4-0.6c-0.7-0.4-1.2-0.9-1.6-1.6c-0.4-0.7-0.6-1.5-0.6-2.3
				s0.2-1.6,0.6-2.3c0.4-0.7,0.9-1.2,1.5-1.6c0.7-0.4,1.4-0.6,2.2-0.6c0.8,0,1.5,0.2,2.2,0.6s1.2,0.9,1.5,1.6s0.6,1.5,0.6,2.3
				L84.1,70z M77.7,67c-0.6,0.5-0.9,1.3-1,2.1H83c-0.1-0.9-0.4-1.6-1-2.1c-0.6-0.5-1.3-0.8-2.2-0.8C79,66.2,78.3,66.5,77.7,67z"/>
			<path d="M93.7,66.2c0.7,0.6,1,1.6,1,2.8v5.1h-1.2v-5c0-0.9-0.2-1.6-0.7-2.1c-0.5-0.5-1.1-0.7-2-0.7c-1,0-1.7,0.3-2.3,0.8
				c-0.6,0.6-0.8,1.3-0.8,2.3v4.6h-1.2v-8.8h1.1v1.6c0.3-0.5,0.8-1,1.4-1.3s1.2-0.4,2-0.4C92.1,65.2,93,65.5,93.7,66.2z"/>
			<path d="M106,61.6v12.5h-1.1v-1.7c-0.4,0.6-0.8,1-1.4,1.4s-1.3,0.5-2,0.5c-0.8,0-1.6-0.2-2.2-0.6c-0.7-0.4-1.2-0.9-1.6-1.6
				c-0.4-0.7-0.6-1.5-0.6-2.3c0-0.9,0.2-1.7,0.6-2.3c0.4-0.7,0.9-1.2,1.6-1.6s1.4-0.6,2.2-0.6c0.7,0,1.4,0.1,1.9,0.4
				c0.6,0.3,1,0.7,1.4,1.3v-5.3H106z M103.2,72.7c0.5-0.3,0.9-0.7,1.2-1.2c0.3-0.5,0.4-1.1,0.4-1.8c0-0.7-0.1-1.3-0.4-1.8
				c-0.3-0.5-0.7-0.9-1.2-1.2c-0.5-0.3-1.1-0.4-1.7-0.4c-0.6,0-1.2,0.1-1.7,0.4s-0.9,0.7-1.2,1.2c-0.3,0.5-0.4,1.1-0.4,1.8
				c0,0.7,0.1,1.3,0.4,1.8c0.3,0.5,0.7,0.9,1.2,1.2c0.5,0.3,1.1,0.4,1.7,0.4C102.1,73.1,102.7,73,103.2,72.7z"/>
			<path d="M109.6,73.9c-0.7-0.2-1.2-0.5-1.5-0.8l0.5-0.9c0.4,0.3,0.8,0.5,1.4,0.7c0.6,0.2,1.1,0.3,1.7,0.3c0.8,0,1.4-0.1,1.8-0.4
				c0.4-0.3,0.6-0.6,0.6-1.1c0-0.3-0.1-0.6-0.3-0.8s-0.5-0.3-0.8-0.4c-0.3-0.1-0.8-0.2-1.3-0.3c-0.7-0.1-1.3-0.3-1.7-0.4
				s-0.8-0.4-1.1-0.7c-0.3-0.3-0.5-0.8-0.5-1.4c0-0.7,0.3-1.3,0.9-1.8c0.6-0.5,1.5-0.7,2.6-0.7c0.6,0,1.1,0.1,1.7,0.2
				c0.6,0.2,1,0.4,1.4,0.6l-0.5,1c-0.7-0.5-1.6-0.8-2.6-0.8c-0.8,0-1.3,0.1-1.7,0.4c-0.4,0.3-0.6,0.6-0.6,1.1c0,0.3,0.1,0.6,0.3,0.8
				c0.2,0.2,0.5,0.3,0.8,0.4c0.3,0.1,0.8,0.2,1.3,0.3c0.7,0.1,1.3,0.3,1.7,0.4c0.4,0.1,0.8,0.4,1.1,0.7c0.3,0.3,0.5,0.8,0.5,1.3
				c0,0.8-0.3,1.4-1,1.8c-0.6,0.5-1.5,0.7-2.7,0.7C110.9,74.2,110.3,74.1,109.6,73.9z"/>
			<path d="M131.3,69c0.4,0.5,0.6,1.1,0.6,1.9c0,1-0.4,1.8-1.1,2.3c-0.7,0.5-1.8,0.8-3.3,0.8h-5.4V62.3h5.1c1.3,0,2.3,0.3,3,0.8
				c0.7,0.5,1.1,1.3,1.1,2.2c0,0.6-0.2,1.2-0.5,1.7s-0.8,0.8-1.3,1C130.3,68.2,130.9,68.5,131.3,69z M123.4,63.4v4.3h3.7
				c1,0,1.7-0.2,2.2-0.5c0.5-0.4,0.8-0.9,0.8-1.6s-0.3-1.2-0.8-1.6c-0.5-0.4-1.2-0.5-2.2-0.5H123.4z M129.9,72.5
				c0.5-0.4,0.8-0.9,0.8-1.7c0-1.5-1.1-2.2-3.2-2.2h-4.1v4.4h4.1C128.6,73.1,129.4,72.9,129.9,72.5z"/>
			<path d="M135.9,73.6c-0.7-0.4-1.2-0.9-1.6-1.6c-0.4-0.7-0.6-1.5-0.6-2.3s0.2-1.6,0.6-2.3c0.4-0.7,0.9-1.2,1.6-1.6
				c0.7-0.4,1.4-0.6,2.3-0.6c0.9,0,1.6,0.2,2.3,0.6c0.7,0.4,1.2,0.9,1.6,1.6c0.4,0.7,0.6,1.5,0.6,2.3s-0.2,1.6-0.6,2.3
				c-0.4,0.7-0.9,1.2-1.6,1.6c-0.7,0.4-1.5,0.6-2.3,0.6C137.3,74.2,136.6,74,135.9,73.6z M139.9,72.7c0.5-0.3,0.9-0.7,1.2-1.2
				c0.3-0.5,0.4-1.1,0.4-1.8c0-0.7-0.1-1.3-0.4-1.8c-0.3-0.5-0.7-0.9-1.2-1.2s-1.1-0.4-1.7-0.4c-0.6,0-1.2,0.1-1.7,0.4
				s-0.9,0.7-1.2,1.2c-0.3,0.5-0.4,1.1-0.4,1.8c0,0.7,0.1,1.3,0.4,1.8c0.3,0.5,0.7,0.9,1.2,1.2c0.5,0.3,1.1,0.4,1.7,0.4
				C138.8,73.1,139.4,73,139.9,72.7z"/>
			<path d="M153.1,65.3v8.8h-1.1v-1.6c-0.3,0.5-0.7,1-1.3,1.3c-0.5,0.3-1.2,0.4-1.9,0.4c-1.2,0-2.1-0.3-2.7-1c-0.7-0.6-1-1.6-1-2.8
				v-5.1h1.2v5c0,0.9,0.2,1.6,0.7,2.1s1.1,0.7,2,0.7c0.9,0,1.7-0.3,2.2-0.8s0.8-1.4,0.8-2.4v-4.6H153.1z"/>
			<path d="M161,73.6c-0.2,0.2-0.5,0.4-0.8,0.5c-0.3,0.1-0.7,0.2-1,0.2c-0.8,0-1.5-0.2-1.9-0.7c-0.4-0.4-0.7-1.1-0.7-1.9v-5.3H155
				v-1h1.6v-1.9h1.2v1.9h2.7v1h-2.7v5.3c0,0.5,0.1,0.9,0.4,1.2c0.3,0.3,0.6,0.4,1.1,0.4c0.2,0,0.5,0,0.7-0.1s0.4-0.2,0.6-0.3
				L161,73.6z"/>
			<path d="M163.2,63.1c-0.2-0.2-0.3-0.4-0.3-0.6c0-0.2,0.1-0.4,0.3-0.6c0.2-0.2,0.4-0.3,0.6-0.3c0.2,0,0.5,0.1,0.6,0.2
				s0.3,0.4,0.3,0.6c0,0.2-0.1,0.5-0.3,0.6s-0.4,0.3-0.6,0.3C163.6,63.3,163.4,63.2,163.2,63.1z M163.2,65.3h1.2v8.8h-1.2V65.3z"/>
			<path d="M175.8,65.3v12.1h-1.2v-4.9c-0.4,0.6-0.8,1-1.4,1.3c-0.6,0.3-1.2,0.4-1.9,0.4c-0.8,0-1.6-0.2-2.3-0.6
				c-0.7-0.4-1.2-0.9-1.6-1.6c-0.4-0.7-0.6-1.5-0.6-2.4c0-0.9,0.2-1.7,0.6-2.3c0.4-0.7,0.9-1.2,1.6-1.6s1.4-0.6,2.2-0.6
				c0.7,0,1.4,0.2,2,0.5s1.1,0.8,1.4,1.3v-1.7H175.8z M173,72.7c0.5-0.3,0.9-0.7,1.2-1.2c0.3-0.5,0.4-1.1,0.4-1.8
				c0-0.7-0.1-1.3-0.4-1.8c-0.3-0.5-0.7-0.9-1.2-1.2c-0.5-0.3-1.1-0.4-1.7-0.4c-0.6,0-1.2,0.1-1.7,0.4c-0.5,0.3-0.9,0.7-1.2,1.2
				c-0.3,0.5-0.4,1.1-0.4,1.8c0,0.7,0.1,1.3,0.4,1.8c0.3,0.5,0.7,0.9,1.2,1.2c0.5,0.3,1.1,0.4,1.7,0.4C172,73.1,172.5,73,173,72.7z"
				/>
			<path d="M187.1,65.3v8.8h-1.1v-1.6c-0.3,0.5-0.7,1-1.3,1.3c-0.5,0.3-1.2,0.4-1.9,0.4c-1.2,0-2.1-0.3-2.7-1c-0.7-0.6-1-1.6-1-2.8
				v-5.1h1.2v5c0,0.9,0.2,1.6,0.7,2.1s1.1,0.7,2,0.7c0.9,0,1.7-0.3,2.2-0.8s0.8-1.4,0.8-2.4v-4.6H187.1z"/>
			<path d="M198.1,70h-7.4c0.1,0.9,0.4,1.7,1.1,2.2c0.6,0.6,1.4,0.8,2.4,0.8c0.5,0,1.1-0.1,1.5-0.3s0.9-0.5,1.2-0.9l0.7,0.8
				c-0.4,0.5-0.9,0.8-1.5,1.1c-0.6,0.2-1.2,0.4-1.9,0.4c-0.9,0-1.7-0.2-2.4-0.6c-0.7-0.4-1.2-0.9-1.6-1.6c-0.4-0.7-0.6-1.5-0.6-2.3
				s0.2-1.6,0.6-2.3c0.4-0.7,0.9-1.2,1.5-1.6c0.7-0.4,1.4-0.6,2.2-0.6c0.8,0,1.5,0.2,2.2,0.6s1.2,0.9,1.5,1.6s0.6,1.5,0.6,2.3
				L198.1,70z M191.7,67c-0.6,0.5-0.9,1.3-1,2.1h6.3c-0.1-0.9-0.4-1.6-1-2.1c-0.6-0.5-1.3-0.8-2.2-0.8C193,66.2,192.3,66.5,191.7,67
				z"/>
		</g>
		<g>
			<g>
				<path d="M119.4,52.1c1.4,2.2,6.1,3.4,9.8,3.4c3.8,0,6.6-1.2,8.6-3.5c2-2.3,3-5.9,3-10.6v-31h-4.5V9h10v1.3h-3.8v30.5
					c0,5.7-1.3,9.9-3.8,12.7c-2.5,2.8-7,4.2-13.3,4.2c-6.4,0-11.3-1.3-14.6-4c-3.4-2.7-5-7.2-5-13.7V10.3h-3.8V9h21.6v1.3h-6.5v32.1
					C117.2,46.6,117.9,49.9,119.4,52.1z"/>
			</g>
			<path d="M131.9,10.4c0-2.8,4.6-5,10.2-5c5.6,0,10.2,2.2,10.2,5"/>
			<path class="st0" d="M132,10.4c0-5.6,4.5-10.1,10.1-10.1s10.1,4.5,10.1,10.1"/>
		</g>
		<path class="st0" d="M35.5,24.4c5.5,0,10,4.5,10,10s-4.5,10-10,10"/>
		<g>
			<path d="M178.3,10.8c4.4,0,7.7,0.9,9.9,2.7c2.2,1.8,4.2,5.1,5.9,10.1h1.2l-0.7-14.3h-35.7v1.5h4v45h-4v1.5h15.7v-1.5h-1.4V34.9
				h6.1c2.2,0,4,0.7,5.3,2.2c0.9,1,1.5,2.2,1.9,3.4c0.3,0.8,0.5,1.6,0.8,2.4c0.1,0.3,0.1,1.2,0.3,1.4c0.5,0.5,2,0,2.5-0.3
				c0.8-0.5,1.4-1.3,1.9-2.1c1.3-2.3,1.7-5.1,1.7-7.7c0-2.5-0.4-5.2-1.6-7.4c-0.4-0.8-1-1.6-1.8-2.2c-0.6-0.4-1.6-0.7-2.3-0.6
				c-0.5,0.1-0.4,0.4-0.5,0.9c-0.1,0.5-0.2,0.9-0.4,1.4c-0.5,1.6-1.3,3.1-2.4,4.3c-1.5,1.6-3.3,2.4-5.5,2.4h-6.1V10.8H178.3z"/>
			<path class="st0" d="M188.3,24.4c5.5,0,10,4.5,10,10s-4.5,10-10,10"/>
		</g>
		<g>
			<path d="M88.9,37c2.8,0,5,4.6,5,10.2s-2.2,10.2-5,10.2"/>
			<g>
				<path d="M52.6,9.3c8.2,0,16.5,0,24.7,0c0,0.5,0,1,0,1.5c-3.1,0-6.2,0-9.3,0c0,15,0,28,0,43c0,0.4,4.7,0.4,5.1,0.4
					c0.4,0,1.6,0,2.7,0c7.5,0,12.6-8.2,13-15c0-0.7,0-1.4,0-2.1c0.6,1.4,1.1,2.8,1.2,4.2c0.1,1,0,2.1-0.1,3.1
					c-0.4,4.3-0.7,8.6-1.1,12.9c-12.1,0-24.2,0-36.4,0c0-0.5,0-1,0-1.5c1.3,0,2.7,0,4,0c0-15,0-30,0-45c-1.3,0-2.7,0-4,0
					C52.6,10.3,52.6,9.8,52.6,9.3z"/>
				<path class="st0" d="M88.9,36.9c5.5,0,10,4.5,10,10s-4.5,10-10,10"/>
			</g>
		</g>
	</g>
	<g>
		<polyline class="st3" points="14.1,74 6.1,74 6.1,9.1 14.1,9.1 		"/>
		<polyline class="st3" points="190.7,9.1 198.7,9.1 198.7,74 190.7,74 		"/>
	</g>
	<g>
		<polyline class="st3" points="6.1,65.7 6.1,57.5 198.7,57.5 198.7,65.7 		"/>
		<polyline class="st3" points="198.7,65.8 198.7,74 6.1,74 6.1,65.8 		"/>
	</g>
</g>
</svg>
