<?xml version="1.0" encoding="utf-8"?>
<!-- Generator: Adobe Illustrator 26.0.1, SVG Export Plug-In . SVG Version: 6.00 Build 0)  -->
<svg version="1.1" id="Layer_1" xmlns="http://www.w3.org/2000/svg" xmlns:xlink="http://www.w3.org/1999/xlink" x="0px" y="0px"
	 viewBox="0 0 237.9 89.2" style="enable-background:new 0 0 237.9 89.2;" xml:space="preserve">
<style type="text/css">
	.st0{display:none;}
	.st1{fill:#858589;}
	.st2{fill:#E2DEDE;}
</style>
<g id="Layer_1_00000114794420837053870730000014655182675297388450_" class="st0">
</g>
<g id="layer_x5F_1">
</g>
<g id="layer_x5F_2">
</g>
<g id="layer_x5F_3">
</g>
<g id="layer_x5F_4">
</g>
<g id="Layer_6">
</g>
<g id="Layer_7">
</g>
<g id="Layer_8">
</g>
<g id="Layer_9">
</g>
<g id="backline">
</g>
<g id="oreange">
</g>
<g id="dots">
	<g>
		<g>
			<g>
				<g>
					<path class="st1" d="M217.8,17.2H25V9h192.9V17.2z M25.2,17h192.4V9.2H25.2V17z"/>
				</g>
				<g>
					<path class="st1" d="M217.8,25.3H25v-8.2h192.9V25.3z M25.2,25.1h192.4v-7.8H25.2V25.1z"/>
				</g>
				<g>
					<path class="st1" d="M217.7,33.3H24.9v-8.2h192.8V33.3z M25.1,33.1h192.3v-7.8H25.1V33.1z"/>
				</g>
				<g>
					<path class="st1" d="M217.7,41.4H24.9v-8.2h192.8V41.4z M25.1,41.2h192.3v-7.8H25.1V41.2z"/>
				</g>
				<g>
					<path class="st1" d="M217.8,49.5H25v-8.2h192.9V49.5z M25.2,49.3h192.4v-7.7H25.2V49.3z"/>
				</g>
				<g>
					<path class="st1" d="M217.8,57.6H25v-8.2h192.9V57.6z M25.2,57.4h192.4v-7.8H25.2V57.4z"/>
				</g>
				<g>
					<path class="st1" d="M217.7,65.6H24.9v-8.2h192.8V65.6z M25.1,65.4h192.3v-7.8H25.1V65.4z"/>
				</g>
				<g>
					<path class="st1" d="M217.8,73.7H25v-8.2h192.9V73.7z M25.2,73.5h192.4v-7.8H25.2V73.5z"/>
				</g>
			</g>
			<g>
				<g>
					<path class="st2" d="M33.2,74.1H25V9h8.2V74.1z M25.2,73.9H33V9.2h-7.8V73.9z"/>
				</g>
				<g>
					<path class="st2" d="M41.2,74.1H33V9h8.2V74.1z M33.2,73.9H41V9.2h-7.8V73.9z"/>
				</g>
				<g>
					<path class="st2" d="M49.2,74.1H41V9h8.2V74.1z M41.2,73.9H49V9.2h-7.8V73.9z"/>
				</g>
				<g>
					<path class="st2" d="M57.3,74.1h-8.2V9h8.2V74.1z M49.3,73.9h7.8V9.2h-7.8V73.9z"/>
				</g>
				<g>
					<path class="st2" d="M65.3,74.1h-8.2V9h8.2V74.1z M57.3,73.9h7.8V9.2h-7.8V73.9z"/>
				</g>
				<g>
					<path class="st2" d="M73.3,74.1h-8.2V9h8.2V74.1z M65.3,73.9h7.8V9.2h-7.8V73.9z"/>
				</g>
				<g>
					<path class="st2" d="M81.3,74.1h-8.2V9h8.2V74.1z M73.3,73.9h7.8V9.2h-7.8V73.9z"/>
				</g>
				<g>
					<path class="st2" d="M89.4,74.1h-8.2V9h8.2V74.1z M81.4,73.9h7.8V9.2h-7.8V73.9z"/>
				</g>
				<g>
					<path class="st2" d="M97.4,74.1h-8.2V9h8.2V74.1z M89.4,73.9h7.8V9.2h-7.8V73.9z"/>
				</g>
				<g>
					<path class="st2" d="M105.4,74.1h-8.2V9h8.2V74.1z M97.4,73.9h7.8V9.2h-7.8V73.9z"/>
				</g>
				<g>
					<path class="st2" d="M113.4,74.1h-8.2V9h8.2V74.1z M105.4,73.9h7.8V9.2h-7.8V73.9z"/>
				</g>
				<g>
					<path class="st2" d="M121.5,74.1h-8.3V9h8.3V74.1z M113.5,73.9h7.8V9.2h-7.8V73.9z"/>
				</g>
				<g>
					<path class="st2" d="M129.5,74.1h-8.2V9h8.2V74.1z M121.5,73.9h7.8V9.2h-7.8V73.9z"/>
				</g>
				<g>
					<path class="st2" d="M137.5,74.1h-8.2V9h8.2V74.1z M129.5,73.9h7.8V9.2h-7.8V73.9z"/>
				</g>
				<g>
					<path class="st2" d="M145.5,74.1h-8.2V9h8.2V74.1z M137.5,73.9h7.8V9.2h-7.8V73.9z"/>
				</g>
				<g>
					<path class="st2" d="M153.6,74.1h-8.2V9h8.2V74.1z M145.6,73.9h7.8V9.2h-7.8V73.9z"/>
				</g>
				<g>
					<path class="st2" d="M161.6,74.1h-8.2V9h8.2V74.1z M153.6,73.9h7.8V9.2h-7.8V73.9z"/>
				</g>
				<g>
					<path class="st2" d="M169.6,74.1h-8.2V9h8.2V74.1z M161.6,73.9h7.8V9.2h-7.8V73.9z"/>
				</g>
				<g>
					<path class="st2" d="M177.6,74.1h-8.2V9h8.2V74.1z M169.6,73.9h7.8V9.2h-7.8V73.9z"/>
				</g>
				<g>
					<path class="st2" d="M185.6,74.1h-8.2V9h8.2V74.1z M177.6,73.9h7.8V9.2h-7.8V73.9z"/>
				</g>
				<g>
					<path class="st2" d="M193.7,74.1h-8.2V9h8.2V74.1z M185.7,73.9h7.8V9.2h-7.8V73.9z"/>
				</g>
				<g>
					<path class="st2" d="M201.7,74.1h-8.2V9h8.2V74.1z M193.7,73.9h7.8V9.2h-7.8V73.9z"/>
				</g>
				<g>
					<path class="st2" d="M209.7,74.1h-8.2V9h8.2V74.1z M201.7,73.9h7.8V9.2h-7.8V73.9z"/>
				</g>
				<g>
					<path class="st2" d="M217.7,74.1h-8.2V9h8.2V74.1z M209.7,73.9h7.8V9.2h-7.8V73.9z"/>
				</g>
			</g>
			<g>
				<g>
					<path d="M44.5,10.8c4.4,0,7.7,0.9,9.9,2.7s4.2,5.1,5.9,10.1h1.2L60.8,9.3H25.1v1.5h4v45h-4v1.5h15.7v-1.5h-1.4V34.9h6.1
						c2.2,0,4,0.7,5.3,2.2c0.9,1,1.5,2.2,1.9,3.4c0.3,0.8,0.5,1.6,0.8,2.4c0.1,0.3,0.1,1.2,0.3,1.4c0.5,0.5,2,0,2.5-0.3
						c0.8-0.5,1.4-1.3,1.9-2.1c1.3-2.3,1.7-5.1,1.7-7.7c0-2.5-0.4-5.2-1.6-7.4c-0.4-0.8-1-1.6-1.8-2.2c-0.6-0.4-1.6-0.7-2.3-0.6
						c-0.5,0.1-0.4,0.4-0.5,0.9s-0.2,0.9-0.4,1.4c-0.5,1.6-1.3,3.1-2.4,4.3c-1.5,1.6-3.3,2.4-5.5,2.4h-6.1V10.8H44.5z"/>
				</g>
				<g>
					<g>
						<path d="M26.1,63.4V68h6.1v1.1h-6.1v5h-1.2V62.2H33v1.1C33,63.3,26.1,63.3,26.1,63.4z"/>
					</g>
					<g>
						<path d="M43.2,65.2V74H42v-1.6c-0.3,0.5-0.7,1-1.3,1.3s-1.2,0.4-1.9,0.4c-1.2,0-2.1-0.3-2.7-1c-0.7-0.6-1-1.6-1-2.8v-5.1h1.2
							v5c0,0.9,0.2,1.6,0.7,2.1s1.1,0.7,2,0.7s1.7-0.3,2.2-0.8s0.8-1.4,0.8-2.4v-4.6H43.2z"/>
					</g>
					<g>
						<path d="M48.9,65.6c0.6-0.3,1.2-0.5,2.1-0.5v1.2h-0.3c-0.9,0-1.7,0.3-2.2,0.9s-0.8,1.4-0.8,2.4v4.5h-1.2v-8.8h1.1V67
							C47.9,66.4,48.3,65.9,48.9,65.6z"/>
					</g>
					<g>
						<path d="M55.6,65.6c0.6-0.3,1.2-0.5,2.1-0.5v1.2h-0.3c-0.9,0-1.7,0.3-2.2,0.9s-0.8,1.4-0.8,2.4v4.5h-1.2v-8.8h1.1V67
							C54.7,66.4,55.1,65.9,55.6,65.6z"/>
					</g>
					<g>
						<path d="M67.4,65.2L63,75.1c-0.4,0.8-0.8,1.4-1.2,1.8c-0.5,0.3-1,0.5-1.7,0.5c-0.4,0-0.8-0.1-1.2-0.2s-0.7-0.3-1-0.6l0.6-0.9
							c0.4,0.4,1,0.7,1.6,0.7c0.4,0,0.7-0.1,1-0.3c0.3-0.2,0.6-0.6,0.8-1.1l0.4-0.9l-3.9-8.8h1.2l3.3,7.5l3.3-7.5L67.4,65.2
							L67.4,65.2z"/>
					</g>
					<g>
						<path d="M75,63.4V68h6.1v1.1H75v5h-1.2V62.2h8.1v1.1C81.9,63.3,75,63.3,75,63.4z"/>
					</g>
					<g>
						<path d="M86.5,65.6c0.6-0.3,1.2-0.5,2.1-0.5v1.2h-0.3c-0.9,0-1.7,0.3-2.2,0.9s-0.8,1.4-0.8,2.4v4.5h-1.2v-8.8h1.1V67
							C85.5,66.4,85.9,65.9,86.5,65.6z"/>
					</g>
					<g>
						<path d="M90.8,63c-0.2-0.2-0.3-0.4-0.3-0.6c0-0.2,0.1-0.4,0.3-0.6s0.4-0.3,0.6-0.3s0.5,0.1,0.6,0.2c0.2,0.2,0.3,0.4,0.3,0.6
							c0,0.2-0.1,0.5-0.3,0.6s-0.4,0.3-0.6,0.3C91.2,63.2,91,63.2,90.8,63z M90.8,65.2H92V74h-1.2V65.2z"/>
					</g>
					<g>
						<path d="M103,69.9h-7.4c0.1,0.9,0.4,1.7,1.1,2.2c0.6,0.6,1.4,0.8,2.4,0.8c0.5,0,1.1-0.1,1.5-0.3c0.5-0.2,0.9-0.5,1.2-0.9
							l0.7,0.8c-0.4,0.5-0.9,0.8-1.5,1.1c-0.6,0.2-1.2,0.4-1.9,0.4c-0.9,0-1.7-0.2-2.4-0.6c-0.7-0.4-1.2-0.9-1.6-1.6
							s-0.6-1.5-0.6-2.3s0.2-1.6,0.6-2.3c0.4-0.7,0.9-1.2,1.5-1.6c0.7-0.4,1.4-0.6,2.2-0.6c0.8,0,1.5,0.2,2.2,0.6
							c0.6,0.4,1.2,0.9,1.5,1.6c0.4,0.7,0.6,1.5,0.6,2.3L103,69.9z M96.6,66.9c-0.6,0.5-0.9,1.3-1,2.1h6.3c-0.1-0.9-0.4-1.6-1-2.1
							s-1.3-0.8-2.2-0.8C97.9,66.1,97.2,66.4,96.6,66.9z"/>
					</g>
					<g>
						<path d="M112.6,66.1c0.7,0.6,1,1.6,1,2.8V74h-1.2v-5c0-0.9-0.2-1.6-0.7-2.1s-1.1-0.7-2-0.7c-1,0-1.7,0.3-2.3,0.8
							c-0.6,0.6-0.8,1.3-0.8,2.3V74h-1.2v-8.8h1.1v1.6c0.3-0.5,0.8-1,1.4-1.3s1.2-0.4,2-0.4C111.1,65.1,112,65.4,112.6,66.1z"/>
					</g>
					<g>
						<path d="M124.9,61.5V74h-1.1v-1.7c-0.4,0.6-0.8,1-1.4,1.4s-1.3,0.5-2,0.5c-0.8,0-1.6-0.2-2.2-0.6s-1.2-0.9-1.6-1.6
							s-0.6-1.5-0.6-2.3s0.2-1.7,0.6-2.3c0.4-0.7,0.9-1.2,1.6-1.6s1.4-0.6,2.2-0.6c0.7,0,1.4,0.1,1.9,0.4c0.6,0.3,1,0.7,1.4,1.3
							v-5.3h1.2V61.5z M122.2,72.6c0.5-0.3,0.9-0.7,1.2-1.2c0.3-0.5,0.4-1.1,0.4-1.8c0-0.7-0.1-1.3-0.4-1.8s-0.7-0.9-1.2-1.2
							s-1.1-0.4-1.7-0.4s-1.2,0.1-1.7,0.4s-0.9,0.7-1.2,1.2c-0.3,0.5-0.4,1.1-0.4,1.8c0,0.7,0.1,1.3,0.4,1.8s0.7,0.9,1.2,1.2
							c0.5,0.3,1.1,0.4,1.7,0.4S121.7,72.9,122.2,72.6z"/>
					</g>
					<g>
						<path d="M128.6,73.9c-0.7-0.2-1.2-0.5-1.5-0.8l0.5-0.9c0.4,0.3,0.8,0.5,1.4,0.7c0.6,0.2,1.1,0.3,1.7,0.3
							c0.8,0,1.4-0.1,1.8-0.4c0.4-0.3,0.6-0.6,0.6-1.1c0-0.3-0.1-0.6-0.3-0.8c-0.2-0.2-0.5-0.3-0.8-0.4s-0.8-0.2-1.3-0.3
							c-0.7-0.1-1.3-0.3-1.7-0.4s-0.8-0.4-1.1-0.7c-0.3-0.3-0.5-0.8-0.5-1.4c0-0.7,0.3-1.3,0.9-1.8c0.6-0.5,1.5-0.7,2.6-0.7
							c0.6,0,1.1,0.1,1.7,0.2c0.6,0.2,1,0.3,1.4,0.6l-0.5,1c-0.7-0.5-1.6-0.8-2.6-0.8c-0.8,0-1.3,0.1-1.7,0.4s-0.6,0.6-0.6,1.1
							c0,0.3,0.1,0.6,0.3,0.8s0.5,0.4,0.8,0.4s0.8,0.2,1.3,0.3c0.7,0.1,1.3,0.3,1.7,0.4s0.8,0.4,1.1,0.7c0.3,0.3,0.5,0.8,0.5,1.3
							c0,0.8-0.3,1.4-1,1.8c-0.6,0.5-1.5,0.7-2.7,0.7C129.9,74.1,129.2,74.1,128.6,73.9z"/>
					</g>
					<g>
						<path d="M150.3,68.9c0.4,0.5,0.6,1.1,0.6,1.9c0,1-0.4,1.8-1.1,2.3c-0.7,0.5-1.8,0.8-3.3,0.8h-5.4V62.2h5.1
							c1.3,0,2.3,0.3,3,0.8s1.1,1.3,1.1,2.2c0,0.6-0.2,1.2-0.5,1.7s-0.8,0.8-1.3,1C149.3,68.1,149.9,68.4,150.3,68.9z M142.4,63.4
							v4.3h3.7c1,0,1.7-0.2,2.2-0.5c0.5-0.4,0.8-0.9,0.8-1.6s-0.3-1.2-0.8-1.6s-1.2-0.5-2.2-0.5h-3.7V63.4z M148.9,72.4
							c0.5-0.4,0.8-0.9,0.8-1.7c0-1.5-1.1-2.2-3.2-2.2h-4.1V73h4.1C147.6,73.1,148.4,72.9,148.9,72.4z"/>
					</g>
					<g>
						<path d="M154.8,73.6c-0.7-0.4-1.2-0.9-1.6-1.6c-0.4-0.7-0.6-1.5-0.6-2.3s0.2-1.6,0.6-2.3c0.4-0.7,0.9-1.2,1.6-1.6
							c0.7-0.4,1.4-0.6,2.3-0.6c0.9,0,1.6,0.2,2.3,0.6s1.2,0.9,1.6,1.6c0.4,0.7,0.6,1.5,0.6,2.3s-0.2,1.6-0.6,2.3
							c-0.4,0.7-0.9,1.2-1.6,1.6c-0.7,0.4-1.5,0.6-2.3,0.6S155.5,73.9,154.8,73.6z M158.8,72.6c0.5-0.3,0.9-0.7,1.2-1.2
							s0.4-1.1,0.4-1.8c0-0.7-0.1-1.3-0.4-1.8c-0.3-0.5-0.7-0.9-1.2-1.2s-1.1-0.4-1.7-0.4c-0.6,0-1.2,0.1-1.7,0.4s-0.9,0.7-1.2,1.2
							s-0.4,1.1-0.4,1.8c0,0.7,0.1,1.3,0.4,1.8c0.3,0.5,0.7,0.9,1.2,1.2c0.5,0.3,1.1,0.4,1.7,0.4C157.8,73.1,158.3,72.9,158.8,72.6z
							"/>
					</g>
					<g>
						<path d="M172,65.2V74h-1.1v-1.6c-0.3,0.5-0.7,1-1.3,1.3s-1.2,0.4-1.9,0.4c-1.2,0-2.1-0.3-2.7-1c-0.7-0.6-1-1.6-1-2.8v-5.1h1.2
							v5c0,0.9,0.2,1.6,0.7,2.1s1.1,0.7,2,0.7s1.7-0.3,2.2-0.8s0.8-1.4,0.8-2.4v-4.6H172z"/>
					</g>
					<g>
						<path d="M180,73.6c-0.2,0.2-0.5,0.4-0.8,0.5s-0.7,0.2-1,0.2c-0.8,0-1.5-0.2-1.9-0.7c-0.4-0.4-0.7-1.1-0.7-1.9v-5.3H174v-1h1.6
							v-1.9h1.2v1.9h2.7v1h-2.7v5.3c0,0.5,0.1,0.9,0.4,1.2c0.3,0.3,0.6,0.4,1.1,0.4c0.2,0,0.5,0,0.7-0.1s0.4-0.2,0.6-0.3L180,73.6z"
							/>
					</g>
					<g>
						<path d="M182.2,63c-0.2-0.2-0.3-0.4-0.3-0.6c0-0.2,0.1-0.4,0.3-0.6s0.4-0.3,0.6-0.3c0.2,0,0.5,0.1,0.6,0.2
							c0.2,0.2,0.3,0.4,0.3,0.6c0,0.2-0.1,0.5-0.3,0.6s-0.4,0.3-0.6,0.3C182.5,63.2,182.3,63.2,182.2,63z M182.2,65.2h1.2V74h-1.2
							V65.2z"/>
					</g>
					<g>
						<path d="M194.8,65.2v12.1h-1.2v-4.9c-0.4,0.6-0.8,1-1.4,1.3c-0.6,0.3-1.2,0.4-1.9,0.4c-0.8,0-1.6-0.2-2.3-0.6
							s-1.2-0.9-1.6-1.6c-0.4-0.7-0.6-1.5-0.6-2.4s0.2-1.7,0.6-2.3c0.4-0.7,0.9-1.2,1.6-1.6c0.7-0.4,1.4-0.6,2.2-0.6
							c0.7,0,1.4,0.2,2,0.5s1.1,0.8,1.4,1.3v-1.7L194.8,65.2L194.8,65.2z M192,72.6c0.5-0.3,0.9-0.7,1.2-1.2s0.4-1.1,0.4-1.8
							c0-0.7-0.1-1.3-0.4-1.8c-0.3-0.5-0.7-0.9-1.2-1.2s-1.1-0.4-1.7-0.4c-0.6,0-1.2,0.1-1.7,0.4s-0.9,0.7-1.2,1.2s-0.4,1.1-0.4,1.8
							c0,0.7,0.1,1.3,0.4,1.8c0.3,0.5,0.7,0.9,1.2,1.2c0.5,0.3,1.1,0.4,1.7,0.4S191.5,72.9,192,72.6z"/>
					</g>
					<g>
						<path d="M206,65.2V74h-1.1v-1.6c-0.3,0.5-0.7,1-1.3,1.3s-1.2,0.4-1.9,0.4c-1.2,0-2.1-0.3-2.7-1c-0.7-0.6-1-1.6-1-2.8v-5.1h1.2
							v5c0,0.9,0.2,1.6,0.7,2.1s1.1,0.7,2,0.7s1.7-0.3,2.2-0.8s0.8-1.4,0.8-2.4v-4.6H206z"/>
					</g>
					<g>
						<path d="M217.1,69.9h-7.4c0.1,0.9,0.4,1.7,1.1,2.2c0.6,0.6,1.4,0.8,2.4,0.8c0.5,0,1.1-0.1,1.5-0.3c0.5-0.2,0.9-0.5,1.2-0.9
							l0.7,0.8c-0.4,0.5-0.9,0.8-1.5,1.1c-0.6,0.2-1.2,0.4-1.9,0.4c-0.9,0-1.7-0.2-2.4-0.6s-1.2-0.9-1.6-1.6
							c-0.4-0.7-0.6-1.5-0.6-2.3s0.2-1.6,0.6-2.3c0.4-0.7,0.9-1.2,1.5-1.6c0.7-0.4,1.4-0.6,2.2-0.6s1.5,0.2,2.2,0.6
							c0.6,0.4,1.2,0.9,1.5,1.6c0.4,0.7,0.6,1.5,0.6,2.3L217.1,69.9z M210.7,66.9c-0.6,0.5-0.9,1.3-1,2.1h6.3
							c-0.1-0.9-0.4-1.6-1-2.1s-1.3-0.8-2.2-0.8C212,66.1,211.2,66.4,210.7,66.9z"/>
					</g>
				</g>
				<g>
					<g>
						<g>
							<path d="M138.4,52c1.4,2.2,6.1,3.4,9.8,3.4c3.8,0,6.6-1.2,8.6-3.5s3-5.9,3-10.6v-31h-4.5V9h10v1.3h-3.8v30.5
								c0,5.7-1.3,9.9-3.8,12.7c-2.5,2.8-7,4.2-13.3,4.2c-6.4,0-11.3-1.3-14.6-4c-3.4-2.7-5-7.2-5-13.7V10.3H121V9h21.6v1.3h-6.5
								v32.1C136.2,46.5,136.9,49.9,138.4,52z"/>
						</g>
					</g>
					<g>
						<path d="M150.9,10.4c0-2.8,4.6-5,10.2-5c5.6,0,10.2,2.2,10.2,5"/>
					</g>
					<g>
						<path d="M171.3,10.4h-0.5c0-5.4-4.4-9.9-9.8-9.9s-9.8,4.4-9.8,9.9h-0.5C150.7,4.7,155.3,0,161,0S171.3,4.7,171.3,10.4z"/>
					</g>
				</g>
				<g>
					<path d="M54.5,44.7v-0.5c5.4,0,9.8-4.4,9.8-9.8s-4.4-9.8-9.8-9.8v-0.5c5.7,0,10.2,4.6,10.2,10.2S60.2,44.7,54.5,44.7z"/>
				</g>
				<g>
					<g>
						<path d="M197.3,10.8c4.4,0,7.7,0.9,9.9,2.7s4.2,5.1,5.9,10.1h1.2l-0.7-14.3h-35.7v1.5h4v45h-4v1.5h15.7v-1.5h-1.4V34.9h6.1
							c2.2,0,4,0.7,5.3,2.2c0.9,1,1.5,2.2,1.9,3.4c0.3,0.8,0.5,1.6,0.8,2.4c0.1,0.3,0.1,1.2,0.3,1.4c0.5,0.5,2,0,2.5-0.3
							c0.8-0.5,1.4-1.3,1.9-2.1c1.3-2.3,1.7-5.1,1.7-7.7c0-2.5-0.4-5.2-1.6-7.4c-0.4-0.8-1-1.6-1.8-2.2c-0.6-0.4-1.6-0.7-2.3-0.6
							c-0.5,0.1-0.4,0.4-0.5,0.9s-0.2,0.9-0.4,1.4c-0.5,1.6-1.3,3.1-2.4,4.3c-1.5,1.6-3.3,2.4-5.5,2.4h-6.1V10.8H197.3z"/>
					</g>
					<g>
						<path d="M207.3,44.7v-0.5c5.4,0,9.8-4.4,9.8-9.8s-4.4-9.8-9.8-9.8v-0.5c5.7,0,10.2,4.6,10.2,10.2S213,44.7,207.3,44.7z"/>
					</g>
				</g>
				<g>
					<g>
						<path d="M107.9,37c2.8,0,5,4.6,5,10.2s-2.2,10.2-5,10.2"/>
					</g>
					<g>
						<g>
							<path d="M71.6,9.3c8.2,0,16.5,0,24.7,0c0,0.5,0,1,0,1.5c-3.1,0-6.2,0-9.3,0c0,15,0,28,0,43c0,0.4,4.7,0.4,5.1,0.4
								s1.6,0,2.7,0c7.5,0,12.6-8.2,13-15c0-0.7,0-1.4,0-2.1c0.6,1.4,1.1,2.8,1.2,4.2c0.1,1,0,2.1-0.1,3.1
								c-0.4,4.3-0.7,8.6-1.1,12.9c-12.1,0-24.2,0-36.4,0c0-0.5,0-1,0-1.5c1.3,0,2.7,0,4,0c0-15,0-30,0-45c-1.3,0-2.7,0-4,0
								C71.6,10.3,71.6,9.8,71.6,9.3z"/>
						</g>
						<g>
							<path d="M107.9,57.1v-0.5c5.4,0,9.8-4.4,9.8-9.8s-4.4-9.7-9.8-9.7v-0.5c5.7,0,10.2,4.6,10.2,10.2
								C118.1,52.6,113.6,57.1,107.9,57.1z"/>
						</g>
					</g>
				</g>
			</g>
		</g>
	</g>
</g>
<g>
	<path d="M0.4,31.3v-0.8h1.9v7.2H1.3v-6.4H0.4z"/>
	<path d="M3.8,33.3c-0.1-0.1-0.2-0.3-0.2-0.4s0.1-0.3,0.2-0.4c0.1-0.1,0.3-0.2,0.4-0.2c0.2,0,0.3,0.1,0.4,0.2
		c0.1,0.1,0.2,0.3,0.2,0.4s-0.1,0.3-0.2,0.4s-0.3,0.2-0.4,0.2C4.1,33.5,3.9,33.4,3.8,33.3z M3.8,37.6c-0.1-0.1-0.2-0.3-0.2-0.4
		s0.1-0.3,0.2-0.4s0.3-0.2,0.4-0.2c0.2,0,0.3,0.1,0.4,0.2s0.2,0.3,0.2,0.4s-0.1,0.3-0.2,0.4s-0.3,0.2-0.4,0.2
		C4.1,37.7,3.9,37.7,3.8,37.6z"/>
	<path d="M6.6,30.8c0.4-0.3,1-0.5,1.7-0.5c0.5,0,0.8,0.1,1.2,0.2c0.3,0.2,0.6,0.4,0.8,0.7c0.2,0.3,0.3,0.6,0.3,1
		c0,0.4-0.1,0.8-0.4,1.1c-0.2,0.3-0.5,0.5-0.9,0.6v0c0.4,0.1,0.8,0.3,1,0.6c0.3,0.3,0.4,0.7,0.4,1.2c0,0.4-0.1,0.7-0.3,1
		c-0.2,0.3-0.4,0.5-0.8,0.7c-0.3,0.2-0.8,0.3-1.2,0.3c-0.7,0-1.3-0.2-1.7-0.6c-0.5-0.4-0.7-0.9-0.8-1.6h0.9c0,0.4,0.2,0.7,0.5,1
		C7.5,36.8,7.8,37,8.3,37s0.8-0.1,1.1-0.4s0.4-0.6,0.4-0.9c0-0.5-0.2-0.9-0.5-1.1c-0.3-0.2-0.8-0.3-1.5-0.3H7.5v-0.8h0.2
		c0.6,0,1.1-0.1,1.4-0.3s0.5-0.5,0.5-0.9c0-0.4-0.1-0.6-0.3-0.9s-0.6-0.3-1-0.3c-0.4,0-0.7,0.1-1,0.3s-0.4,0.5-0.4,0.9H5.9
		C6,31.7,6.2,31.2,6.6,30.8z"/>
</g>
<g>
	<path d="M222.5,68.5c0.5-0.4,0.9-0.9,1.2-1.4s0.5-0.9,0.5-1.4c0-0.4-0.1-0.8-0.3-1s-0.5-0.4-1-0.4c-0.5,0-0.8,0.1-1.1,0.4
		c-0.2,0.3-0.4,0.7-0.4,1.1h-0.9c0-0.7,0.3-1.3,0.7-1.7c0.4-0.4,1-0.6,1.7-0.6c0.7,0,1.2,0.2,1.6,0.6s0.6,0.9,0.6,1.6
		c0,0.6-0.2,1.1-0.5,1.6c-0.3,0.5-0.7,1-1.1,1.4c-0.4,0.4-1,0.9-1.6,1.4h3.4v0.8h-4.8v-0.6C221.3,69.4,222,68.9,222.5,68.5z"/>
	<path d="M226.1,69.2v-0.7l3.5-4.9h1.1v4.8h1v0.8h-1v1.6h-0.9v-1.6H226.1z M229.9,64.6l-2.7,3.8h2.7V64.6z"/>
	<path d="M235.6,67.4l2.1,3.5h-1l-1.7-2.7l-1.6,2.7h-1l2.1-3.5l-2.1-3.5h1l1.7,2.7l1.6-2.7h1L235.6,67.4z"/>
</g>
<g>
	<path d="M199.4,83.1c-0.2-0.3-0.3-0.6-0.3-1c0-0.4,0.1-0.7,0.3-1c0.2-0.3,0.4-0.5,0.8-0.7c0.4-0.2,0.8-0.3,1.3-0.3
		c0.5,0,0.9,0.1,1.3,0.3c0.4,0.2,0.6,0.4,0.8,0.7c0.2,0.3,0.3,0.6,0.3,1c0,0.4-0.1,0.7-0.3,1c-0.2,0.3-0.5,0.5-0.8,0.6
		c0.4,0.1,0.7,0.3,1,0.7c0.2,0.3,0.4,0.7,0.4,1.1c0,0.4-0.1,0.8-0.3,1.1c-0.2,0.3-0.5,0.6-0.9,0.8c-0.4,0.2-0.8,0.3-1.3,0.3
		c-0.5,0-1-0.1-1.3-0.3c-0.4-0.2-0.7-0.4-0.9-0.8c-0.2-0.3-0.3-0.7-0.3-1.1c0-0.4,0.1-0.8,0.4-1.1c0.2-0.3,0.6-0.5,1-0.7
		C199.8,83.6,199.6,83.4,199.4,83.1z M200.2,84.5c-0.3,0.2-0.5,0.6-0.5,1c0,0.4,0.2,0.8,0.5,1s0.7,0.4,1.2,0.4
		c0.5,0,0.9-0.1,1.2-0.4s0.5-0.6,0.5-1c0-0.4-0.2-0.8-0.5-1s-0.7-0.4-1.2-0.4C200.9,84.2,200.5,84.3,200.2,84.5z M202.5,81.3
		c-0.3-0.2-0.6-0.3-1.1-0.3c-0.5,0-0.8,0.1-1.1,0.3s-0.4,0.5-0.4,1c0,0.4,0.1,0.7,0.4,0.9c0.3,0.2,0.6,0.3,1.1,0.3
		c0.4,0,0.8-0.1,1.1-0.3c0.3-0.2,0.4-0.5,0.4-0.9C202.9,81.8,202.8,81.5,202.5,81.3z"/>
	<path d="M208.2,84.1l2.1,3.5h-1l-1.7-2.7l-1.6,2.7h-1l2.1-3.5l-2.1-3.5h1l1.7,2.7l1.6-2.7h1L208.2,84.1z"/>
</g>
</svg>
