<?xml version="1.0" encoding="utf-8"?>
<!-- Generator: Adobe Illustrator 26.0.1, SVG Export Plug-In . SVG Version: 6.00 Build 0)  -->
<svg version="1.1" id="Layer_1" xmlns="http://www.w3.org/2000/svg" xmlns:xlink="http://www.w3.org/1999/xlink" x="0px" y="0px"
	 viewBox="0 0 50.1 53.2" style="enable-background:new 0 0 50.1 53.2;" xml:space="preserve">
<style type="text/css">
	.st0{fill:none;stroke:#000000;stroke-width:0.5;stroke-miterlimit:10;}
	.st1{fill:none;stroke:#000000;stroke-miterlimit:10;}
	.st2{fill:none;stroke:#F96277;stroke-width:0.25;stroke-miterlimit:10;}
	.st3{fill:none;stroke:#6363F7;stroke-width:0.25;stroke-miterlimit:10;}
	.st4{fill:#FA9A63;}
	.st5{fill:#FADC63;}
	.st6{fill:none;stroke:#000000;stroke-width:2;stroke-miterlimit:10;}
	.st7{fill:url(#);stroke:#000000;stroke-miterlimit:10;}
	.st8{fill:none;stroke:#FFFFFF;stroke-width:2;stroke-miterlimit:10;}
	.st9{fill:#FFFFFF;}
	.st10{fill:none;stroke:#FFFFFF;stroke-width:0.5;stroke-miterlimit:10;}
	.st11{fill:none;stroke:#FFFFFF;stroke-miterlimit:10;}
</style>
<g>
	<g>
		<path d="M24,3.7c2.7,0,4.9,4.5,4.8,10s-2.3,9.9-5.1,9.9"/>
		<path class="st0" d="M24.1,3.7c5.5,0.1,9.9,4.6,9.8,10.1s-4.6,9.9-10.1,9.8"/>
	</g>
	<g>
		<path d="M9.4,11.5c2.7,0,4.9,4.5,4.8,10c-0.1,5.5-2.3,9.9-5.1,9.9"/>
		<path class="st0" d="M9.4,11.5c5.5,0.1,9.9,4.6,9.8,10.1s-4.6,9.9-10.1,9.8"/>
	</g>
	<g>
		<path d="M22,28.9c2.7,0,4.9,4.5,4.8,10s-2.3,9.9-5.1,9.9"/>
		<path class="st0" d="M22.1,29c5.5,0.1,9.9,4.6,9.8,10.1s-4.6,9.9-10.1,9.8"/>
	</g>
	<g>
		<path d="M36.2,18.7c2.7,0,4.9,4.5,4.8,10c-0.1,5.5-2.3,9.9-5.1,9.9"/>
		<path class="st0" d="M36.2,18.7c5.5,0.1,9.9,4.6,9.8,10.1s-4.6,9.9-10.1,9.8"/>
	</g>
	<line class="st1" x1="39.5" y1="11.5" x2="49.8" y2="1.2"/>
	<line class="st1" x1="33.3" y1="52.9" x2="43.6" y2="42.6"/>
	<line class="st1" x1="1.8" y1="10.6" x2="12.1" y2="0.4"/>
	<line class="st1" x1="0.4" y1="49.9" x2="10.6" y2="39.6"/>
</g>
</svg>
