<?xml version="1.0" encoding="utf-8"?>
<!-- Generator: Adobe Illustrator 26.0.1, SVG Export Plug-In . SVG Version: 6.00 Build 0)  -->
<svg version="1.1" id="Layer_1" xmlns="http://www.w3.org/2000/svg" xmlns:xlink="http://www.w3.org/1999/xlink" x="0px" y="0px"
	 viewBox="0 0 42.8 53.7" style="enable-background:new 0 0 42.8 53.7;" xml:space="preserve">
<style type="text/css">
	.st0{fill:none;stroke:#000000;stroke-width:0.5;stroke-miterlimit:10;}
	.st1{fill:none;stroke:#000000;stroke-miterlimit:10;}
	.st2{fill:none;stroke:#F96277;stroke-width:0.25;stroke-miterlimit:10;}
	.st3{fill:none;stroke:#6363F7;stroke-width:0.25;stroke-miterlimit:10;}
	.st4{fill:#FA9A63;}
	.st5{fill:#FADC63;}
	.st6{fill:none;stroke:#000000;stroke-width:2;stroke-miterlimit:10;}
	.st7{fill:url(#);stroke:#000000;stroke-miterlimit:10;}
	.st8{fill:none;stroke:#FFFFFF;stroke-width:2;stroke-miterlimit:10;}
	.st9{fill:#FFFFFF;}
	.st10{fill:none;stroke:#FFFFFF;stroke-width:0.5;stroke-miterlimit:10;}
	.st11{fill:none;stroke:#FFFFFF;stroke-miterlimit:10;}
</style>
<g>
	<g>
		<path d="M22.4,21.5c2.3-1.5,6.6,1.1,9.5,5.7s3.5,9.6,1.2,11.1"/>
		<path class="st0" d="M14,17.5c4.3,3.4,5,9.6,1.7,13.9s-9.6,5-13.9,1.7"/>
		<line class="st1" x1="13" y1="42.7" x2="23.2" y2="32.4"/>
	</g>
	<g>
		<path d="M41.7,48.2c-1.3,2.4-6.3,2.2-11.1-0.4s-7.7-6.7-6.4-9.1"/>
		<path class="st0" d="M41.7,48.2c-2.6,4.8-8.6,6.6-13.4,4c-4.8-2.6-6.6-8.6-4-13.4"/>
	</g>
	<g>
		<path d="M34.2,9.5c-1.3,2.4-6.3,2.2-11.1-0.4s-7.7-6.7-6.4-9.1"/>
		<path class="st0" d="M34.2,9.5c-2.6,4.8-8.6,6.6-13.4,4s-6.6-8.6-4-13.4"/>
	</g>
	<circle cx="3.2" cy="43.1" r="3.2"/>
	<circle cx="39.5" cy="25.7" r="3.2"/>
	<circle cx="5.1" cy="10.6" r="3.2"/>
	<path class="st0" d="M39.9,20.1c-2.6,0-4.8-2.1-4.8-4.8c0-2.1,1.7-3.8,3.8-3.8c1.7,0,3.1,1.4,3.1,3.1c0,1.4-1.1,2.5-2.5,2.5
		c-1.1,0-2-0.9-2-2c0-0.9,0.7-1.6,1.6-1.6c0.7,0,1.3,0.6,1.3,1.3"/>
</g>
</svg>
