<?xml version="1.0" encoding="utf-8"?>
<!-- Generator: Adobe Illustrator 26.0.1, SVG Export Plug-In . SVG Version: 6.00 Build 0)  -->
<svg version="1.1" id="Layer_1" xmlns="http://www.w3.org/2000/svg" xmlns:xlink="http://www.w3.org/1999/xlink" x="0px" y="0px"
	 viewBox="0 0 97.3 97.3" style="enable-background:new 0 0 97.3 97.3;" xml:space="preserve">
<style type="text/css">
	.st0{fill:none;}
	.st1{fill:none;stroke:#000000;stroke-width:0.5;stroke-miterlimit:10;}
	.st2{fill:none;stroke:#000000;stroke-miterlimit:10;}
	.st3{fill:none;stroke:#858589;stroke-width:0.25;stroke-miterlimit:10;}
	.st4{fill:none;stroke:#E2DEDE;stroke-width:0.25;stroke-miterlimit:10;}
	.st5{fill:#FA9A63;}
	.st6{fill:#FADC63;}
	.st7{fill:none;stroke:#000000;stroke-width:2;stroke-miterlimit:10;}
	.st8{fill:url(#);stroke:#000000;stroke-miterlimit:10;}
	.st9{fill:url(#SVGID_1_);stroke:#000000;stroke-miterlimit:10;}
	.st10{fill:url(#SVGID_00000049208370704256177900000004083275537179570308_);stroke:#000000;stroke-miterlimit:10;}
	.st11{fill:none;stroke:#FFFFFF;stroke-width:2;stroke-miterlimit:10;}
	.st12{fill:#FFFFFF;}
	.st13{fill:none;stroke:#FFFFFF;stroke-width:0.5;stroke-miterlimit:10;}
	.st14{fill:none;stroke:#FFFFFF;stroke-miterlimit:10;}
</style>
<pattern  x="-1371.4" y="-724.2" width="85" height="102.8" patternUnits="userSpaceOnUse" id="New_Pattern_2" viewBox="6.3 -110.9 85 102.8" style="overflow:visible;">
	<g>
		<rect x="6.3" y="-110.9" class="st0" width="85" height="102.8"/>
		<g>
			<path d="M74.4-16.8c2.3-1.5,6.6,1.1,9.5,5.7c3,4.6,3.5,9.6,1.2,11.1"/>
			<path class="st1" d="M66-20.8c4.3,3.4,5,9.6,1.7,13.9s-9.6,5-13.9,1.7"/>
		</g>
		<g>
			<path d="M31.9-16.8c2.3-1.5,6.6,1.1,9.5,5.7c3,4.6,3.5,9.6,1.2,11.1"/>
			<path class="st1" d="M23.5-20.8c4.3,3.4,5,9.6,1.7,13.9s-9.6,5-13.9,1.7"/>
		</g>
		<g>
			<path d="M85-42.5c2.3-1.5,6.6,1.1,9.5,5.7c3,4.6,3.5,9.6,1.2,11.1"/>
			<path class="st1" d="M76.6-46.5c4.3,3.4,5,9.6,1.7,13.9s-9.6,5-13.9,1.7"/>
			<line class="st2" x1="75.6" y1="-21.3" x2="85.9" y2="-31.6"/>
		</g>
		<g>
			<path d="M42.5-42.5c2.3-1.5,6.6,1.1,9.5,5.7c3,4.6,3.5,9.6,1.2,11.1"/>
			<path class="st1" d="M34.1-46.5c4.3,3.4,5,9.6,1.7,13.9c-3.4,4.3-9.6,5-13.9,1.7"/>
			<line class="st2" x1="33.1" y1="-21.3" x2="43.4" y2="-31.6"/>
		</g>
		<g>
			<path d="M0-42.5c2.3-1.5,6.6,1.1,9.5,5.7s3.5,9.6,1.2,11.1"/>
		</g>
		<g>
			<path class="st1" d="M87.3-72.1c4.3,3.4,5,9.6,1.7,13.9s-9.6,5-13.9,1.7"/>
			<line class="st2" x1="86.2" y1="-47" x2="96.5" y2="-57.3"/>
		</g>
		<g>
			<path d="M53.1-68.2c2.3-1.5,6.6,1.1,9.5,5.7c3,4.6,3.5,9.6,1.2,11.1"/>
			<path class="st1" d="M44.7-72.1c4.3,3.4,5,9.6,1.7,13.9c-3.4,4.3-9.6,5-13.9,1.7"/>
			<line class="st2" x1="43.7" y1="-47" x2="54" y2="-57.3"/>
		</g>
		<g>
			<path d="M10.6-68.2c2.3-1.5,6.6,1.1,9.5,5.7s3.5,9.6,1.2,11.1"/>
			<line class="st2" x1="1.2" y1="-47" x2="11.5" y2="-57.3"/>
		</g>
		<g>
			<path class="st1" d="M97.9-97.8c4.3,3.4,5,9.6,1.7,13.9c-3.4,4.3-9.6,5-13.9,1.7"/>
		</g>
		<g>
			<path d="M63.8-93.9c2.3-1.5,6.6,1.1,9.5,5.7c3,4.6,3.5,9.6,1.2,11.1"/>
			<path class="st1" d="M55.4-97.8c4.3,3.4,5,9.6,1.7,13.9c-3.4,4.3-9.6,5-13.9,1.7"/>
			<line class="st2" x1="54.3" y1="-72.7" x2="64.6" y2="-83"/>
		</g>
		<g>
			<path d="M21.3-93.9c2.3-1.5,6.6,1.1,9.5,5.7s3.5,9.6,1.2,11.1"/>
			<path class="st1" d="M12.8-97.8c4.3,3.4,5,9.6,1.7,13.9c-3.4,4.3-9.6,5-13.9,1.7"/>
			<line class="st2" x1="11.8" y1="-72.7" x2="22.1" y2="-83"/>
		</g>
		<g>
			<path d="M74.4-119.6c2.3-1.5,6.6,1.1,9.5,5.7c3,4.6,3.5,9.6,1.2,11.1"/>
			<path class="st1" d="M66-123.5c4.3,3.4,5,9.6,1.7,13.9c-3.4,4.3-9.6,5-13.9,1.7"/>
			<line class="st2" x1="65" y1="-98.4" x2="75.2" y2="-108.7"/>
		</g>
		<g>
			<path d="M31.9-119.6c2.3-1.5,6.6,1.1,9.5,5.7c3,4.6,3.5,9.6,1.2,11.1"/>
			<path class="st1" d="M23.5-123.5c4.3,3.4,5,9.6,1.7,13.9c-3.4,4.3-9.6,5-13.9,1.7"/>
			<line class="st2" x1="22.4" y1="-98.4" x2="32.7" y2="-108.7"/>
		</g>
	</g>
</pattern>
<pattern  id="SVGID_1_" xlink:href="#New_Pattern_2" patternTransform="matrix(1 0 0 1 164.8179 -3.6235)">
</pattern>
<rect x="0.5" y="0.5" class="st9" width="96.3" height="96.3"/>
</svg>
