<?xml version="1.0" encoding="utf-8"?>
<!-- Generator: Adobe Illustrator 26.0.1, SVG Export Plug-In . SVG Version: 6.00 Build 0)  -->
<svg version="1.1" id="Layer_1" xmlns="http://www.w3.org/2000/svg" xmlns:xlink="http://www.w3.org/1999/xlink" x="0px" y="0px"
	 viewBox="0 0 53.1 49" style="enable-background:new 0 0 53.1 49;" xml:space="preserve">
<style type="text/css">
	.st0{fill:none;stroke:#000000;stroke-width:0.5;stroke-miterlimit:10;}
	.st1{fill:none;stroke:#000000;stroke-miterlimit:10;}
	.st2{fill:none;stroke:#858589;stroke-width:0.25;stroke-miterlimit:10;}
	.st3{fill:none;stroke:#E2DEDE;stroke-width:0.25;stroke-miterlimit:10;}
	.st4{fill:#FA9A63;}
	.st5{fill:#FADC63;}
	.st6{fill:none;stroke:#000000;stroke-width:2;stroke-miterlimit:10;}
	.st7{fill:url(#);stroke:#000000;stroke-miterlimit:10;}
	.st8{fill:none;stroke:#FFFFFF;stroke-width:2;stroke-miterlimit:10;}
	.st9{fill:#FFFFFF;}
	.st10{fill:none;stroke:#FFFFFF;stroke-width:0.5;stroke-miterlimit:10;}
	.st11{fill:none;stroke:#FFFFFF;stroke-miterlimit:10;}
</style>
<g>
	<g>
		<path class="st6" d="M39.1,23.2c0.6-1.5,0.9-3.2,0.9-4.9C40,10.7,33.9,1,26.3,1c-7.6,0-13.7,9.7-13.7,17.3c0,1.7,0.3,3.4,0.9,4.9
			c-5.4,2.5-8.9,6.5-8.9,11.1c0,7.6,9.7,13.7,21.7,13.7c12,0,21.7-6.1,21.7-13.7C48,29.7,44.5,25.7,39.1,23.2z"/>
		<path d="M20.2,48c0-3.4,2.7-6.1,6.1-6.1s6.1,2.7,6.1,6.1"/>
		<path class="st0" d="M37.2,15.8c0,1.5-2,2.7-4.5,2.7s-4.5-1.2-4.5-2.7"/>
		<path d="M28.6,13.6c0-2.5,2-4.5,4.5-4.5s4.5,2,4.5,4.5"/>
		<path class="st1" d="M26.8,14c0-3.4,2.7-6.1,6.1-6.1S39,10.6,39,14"/>
		<circle cx="33.1" cy="15.2" r="2.3"/>
		<path class="st0" d="M24,15.8c0,1.5-2,2.7-4.5,2.7S15,17.3,15,15.8"/>
		<path d="M15.4,13.6c0-2.5,2-4.5,4.5-4.5s4.5,2,4.5,4.5"/>
		<path class="st1" d="M13.6,14c0-3.4,2.7-6.1,6.1-6.1s6.1,2.7,6.1,6.1"/>
		<circle cx="19.8" cy="15.2" r="2.3"/>
		<path d="M52.9,16.6c-1,1.4-10.7-6-16.5-10s-5.5-3.3-4.5-4.6s6.6-0.6,12.4,3.4S53.9,15.2,52.9,16.6z"/>
		<path d="M0.2,16.6c1,1.4,10.7-6,16.5-10s5.5-3.3,4.5-4.6S14.6,1.3,8.7,5.4S-0.8,15.2,0.2,16.6z"/>
	</g>
</g>
</svg>
