<?xml version="1.0" encoding="utf-8"?>
<!-- Generator: Adobe Illustrator 26.0.1, SVG Export Plug-In . SVG Version: 6.00 Build 0)  -->
<svg version="1.1" id="Layer_1" xmlns="http://www.w3.org/2000/svg" xmlns:xlink="http://www.w3.org/1999/xlink" x="0px" y="0px"
	 viewBox="0 0 246.4 87.2" style="enable-background:new 0 0 246.4 87.2;" xml:space="preserve">
<style type="text/css">
	.st0{clip-path:url(#SVGID_00000181801637775220320240000015069087172653706681_);}
</style>
<g id="Group_270" transform="translate(0 0)">
	<g>
		<defs>
			<rect id="SVGID_1_" y="0.2" width="246.2" height="87"/>
		</defs>
		<clipPath id="SVGID_00000109031867261619073010000005555070123091327665_">
			<use xlink:href="#SVGID_1_"  style="overflow:visible;"/>
		</clipPath>
		
			<g id="Group_183" transform="translate(0 0)" style="clip-path:url(#SVGID_00000109031867261619073010000005555070123091327665_);">
			<g id="Path_317">
				<path d="M53.1,60.4v3.5H1.3v-3.5h43.5V40.9H1.3v-3.6h43c2.1-0.2,4,1.4,4.2,3.5c0,0.2,0,0.5,0,0.7v18.9H53.1z"/>
			</g>
			<g id="Path_318">
				<path d="M89.1,63.9h-3.6l10.3-23H54.4v-6.3h5.9v2.7h40.2L89.1,63.9z"/>
			</g>
			<g id="Path_319">
				<path d="M115.5,63.9h-3.6v-23h-5.2v-3.6h8.9V63.9z"/>
			</g>
			<g id="Path_320">
				<path d="M221.2,63.9h-3.6v-23h-43.3v-3.6h47V63.9z M174.2,50.6h3.6v13.3h-3.6V50.6z"/>
			</g>
			<g id="Rectangle_51">
				<rect x="125.6" y="44" width="3.6" height="25.2"/>
			</g>
			<g id="Path_321">
				<path d="M121.7,37.3v3.6h41l-9.6,23h3.8l11.3-26.6H121.7z"/>
			</g>
			<g id="Rectangle_52">
				<rect x="210.8" y="17.9" width="3.6" height="9.5"/>
			</g>
			<g id="Path_322">
				<path d="M214.1,20.7C214.1,20.7,214.1,20.7,214.1,20.7l0-3c0,0,0,0,0,0c2.4,0,4.6-1.2,6-3.1c1.1-1.6,1.6-3.6,1.2-5.5
					c-0.3-1.9-1.4-3.6-3-4.8c-1.6-1.1-3.5-1.6-5.5-1.2c-1.9,0.3-3.6,1.4-4.8,3l-2.5-1.7c3.3-4.7,9.8-5.8,14.4-2.5
					c4.7,3.3,5.8,9.8,2.5,14.4C220.7,19.1,217.5,20.7,214.1,20.7z"/>
			</g>
			<g id="Path_323">
				<path d="M5.4,73.7c1.2-0.1,2.3,0.3,3.2,1.1c0.8,1,1.1,2.2,1,3.4v4.9h-1v-4.9c0.1-1-0.2-2-0.8-2.8c-0.7-0.6-1.6-1-2.5-0.9H1.3
					v-0.8H5.4z M1.4,83.1V78l1-0.2v5.2H1.4z M12,79.2v-5.5h1V79L12,79.2z M15.4,79.2v-5.5h1V79L15.4,79.2z M18.3,83.1v-0.8h3v-5.5
					c0-0.6-0.1-1.2-0.4-1.7c-0.3-0.4-0.8-0.6-1.3-0.5h-1v-0.8h1.2c0.7-0.1,1.3,0.2,1.8,0.7c0.4,0.6,0.6,1.4,0.6,2.1v6.6L18.3,83.1z
					 M34,73.7h1v4.4c0,0.9-0.2,1.9-0.6,2.7c-0.4,0.8-1,1.4-1.8,1.8c-1.7,0.9-3.7,0.9-5.5,0c-0.8-0.4-1.4-1-1.8-1.8
					c-0.4-0.8-0.7-1.8-0.6-2.7v-4.4h1v4.4c0,0.8,0.2,1.6,0.5,2.3c0.3,0.6,0.8,1.2,1.5,1.5c1.4,0.7,3,0.7,4.4,0
					c0.6-0.4,1.1-0.9,1.5-1.5c0.4-0.7,0.5-1.5,0.5-2.3L34,73.7z M29.3,73.7h1v5.5l-1,0.2V73.7z M41.5,73.7h8.8v0.8
					c-0.6,0-1.3,0.2-1.7,0.7c-0.4,0.6-0.7,1.3-0.6,2v5.9h-1v-5.8c-0.1-1.1,0.4-2.2,1.3-2.7h-6.9L41.5,73.7z M52.3,79.2v-5.5h1V79
					L52.3,79.2z M65,73.7c1.2-0.1,2.4,0.3,3.3,1c0.8,0.9,1.1,2,1,3.2v5.2h-8.7v-9.4H65z M61.5,82.3h6.8V78c0.1-0.9-0.2-1.9-0.8-2.6
					c-0.7-0.6-1.6-0.9-2.5-0.9h-3.4L61.5,82.3z M71.6,79.2v-5.5h1V79L71.6,79.2z M74.5,73.7h8.8v0.8c-0.6,0-1.3,0.2-1.7,0.7
					c-0.4,0.6-0.6,1.3-0.6,2v5.9h-1v-5.8c-0.1-1.1,0.4-2.2,1.3-2.7h-6.9L74.5,73.7z M86.2,73.7c0.6,0,1.3,0.2,1.7,0.6
					c0.4,0.5,0.6,1.1,0.6,1.7v7h-0.8l-0.1-2.3h0c-0.2,0.7-0.6,1.2-1.1,1.7c-0.5,0.4-1.2,0.7-1.9,0.7H84v-0.9h0.6
					c0.6,0,1.1-0.1,1.6-0.5c0.4-0.3,0.8-0.7,1-1.2c0.2-0.5,0.3-1,0.4-1.5v-2.8c0-0.5-0.1-0.9-0.4-1.3c-0.3-0.3-0.7-0.5-1.2-0.4h-1.1
					v-0.8L86.2,73.7z M98.5,82.3h1.5v0.8h-9.3v-0.8h6.8V78c0.1-0.9-0.2-1.9-0.8-2.6c-0.6-0.7-1.5-1-2.4-1c-0.6,0-1.2,0.1-1.7,0.2
					c-0.6,0.2-1.2,0.4-1.7,0.7l-0.3-0.7c1.2-0.7,2.5-1.1,3.9-1.1c1.1-0.1,2.3,0.3,3,1.2c0.7,0.9,1,2.1,1,3.2L98.5,82.3z M101.2,72.1
					v1.6h6.8v0.1l-3.7,9.3h-1v0l3.5-8.5h-6.5v-2.4L101.2,72.1z M119.7,73.7c1.2-0.1,2.3,0.3,3.1,1.1c0.7,1,1.1,2.2,1,3.4v4.9h-1
					v-4.9c0.1-1-0.2-1.9-0.8-2.7c-0.6-0.6-1.5-1-2.4-0.9h-2.8v6.6c0,0.6-0.1,1.1-0.5,1.6c-0.3,0.4-0.8,0.6-1.3,0.5
					c-0.3,0-0.5,0-0.8-0.1c-0.3,0-0.5-0.1-0.8-0.2l0.2-0.8c0.4,0.1,0.7,0.2,1.1,0.2c0.3,0,0.7-0.1,0.9-0.4c0.2-0.3,0.3-0.8,0.3-1.2
					v-6.3h-1.4v-0.8L119.7,73.7z M126.1,79.2v-5.5h1V79L126.1,79.2z M130.5,73.7c0.6,0,1.3,0.2,1.7,0.6c0.4,0.5,0.6,1.1,0.6,1.7v7
					h-0.8l-0.1-2.3h0c-0.2,0.7-0.6,1.2-1.1,1.7c-0.5,0.4-1.2,0.7-1.9,0.7h-0.6v-0.9h0.6c0.6,0,1.1-0.1,1.6-0.5
					c0.4-0.3,0.8-0.7,1-1.2c0.2-0.5,0.3-1,0.4-1.5v-2.8c0-0.5-0.1-0.9-0.4-1.3c-0.3-0.3-0.7-0.5-1.2-0.4h-1.1v-0.8L130.5,73.7z
					 M135.5,73.7h1v9.4h-1V73.7z M139.6,72.1v1.6h6.8v0.1l-3.7,9.3h-1v0l3.5-8.5h-6.5v-2.4L139.6,72.1z M148.3,73.7h1v9.4h-1V73.7z
					 M152,73.7h8.5v5.5c0.1,1.1-0.2,2.2-0.8,3.1c-0.6,0.7-1.5,1-2.4,0.9c-0.7,0-1.3-0.1-1.9-0.3l0.1-0.8c0.5,0.2,1.1,0.3,1.7,0.3
					c0.7,0.1,1.4-0.2,1.8-0.8c0.4-0.8,0.6-1.6,0.6-2.5v-4.6H152L152,73.7z M152.1,77.8l0.9-0.1V86h-0.9V77.8z M171.6,83L171.6,83
					l-1.1,0l-4.7-5.7c-0.7,0.4-1.3,1-1.6,1.7c-0.4,1.1-0.6,2.3-0.5,3.5v0.5h-1v-0.5c-0.1-1.3,0.1-2.6,0.6-3.8
					c0.4-0.9,1.1-1.5,1.9-1.9l-2.5-3v-0.1h1.1l4.7,5.7c0.7-0.4,1.3-1,1.6-1.7c0.4-1.1,0.6-2.3,0.5-3.5v-0.5h1v0.5
					c0.1,1.3-0.1,2.6-0.6,3.8c-0.4,0.8-1.1,1.5-1.9,1.9L171.6,83z M182.7,73.7c1.2-0.1,2.3,0.3,3.2,1.1c0.8,1,1.1,2.2,1,3.4v4.9h-1
					v-4.9c0.1-1-0.2-2-0.8-2.8c-0.7-0.6-1.6-1-2.5-0.9h-4.1v-0.8L182.7,73.7z M178.8,83.1V78l1-0.2v5.2L178.8,83.1z M189.3,72.1v1.6
					h6.8v0.1l-3.7,9.3h-1v0l3.5-8.5h-6.5v-2.4H189.3z M197.9,79.2v-5.5h1V79L197.9,79.2z M205.5,73.7c1.2-0.1,2.3,0.3,3.2,1.1
					c0.8,1,1.1,2.2,1,3.4v4.9h-1v-4.9c0.1-1-0.2-2-0.8-2.8c-0.7-0.6-1.6-1-2.5-0.9h-4.1v-0.8L205.5,73.7z M201.5,83.1V78l1-0.2v5.2
					L201.5,83.1z M212.4,73.7h8.5v5.5c0.1,1.1-0.2,2.2-0.8,3.1c-0.6,0.7-1.5,1-2.4,0.9c-0.7,0-1.3-0.1-1.9-0.3l0.1-0.8
					c0.5,0.2,1.1,0.3,1.7,0.3c0.7,0.1,1.4-0.2,1.8-0.8c0.4-0.8,0.6-1.6,0.6-2.5v-4.6h-7.5L212.4,73.7z M212.5,77.8l0.9-0.1V86h-0.9
					V77.8z"/>
			</g>
			<g id="Path_324">
				<path d="M223.6,71.4v-3c10.9,0,19.8-8.9,19.8-19.8c0-11-7.2-19.1-17.4-19.7L1.3,28.8l0-3l224.7,0.1c12,0.7,20.3,10,20.3,22.7
					C246.4,61.2,236.1,71.4,223.6,71.4z"/>
			</g>
		</g>
	</g>
</g>
</svg>
